ISO-10303-21;
HEADER;
/* Generated by software containing ST-Developer
 * from STEP Tools, Inc. (www.steptools.com) 
 */

FILE_DESCRIPTION(
/* description */ (''),
/* implementation_level */ '2;1');

FILE_NAME(
/* name */ 'rear_fan_bar.step',
/* time_stamp */ '2026-08-22T19:03:57-05:00',
/* author */ (''),
/* organization */ (''),
/* preprocessor_version */ 'ST-DEVELOPER v20.1',
/* originating_system */ 'Autodesk Translation Framework v15.8.0.0',
/* authorisation */ '');

FILE_SCHEMA (('AUTOMOTIVE_DESIGN { 1 0 10303 214 3 1 1 }'));
ENDSEC;

DATA;
#10=MECHANICAL_DESIGN_GEOMETRIC_PRESENTATION_REPRESENTATION('',(#13),#1563);
#11=SHAPE_REPRESENTATION_RELATIONSHIP('SRR','None',#1570,#12);
#12=ADVANCED_BREP_SHAPE_REPRESENTATION('',(#14),#1562);
#13=STYLED_ITEM('',(#1579),#14);
#14=MANIFOLD_SOLID_BREP('Rear Fan Bar',#927);
#15=FACE_BOUND('',#133,.T.);
#16=FACE_BOUND('',#136,.T.);
#17=FACE_BOUND('',#139,.T.);
#18=FACE_BOUND('',#142,.T.);
#19=FACE_BOUND('',#148,.T.);
#20=FACE_BOUND('',#149,.T.);
#21=FACE_BOUND('',#150,.T.);
#22=FACE_BOUND('',#151,.T.);
#23=FACE_BOUND('',#152,.T.);
#24=FACE_BOUND('',#153,.T.);
#25=FACE_BOUND('',#154,.T.);
#26=FACE_BOUND('',#155,.T.);
#27=FACE_BOUND('',#156,.T.);
#28=FACE_BOUND('',#157,.T.);
#29=FACE_BOUND('',#158,.T.);
#30=FACE_BOUND('',#159,.T.);
#31=FACE_BOUND('',#160,.T.);
#32=FACE_BOUND('',#161,.T.);
#33=FACE_BOUND('',#162,.T.);
#34=FACE_BOUND('',#163,.T.);
#35=FACE_BOUND('',#164,.T.);
#36=FACE_BOUND('',#165,.T.);
#37=FACE_BOUND('',#166,.T.);
#38=FACE_BOUND('',#167,.T.);
#39=FACE_BOUND('',#168,.T.);
#40=FACE_BOUND('',#169,.T.);
#41=FACE_BOUND('',#170,.T.);
#42=FACE_BOUND('',#171,.T.);
#43=FACE_BOUND('',#205,.T.);
#44=FACE_BOUND('',#206,.T.);
#45=FACE_BOUND('',#207,.T.);
#46=FACE_BOUND('',#208,.T.);
#47=FACE_BOUND('',#209,.T.);
#48=FACE_BOUND('',#210,.T.);
#49=FACE_BOUND('',#211,.T.);
#50=FACE_BOUND('',#212,.T.);
#51=FACE_BOUND('',#213,.T.);
#52=FACE_BOUND('',#214,.T.);
#53=FACE_BOUND('',#215,.T.);
#54=FACE_BOUND('',#216,.T.);
#55=FACE_BOUND('',#217,.T.);
#56=FACE_BOUND('',#218,.T.);
#57=FACE_BOUND('',#219,.T.);
#58=FACE_BOUND('',#220,.T.);
#59=FACE_BOUND('',#221,.T.);
#60=FACE_BOUND('',#222,.T.);
#61=FACE_BOUND('',#223,.T.);
#62=FACE_BOUND('',#224,.T.);
#63=FACE_BOUND('',#225,.T.);
#64=FACE_BOUND('',#226,.T.);
#65=FACE_BOUND('',#227,.T.);
#66=FACE_BOUND('',#228,.T.);
#67=PLANE('',#944);
#68=PLANE('',#949);
#69=PLANE('',#954);
#70=PLANE('',#959);
#71=PLANE('',#961);
#72=PLANE('',#962);
#73=PLANE('',#963);
#74=PLANE('',#964);
#75=PLANE('',#965);
#76=PLANE('',#990);
#77=PLANE('',#991);
#78=PLANE('',#992);
#79=PLANE('',#993);
#80=PLANE('',#1038);
#81=PLANE('',#1039);
#82=PLANE('',#1040);
#83=PLANE('',#1041);
#84=PLANE('',#1042);
#85=FACE_OUTER_BOUND('',#131,.T.);
#86=FACE_OUTER_BOUND('',#132,.T.);
#87=FACE_OUTER_BOUND('',#134,.T.);
#88=FACE_OUTER_BOUND('',#135,.T.);
#89=FACE_OUTER_BOUND('',#137,.T.);
#90=FACE_OUTER_BOUND('',#138,.T.);
#91=FACE_OUTER_BOUND('',#140,.T.);
#92=FACE_OUTER_BOUND('',#141,.T.);
#93=FACE_OUTER_BOUND('',#143,.T.);
#94=FACE_OUTER_BOUND('',#144,.T.);
#95=FACE_OUTER_BOUND('',#145,.T.);
#96=FACE_OUTER_BOUND('',#146,.T.);
#97=FACE_OUTER_BOUND('',#147,.T.);
#98=FACE_OUTER_BOUND('',#172,.T.);
#99=FACE_OUTER_BOUND('',#173,.T.);
#100=FACE_OUTER_BOUND('',#174,.T.);
#101=FACE_OUTER_BOUND('',#175,.T.);
#102=FACE_OUTER_BOUND('',#176,.T.);
#103=FACE_OUTER_BOUND('',#177,.T.);
#104=FACE_OUTER_BOUND('',#178,.T.);
#105=FACE_OUTER_BOUND('',#179,.T.);
#106=FACE_OUTER_BOUND('',#180,.T.);
#107=FACE_OUTER_BOUND('',#181,.T.);
#108=FACE_OUTER_BOUND('',#182,.T.);
#109=FACE_OUTER_BOUND('',#183,.T.);
#110=FACE_OUTER_BOUND('',#184,.T.);
#111=FACE_OUTER_BOUND('',#185,.T.);
#112=FACE_OUTER_BOUND('',#186,.T.);
#113=FACE_OUTER_BOUND('',#187,.T.);
#114=FACE_OUTER_BOUND('',#188,.T.);
#115=FACE_OUTER_BOUND('',#189,.T.);
#116=FACE_OUTER_BOUND('',#190,.T.);
#117=FACE_OUTER_BOUND('',#191,.T.);
#118=FACE_OUTER_BOUND('',#192,.T.);
#119=FACE_OUTER_BOUND('',#193,.T.);
#120=FACE_OUTER_BOUND('',#194,.T.);
#121=FACE_OUTER_BOUND('',#195,.T.);
#122=FACE_OUTER_BOUND('',#196,.T.);
#123=FACE_OUTER_BOUND('',#197,.T.);
#124=FACE_OUTER_BOUND('',#198,.T.);
#125=FACE_OUTER_BOUND('',#199,.T.);
#126=FACE_OUTER_BOUND('',#200,.T.);
#127=FACE_OUTER_BOUND('',#201,.T.);
#128=FACE_OUTER_BOUND('',#202,.T.);
#129=FACE_OUTER_BOUND('',#203,.T.);
#130=FACE_OUTER_BOUND('',#204,.T.);
#131=EDGE_LOOP('',(#613,#614,#615,#616));
#132=EDGE_LOOP('',(#617));
#133=EDGE_LOOP('',(#618));
#134=EDGE_LOOP('',(#619,#620,#621,#622));
#135=EDGE_LOOP('',(#623));
#136=EDGE_LOOP('',(#624));
#137=EDGE_LOOP('',(#625,#626,#627,#628));
#138=EDGE_LOOP('',(#629));
#139=EDGE_LOOP('',(#630));
#140=EDGE_LOOP('',(#631,#632,#633,#634));
#141=EDGE_LOOP('',(#635));
#142=EDGE_LOOP('',(#636));
#143=EDGE_LOOP('',(#637,#638,#639,#640));
#144=EDGE_LOOP('',(#641,#642,#643,#644));
#145=EDGE_LOOP('',(#645,#646,#647,#648));
#146=EDGE_LOOP('',(#649,#650,#651,#652));
#147=EDGE_LOOP('',(#653,#654,#655,#656,#657,#658,#659,#660,#661,#662,#663,
#664));
#148=EDGE_LOOP('',(#665));
#149=EDGE_LOOP('',(#666));
#150=EDGE_LOOP('',(#667));
#151=EDGE_LOOP('',(#668));
#152=EDGE_LOOP('',(#669));
#153=EDGE_LOOP('',(#670));
#154=EDGE_LOOP('',(#671));
#155=EDGE_LOOP('',(#672));
#156=EDGE_LOOP('',(#673));
#157=EDGE_LOOP('',(#674));
#158=EDGE_LOOP('',(#675));
#159=EDGE_LOOP('',(#676));
#160=EDGE_LOOP('',(#677));
#161=EDGE_LOOP('',(#678));
#162=EDGE_LOOP('',(#679));
#163=EDGE_LOOP('',(#680));
#164=EDGE_LOOP('',(#681));
#165=EDGE_LOOP('',(#682));
#166=EDGE_LOOP('',(#683));
#167=EDGE_LOOP('',(#684));
#168=EDGE_LOOP('',(#685));
#169=EDGE_LOOP('',(#686));
#170=EDGE_LOOP('',(#687));
#171=EDGE_LOOP('',(#688));
#172=EDGE_LOOP('',(#689,#690,#691,#692));
#173=EDGE_LOOP('',(#693,#694,#695,#696));
#174=EDGE_LOOP('',(#697,#698,#699,#700));
#175=EDGE_LOOP('',(#701,#702,#703,#704));
#176=EDGE_LOOP('',(#705,#706,#707,#708));
#177=EDGE_LOOP('',(#709,#710,#711,#712));
#178=EDGE_LOOP('',(#713,#714,#715,#716));
#179=EDGE_LOOP('',(#717,#718,#719,#720));
#180=EDGE_LOOP('',(#721,#722,#723,#724));
#181=EDGE_LOOP('',(#725,#726,#727,#728));
#182=EDGE_LOOP('',(#729,#730,#731,#732));
#183=EDGE_LOOP('',(#733,#734,#735,#736));
#184=EDGE_LOOP('',(#737,#738,#739,#740));
#185=EDGE_LOOP('',(#741,#742,#743,#744));
#186=EDGE_LOOP('',(#745,#746,#747,#748));
#187=EDGE_LOOP('',(#749,#750,#751,#752));
#188=EDGE_LOOP('',(#753,#754,#755,#756));
#189=EDGE_LOOP('',(#757,#758,#759,#760));
#190=EDGE_LOOP('',(#761,#762,#763,#764));
#191=EDGE_LOOP('',(#765,#766,#767,#768));
#192=EDGE_LOOP('',(#769,#770,#771,#772));
#193=EDGE_LOOP('',(#773,#774,#775,#776));
#194=EDGE_LOOP('',(#777,#778,#779,#780));
#195=EDGE_LOOP('',(#781,#782,#783,#784));
#196=EDGE_LOOP('',(#785,#786,#787,#788));
#197=EDGE_LOOP('',(#789,#790,#791,#792));
#198=EDGE_LOOP('',(#793,#794,#795,#796));
#199=EDGE_LOOP('',(#797,#798,#799,#800));
#200=EDGE_LOOP('',(#801,#802,#803,#804,#805,#806,#807,#808));
#201=EDGE_LOOP('',(#809,#810,#811,#812));
#202=EDGE_LOOP('',(#813,#814,#815,#816,#817,#818,#819,#820));
#203=EDGE_LOOP('',(#821,#822,#823,#824));
#204=EDGE_LOOP('',(#825,#826,#827,#828));
#205=EDGE_LOOP('',(#829));
#206=EDGE_LOOP('',(#830));
#207=EDGE_LOOP('',(#831));
#208=EDGE_LOOP('',(#832));
#209=EDGE_LOOP('',(#833));
#210=EDGE_LOOP('',(#834));
#211=EDGE_LOOP('',(#835));
#212=EDGE_LOOP('',(#836));
#213=EDGE_LOOP('',(#837));
#214=EDGE_LOOP('',(#838));
#215=EDGE_LOOP('',(#839));
#216=EDGE_LOOP('',(#840));
#217=EDGE_LOOP('',(#841));
#218=EDGE_LOOP('',(#842));
#219=EDGE_LOOP('',(#843));
#220=EDGE_LOOP('',(#844));
#221=EDGE_LOOP('',(#845));
#222=EDGE_LOOP('',(#846));
#223=EDGE_LOOP('',(#847));
#224=EDGE_LOOP('',(#848));
#225=EDGE_LOOP('',(#849));
#226=EDGE_LOOP('',(#850));
#227=EDGE_LOOP('',(#851));
#228=EDGE_LOOP('',(#852));
#229=LINE('',#1318,#293);
#230=LINE('',#1327,#294);
#231=LINE('',#1336,#295);
#232=LINE('',#1345,#296);
#233=LINE('',#1353,#297);
#234=LINE('',#1355,#298);
#235=LINE('',#1357,#299);
#236=LINE('',#1358,#300);
#237=LINE('',#1361,#301);
#238=LINE('',#1363,#302);
#239=LINE('',#1364,#303);
#240=LINE('',#1367,#304);
#241=LINE('',#1369,#305);
#242=LINE('',#1370,#306);
#243=LINE('',#1372,#307);
#244=LINE('',#1375,#308);
#245=LINE('',#1377,#309);
#246=LINE('',#1379,#310);
#247=LINE('',#1381,#311);
#248=LINE('',#1383,#312);
#249=LINE('',#1385,#313);
#250=LINE('',#1387,#314);
#251=LINE('',#1389,#315);
#252=LINE('',#1390,#316);
#253=LINE('',#1441,#317);
#254=LINE('',#1443,#318);
#255=LINE('',#1444,#319);
#256=LINE('',#1447,#320);
#257=LINE('',#1448,#321);
#258=LINE('',#1451,#322);
#259=LINE('',#1452,#323);
#260=LINE('',#1454,#324);
#261=LINE('',#1456,#325);
#262=LINE('',#1458,#326);
#263=LINE('',#1461,#327);
#264=LINE('',#1465,#328);
#265=LINE('',#1469,#329);
#266=LINE('',#1473,#330);
#267=LINE('',#1477,#331);
#268=LINE('',#1481,#332);
#269=LINE('',#1485,#333);
#270=LINE('',#1489,#334);
#271=LINE('',#1493,#335);
#272=LINE('',#1497,#336);
#273=LINE('',#1501,#337);
#274=LINE('',#1505,#338);
#275=LINE('',#1509,#339);
#276=LINE('',#1513,#340);
#277=LINE('',#1517,#341);
#278=LINE('',#1521,#342);
#279=LINE('',#1525,#343);
#280=LINE('',#1529,#344);
#281=LINE('',#1533,#345);
#282=LINE('',#1537,#346);
#283=LINE('',#1540,#347);
#284=LINE('',#1542,#348);
#285=LINE('',#1545,#349);
#286=LINE('',#1547,#350);
#287=LINE('',#1548,#351);
#288=LINE('',#1551,#352);
#289=LINE('',#1552,#353);
#290=LINE('',#1555,#354);
#291=LINE('',#1556,#355);
#292=LINE('',#1558,#356);
#293=VECTOR('',#1049,3.24999999999999);
#294=VECTOR('',#1060,3.24999999999999);
#295=VECTOR('',#1071,3.24999999999999);
#296=VECTOR('',#1082,3.24999999999999);
#297=VECTOR('',#1091,10.);
#298=VECTOR('',#1092,10.);
#299=VECTOR('',#1093,10.);
#300=VECTOR('',#1094,10.);
#301=VECTOR('',#1097,10.);
#302=VECTOR('',#1098,10.);
#303=VECTOR('',#1099,10.);
#304=VECTOR('',#1102,10.);
#305=VECTOR('',#1103,10.);
#306=VECTOR('',#1104,10.);
#307=VECTOR('',#1107,10.);
#308=VECTOR('',#1110,10.);
#309=VECTOR('',#1111,10.);
#310=VECTOR('',#1112,10.);
#311=VECTOR('',#1113,10.);
#312=VECTOR('',#1114,10.);
#313=VECTOR('',#1115,10.);
#314=VECTOR('',#1116,10.);
#315=VECTOR('',#1117,10.);
#316=VECTOR('',#1118,10.);
#317=VECTOR('',#1169,10.);
#318=VECTOR('',#1170,10.);
#319=VECTOR('',#1171,10.);
#320=VECTOR('',#1174,10.);
#321=VECTOR('',#1175,10.);
#322=VECTOR('',#1178,10.);
#323=VECTOR('',#1179,10.);
#324=VECTOR('',#1182,10.);
#325=VECTOR('',#1185,1.7);
#326=VECTOR('',#1188,1.7);
#327=VECTOR('',#1191,1.8);
#328=VECTOR('',#1196,1.8);
#329=VECTOR('',#1201,1.8);
#330=VECTOR('',#1206,1.8);
#331=VECTOR('',#1211,1.8);
#332=VECTOR('',#1216,1.8);
#333=VECTOR('',#1221,1.8);
#334=VECTOR('',#1226,19.5);
#335=VECTOR('',#1231,1.8);
#336=VECTOR('',#1236,1.8);
#337=VECTOR('',#1241,1.8);
#338=VECTOR('',#1246,1.8);
#339=VECTOR('',#1251,1.8);
#340=VECTOR('',#1256,1.8);
#341=VECTOR('',#1261,19.5);
#342=VECTOR('',#1266,19.5);
#343=VECTOR('',#1271,1.8);
#344=VECTOR('',#1276,19.5);
#345=VECTOR('',#1281,1.8);
#346=VECTOR('',#1286,1.8);
#347=VECTOR('',#1291,1.7);
#348=VECTOR('',#1294,1.7);
#349=VECTOR('',#1297,10.);
#350=VECTOR('',#1298,10.);
#351=VECTOR('',#1299,10.);
#352=VECTOR('',#1302,10.);
#353=VECTOR('',#1303,10.);
#354=VECTOR('',#1306,10.);
#355=VECTOR('',#1307,10.);
#356=VECTOR('',#1310,10.);
#357=CIRCLE('',#942,3.24999999999999);
#358=CIRCLE('',#943,3.24999999999999);
#359=CIRCLE('',#945,1.7);
#360=CIRCLE('',#947,3.24999999999999);
#361=CIRCLE('',#948,3.24999999999999);
#362=CIRCLE('',#950,1.7);
#363=CIRCLE('',#952,3.24999999999999);
#364=CIRCLE('',#953,3.24999999999999);
#365=CIRCLE('',#955,1.7);
#366=CIRCLE('',#957,3.24999999999999);
#367=CIRCLE('',#958,3.24999999999999);
#368=CIRCLE('',#960,1.7);
#369=CIRCLE('',#966,1.7);
#370=CIRCLE('',#967,1.7);
#371=CIRCLE('',#968,1.8);
#372=CIRCLE('',#969,1.8);
#373=CIRCLE('',#970,19.5);
#374=CIRCLE('',#971,1.8);
#375=CIRCLE('',#972,19.5);
#376=CIRCLE('',#973,19.5);
#377=CIRCLE('',#974,1.8);
#378=CIRCLE('',#975,1.8);
#379=CIRCLE('',#976,1.8);
#380=CIRCLE('',#977,1.8);
#381=CIRCLE('',#978,1.8);
#382=CIRCLE('',#979,1.8);
#383=CIRCLE('',#980,19.5);
#384=CIRCLE('',#981,1.8);
#385=CIRCLE('',#982,1.8);
#386=CIRCLE('',#983,1.8);
#387=CIRCLE('',#984,1.8);
#388=CIRCLE('',#985,1.8);
#389=CIRCLE('',#986,1.8);
#390=CIRCLE('',#987,1.8);
#391=CIRCLE('',#988,1.7);
#392=CIRCLE('',#989,1.7);
#393=CIRCLE('',#997,1.8);
#394=CIRCLE('',#999,1.8);
#395=CIRCLE('',#1001,1.8);
#396=CIRCLE('',#1003,1.8);
#397=CIRCLE('',#1005,1.8);
#398=CIRCLE('',#1007,1.8);
#399=CIRCLE('',#1009,1.8);
#400=CIRCLE('',#1011,19.5);
#401=CIRCLE('',#1013,1.8);
#402=CIRCLE('',#1015,1.8);
#403=CIRCLE('',#1017,1.8);
#404=CIRCLE('',#1019,1.8);
#405=CIRCLE('',#1021,1.8);
#406=CIRCLE('',#1023,1.8);
#407=CIRCLE('',#1025,19.5);
#408=CIRCLE('',#1027,19.5);
#409=CIRCLE('',#1029,1.8);
#410=CIRCLE('',#1031,19.5);
#411=CIRCLE('',#1033,1.8);
#412=CIRCLE('',#1035,1.8);
#413=VERTEX_POINT('',#1315);
#414=VERTEX_POINT('',#1317);
#415=VERTEX_POINT('',#1321);
#416=VERTEX_POINT('',#1324);
#417=VERTEX_POINT('',#1326);
#418=VERTEX_POINT('',#1330);
#419=VERTEX_POINT('',#1333);
#420=VERTEX_POINT('',#1335);
#421=VERTEX_POINT('',#1339);
#422=VERTEX_POINT('',#1342);
#423=VERTEX_POINT('',#1344);
#424=VERTEX_POINT('',#1348);
#425=VERTEX_POINT('',#1351);
#426=VERTEX_POINT('',#1352);
#427=VERTEX_POINT('',#1354);
#428=VERTEX_POINT('',#1356);
#429=VERTEX_POINT('',#1360);
#430=VERTEX_POINT('',#1362);
#431=VERTEX_POINT('',#1366);
#432=VERTEX_POINT('',#1368);
#433=VERTEX_POINT('',#1374);
#434=VERTEX_POINT('',#1376);
#435=VERTEX_POINT('',#1378);
#436=VERTEX_POINT('',#1380);
#437=VERTEX_POINT('',#1382);
#438=VERTEX_POINT('',#1384);
#439=VERTEX_POINT('',#1386);
#440=VERTEX_POINT('',#1388);
#441=VERTEX_POINT('',#1391);
#442=VERTEX_POINT('',#1393);
#443=VERTEX_POINT('',#1395);
#444=VERTEX_POINT('',#1397);
#445=VERTEX_POINT('',#1399);
#446=VERTEX_POINT('',#1401);
#447=VERTEX_POINT('',#1403);
#448=VERTEX_POINT('',#1405);
#449=VERTEX_POINT('',#1407);
#450=VERTEX_POINT('',#1409);
#451=VERTEX_POINT('',#1411);
#452=VERTEX_POINT('',#1413);
#453=VERTEX_POINT('',#1415);
#454=VERTEX_POINT('',#1417);
#455=VERTEX_POINT('',#1419);
#456=VERTEX_POINT('',#1421);
#457=VERTEX_POINT('',#1423);
#458=VERTEX_POINT('',#1425);
#459=VERTEX_POINT('',#1427);
#460=VERTEX_POINT('',#1429);
#461=VERTEX_POINT('',#1431);
#462=VERTEX_POINT('',#1433);
#463=VERTEX_POINT('',#1435);
#464=VERTEX_POINT('',#1437);
#465=VERTEX_POINT('',#1440);
#466=VERTEX_POINT('',#1442);
#467=VERTEX_POINT('',#1446);
#468=VERTEX_POINT('',#1450);
#469=VERTEX_POINT('',#1460);
#470=VERTEX_POINT('',#1464);
#471=VERTEX_POINT('',#1468);
#472=VERTEX_POINT('',#1472);
#473=VERTEX_POINT('',#1476);
#474=VERTEX_POINT('',#1480);
#475=VERTEX_POINT('',#1484);
#476=VERTEX_POINT('',#1488);
#477=VERTEX_POINT('',#1492);
#478=VERTEX_POINT('',#1496);
#479=VERTEX_POINT('',#1500);
#480=VERTEX_POINT('',#1504);
#481=VERTEX_POINT('',#1508);
#482=VERTEX_POINT('',#1512);
#483=VERTEX_POINT('',#1516);
#484=VERTEX_POINT('',#1520);
#485=VERTEX_POINT('',#1524);
#486=VERTEX_POINT('',#1528);
#487=VERTEX_POINT('',#1532);
#488=VERTEX_POINT('',#1536);
#489=VERTEX_POINT('',#1544);
#490=VERTEX_POINT('',#1546);
#491=VERTEX_POINT('',#1550);
#492=VERTEX_POINT('',#1554);
#493=EDGE_CURVE('',#413,#413,#357,.T.);
#494=EDGE_CURVE('',#413,#414,#229,.T.);
#495=EDGE_CURVE('',#414,#414,#358,.T.);
#496=EDGE_CURVE('',#415,#415,#359,.T.);
#497=EDGE_CURVE('',#416,#416,#360,.T.);
#498=EDGE_CURVE('',#416,#417,#230,.T.);
#499=EDGE_CURVE('',#417,#417,#361,.T.);
#500=EDGE_CURVE('',#418,#418,#362,.T.);
#501=EDGE_CURVE('',#419,#419,#363,.T.);
#502=EDGE_CURVE('',#419,#420,#231,.T.);
#503=EDGE_CURVE('',#420,#420,#364,.T.);
#504=EDGE_CURVE('',#421,#421,#365,.T.);
#505=EDGE_CURVE('',#422,#422,#366,.T.);
#506=EDGE_CURVE('',#422,#423,#232,.T.);
#507=EDGE_CURVE('',#423,#423,#367,.T.);
#508=EDGE_CURVE('',#424,#424,#368,.T.);
#509=EDGE_CURVE('',#425,#426,#233,.T.);
#510=EDGE_CURVE('',#425,#427,#234,.T.);
#511=EDGE_CURVE('',#428,#427,#235,.T.);
#512=EDGE_CURVE('',#426,#428,#236,.T.);
#513=EDGE_CURVE('',#426,#429,#237,.T.);
#514=EDGE_CURVE('',#430,#428,#238,.T.);
#515=EDGE_CURVE('',#429,#430,#239,.T.);
#516=EDGE_CURVE('',#429,#431,#240,.T.);
#517=EDGE_CURVE('',#432,#430,#241,.T.);
#518=EDGE_CURVE('',#431,#432,#242,.T.);
#519=EDGE_CURVE('',#427,#432,#243,.T.);
#520=EDGE_CURVE('',#433,#431,#244,.T.);
#521=EDGE_CURVE('',#434,#433,#245,.T.);
#522=EDGE_CURVE('',#435,#434,#246,.T.);
#523=EDGE_CURVE('',#435,#436,#247,.T.);
#524=EDGE_CURVE('',#436,#437,#248,.T.);
#525=EDGE_CURVE('',#437,#438,#249,.T.);
#526=EDGE_CURVE('',#439,#438,#250,.T.);
#527=EDGE_CURVE('',#440,#439,#251,.T.);
#528=EDGE_CURVE('',#425,#440,#252,.T.);
#529=EDGE_CURVE('',#441,#441,#369,.T.);
#530=EDGE_CURVE('',#442,#442,#370,.T.);
#531=EDGE_CURVE('',#443,#443,#371,.T.);
#532=EDGE_CURVE('',#444,#444,#372,.T.);
#533=EDGE_CURVE('',#445,#445,#373,.T.);
#534=EDGE_CURVE('',#446,#446,#374,.T.);
#535=EDGE_CURVE('',#447,#447,#375,.T.);
#536=EDGE_CURVE('',#448,#448,#376,.T.);
#537=EDGE_CURVE('',#449,#449,#377,.T.);
#538=EDGE_CURVE('',#450,#450,#378,.T.);
#539=EDGE_CURVE('',#451,#451,#379,.T.);
#540=EDGE_CURVE('',#452,#452,#380,.T.);
#541=EDGE_CURVE('',#453,#453,#381,.T.);
#542=EDGE_CURVE('',#454,#454,#382,.T.);
#543=EDGE_CURVE('',#455,#455,#383,.T.);
#544=EDGE_CURVE('',#456,#456,#384,.T.);
#545=EDGE_CURVE('',#457,#457,#385,.T.);
#546=EDGE_CURVE('',#458,#458,#386,.T.);
#547=EDGE_CURVE('',#459,#459,#387,.T.);
#548=EDGE_CURVE('',#460,#460,#388,.T.);
#549=EDGE_CURVE('',#461,#461,#389,.T.);
#550=EDGE_CURVE('',#462,#462,#390,.T.);
#551=EDGE_CURVE('',#463,#463,#391,.T.);
#552=EDGE_CURVE('',#464,#464,#392,.T.);
#553=EDGE_CURVE('',#436,#465,#253,.T.);
#554=EDGE_CURVE('',#466,#465,#254,.T.);
#555=EDGE_CURVE('',#437,#466,#255,.T.);
#556=EDGE_CURVE('',#467,#466,#256,.T.);
#557=EDGE_CURVE('',#438,#467,#257,.T.);
#558=EDGE_CURVE('',#435,#468,#258,.T.);
#559=EDGE_CURVE('',#465,#468,#259,.T.);
#560=EDGE_CURVE('',#468,#467,#260,.T.);
#561=EDGE_CURVE('',#464,#415,#261,.T.);
#562=EDGE_CURVE('',#463,#421,#262,.T.);
#563=EDGE_CURVE('',#462,#469,#263,.T.);
#564=EDGE_CURVE('',#469,#469,#393,.T.);
#565=EDGE_CURVE('',#461,#470,#264,.T.);
#566=EDGE_CURVE('',#470,#470,#394,.T.);
#567=EDGE_CURVE('',#460,#471,#265,.T.);
#568=EDGE_CURVE('',#471,#471,#395,.T.);
#569=EDGE_CURVE('',#459,#472,#266,.T.);
#570=EDGE_CURVE('',#472,#472,#396,.T.);
#571=EDGE_CURVE('',#458,#473,#267,.T.);
#572=EDGE_CURVE('',#473,#473,#397,.T.);
#573=EDGE_CURVE('',#457,#474,#268,.T.);
#574=EDGE_CURVE('',#474,#474,#398,.T.);
#575=EDGE_CURVE('',#456,#475,#269,.T.);
#576=EDGE_CURVE('',#475,#475,#399,.T.);
#577=EDGE_CURVE('',#455,#476,#270,.T.);
#578=EDGE_CURVE('',#476,#476,#400,.T.);
#579=EDGE_CURVE('',#454,#477,#271,.T.);
#580=EDGE_CURVE('',#477,#477,#401,.T.);
#581=EDGE_CURVE('',#453,#478,#272,.T.);
#582=EDGE_CURVE('',#478,#478,#402,.T.);
#583=EDGE_CURVE('',#452,#479,#273,.T.);
#584=EDGE_CURVE('',#479,#479,#403,.T.);
#585=EDGE_CURVE('',#451,#480,#274,.T.);
#586=EDGE_CURVE('',#480,#480,#404,.T.);
#587=EDGE_CURVE('',#450,#481,#275,.T.);
#588=EDGE_CURVE('',#481,#481,#405,.T.);
#589=EDGE_CURVE('',#449,#482,#276,.T.);
#590=EDGE_CURVE('',#482,#482,#406,.T.);
#591=EDGE_CURVE('',#448,#483,#277,.T.);
#592=EDGE_CURVE('',#483,#483,#407,.T.);
#593=EDGE_CURVE('',#447,#484,#278,.T.);
#594=EDGE_CURVE('',#484,#484,#408,.T.);
#595=EDGE_CURVE('',#446,#485,#279,.T.);
#596=EDGE_CURVE('',#485,#485,#409,.T.);
#597=EDGE_CURVE('',#445,#486,#280,.T.);
#598=EDGE_CURVE('',#486,#486,#410,.T.);
#599=EDGE_CURVE('',#444,#487,#281,.T.);
#600=EDGE_CURVE('',#487,#487,#411,.T.);
#601=EDGE_CURVE('',#443,#488,#282,.T.);
#602=EDGE_CURVE('',#488,#488,#412,.T.);
#603=EDGE_CURVE('',#442,#418,#283,.T.);
#604=EDGE_CURVE('',#441,#424,#284,.T.);
#605=EDGE_CURVE('',#434,#489,#285,.T.);
#606=EDGE_CURVE('',#490,#489,#286,.T.);
#607=EDGE_CURVE('',#439,#490,#287,.T.);
#608=EDGE_CURVE('',#491,#490,#288,.T.);
#609=EDGE_CURVE('',#440,#491,#289,.T.);
#610=EDGE_CURVE('',#492,#491,#290,.T.);
#611=EDGE_CURVE('',#433,#492,#291,.T.);
#612=EDGE_CURVE('',#489,#492,#292,.T.);
#613=ORIENTED_EDGE('',*,*,#493,.F.);
#614=ORIENTED_EDGE('',*,*,#494,.T.);
#615=ORIENTED_EDGE('',*,*,#495,.T.);
#616=ORIENTED_EDGE('',*,*,#494,.F.);
#617=ORIENTED_EDGE('',*,*,#495,.F.);
#618=ORIENTED_EDGE('',*,*,#496,.F.);
#619=ORIENTED_EDGE('',*,*,#497,.F.);
#620=ORIENTED_EDGE('',*,*,#498,.T.);
#621=ORIENTED_EDGE('',*,*,#499,.T.);
#622=ORIENTED_EDGE('',*,*,#498,.F.);
#623=ORIENTED_EDGE('',*,*,#499,.F.);
#624=ORIENTED_EDGE('',*,*,#500,.F.);
#625=ORIENTED_EDGE('',*,*,#501,.F.);
#626=ORIENTED_EDGE('',*,*,#502,.T.);
#627=ORIENTED_EDGE('',*,*,#503,.T.);
#628=ORIENTED_EDGE('',*,*,#502,.F.);
#629=ORIENTED_EDGE('',*,*,#503,.F.);
#630=ORIENTED_EDGE('',*,*,#504,.F.);
#631=ORIENTED_EDGE('',*,*,#505,.F.);
#632=ORIENTED_EDGE('',*,*,#506,.T.);
#633=ORIENTED_EDGE('',*,*,#507,.T.);
#634=ORIENTED_EDGE('',*,*,#506,.F.);
#635=ORIENTED_EDGE('',*,*,#507,.F.);
#636=ORIENTED_EDGE('',*,*,#508,.F.);
#637=ORIENTED_EDGE('',*,*,#509,.F.);
#638=ORIENTED_EDGE('',*,*,#510,.T.);
#639=ORIENTED_EDGE('',*,*,#511,.F.);
#640=ORIENTED_EDGE('',*,*,#512,.F.);
#641=ORIENTED_EDGE('',*,*,#513,.F.);
#642=ORIENTED_EDGE('',*,*,#512,.T.);
#643=ORIENTED_EDGE('',*,*,#514,.F.);
#644=ORIENTED_EDGE('',*,*,#515,.F.);
#645=ORIENTED_EDGE('',*,*,#516,.F.);
#646=ORIENTED_EDGE('',*,*,#515,.T.);
#647=ORIENTED_EDGE('',*,*,#517,.F.);
#648=ORIENTED_EDGE('',*,*,#518,.F.);
#649=ORIENTED_EDGE('',*,*,#517,.T.);
#650=ORIENTED_EDGE('',*,*,#514,.T.);
#651=ORIENTED_EDGE('',*,*,#511,.T.);
#652=ORIENTED_EDGE('',*,*,#519,.T.);
#653=ORIENTED_EDGE('',*,*,#509,.T.);
#654=ORIENTED_EDGE('',*,*,#513,.T.);
#655=ORIENTED_EDGE('',*,*,#516,.T.);
#656=ORIENTED_EDGE('',*,*,#520,.F.);
#657=ORIENTED_EDGE('',*,*,#521,.F.);
#658=ORIENTED_EDGE('',*,*,#522,.F.);
#659=ORIENTED_EDGE('',*,*,#523,.T.);
#660=ORIENTED_EDGE('',*,*,#524,.T.);
#661=ORIENTED_EDGE('',*,*,#525,.T.);
#662=ORIENTED_EDGE('',*,*,#526,.F.);
#663=ORIENTED_EDGE('',*,*,#527,.F.);
#664=ORIENTED_EDGE('',*,*,#528,.F.);
#665=ORIENTED_EDGE('',*,*,#529,.T.);
#666=ORIENTED_EDGE('',*,*,#530,.T.);
#667=ORIENTED_EDGE('',*,*,#531,.T.);
#668=ORIENTED_EDGE('',*,*,#532,.T.);
#669=ORIENTED_EDGE('',*,*,#533,.T.);
#670=ORIENTED_EDGE('',*,*,#534,.T.);
#671=ORIENTED_EDGE('',*,*,#535,.T.);
#672=ORIENTED_EDGE('',*,*,#536,.T.);
#673=ORIENTED_EDGE('',*,*,#537,.T.);
#674=ORIENTED_EDGE('',*,*,#538,.T.);
#675=ORIENTED_EDGE('',*,*,#539,.T.);
#676=ORIENTED_EDGE('',*,*,#540,.T.);
#677=ORIENTED_EDGE('',*,*,#541,.T.);
#678=ORIENTED_EDGE('',*,*,#542,.T.);
#679=ORIENTED_EDGE('',*,*,#543,.T.);
#680=ORIENTED_EDGE('',*,*,#544,.T.);
#681=ORIENTED_EDGE('',*,*,#545,.T.);
#682=ORIENTED_EDGE('',*,*,#546,.T.);
#683=ORIENTED_EDGE('',*,*,#547,.T.);
#684=ORIENTED_EDGE('',*,*,#548,.T.);
#685=ORIENTED_EDGE('',*,*,#549,.T.);
#686=ORIENTED_EDGE('',*,*,#550,.T.);
#687=ORIENTED_EDGE('',*,*,#551,.T.);
#688=ORIENTED_EDGE('',*,*,#552,.T.);
#689=ORIENTED_EDGE('',*,*,#524,.F.);
#690=ORIENTED_EDGE('',*,*,#553,.T.);
#691=ORIENTED_EDGE('',*,*,#554,.F.);
#692=ORIENTED_EDGE('',*,*,#555,.F.);
#693=ORIENTED_EDGE('',*,*,#525,.F.);
#694=ORIENTED_EDGE('',*,*,#555,.T.);
#695=ORIENTED_EDGE('',*,*,#556,.F.);
#696=ORIENTED_EDGE('',*,*,#557,.F.);
#697=ORIENTED_EDGE('',*,*,#523,.F.);
#698=ORIENTED_EDGE('',*,*,#558,.T.);
#699=ORIENTED_EDGE('',*,*,#559,.F.);
#700=ORIENTED_EDGE('',*,*,#553,.F.);
#701=ORIENTED_EDGE('',*,*,#559,.T.);
#702=ORIENTED_EDGE('',*,*,#560,.T.);
#703=ORIENTED_EDGE('',*,*,#556,.T.);
#704=ORIENTED_EDGE('',*,*,#554,.T.);
#705=ORIENTED_EDGE('',*,*,#552,.F.);
#706=ORIENTED_EDGE('',*,*,#561,.T.);
#707=ORIENTED_EDGE('',*,*,#496,.T.);
#708=ORIENTED_EDGE('',*,*,#561,.F.);
#709=ORIENTED_EDGE('',*,*,#551,.F.);
#710=ORIENTED_EDGE('',*,*,#562,.T.);
#711=ORIENTED_EDGE('',*,*,#504,.T.);
#712=ORIENTED_EDGE('',*,*,#562,.F.);
#713=ORIENTED_EDGE('',*,*,#550,.F.);
#714=ORIENTED_EDGE('',*,*,#563,.T.);
#715=ORIENTED_EDGE('',*,*,#564,.F.);
#716=ORIENTED_EDGE('',*,*,#563,.F.);
#717=ORIENTED_EDGE('',*,*,#549,.F.);
#718=ORIENTED_EDGE('',*,*,#565,.T.);
#719=ORIENTED_EDGE('',*,*,#566,.F.);
#720=ORIENTED_EDGE('',*,*,#565,.F.);
#721=ORIENTED_EDGE('',*,*,#548,.F.);
#722=ORIENTED_EDGE('',*,*,#567,.T.);
#723=ORIENTED_EDGE('',*,*,#568,.F.);
#724=ORIENTED_EDGE('',*,*,#567,.F.);
#725=ORIENTED_EDGE('',*,*,#547,.F.);
#726=ORIENTED_EDGE('',*,*,#569,.T.);
#727=ORIENTED_EDGE('',*,*,#570,.F.);
#728=ORIENTED_EDGE('',*,*,#569,.F.);
#729=ORIENTED_EDGE('',*,*,#546,.F.);
#730=ORIENTED_EDGE('',*,*,#571,.T.);
#731=ORIENTED_EDGE('',*,*,#572,.F.);
#732=ORIENTED_EDGE('',*,*,#571,.F.);
#733=ORIENTED_EDGE('',*,*,#545,.F.);
#734=ORIENTED_EDGE('',*,*,#573,.T.);
#735=ORIENTED_EDGE('',*,*,#574,.F.);
#736=ORIENTED_EDGE('',*,*,#573,.F.);
#737=ORIENTED_EDGE('',*,*,#544,.F.);
#738=ORIENTED_EDGE('',*,*,#575,.T.);
#739=ORIENTED_EDGE('',*,*,#576,.F.);
#740=ORIENTED_EDGE('',*,*,#575,.F.);
#741=ORIENTED_EDGE('',*,*,#543,.F.);
#742=ORIENTED_EDGE('',*,*,#577,.T.);
#743=ORIENTED_EDGE('',*,*,#578,.F.);
#744=ORIENTED_EDGE('',*,*,#577,.F.);
#745=ORIENTED_EDGE('',*,*,#542,.F.);
#746=ORIENTED_EDGE('',*,*,#579,.T.);
#747=ORIENTED_EDGE('',*,*,#580,.F.);
#748=ORIENTED_EDGE('',*,*,#579,.F.);
#749=ORIENTED_EDGE('',*,*,#541,.F.);
#750=ORIENTED_EDGE('',*,*,#581,.T.);
#751=ORIENTED_EDGE('',*,*,#582,.F.);
#752=ORIENTED_EDGE('',*,*,#581,.F.);
#753=ORIENTED_EDGE('',*,*,#540,.F.);
#754=ORIENTED_EDGE('',*,*,#583,.T.);
#755=ORIENTED_EDGE('',*,*,#584,.F.);
#756=ORIENTED_EDGE('',*,*,#583,.F.);
#757=ORIENTED_EDGE('',*,*,#539,.F.);
#758=ORIENTED_EDGE('',*,*,#585,.T.);
#759=ORIENTED_EDGE('',*,*,#586,.F.);
#760=ORIENTED_EDGE('',*,*,#585,.F.);
#761=ORIENTED_EDGE('',*,*,#538,.F.);
#762=ORIENTED_EDGE('',*,*,#587,.T.);
#763=ORIENTED_EDGE('',*,*,#588,.F.);
#764=ORIENTED_EDGE('',*,*,#587,.F.);
#765=ORIENTED_EDGE('',*,*,#537,.F.);
#766=ORIENTED_EDGE('',*,*,#589,.T.);
#767=ORIENTED_EDGE('',*,*,#590,.F.);
#768=ORIENTED_EDGE('',*,*,#589,.F.);
#769=ORIENTED_EDGE('',*,*,#536,.F.);
#770=ORIENTED_EDGE('',*,*,#591,.T.);
#771=ORIENTED_EDGE('',*,*,#592,.F.);
#772=ORIENTED_EDGE('',*,*,#591,.F.);
#773=ORIENTED_EDGE('',*,*,#535,.F.);
#774=ORIENTED_EDGE('',*,*,#593,.T.);
#775=ORIENTED_EDGE('',*,*,#594,.F.);
#776=ORIENTED_EDGE('',*,*,#593,.F.);
#777=ORIENTED_EDGE('',*,*,#534,.F.);
#778=ORIENTED_EDGE('',*,*,#595,.T.);
#779=ORIENTED_EDGE('',*,*,#596,.F.);
#780=ORIENTED_EDGE('',*,*,#595,.F.);
#781=ORIENTED_EDGE('',*,*,#533,.F.);
#782=ORIENTED_EDGE('',*,*,#597,.T.);
#783=ORIENTED_EDGE('',*,*,#598,.F.);
#784=ORIENTED_EDGE('',*,*,#597,.F.);
#785=ORIENTED_EDGE('',*,*,#532,.F.);
#786=ORIENTED_EDGE('',*,*,#599,.T.);
#787=ORIENTED_EDGE('',*,*,#600,.F.);
#788=ORIENTED_EDGE('',*,*,#599,.F.);
#789=ORIENTED_EDGE('',*,*,#531,.F.);
#790=ORIENTED_EDGE('',*,*,#601,.T.);
#791=ORIENTED_EDGE('',*,*,#602,.F.);
#792=ORIENTED_EDGE('',*,*,#601,.F.);
#793=ORIENTED_EDGE('',*,*,#530,.F.);
#794=ORIENTED_EDGE('',*,*,#603,.T.);
#795=ORIENTED_EDGE('',*,*,#500,.T.);
#796=ORIENTED_EDGE('',*,*,#603,.F.);
#797=ORIENTED_EDGE('',*,*,#529,.F.);
#798=ORIENTED_EDGE('',*,*,#604,.T.);
#799=ORIENTED_EDGE('',*,*,#508,.T.);
#800=ORIENTED_EDGE('',*,*,#604,.F.);
#801=ORIENTED_EDGE('',*,*,#526,.T.);
#802=ORIENTED_EDGE('',*,*,#557,.T.);
#803=ORIENTED_EDGE('',*,*,#560,.F.);
#804=ORIENTED_EDGE('',*,*,#558,.F.);
#805=ORIENTED_EDGE('',*,*,#522,.T.);
#806=ORIENTED_EDGE('',*,*,#605,.T.);
#807=ORIENTED_EDGE('',*,*,#606,.F.);
#808=ORIENTED_EDGE('',*,*,#607,.F.);
#809=ORIENTED_EDGE('',*,*,#527,.T.);
#810=ORIENTED_EDGE('',*,*,#607,.T.);
#811=ORIENTED_EDGE('',*,*,#608,.F.);
#812=ORIENTED_EDGE('',*,*,#609,.F.);
#813=ORIENTED_EDGE('',*,*,#520,.T.);
#814=ORIENTED_EDGE('',*,*,#518,.T.);
#815=ORIENTED_EDGE('',*,*,#519,.F.);
#816=ORIENTED_EDGE('',*,*,#510,.F.);
#817=ORIENTED_EDGE('',*,*,#528,.T.);
#818=ORIENTED_EDGE('',*,*,#609,.T.);
#819=ORIENTED_EDGE('',*,*,#610,.F.);
#820=ORIENTED_EDGE('',*,*,#611,.F.);
#821=ORIENTED_EDGE('',*,*,#521,.T.);
#822=ORIENTED_EDGE('',*,*,#611,.T.);
#823=ORIENTED_EDGE('',*,*,#612,.F.);
#824=ORIENTED_EDGE('',*,*,#605,.F.);
#825=ORIENTED_EDGE('',*,*,#612,.T.);
#826=ORIENTED_EDGE('',*,*,#610,.T.);
#827=ORIENTED_EDGE('',*,*,#608,.T.);
#828=ORIENTED_EDGE('',*,*,#606,.T.);
#829=ORIENTED_EDGE('',*,*,#564,.T.);
#830=ORIENTED_EDGE('',*,*,#566,.T.);
#831=ORIENTED_EDGE('',*,*,#568,.T.);
#832=ORIENTED_EDGE('',*,*,#570,.T.);
#833=ORIENTED_EDGE('',*,*,#572,.T.);
#834=ORIENTED_EDGE('',*,*,#574,.T.);
#835=ORIENTED_EDGE('',*,*,#576,.T.);
#836=ORIENTED_EDGE('',*,*,#578,.T.);
#837=ORIENTED_EDGE('',*,*,#580,.T.);
#838=ORIENTED_EDGE('',*,*,#582,.T.);
#839=ORIENTED_EDGE('',*,*,#584,.T.);
#840=ORIENTED_EDGE('',*,*,#586,.T.);
#841=ORIENTED_EDGE('',*,*,#588,.T.);
#842=ORIENTED_EDGE('',*,*,#590,.T.);
#843=ORIENTED_EDGE('',*,*,#592,.T.);
#844=ORIENTED_EDGE('',*,*,#594,.T.);
#845=ORIENTED_EDGE('',*,*,#596,.T.);
#846=ORIENTED_EDGE('',*,*,#598,.T.);
#847=ORIENTED_EDGE('',*,*,#600,.T.);
#848=ORIENTED_EDGE('',*,*,#602,.T.);
#849=ORIENTED_EDGE('',*,*,#505,.T.);
#850=ORIENTED_EDGE('',*,*,#501,.T.);
#851=ORIENTED_EDGE('',*,*,#497,.T.);
#852=ORIENTED_EDGE('',*,*,#493,.T.);
#853=CYLINDRICAL_SURFACE('',#941,3.24999999999999);
#854=CYLINDRICAL_SURFACE('',#946,3.24999999999999);
#855=CYLINDRICAL_SURFACE('',#951,3.24999999999999);
#856=CYLINDRICAL_SURFACE('',#956,3.24999999999999);
#857=CYLINDRICAL_SURFACE('',#994,1.7);
#858=CYLINDRICAL_SURFACE('',#995,1.7);
#859=CYLINDRICAL_SURFACE('',#996,1.8);
#860=CYLINDRICAL_SURFACE('',#998,1.8);
#861=CYLINDRICAL_SURFACE('',#1000,1.8);
#862=CYLINDRICAL_SURFACE('',#1002,1.8);
#863=CYLINDRICAL_SURFACE('',#1004,1.8);
#864=CYLINDRICAL_SURFACE('',#1006,1.8);
#865=CYLINDRICAL_SURFACE('',#1008,1.8);
#866=CYLINDRICAL_SURFACE('',#1010,19.5);
#867=CYLINDRICAL_SURFACE('',#1012,1.8);
#868=CYLINDRICAL_SURFACE('',#1014,1.8);
#869=CYLINDRICAL_SURFACE('',#1016,1.8);
#870=CYLINDRICAL_SURFACE('',#1018,1.8);
#871=CYLINDRICAL_SURFACE('',#1020,1.8);
#872=CYLINDRICAL_SURFACE('',#1022,1.8);
#873=CYLINDRICAL_SURFACE('',#1024,19.5);
#874=CYLINDRICAL_SURFACE('',#1026,19.5);
#875=CYLINDRICAL_SURFACE('',#1028,1.8);
#876=CYLINDRICAL_SURFACE('',#1030,19.5);
#877=CYLINDRICAL_SURFACE('',#1032,1.8);
#878=CYLINDRICAL_SURFACE('',#1034,1.8);
#879=CYLINDRICAL_SURFACE('',#1036,1.7);
#880=CYLINDRICAL_SURFACE('',#1037,1.7);
#881=ADVANCED_FACE('',(#85),#853,.F.);
#882=ADVANCED_FACE('',(#86,#15),#67,.T.);
#883=ADVANCED_FACE('',(#87),#854,.F.);
#884=ADVANCED_FACE('',(#88,#16),#68,.T.);
#885=ADVANCED_FACE('',(#89),#855,.F.);
#886=ADVANCED_FACE('',(#90,#17),#69,.T.);
#887=ADVANCED_FACE('',(#91),#856,.F.);
#888=ADVANCED_FACE('',(#92,#18),#70,.T.);
#889=ADVANCED_FACE('',(#93),#71,.T.);
#890=ADVANCED_FACE('',(#94),#72,.T.);
#891=ADVANCED_FACE('',(#95),#73,.T.);
#892=ADVANCED_FACE('',(#96),#74,.T.);
#893=ADVANCED_FACE('',(#97,#19,#20,#21,#22,#23,#24,#25,#26,#27,#28,#29,
#30,#31,#32,#33,#34,#35,#36,#37,#38,#39,#40,#41,#42),#75,.F.);
#894=ADVANCED_FACE('',(#98),#76,.T.);
#895=ADVANCED_FACE('',(#99),#77,.T.);
#896=ADVANCED_FACE('',(#100),#78,.T.);
#897=ADVANCED_FACE('',(#101),#79,.T.);
#898=ADVANCED_FACE('',(#102),#857,.F.);
#899=ADVANCED_FACE('',(#103),#858,.F.);
#900=ADVANCED_FACE('',(#104),#859,.F.);
#901=ADVANCED_FACE('',(#105),#860,.F.);
#902=ADVANCED_FACE('',(#106),#861,.F.);
#903=ADVANCED_FACE('',(#107),#862,.F.);
#904=ADVANCED_FACE('',(#108),#863,.F.);
#905=ADVANCED_FACE('',(#109),#864,.F.);
#906=ADVANCED_FACE('',(#110),#865,.F.);
#907=ADVANCED_FACE('',(#111),#866,.F.);
#908=ADVANCED_FACE('',(#112),#867,.F.);
#909=ADVANCED_FACE('',(#113),#868,.F.);
#910=ADVANCED_FACE('',(#114),#869,.F.);
#911=ADVANCED_FACE('',(#115),#870,.F.);
#912=ADVANCED_FACE('',(#116),#871,.F.);
#913=ADVANCED_FACE('',(#117),#872,.F.);
#914=ADVANCED_FACE('',(#118),#873,.F.);
#915=ADVANCED_FACE('',(#119),#874,.F.);
#916=ADVANCED_FACE('',(#120),#875,.F.);
#917=ADVANCED_FACE('',(#121),#876,.F.);
#918=ADVANCED_FACE('',(#122),#877,.F.);
#919=ADVANCED_FACE('',(#123),#878,.F.);
#920=ADVANCED_FACE('',(#124),#879,.F.);
#921=ADVANCED_FACE('',(#125),#880,.F.);
#922=ADVANCED_FACE('',(#126),#80,.T.);
#923=ADVANCED_FACE('',(#127),#81,.T.);
#924=ADVANCED_FACE('',(#128),#82,.T.);
#925=ADVANCED_FACE('',(#129),#83,.T.);
#926=ADVANCED_FACE('',(#130,#43,#44,#45,#46,#47,#48,#49,#50,#51,#52,#53,
#54,#55,#56,#57,#58,#59,#60,#61,#62,#63,#64,#65,#66),#84,.T.);
#927=CLOSED_SHELL('',(#881,#882,#883,#884,#885,#886,#887,#888,#889,#890,
#891,#892,#893,#894,#895,#896,#897,#898,#899,#900,#901,#902,#903,#904,#905,
#906,#907,#908,#909,#910,#911,#912,#913,#914,#915,#916,#917,#918,#919,#920,
#921,#922,#923,#924,#925,#926));
#928=DERIVED_UNIT_ELEMENT(#930,1.);
#929=DERIVED_UNIT_ELEMENT(#1565,-3.);
#930=(
MASS_UNIT()
NAMED_UNIT(*)
SI_UNIT(.KILO.,.GRAM.)
);
#931=DERIVED_UNIT((#928,#929));
#932=MEASURE_REPRESENTATION_ITEM('density measure',
POSITIVE_RATIO_MEASURE(7850.),#931);
#933=PROPERTY_DEFINITION_REPRESENTATION(#938,#935);
#934=PROPERTY_DEFINITION_REPRESENTATION(#939,#936);
#935=REPRESENTATION('material name',(#937),#1562);
#936=REPRESENTATION('density',(#932),#1562);
#937=DESCRIPTIVE_REPRESENTATION_ITEM('Steel','Steel');
#938=PROPERTY_DEFINITION('material property','material name',#1572);
#939=PROPERTY_DEFINITION('material property','density of part',#1572);
#940=AXIS2_PLACEMENT_3D('',#1313,#1043,#1044);
#941=AXIS2_PLACEMENT_3D('',#1314,#1045,#1046);
#942=AXIS2_PLACEMENT_3D('',#1316,#1047,#1048);
#943=AXIS2_PLACEMENT_3D('',#1319,#1050,#1051);
#944=AXIS2_PLACEMENT_3D('',#1320,#1052,#1053);
#945=AXIS2_PLACEMENT_3D('',#1322,#1054,#1055);
#946=AXIS2_PLACEMENT_3D('',#1323,#1056,#1057);
#947=AXIS2_PLACEMENT_3D('',#1325,#1058,#1059);
#948=AXIS2_PLACEMENT_3D('',#1328,#1061,#1062);
#949=AXIS2_PLACEMENT_3D('',#1329,#1063,#1064);
#950=AXIS2_PLACEMENT_3D('',#1331,#1065,#1066);
#951=AXIS2_PLACEMENT_3D('',#1332,#1067,#1068);
#952=AXIS2_PLACEMENT_3D('',#1334,#1069,#1070);
#953=AXIS2_PLACEMENT_3D('',#1337,#1072,#1073);
#954=AXIS2_PLACEMENT_3D('',#1338,#1074,#1075);
#955=AXIS2_PLACEMENT_3D('',#1340,#1076,#1077);
#956=AXIS2_PLACEMENT_3D('',#1341,#1078,#1079);
#957=AXIS2_PLACEMENT_3D('',#1343,#1080,#1081);
#958=AXIS2_PLACEMENT_3D('',#1346,#1083,#1084);
#959=AXIS2_PLACEMENT_3D('',#1347,#1085,#1086);
#960=AXIS2_PLACEMENT_3D('',#1349,#1087,#1088);
#961=AXIS2_PLACEMENT_3D('',#1350,#1089,#1090);
#962=AXIS2_PLACEMENT_3D('',#1359,#1095,#1096);
#963=AXIS2_PLACEMENT_3D('',#1365,#1100,#1101);
#964=AXIS2_PLACEMENT_3D('',#1371,#1105,#1106);
#965=AXIS2_PLACEMENT_3D('',#1373,#1108,#1109);
#966=AXIS2_PLACEMENT_3D('',#1392,#1119,#1120);
#967=AXIS2_PLACEMENT_3D('',#1394,#1121,#1122);
#968=AXIS2_PLACEMENT_3D('',#1396,#1123,#1124);
#969=AXIS2_PLACEMENT_3D('',#1398,#1125,#1126);
#970=AXIS2_PLACEMENT_3D('',#1400,#1127,#1128);
#971=AXIS2_PLACEMENT_3D('',#1402,#1129,#1130);
#972=AXIS2_PLACEMENT_3D('',#1404,#1131,#1132);
#973=AXIS2_PLACEMENT_3D('',#1406,#1133,#1134);
#974=AXIS2_PLACEMENT_3D('',#1408,#1135,#1136);
#975=AXIS2_PLACEMENT_3D('',#1410,#1137,#1138);
#976=AXIS2_PLACEMENT_3D('',#1412,#1139,#1140);
#977=AXIS2_PLACEMENT_3D('',#1414,#1141,#1142);
#978=AXIS2_PLACEMENT_3D('',#1416,#1143,#1144);
#979=AXIS2_PLACEMENT_3D('',#1418,#1145,#1146);
#980=AXIS2_PLACEMENT_3D('',#1420,#1147,#1148);
#981=AXIS2_PLACEMENT_3D('',#1422,#1149,#1150);
#982=AXIS2_PLACEMENT_3D('',#1424,#1151,#1152);
#983=AXIS2_PLACEMENT_3D('',#1426,#1153,#1154);
#984=AXIS2_PLACEMENT_3D('',#1428,#1155,#1156);
#985=AXIS2_PLACEMENT_3D('',#1430,#1157,#1158);
#986=AXIS2_PLACEMENT_3D('',#1432,#1159,#1160);
#987=AXIS2_PLACEMENT_3D('',#1434,#1161,#1162);
#988=AXIS2_PLACEMENT_3D('',#1436,#1163,#1164);
#989=AXIS2_PLACEMENT_3D('',#1438,#1165,#1166);
#990=AXIS2_PLACEMENT_3D('',#1439,#1167,#1168);
#991=AXIS2_PLACEMENT_3D('',#1445,#1172,#1173);
#992=AXIS2_PLACEMENT_3D('',#1449,#1176,#1177);
#993=AXIS2_PLACEMENT_3D('',#1453,#1180,#1181);
#994=AXIS2_PLACEMENT_3D('',#1455,#1183,#1184);
#995=AXIS2_PLACEMENT_3D('',#1457,#1186,#1187);
#996=AXIS2_PLACEMENT_3D('',#1459,#1189,#1190);
#997=AXIS2_PLACEMENT_3D('',#1462,#1192,#1193);
#998=AXIS2_PLACEMENT_3D('',#1463,#1194,#1195);
#999=AXIS2_PLACEMENT_3D('',#1466,#1197,#1198);
#1000=AXIS2_PLACEMENT_3D('',#1467,#1199,#1200);
#1001=AXIS2_PLACEMENT_3D('',#1470,#1202,#1203);
#1002=AXIS2_PLACEMENT_3D('',#1471,#1204,#1205);
#1003=AXIS2_PLACEMENT_3D('',#1474,#1207,#1208);
#1004=AXIS2_PLACEMENT_3D('',#1475,#1209,#1210);
#1005=AXIS2_PLACEMENT_3D('',#1478,#1212,#1213);
#1006=AXIS2_PLACEMENT_3D('',#1479,#1214,#1215);
#1007=AXIS2_PLACEMENT_3D('',#1482,#1217,#1218);
#1008=AXIS2_PLACEMENT_3D('',#1483,#1219,#1220);
#1009=AXIS2_PLACEMENT_3D('',#1486,#1222,#1223);
#1010=AXIS2_PLACEMENT_3D('',#1487,#1224,#1225);
#1011=AXIS2_PLACEMENT_3D('',#1490,#1227,#1228);
#1012=AXIS2_PLACEMENT_3D('',#1491,#1229,#1230);
#1013=AXIS2_PLACEMENT_3D('',#1494,#1232,#1233);
#1014=AXIS2_PLACEMENT_3D('',#1495,#1234,#1235);
#1015=AXIS2_PLACEMENT_3D('',#1498,#1237,#1238);
#1016=AXIS2_PLACEMENT_3D('',#1499,#1239,#1240);
#1017=AXIS2_PLACEMENT_3D('',#1502,#1242,#1243);
#1018=AXIS2_PLACEMENT_3D('',#1503,#1244,#1245);
#1019=AXIS2_PLACEMENT_3D('',#1506,#1247,#1248);
#1020=AXIS2_PLACEMENT_3D('',#1507,#1249,#1250);
#1021=AXIS2_PLACEMENT_3D('',#1510,#1252,#1253);
#1022=AXIS2_PLACEMENT_3D('',#1511,#1254,#1255);
#1023=AXIS2_PLACEMENT_3D('',#1514,#1257,#1258);
#1024=AXIS2_PLACEMENT_3D('',#1515,#1259,#1260);
#1025=AXIS2_PLACEMENT_3D('',#1518,#1262,#1263);
#1026=AXIS2_PLACEMENT_3D('',#1519,#1264,#1265);
#1027=AXIS2_PLACEMENT_3D('',#1522,#1267,#1268);
#1028=AXIS2_PLACEMENT_3D('',#1523,#1269,#1270);
#1029=AXIS2_PLACEMENT_3D('',#1526,#1272,#1273);
#1030=AXIS2_PLACEMENT_3D('',#1527,#1274,#1275);
#1031=AXIS2_PLACEMENT_3D('',#1530,#1277,#1278);
#1032=AXIS2_PLACEMENT_3D('',#1531,#1279,#1280);
#1033=AXIS2_PLACEMENT_3D('',#1534,#1282,#1283);
#1034=AXIS2_PLACEMENT_3D('',#1535,#1284,#1285);
#1035=AXIS2_PLACEMENT_3D('',#1538,#1287,#1288);
#1036=AXIS2_PLACEMENT_3D('',#1539,#1289,#1290);
#1037=AXIS2_PLACEMENT_3D('',#1541,#1292,#1293);
#1038=AXIS2_PLACEMENT_3D('',#1543,#1295,#1296);
#1039=AXIS2_PLACEMENT_3D('',#1549,#1300,#1301);
#1040=AXIS2_PLACEMENT_3D('',#1553,#1304,#1305);
#1041=AXIS2_PLACEMENT_3D('',#1557,#1308,#1309);
#1042=AXIS2_PLACEMENT_3D('',#1559,#1311,#1312);
#1043=DIRECTION('axis',(0.,0.,1.));
#1044=DIRECTION('refdir',(1.,0.,0.));
#1045=DIRECTION('center_axis',(0.,0.,-1.));
#1046=DIRECTION('ref_axis',(1.,0.,0.));
#1047=DIRECTION('center_axis',(0.,0.,-1.));
#1048=DIRECTION('ref_axis',(1.,0.,0.));
#1049=DIRECTION('',(0.,0.,-1.));
#1050=DIRECTION('center_axis',(0.,0.,-1.));
#1051=DIRECTION('ref_axis',(1.,0.,0.));
#1052=DIRECTION('center_axis',(0.,0.,1.));
#1053=DIRECTION('ref_axis',(1.,0.,0.));
#1054=DIRECTION('center_axis',(0.,0.,1.));
#1055=DIRECTION('ref_axis',(1.,0.,0.));
#1056=DIRECTION('center_axis',(0.,0.,-1.));
#1057=DIRECTION('ref_axis',(1.,0.,0.));
#1058=DIRECTION('center_axis',(0.,0.,-1.));
#1059=DIRECTION('ref_axis',(1.,0.,0.));
#1060=DIRECTION('',(0.,0.,-1.));
#1061=DIRECTION('center_axis',(0.,0.,-1.));
#1062=DIRECTION('ref_axis',(1.,0.,0.));
#1063=DIRECTION('center_axis',(0.,0.,1.));
#1064=DIRECTION('ref_axis',(1.,0.,0.));
#1065=DIRECTION('center_axis',(0.,0.,1.));
#1066=DIRECTION('ref_axis',(1.,0.,0.));
#1067=DIRECTION('center_axis',(0.,0.,-1.));
#1068=DIRECTION('ref_axis',(1.,0.,0.));
#1069=DIRECTION('center_axis',(0.,0.,-1.));
#1070=DIRECTION('ref_axis',(1.,0.,0.));
#1071=DIRECTION('',(0.,0.,-1.));
#1072=DIRECTION('center_axis',(0.,0.,-1.));
#1073=DIRECTION('ref_axis',(1.,0.,0.));
#1074=DIRECTION('center_axis',(0.,0.,1.));
#1075=DIRECTION('ref_axis',(1.,0.,0.));
#1076=DIRECTION('center_axis',(0.,0.,1.));
#1077=DIRECTION('ref_axis',(1.,0.,0.));
#1078=DIRECTION('center_axis',(0.,0.,-1.));
#1079=DIRECTION('ref_axis',(1.,0.,0.));
#1080=DIRECTION('center_axis',(0.,0.,-1.));
#1081=DIRECTION('ref_axis',(1.,0.,0.));
#1082=DIRECTION('',(0.,0.,-1.));
#1083=DIRECTION('center_axis',(0.,0.,-1.));
#1084=DIRECTION('ref_axis',(1.,0.,0.));
#1085=DIRECTION('center_axis',(0.,0.,1.));
#1086=DIRECTION('ref_axis',(1.,0.,0.));
#1087=DIRECTION('center_axis',(0.,0.,1.));
#1088=DIRECTION('ref_axis',(1.,0.,0.));
#1089=DIRECTION('center_axis',(1.,0.,0.));
#1090=DIRECTION('ref_axis',(0.,-1.,0.));
#1091=DIRECTION('',(0.,1.,0.));
#1092=DIRECTION('',(0.,0.,-1.));
#1093=DIRECTION('',(0.,-1.,0.));
#1094=DIRECTION('',(0.,0.,-1.));
#1095=DIRECTION('center_axis',(0.,1.,0.));
#1096=DIRECTION('ref_axis',(1.,0.,0.));
#1097=DIRECTION('',(-1.,0.,0.));
#1098=DIRECTION('',(1.,0.,0.));
#1099=DIRECTION('',(0.,0.,-1.));
#1100=DIRECTION('center_axis',(-1.,0.,0.));
#1101=DIRECTION('ref_axis',(0.,1.,0.));
#1102=DIRECTION('',(0.,-1.,0.));
#1103=DIRECTION('',(0.,1.,0.));
#1104=DIRECTION('',(0.,0.,-1.));
#1105=DIRECTION('center_axis',(0.,0.,-1.));
#1106=DIRECTION('ref_axis',(-1.,0.,0.));
#1107=DIRECTION('',(-1.,0.,0.));
#1108=DIRECTION('center_axis',(0.,0.,1.));
#1109=DIRECTION('ref_axis',(1.,0.,0.));
#1110=DIRECTION('',(1.,0.,0.));
#1111=DIRECTION('',(0.,-1.,0.));
#1112=DIRECTION('',(-1.,0.,0.));
#1113=DIRECTION('',(0.,-1.,0.));
#1114=DIRECTION('',(1.,0.,0.));
#1115=DIRECTION('',(0.,1.,0.));
#1116=DIRECTION('',(-1.,0.,0.));
#1117=DIRECTION('',(0.,1.,0.));
#1118=DIRECTION('',(1.,0.,0.));
#1119=DIRECTION('center_axis',(0.,0.,1.));
#1120=DIRECTION('ref_axis',(1.,0.,0.));
#1121=DIRECTION('center_axis',(0.,0.,1.));
#1122=DIRECTION('ref_axis',(1.,0.,0.));
#1123=DIRECTION('center_axis',(0.,0.,1.));
#1124=DIRECTION('ref_axis',(1.,0.,0.));
#1125=DIRECTION('center_axis',(0.,0.,1.));
#1126=DIRECTION('ref_axis',(1.,0.,0.));
#1127=DIRECTION('center_axis',(0.,0.,1.));
#1128=DIRECTION('ref_axis',(1.,0.,0.));
#1129=DIRECTION('center_axis',(0.,0.,1.));
#1130=DIRECTION('ref_axis',(1.,0.,0.));
#1131=DIRECTION('center_axis',(0.,0.,1.));
#1132=DIRECTION('ref_axis',(1.,0.,0.));
#1133=DIRECTION('center_axis',(0.,0.,1.));
#1134=DIRECTION('ref_axis',(1.,0.,0.));
#1135=DIRECTION('center_axis',(0.,0.,1.));
#1136=DIRECTION('ref_axis',(1.,0.,0.));
#1137=DIRECTION('center_axis',(0.,0.,1.));
#1138=DIRECTION('ref_axis',(1.,0.,0.));
#1139=DIRECTION('center_axis',(0.,0.,1.));
#1140=DIRECTION('ref_axis',(1.,0.,0.));
#1141=DIRECTION('center_axis',(0.,0.,1.));
#1142=DIRECTION('ref_axis',(1.,0.,0.));
#1143=DIRECTION('center_axis',(0.,0.,1.));
#1144=DIRECTION('ref_axis',(1.,0.,0.));
#1145=DIRECTION('center_axis',(0.,0.,1.));
#1146=DIRECTION('ref_axis',(1.,0.,0.));
#1147=DIRECTION('center_axis',(0.,0.,1.));
#1148=DIRECTION('ref_axis',(1.,0.,0.));
#1149=DIRECTION('center_axis',(0.,0.,1.));
#1150=DIRECTION('ref_axis',(1.,0.,0.));
#1151=DIRECTION('center_axis',(0.,0.,1.));
#1152=DIRECTION('ref_axis',(1.,0.,0.));
#1153=DIRECTION('center_axis',(0.,0.,1.));
#1154=DIRECTION('ref_axis',(1.,0.,0.));
#1155=DIRECTION('center_axis',(0.,0.,1.));
#1156=DIRECTION('ref_axis',(1.,0.,0.));
#1157=DIRECTION('center_axis',(0.,0.,1.));
#1158=DIRECTION('ref_axis',(1.,0.,0.));
#1159=DIRECTION('center_axis',(0.,0.,1.));
#1160=DIRECTION('ref_axis',(1.,0.,0.));
#1161=DIRECTION('center_axis',(0.,0.,1.));
#1162=DIRECTION('ref_axis',(1.,0.,0.));
#1163=DIRECTION('center_axis',(0.,0.,1.));
#1164=DIRECTION('ref_axis',(1.,0.,0.));
#1165=DIRECTION('center_axis',(0.,0.,1.));
#1166=DIRECTION('ref_axis',(1.,0.,0.));
#1167=DIRECTION('center_axis',(0.,-1.,0.));
#1168=DIRECTION('ref_axis',(-1.,0.,0.));
#1169=DIRECTION('',(0.,0.,-1.));
#1170=DIRECTION('',(-1.,0.,0.));
#1171=DIRECTION('',(0.,0.,-1.));
#1172=DIRECTION('center_axis',(1.,0.,0.));
#1173=DIRECTION('ref_axis',(0.,-1.,0.));
#1174=DIRECTION('',(0.,-1.,0.));
#1175=DIRECTION('',(0.,0.,-1.));
#1176=DIRECTION('center_axis',(-1.,0.,0.));
#1177=DIRECTION('ref_axis',(0.,1.,0.));
#1178=DIRECTION('',(0.,0.,-1.));
#1179=DIRECTION('',(0.,1.,0.));
#1180=DIRECTION('center_axis',(0.,0.,-1.));
#1181=DIRECTION('ref_axis',(-1.,0.,0.));
#1182=DIRECTION('',(1.,0.,0.));
#1183=DIRECTION('center_axis',(0.,0.,1.));
#1184=DIRECTION('ref_axis',(1.,0.,0.));
#1185=DIRECTION('',(0.,0.,1.));
#1186=DIRECTION('center_axis',(0.,0.,1.));
#1187=DIRECTION('ref_axis',(1.,0.,0.));
#1188=DIRECTION('',(0.,0.,1.));
#1189=DIRECTION('center_axis',(0.,0.,1.));
#1190=DIRECTION('ref_axis',(1.,0.,0.));
#1191=DIRECTION('',(0.,0.,1.));
#1192=DIRECTION('center_axis',(0.,0.,-1.));
#1193=DIRECTION('ref_axis',(1.,0.,0.));
#1194=DIRECTION('center_axis',(0.,0.,1.));
#1195=DIRECTION('ref_axis',(1.,0.,0.));
#1196=DIRECTION('',(0.,0.,1.));
#1197=DIRECTION('center_axis',(0.,0.,-1.));
#1198=DIRECTION('ref_axis',(1.,0.,0.));
#1199=DIRECTION('center_axis',(0.,0.,1.));
#1200=DIRECTION('ref_axis',(1.,0.,0.));
#1201=DIRECTION('',(0.,0.,1.));
#1202=DIRECTION('center_axis',(0.,0.,-1.));
#1203=DIRECTION('ref_axis',(1.,0.,0.));
#1204=DIRECTION('center_axis',(0.,0.,1.));
#1205=DIRECTION('ref_axis',(1.,0.,0.));
#1206=DIRECTION('',(0.,0.,1.));
#1207=DIRECTION('center_axis',(0.,0.,-1.));
#1208=DIRECTION('ref_axis',(1.,0.,0.));
#1209=DIRECTION('center_axis',(0.,0.,1.));
#1210=DIRECTION('ref_axis',(1.,0.,0.));
#1211=DIRECTION('',(0.,0.,1.));
#1212=DIRECTION('center_axis',(0.,0.,-1.));
#1213=DIRECTION('ref_axis',(1.,0.,0.));
#1214=DIRECTION('center_axis',(0.,0.,1.));
#1215=DIRECTION('ref_axis',(1.,0.,0.));
#1216=DIRECTION('',(0.,0.,1.));
#1217=DIRECTION('center_axis',(0.,0.,-1.));
#1218=DIRECTION('ref_axis',(1.,0.,0.));
#1219=DIRECTION('center_axis',(0.,0.,1.));
#1220=DIRECTION('ref_axis',(1.,0.,0.));
#1221=DIRECTION('',(0.,0.,1.));
#1222=DIRECTION('center_axis',(0.,0.,-1.));
#1223=DIRECTION('ref_axis',(1.,0.,0.));
#1224=DIRECTION('center_axis',(0.,0.,1.));
#1225=DIRECTION('ref_axis',(1.,0.,0.));
#1226=DIRECTION('',(0.,0.,1.));
#1227=DIRECTION('center_axis',(0.,0.,-1.));
#1228=DIRECTION('ref_axis',(1.,0.,0.));
#1229=DIRECTION('center_axis',(0.,0.,1.));
#1230=DIRECTION('ref_axis',(1.,0.,0.));
#1231=DIRECTION('',(0.,0.,1.));
#1232=DIRECTION('center_axis',(0.,0.,-1.));
#1233=DIRECTION('ref_axis',(1.,0.,0.));
#1234=DIRECTION('center_axis',(0.,0.,1.));
#1235=DIRECTION('ref_axis',(1.,0.,0.));
#1236=DIRECTION('',(0.,0.,1.));
#1237=DIRECTION('center_axis',(0.,0.,-1.));
#1238=DIRECTION('ref_axis',(1.,0.,0.));
#1239=DIRECTION('center_axis',(0.,0.,1.));
#1240=DIRECTION('ref_axis',(1.,0.,0.));
#1241=DIRECTION('',(0.,0.,1.));
#1242=DIRECTION('center_axis',(0.,0.,-1.));
#1243=DIRECTION('ref_axis',(1.,0.,0.));
#1244=DIRECTION('center_axis',(0.,0.,1.));
#1245=DIRECTION('ref_axis',(1.,0.,0.));
#1246=DIRECTION('',(0.,0.,1.));
#1247=DIRECTION('center_axis',(0.,0.,-1.));
#1248=DIRECTION('ref_axis',(1.,0.,0.));
#1249=DIRECTION('center_axis',(0.,0.,1.));
#1250=DIRECTION('ref_axis',(1.,0.,0.));
#1251=DIRECTION('',(0.,0.,1.));
#1252=DIRECTION('center_axis',(0.,0.,-1.));
#1253=DIRECTION('ref_axis',(1.,0.,0.));
#1254=DIRECTION('center_axis',(0.,0.,1.));
#1255=DIRECTION('ref_axis',(1.,0.,0.));
#1256=DIRECTION('',(0.,0.,1.));
#1257=DIRECTION('center_axis',(0.,0.,-1.));
#1258=DIRECTION('ref_axis',(1.,0.,0.));
#1259=DIRECTION('center_axis',(0.,0.,1.));
#1260=DIRECTION('ref_axis',(1.,0.,0.));
#1261=DIRECTION('',(0.,0.,1.));
#1262=DIRECTION('center_axis',(0.,0.,-1.));
#1263=DIRECTION('ref_axis',(1.,0.,0.));
#1264=DIRECTION('center_axis',(0.,0.,1.));
#1265=DIRECTION('ref_axis',(1.,0.,0.));
#1266=DIRECTION('',(0.,0.,1.));
#1267=DIRECTION('center_axis',(0.,0.,-1.));
#1268=DIRECTION('ref_axis',(1.,0.,0.));
#1269=DIRECTION('center_axis',(0.,0.,1.));
#1270=DIRECTION('ref_axis',(1.,0.,0.));
#1271=DIRECTION('',(0.,0.,1.));
#1272=DIRECTION('center_axis',(0.,0.,-1.));
#1273=DIRECTION('ref_axis',(1.,0.,0.));
#1274=DIRECTION('center_axis',(0.,0.,1.));
#1275=DIRECTION('ref_axis',(1.,0.,0.));
#1276=DIRECTION('',(0.,0.,1.));
#1277=DIRECTION('center_axis',(0.,0.,-1.));
#1278=DIRECTION('ref_axis',(1.,0.,0.));
#1279=DIRECTION('center_axis',(0.,0.,1.));
#1280=DIRECTION('ref_axis',(1.,0.,0.));
#1281=DIRECTION('',(0.,0.,1.));
#1282=DIRECTION('center_axis',(0.,0.,-1.));
#1283=DIRECTION('ref_axis',(1.,0.,0.));
#1284=DIRECTION('center_axis',(0.,0.,1.));
#1285=DIRECTION('ref_axis',(1.,0.,0.));
#1286=DIRECTION('',(0.,0.,1.));
#1287=DIRECTION('center_axis',(0.,0.,-1.));
#1288=DIRECTION('ref_axis',(1.,0.,0.));
#1289=DIRECTION('center_axis',(0.,0.,1.));
#1290=DIRECTION('ref_axis',(1.,0.,0.));
#1291=DIRECTION('',(0.,0.,1.));
#1292=DIRECTION('center_axis',(0.,0.,1.));
#1293=DIRECTION('ref_axis',(1.,0.,0.));
#1294=DIRECTION('',(0.,0.,1.));
#1295=DIRECTION('center_axis',(0.,1.,0.));
#1296=DIRECTION('ref_axis',(-1.,0.,0.));
#1297=DIRECTION('',(0.,0.,1.));
#1298=DIRECTION('',(-1.,0.,0.));
#1299=DIRECTION('',(0.,0.,1.));
#1300=DIRECTION('center_axis',(1.,0.,0.));
#1301=DIRECTION('ref_axis',(0.,1.,0.));
#1302=DIRECTION('',(0.,1.,0.));
#1303=DIRECTION('',(0.,0.,1.));
#1304=DIRECTION('center_axis',(0.,-1.,0.));
#1305=DIRECTION('ref_axis',(1.,0.,0.));
#1306=DIRECTION('',(1.,0.,0.));
#1307=DIRECTION('',(0.,0.,1.));
#1308=DIRECTION('center_axis',(-1.,0.,0.));
#1309=DIRECTION('ref_axis',(0.,-1.,0.));
#1310=DIRECTION('',(0.,-1.,0.));
#1311=DIRECTION('center_axis',(0.,0.,1.));
#1312=DIRECTION('ref_axis',(1.,0.,0.));
#1313=CARTESIAN_POINT('',(0.,0.,0.));
#1314=CARTESIAN_POINT('Origin',(102.82,15.,4.));
#1315=CARTESIAN_POINT('',(99.57,15.,4.));
#1316=CARTESIAN_POINT('Origin',(102.82,15.,4.));
#1317=CARTESIAN_POINT('',(99.57,15.,2.));
#1318=CARTESIAN_POINT('',(99.57,15.,4.));
#1319=CARTESIAN_POINT('Origin',(102.82,15.,2.));
#1320=CARTESIAN_POINT('Origin',(102.82,15.,2.));
#1321=CARTESIAN_POINT('',(101.12,15.,2.));
#1322=CARTESIAN_POINT('Origin',(102.82,15.,2.));
#1323=CARTESIAN_POINT('Origin',(-102.82,29.45,4.));
#1324=CARTESIAN_POINT('',(-106.07,29.45,4.));
#1325=CARTESIAN_POINT('Origin',(-102.82,29.45,4.));
#1326=CARTESIAN_POINT('',(-106.07,29.45,2.));
#1327=CARTESIAN_POINT('',(-106.07,29.45,4.));
#1328=CARTESIAN_POINT('Origin',(-102.82,29.45,2.));
#1329=CARTESIAN_POINT('Origin',(-102.82,29.45,2.));
#1330=CARTESIAN_POINT('',(-104.52,29.45,2.));
#1331=CARTESIAN_POINT('Origin',(-102.82,29.45,2.));
#1332=CARTESIAN_POINT('Origin',(-102.82,15.,4.));
#1333=CARTESIAN_POINT('',(-106.07,15.,4.));
#1334=CARTESIAN_POINT('Origin',(-102.82,15.,4.));
#1335=CARTESIAN_POINT('',(-106.07,15.,2.));
#1336=CARTESIAN_POINT('',(-106.07,15.,4.));
#1337=CARTESIAN_POINT('Origin',(-102.82,15.,2.));
#1338=CARTESIAN_POINT('Origin',(-102.82,15.,2.));
#1339=CARTESIAN_POINT('',(-104.52,15.,2.));
#1340=CARTESIAN_POINT('Origin',(-102.82,15.,2.));
#1341=CARTESIAN_POINT('Origin',(102.82,29.45,4.));
#1342=CARTESIAN_POINT('',(99.57,29.45,4.));
#1343=CARTESIAN_POINT('Origin',(102.82,29.45,4.));
#1344=CARTESIAN_POINT('',(99.57,29.45,2.));
#1345=CARTESIAN_POINT('',(99.57,29.45,4.));
#1346=CARTESIAN_POINT('Origin',(102.82,29.45,2.));
#1347=CARTESIAN_POINT('Origin',(102.82,29.45,2.));
#1348=CARTESIAN_POINT('',(101.12,29.45,2.));
#1349=CARTESIAN_POINT('Origin',(102.82,29.45,2.));
#1350=CARTESIAN_POINT('Origin',(94.8,2.2,0.));
#1351=CARTESIAN_POINT('',(94.8,0.4,0.));
#1352=CARTESIAN_POINT('',(94.8,2.2,0.));
#1353=CARTESIAN_POINT('',(94.8,12.2125,0.));
#1354=CARTESIAN_POINT('',(94.8,0.4,-70.));
#1355=CARTESIAN_POINT('',(94.8,0.4,0.));
#1356=CARTESIAN_POINT('',(94.8,2.2,-70.));
#1357=CARTESIAN_POINT('',(94.8,0.4,-70.));
#1358=CARTESIAN_POINT('',(94.8,2.2,0.));
#1359=CARTESIAN_POINT('Origin',(-94.8,2.2,0.));
#1360=CARTESIAN_POINT('',(-94.8,2.2,0.));
#1361=CARTESIAN_POINT('',(-47.4,2.2,0.));
#1362=CARTESIAN_POINT('',(-94.8,2.2,-70.));
#1363=CARTESIAN_POINT('',(94.8,2.2,-70.));
#1364=CARTESIAN_POINT('',(-94.8,2.2,0.));
#1365=CARTESIAN_POINT('Origin',(-94.8,0.4,0.));
#1366=CARTESIAN_POINT('',(-94.8,0.4,0.));
#1367=CARTESIAN_POINT('',(-94.8,11.3125,0.));
#1368=CARTESIAN_POINT('',(-94.8,0.4,-70.));
#1369=CARTESIAN_POINT('',(-94.8,2.2,-70.));
#1370=CARTESIAN_POINT('',(-94.8,0.4,0.));
#1371=CARTESIAN_POINT('Origin',(0.,1.3,-70.));
#1372=CARTESIAN_POINT('',(-94.8,0.4,-70.));
#1373=CARTESIAN_POINT('Origin',(0.,22.225,0.));
#1374=CARTESIAN_POINT('',(-111.,0.4,0.));
#1375=CARTESIAN_POINT('',(-111.,0.4,0.));
#1376=CARTESIAN_POINT('',(-111.,44.05,0.));
#1377=CARTESIAN_POINT('',(-111.,44.05,0.));
#1378=CARTESIAN_POINT('',(-94.8,44.05,0.));
#1379=CARTESIAN_POINT('',(111.,44.05,0.));
#1380=CARTESIAN_POINT('',(-94.8,42.25,0.));
#1381=CARTESIAN_POINT('',(-94.8,32.2375,0.));
#1382=CARTESIAN_POINT('',(94.8,42.25,0.));
#1383=CARTESIAN_POINT('',(47.4,42.25,0.));
#1384=CARTESIAN_POINT('',(94.8,44.05,0.));
#1385=CARTESIAN_POINT('',(94.8,33.1375,0.));
#1386=CARTESIAN_POINT('',(111.,44.05,0.));
#1387=CARTESIAN_POINT('',(111.,44.05,0.));
#1388=CARTESIAN_POINT('',(111.,0.4,0.));
#1389=CARTESIAN_POINT('',(111.,0.4,0.));
#1390=CARTESIAN_POINT('',(-111.,0.4,0.));
#1391=CARTESIAN_POINT('',(101.12,29.45,0.));
#1392=CARTESIAN_POINT('Origin',(102.82,29.45,0.));
#1393=CARTESIAN_POINT('',(-104.52,29.45,0.));
#1394=CARTESIAN_POINT('Origin',(-102.82,29.45,0.));
#1395=CARTESIAN_POINT('',(86.2,38.225,0.));
#1396=CARTESIAN_POINT('Origin',(88.,38.225,0.));
#1397=CARTESIAN_POINT('',(54.2,38.225,0.));
#1398=CARTESIAN_POINT('Origin',(56.,38.225,0.));
#1399=CARTESIAN_POINT('',(52.5,22.225,0.));
#1400=CARTESIAN_POINT('Origin',(72.,22.225,0.));
#1401=CARTESIAN_POINT('',(38.2,6.225,0.));
#1402=CARTESIAN_POINT('Origin',(40.,6.225,0.));
#1403=CARTESIAN_POINT('',(-91.5,22.225,0.));
#1404=CARTESIAN_POINT('Origin',(-72.,22.225,0.));
#1405=CARTESIAN_POINT('',(4.5,22.225,0.));
#1406=CARTESIAN_POINT('Origin',(24.,22.225,0.));
#1407=CARTESIAN_POINT('',(-9.8,6.225,0.));
#1408=CARTESIAN_POINT('Origin',(-8.,6.225,0.));
#1409=CARTESIAN_POINT('',(-41.8,6.225,0.));
#1410=CARTESIAN_POINT('Origin',(-40.,6.225,0.));
#1411=CARTESIAN_POINT('',(-57.8,38.225,0.));
#1412=CARTESIAN_POINT('Origin',(-56.,38.225,0.));
#1413=CARTESIAN_POINT('',(-89.8,38.225,0.));
#1414=CARTESIAN_POINT('Origin',(-88.,38.225,0.));
#1415=CARTESIAN_POINT('',(-89.8,6.225,0.));
#1416=CARTESIAN_POINT('Origin',(-88.,6.225,0.));
#1417=CARTESIAN_POINT('',(-57.8,6.225,0.));
#1418=CARTESIAN_POINT('Origin',(-56.,6.225,0.));
#1419=CARTESIAN_POINT('',(-43.5,22.225,0.));
#1420=CARTESIAN_POINT('Origin',(-24.,22.225,0.));
#1421=CARTESIAN_POINT('',(-41.8,38.225,0.));
#1422=CARTESIAN_POINT('Origin',(-40.,38.225,0.));
#1423=CARTESIAN_POINT('',(-9.8,38.225,0.));
#1424=CARTESIAN_POINT('Origin',(-8.,38.225,0.));
#1425=CARTESIAN_POINT('',(6.2,6.225,0.));
#1426=CARTESIAN_POINT('Origin',(8.,6.225,0.));
#1427=CARTESIAN_POINT('',(6.2,38.225,0.));
#1428=CARTESIAN_POINT('Origin',(8.,38.225,0.));
#1429=CARTESIAN_POINT('',(38.2,38.225,0.));
#1430=CARTESIAN_POINT('Origin',(40.,38.225,0.));
#1431=CARTESIAN_POINT('',(54.2,6.225,0.));
#1432=CARTESIAN_POINT('Origin',(56.,6.225,0.));
#1433=CARTESIAN_POINT('',(86.2,6.225,0.));
#1434=CARTESIAN_POINT('Origin',(88.,6.225,0.));
#1435=CARTESIAN_POINT('',(-104.52,15.,0.));
#1436=CARTESIAN_POINT('Origin',(-102.82,15.,0.));
#1437=CARTESIAN_POINT('',(101.12,15.,0.));
#1438=CARTESIAN_POINT('Origin',(102.82,15.,0.));
#1439=CARTESIAN_POINT('Origin',(94.8,42.25,0.));
#1440=CARTESIAN_POINT('',(-94.8,42.25,-70.));
#1441=CARTESIAN_POINT('',(-94.8,42.25,0.));
#1442=CARTESIAN_POINT('',(94.8,42.25,-70.));
#1443=CARTESIAN_POINT('',(-94.8,42.25,-70.));
#1444=CARTESIAN_POINT('',(94.8,42.25,0.));
#1445=CARTESIAN_POINT('Origin',(94.8,44.05,0.));
#1446=CARTESIAN_POINT('',(94.8,44.05,-70.));
#1447=CARTESIAN_POINT('',(94.8,42.25,-70.));
#1448=CARTESIAN_POINT('',(94.8,44.05,0.));
#1449=CARTESIAN_POINT('Origin',(-94.8,42.25,0.));
#1450=CARTESIAN_POINT('',(-94.8,44.05,-70.));
#1451=CARTESIAN_POINT('',(-94.8,44.05,0.));
#1452=CARTESIAN_POINT('',(-94.8,44.05,-70.));
#1453=CARTESIAN_POINT('Origin',(0.,43.15,-70.));
#1454=CARTESIAN_POINT('',(94.8,44.05,-70.));
#1455=CARTESIAN_POINT('Origin',(102.82,15.,0.));
#1456=CARTESIAN_POINT('',(101.12,15.,0.));
#1457=CARTESIAN_POINT('Origin',(-102.82,15.,0.));
#1458=CARTESIAN_POINT('',(-104.52,15.,0.));
#1459=CARTESIAN_POINT('Origin',(88.,6.225,0.));
#1460=CARTESIAN_POINT('',(86.2,6.225,4.));
#1461=CARTESIAN_POINT('',(86.2,6.225,0.));
#1462=CARTESIAN_POINT('Origin',(88.,6.225,4.));
#1463=CARTESIAN_POINT('Origin',(56.,6.225,0.));
#1464=CARTESIAN_POINT('',(54.2,6.225,4.));
#1465=CARTESIAN_POINT('',(54.2,6.225,0.));
#1466=CARTESIAN_POINT('Origin',(56.,6.225,4.));
#1467=CARTESIAN_POINT('Origin',(40.,38.225,0.));
#1468=CARTESIAN_POINT('',(38.2,38.225,4.));
#1469=CARTESIAN_POINT('',(38.2,38.225,0.));
#1470=CARTESIAN_POINT('Origin',(40.,38.225,4.));
#1471=CARTESIAN_POINT('Origin',(8.,38.225,0.));
#1472=CARTESIAN_POINT('',(6.2,38.225,4.));
#1473=CARTESIAN_POINT('',(6.2,38.225,0.));
#1474=CARTESIAN_POINT('Origin',(8.,38.225,4.));
#1475=CARTESIAN_POINT('Origin',(8.,6.225,0.));
#1476=CARTESIAN_POINT('',(6.2,6.225,4.));
#1477=CARTESIAN_POINT('',(6.2,6.225,0.));
#1478=CARTESIAN_POINT('Origin',(8.,6.225,4.));
#1479=CARTESIAN_POINT('Origin',(-8.,38.225,0.));
#1480=CARTESIAN_POINT('',(-9.8,38.225,4.));
#1481=CARTESIAN_POINT('',(-9.8,38.225,0.));
#1482=CARTESIAN_POINT('Origin',(-8.,38.225,4.));
#1483=CARTESIAN_POINT('Origin',(-40.,38.225,0.));
#1484=CARTESIAN_POINT('',(-41.8,38.225,4.));
#1485=CARTESIAN_POINT('',(-41.8,38.225,0.));
#1486=CARTESIAN_POINT('Origin',(-40.,38.225,4.));
#1487=CARTESIAN_POINT('Origin',(-24.,22.225,0.));
#1488=CARTESIAN_POINT('',(-43.5,22.225,4.));
#1489=CARTESIAN_POINT('',(-43.5,22.225,0.));
#1490=CARTESIAN_POINT('Origin',(-24.,22.225,4.));
#1491=CARTESIAN_POINT('Origin',(-56.,6.225,0.));
#1492=CARTESIAN_POINT('',(-57.8,6.225,4.));
#1493=CARTESIAN_POINT('',(-57.8,6.225,0.));
#1494=CARTESIAN_POINT('Origin',(-56.,6.225,4.));
#1495=CARTESIAN_POINT('Origin',(-88.,6.225,0.));
#1496=CARTESIAN_POINT('',(-89.8,6.225,4.));
#1497=CARTESIAN_POINT('',(-89.8,6.225,0.));
#1498=CARTESIAN_POINT('Origin',(-88.,6.225,4.));
#1499=CARTESIAN_POINT('Origin',(-88.,38.225,0.));
#1500=CARTESIAN_POINT('',(-89.8,38.225,4.));
#1501=CARTESIAN_POINT('',(-89.8,38.225,0.));
#1502=CARTESIAN_POINT('Origin',(-88.,38.225,4.));
#1503=CARTESIAN_POINT('Origin',(-56.,38.225,0.));
#1504=CARTESIAN_POINT('',(-57.8,38.225,4.));
#1505=CARTESIAN_POINT('',(-57.8,38.225,0.));
#1506=CARTESIAN_POINT('Origin',(-56.,38.225,4.));
#1507=CARTESIAN_POINT('Origin',(-40.,6.225,0.));
#1508=CARTESIAN_POINT('',(-41.8,6.225,4.));
#1509=CARTESIAN_POINT('',(-41.8,6.225,0.));
#1510=CARTESIAN_POINT('Origin',(-40.,6.225,4.));
#1511=CARTESIAN_POINT('Origin',(-8.,6.225,0.));
#1512=CARTESIAN_POINT('',(-9.8,6.225,4.));
#1513=CARTESIAN_POINT('',(-9.8,6.225,0.));
#1514=CARTESIAN_POINT('Origin',(-8.,6.225,4.));
#1515=CARTESIAN_POINT('Origin',(24.,22.225,0.));
#1516=CARTESIAN_POINT('',(4.5,22.225,4.));
#1517=CARTESIAN_POINT('',(4.5,22.225,0.));
#1518=CARTESIAN_POINT('Origin',(24.,22.225,4.));
#1519=CARTESIAN_POINT('Origin',(-72.,22.225,0.));
#1520=CARTESIAN_POINT('',(-91.5,22.225,4.));
#1521=CARTESIAN_POINT('',(-91.5,22.225,0.));
#1522=CARTESIAN_POINT('Origin',(-72.,22.225,4.));
#1523=CARTESIAN_POINT('Origin',(40.,6.225,0.));
#1524=CARTESIAN_POINT('',(38.2,6.225,4.));
#1525=CARTESIAN_POINT('',(38.2,6.225,0.));
#1526=CARTESIAN_POINT('Origin',(40.,6.225,4.));
#1527=CARTESIAN_POINT('Origin',(72.,22.225,0.));
#1528=CARTESIAN_POINT('',(52.5,22.225,4.));
#1529=CARTESIAN_POINT('',(52.5,22.225,0.));
#1530=CARTESIAN_POINT('Origin',(72.,22.225,4.));
#1531=CARTESIAN_POINT('Origin',(56.,38.225,0.));
#1532=CARTESIAN_POINT('',(54.2,38.225,4.));
#1533=CARTESIAN_POINT('',(54.2,38.225,0.));
#1534=CARTESIAN_POINT('Origin',(56.,38.225,4.));
#1535=CARTESIAN_POINT('Origin',(88.,38.225,0.));
#1536=CARTESIAN_POINT('',(86.2,38.225,4.));
#1537=CARTESIAN_POINT('',(86.2,38.225,0.));
#1538=CARTESIAN_POINT('Origin',(88.,38.225,4.));
#1539=CARTESIAN_POINT('Origin',(-102.82,29.45,0.));
#1540=CARTESIAN_POINT('',(-104.52,29.45,0.));
#1541=CARTESIAN_POINT('Origin',(102.82,29.45,0.));
#1542=CARTESIAN_POINT('',(101.12,29.45,0.));
#1543=CARTESIAN_POINT('Origin',(111.,44.05,0.));
#1544=CARTESIAN_POINT('',(-111.,44.05,4.));
#1545=CARTESIAN_POINT('',(-111.,44.05,0.));
#1546=CARTESIAN_POINT('',(111.,44.05,4.));
#1547=CARTESIAN_POINT('',(111.,44.05,4.));
#1548=CARTESIAN_POINT('',(111.,44.05,0.));
#1549=CARTESIAN_POINT('Origin',(111.,0.4,0.));
#1550=CARTESIAN_POINT('',(111.,0.4,4.));
#1551=CARTESIAN_POINT('',(111.,0.4,4.));
#1552=CARTESIAN_POINT('',(111.,0.4,0.));
#1553=CARTESIAN_POINT('Origin',(-111.,0.4,0.));
#1554=CARTESIAN_POINT('',(-111.,0.4,4.));
#1555=CARTESIAN_POINT('',(-111.,0.4,4.));
#1556=CARTESIAN_POINT('',(-111.,0.4,0.));
#1557=CARTESIAN_POINT('Origin',(-111.,44.05,0.));
#1558=CARTESIAN_POINT('',(-111.,44.05,4.));
#1559=CARTESIAN_POINT('Origin',(0.,22.225,4.));
#1560=UNCERTAINTY_MEASURE_WITH_UNIT(LENGTH_MEASURE(0.01),#1564,
'DISTANCE_ACCURACY_VALUE',
'Maximum model space distance between geometric entities at asserted c
onnectivities');
#1561=UNCERTAINTY_MEASURE_WITH_UNIT(LENGTH_MEASURE(0.01),#1564,
'DISTANCE_ACCURACY_VALUE',
'Maximum model space distance between geometric entities at asserted c
onnectivities');
#1562=(
GEOMETRIC_REPRESENTATION_CONTEXT(3)
GLOBAL_UNCERTAINTY_ASSIGNED_CONTEXT((#1560))
GLOBAL_UNIT_ASSIGNED_CONTEXT((#1564,#1566,#1567))
REPRESENTATION_CONTEXT('','3D')
);
#1563=(
GEOMETRIC_REPRESENTATION_CONTEXT(3)
GLOBAL_UNCERTAINTY_ASSIGNED_CONTEXT((#1561))
GLOBAL_UNIT_ASSIGNED_CONTEXT((#1564,#1566,#1567))
REPRESENTATION_CONTEXT('','3D')
);
#1564=(
LENGTH_UNIT()
NAMED_UNIT(*)
SI_UNIT(.MILLI.,.METRE.)
);
#1565=(
LENGTH_UNIT()
NAMED_UNIT(*)
SI_UNIT($,.METRE.)
);
#1566=(
NAMED_UNIT(*)
PLANE_ANGLE_UNIT()
SI_UNIT($,.RADIAN.)
);
#1567=(
NAMED_UNIT(*)
SI_UNIT($,.STERADIAN.)
SOLID_ANGLE_UNIT()
);
#1568=SHAPE_DEFINITION_REPRESENTATION(#1569,#1570);
#1569=PRODUCT_DEFINITION_SHAPE('',$,#1572);
#1570=SHAPE_REPRESENTATION('',(#940),#1562);
#1571=PRODUCT_DEFINITION_CONTEXT('part definition',#1576,'design');
#1572=PRODUCT_DEFINITION('2026-08-22-19-03-56-576','(Unsaved)',#1573,#1571);
#1573=PRODUCT_DEFINITION_FORMATION('',$,#1578);
#1574=PRODUCT_RELATED_PRODUCT_CATEGORY('(Unsaved)','(Unsaved)',(#1578));
#1575=APPLICATION_PROTOCOL_DEFINITION('international standard',
'automotive_design',2009,#1576);
#1576=APPLICATION_CONTEXT(
'Core Data for Automotive Mechanical Design Process');
#1577=PRODUCT_CONTEXT('part definition',#1576,'mechanical');
#1578=PRODUCT('2026-08-22-19-03-56-576','(Unsaved)',$,(#1577));
#1579=PRESENTATION_STYLE_ASSIGNMENT((#1580));
#1580=SURFACE_STYLE_USAGE(.BOTH.,#1581);
#1581=SURFACE_SIDE_STYLE('',(#1582));
#1582=SURFACE_STYLE_FILL_AREA(#1583);
#1583=FILL_AREA_STYLE('Steel - Satin',(#1584));
#1584=FILL_AREA_STYLE_COLOUR('Steel - Satin',#1585);
#1585=COLOUR_RGB('Steel - Satin',0.627450980392157,0.627450980392157,0.627450980392157);
ENDSEC;
END-ISO-10303-21;
