ISO-10303-21;
HEADER;
/* Generated by software containing ST-Developer
 * from STEP Tools, Inc. (www.steptools.com) 
 */

FILE_DESCRIPTION(
/* description */ (''),
/* implementation_level */ '2;1');

FILE_NAME(
/* name */ 'rear_ear_v2_heatset.step',
/* time_stamp */ '2026-08-23T15:35:15-05:00',
/* author */ (''),
/* organization */ (''),
/* preprocessor_version */ 'ST-DEVELOPER v20.1',
/* originating_system */ 'Autodesk Translation Framework v15.8.0.0',
/* authorisation */ '');

FILE_SCHEMA (('AUTOMOTIVE_DESIGN { 1 0 10303 214 3 1 1 }'));
ENDSEC;

DATA;
#10=MECHANICAL_DESIGN_GEOMETRIC_PRESENTATION_REPRESENTATION('',(#13),#1485);
#11=SHAPE_REPRESENTATION_RELATIONSHIP('SRR','None',#1492,#12);
#12=ADVANCED_BREP_SHAPE_REPRESENTATION('',(#14),#1484);
#13=STYLED_ITEM('',(#1501),#14);
#14=MANIFOLD_SOLID_BREP('Rear Ear v2',#905);
#15=FACE_BOUND('',#113,.T.);
#16=FACE_BOUND('',#114,.T.);
#17=FACE_BOUND('',#142,.T.);
#18=FACE_BOUND('',#143,.T.);
#19=FACE_BOUND('',#155,.T.);
#20=FACE_BOUND('',#156,.T.);
#21=PLANE('',#922);
#22=PLANE('',#926);
#23=PLANE('',#927);
#24=PLANE('',#928);
#25=PLANE('',#929);
#26=PLANE('',#930);
#27=PLANE('',#939);
#28=PLANE('',#940);
#29=PLANE('',#941);
#30=PLANE('',#942);
#31=PLANE('',#943);
#32=PLANE('',#944);
#33=PLANE('',#945);
#34=PLANE('',#946);
#35=PLANE('',#947);
#36=PLANE('',#948);
#37=PLANE('',#949);
#38=PLANE('',#950);
#39=PLANE('',#951);
#40=PLANE('',#952);
#41=PLANE('',#953);
#42=PLANE('',#954);
#43=PLANE('',#955);
#44=PLANE('',#956);
#45=PLANE('',#957);
#46=PLANE('',#958);
#47=PLANE('',#959);
#48=PLANE('',#963);
#49=PLANE('',#964);
#50=PLANE('',#965);
#51=PLANE('',#967);
#52=PLANE('',#968);
#53=PLANE('',#969);
#54=PLANE('',#976);
#55=PLANE('',#977);
#56=PLANE('',#978);
#57=PLANE('',#983);
#58=PLANE('',#984);
#59=FACE_OUTER_BOUND('',#105,.T.);
#60=FACE_OUTER_BOUND('',#106,.T.);
#61=FACE_OUTER_BOUND('',#107,.T.);
#62=FACE_OUTER_BOUND('',#108,.T.);
#63=FACE_OUTER_BOUND('',#109,.T.);
#64=FACE_OUTER_BOUND('',#110,.T.);
#65=FACE_OUTER_BOUND('',#111,.T.);
#66=FACE_OUTER_BOUND('',#112,.T.);
#67=FACE_OUTER_BOUND('',#115,.T.);
#68=FACE_OUTER_BOUND('',#116,.T.);
#69=FACE_OUTER_BOUND('',#117,.T.);
#70=FACE_OUTER_BOUND('',#118,.T.);
#71=FACE_OUTER_BOUND('',#119,.T.);
#72=FACE_OUTER_BOUND('',#120,.T.);
#73=FACE_OUTER_BOUND('',#121,.T.);
#74=FACE_OUTER_BOUND('',#122,.T.);
#75=FACE_OUTER_BOUND('',#123,.T.);
#76=FACE_OUTER_BOUND('',#124,.T.);
#77=FACE_OUTER_BOUND('',#125,.T.);
#78=FACE_OUTER_BOUND('',#126,.T.);
#79=FACE_OUTER_BOUND('',#127,.T.);
#80=FACE_OUTER_BOUND('',#128,.T.);
#81=FACE_OUTER_BOUND('',#129,.T.);
#82=FACE_OUTER_BOUND('',#130,.T.);
#83=FACE_OUTER_BOUND('',#131,.T.);
#84=FACE_OUTER_BOUND('',#132,.T.);
#85=FACE_OUTER_BOUND('',#133,.T.);
#86=FACE_OUTER_BOUND('',#134,.T.);
#87=FACE_OUTER_BOUND('',#135,.T.);
#88=FACE_OUTER_BOUND('',#136,.T.);
#89=FACE_OUTER_BOUND('',#137,.T.);
#90=FACE_OUTER_BOUND('',#138,.T.);
#91=FACE_OUTER_BOUND('',#139,.T.);
#92=FACE_OUTER_BOUND('',#140,.T.);
#93=FACE_OUTER_BOUND('',#141,.T.);
#94=FACE_OUTER_BOUND('',#144,.T.);
#95=FACE_OUTER_BOUND('',#145,.T.);
#96=FACE_OUTER_BOUND('',#146,.T.);
#97=FACE_OUTER_BOUND('',#147,.T.);
#98=FACE_OUTER_BOUND('',#148,.T.);
#99=FACE_OUTER_BOUND('',#149,.T.);
#100=FACE_OUTER_BOUND('',#150,.T.);
#101=FACE_OUTER_BOUND('',#151,.T.);
#102=FACE_OUTER_BOUND('',#152,.T.);
#103=FACE_OUTER_BOUND('',#153,.T.);
#104=FACE_OUTER_BOUND('',#154,.T.);
#105=EDGE_LOOP('',(#599,#600,#601,#602));
#106=EDGE_LOOP('',(#603));
#107=EDGE_LOOP('',(#604,#605,#606,#607));
#108=EDGE_LOOP('',(#608));
#109=EDGE_LOOP('',(#609,#610,#611,#612));
#110=EDGE_LOOP('',(#613,#614,#615,#616));
#111=EDGE_LOOP('',(#617,#618,#619,#620));
#112=EDGE_LOOP('',(#621,#622,#623,#624,#625,#626,#627,#628,#629,#630,#631,
#632,#633,#634,#635,#636,#637,#638,#639,#640,#641,#642,#643,#644,#645,#646,
#647,#648,#649,#650,#651,#652,#653,#654,#655,#656));
#113=EDGE_LOOP('',(#657));
#114=EDGE_LOOP('',(#658));
#115=EDGE_LOOP('',(#659,#660,#661,#662));
#116=EDGE_LOOP('',(#663,#664,#665,#666,#667,#668,#669,#670));
#117=EDGE_LOOP('',(#671,#672,#673,#674));
#118=EDGE_LOOP('',(#675,#676,#677,#678));
#119=EDGE_LOOP('',(#679,#680,#681,#682));
#120=EDGE_LOOP('',(#683,#684,#685,#686));
#121=EDGE_LOOP('',(#687,#688,#689,#690));
#122=EDGE_LOOP('',(#691,#692,#693,#694));
#123=EDGE_LOOP('',(#695,#696,#697,#698));
#124=EDGE_LOOP('',(#699,#700,#701,#702,#703,#704,#705,#706));
#125=EDGE_LOOP('',(#707,#708,#709,#710));
#126=EDGE_LOOP('',(#711,#712,#713,#714,#715,#716));
#127=EDGE_LOOP('',(#717,#718,#719,#720,#721,#722));
#128=EDGE_LOOP('',(#723,#724,#725,#726));
#129=EDGE_LOOP('',(#727,#728,#729,#730));
#130=EDGE_LOOP('',(#731,#732,#733,#734));
#131=EDGE_LOOP('',(#735,#736,#737,#738));
#132=EDGE_LOOP('',(#739,#740,#741,#742));
#133=EDGE_LOOP('',(#743,#744,#745,#746));
#134=EDGE_LOOP('',(#747,#748,#749,#750));
#135=EDGE_LOOP('',(#751,#752,#753,#754));
#136=EDGE_LOOP('',(#755,#756,#757,#758,#759,#760,#761,#762));
#137=EDGE_LOOP('',(#763,#764,#765,#766));
#138=EDGE_LOOP('',(#767,#768,#769,#770));
#139=EDGE_LOOP('',(#771));
#140=EDGE_LOOP('',(#772));
#141=EDGE_LOOP('',(#773,#774,#775,#776,#777,#778,#779,#780,#781,#782,#783,
#784));
#142=EDGE_LOOP('',(#785));
#143=EDGE_LOOP('',(#786));
#144=EDGE_LOOP('',(#787,#788,#789,#790,#791,#792,#793,#794,#795,#796,#797,
#798,#799,#800,#801,#802));
#145=EDGE_LOOP('',(#803,#804,#805,#806,#807,#808,#809,#810));
#146=EDGE_LOOP('',(#811,#812,#813,#814));
#147=EDGE_LOOP('',(#815,#816,#817,#818));
#148=EDGE_LOOP('',(#819,#820,#821,#822));
#149=EDGE_LOOP('',(#823,#824,#825,#826));
#150=EDGE_LOOP('',(#827,#828,#829,#830));
#151=EDGE_LOOP('',(#831,#832,#833,#834));
#152=EDGE_LOOP('',(#835,#836,#837,#838));
#153=EDGE_LOOP('',(#839,#840,#841,#842));
#154=EDGE_LOOP('',(#843,#844,#845,#846,#847,#848));
#155=EDGE_LOOP('',(#849));
#156=EDGE_LOOP('',(#850));
#157=LINE('',#1230,#263);
#158=LINE('',#1237,#264);
#159=LINE('',#1243,#265);
#160=LINE('',#1245,#266);
#161=LINE('',#1247,#267);
#162=LINE('',#1248,#268);
#163=LINE('',#1252,#269);
#164=LINE('',#1254,#270);
#165=LINE('',#1256,#271);
#166=LINE('',#1257,#272);
#167=LINE('',#1259,#273);
#168=LINE('',#1260,#274);
#169=LINE('',#1263,#275);
#170=LINE('',#1265,#276);
#171=LINE('',#1269,#277);
#172=LINE('',#1273,#278);
#173=LINE('',#1275,#279);
#174=LINE('',#1277,#280);
#175=LINE('',#1279,#281);
#176=LINE('',#1281,#282);
#177=LINE('',#1283,#283);
#178=LINE('',#1285,#284);
#179=LINE('',#1287,#285);
#180=LINE('',#1289,#286);
#181=LINE('',#1295,#287);
#182=LINE('',#1297,#288);
#183=LINE('',#1299,#289);
#184=LINE('',#1301,#290);
#185=LINE('',#1303,#291);
#186=LINE('',#1305,#292);
#187=LINE('',#1307,#293);
#188=LINE('',#1309,#294);
#189=LINE('',#1311,#295);
#190=LINE('',#1313,#296);
#191=LINE('',#1315,#297);
#192=LINE('',#1321,#298);
#193=LINE('',#1323,#299);
#194=LINE('',#1325,#300);
#195=LINE('',#1326,#301);
#196=LINE('',#1333,#302);
#197=LINE('',#1334,#303);
#198=LINE('',#1337,#304);
#199=LINE('',#1339,#305);
#200=LINE('',#1340,#306);
#201=LINE('',#1342,#307);
#202=LINE('',#1343,#308);
#203=LINE('',#1346,#309);
#204=LINE('',#1347,#310);
#205=LINE('',#1350,#311);
#206=LINE('',#1351,#312);
#207=LINE('',#1354,#313);
#208=LINE('',#1355,#314);
#209=LINE('',#1358,#315);
#210=LINE('',#1360,#316);
#211=LINE('',#1361,#317);
#212=LINE('',#1364,#318);
#213=LINE('',#1365,#319);
#214=LINE('',#1368,#320);
#215=LINE('',#1369,#321);
#216=LINE('',#1371,#322);
#217=LINE('',#1374,#323);
#218=LINE('',#1376,#324);
#219=LINE('',#1377,#325);
#220=LINE('',#1381,#326);
#221=LINE('',#1383,#327);
#222=LINE('',#1385,#328);
#223=LINE('',#1386,#329);
#224=LINE('',#1389,#330);
#225=LINE('',#1390,#331);
#226=LINE('',#1391,#332);
#227=LINE('',#1394,#333);
#228=LINE('',#1395,#334);
#229=LINE('',#1397,#335);
#230=LINE('',#1398,#336);
#231=LINE('',#1401,#337);
#232=LINE('',#1403,#338);
#233=LINE('',#1404,#339);
#234=LINE('',#1407,#340);
#235=LINE('',#1409,#341);
#236=LINE('',#1410,#342);
#237=LINE('',#1413,#343);
#238=LINE('',#1415,#344);
#239=LINE('',#1416,#345);
#240=LINE('',#1419,#346);
#241=LINE('',#1421,#347);
#242=LINE('',#1422,#348);
#243=LINE('',#1425,#349);
#244=LINE('',#1426,#350);
#245=LINE('',#1429,#351);
#246=LINE('',#1430,#352);
#247=LINE('',#1433,#353);
#248=LINE('',#1434,#354);
#249=LINE('',#1437,#355);
#250=LINE('',#1438,#356);
#251=LINE('',#1442,#357);
#252=LINE('',#1445,#358);
#253=LINE('',#1447,#359);
#254=LINE('',#1453,#360);
#255=LINE('',#1455,#361);
#256=LINE('',#1457,#362);
#257=LINE('',#1459,#363);
#258=LINE('',#1463,#364);
#259=LINE('',#1467,#365);
#260=LINE('',#1474,#366);
#261=LINE('',#1478,#367);
#262=LINE('',#1480,#368);
#263=VECTOR('',#991,2.);
#264=VECTOR('',#1000,2.);
#265=VECTOR('',#1007,10.);
#266=VECTOR('',#1008,10.);
#267=VECTOR('',#1009,10.);
#268=VECTOR('',#1010,10.);
#269=VECTOR('',#1013,10.);
#270=VECTOR('',#1014,10.);
#271=VECTOR('',#1015,10.);
#272=VECTOR('',#1016,10.);
#273=VECTOR('',#1019,10.);
#274=VECTOR('',#1020,10.);
#275=VECTOR('',#1023,10.);
#276=VECTOR('',#1024,10.);
#277=VECTOR('',#1027,10.);
#278=VECTOR('',#1030,10.);
#279=VECTOR('',#1031,10.);
#280=VECTOR('',#1032,10.);
#281=VECTOR('',#1033,10.);
#282=VECTOR('',#1034,10.);
#283=VECTOR('',#1035,10.);
#284=VECTOR('',#1036,10.);
#285=VECTOR('',#1037,10.);
#286=VECTOR('',#1038,10.);
#287=VECTOR('',#1043,10.);
#288=VECTOR('',#1044,10.);
#289=VECTOR('',#1045,10.);
#290=VECTOR('',#1046,10.);
#291=VECTOR('',#1047,10.);
#292=VECTOR('',#1048,10.);
#293=VECTOR('',#1049,10.);
#294=VECTOR('',#1050,10.);
#295=VECTOR('',#1051,10.);
#296=VECTOR('',#1052,10.);
#297=VECTOR('',#1053,10.);
#298=VECTOR('',#1058,10.);
#299=VECTOR('',#1059,10.);
#300=VECTOR('',#1060,10.);
#301=VECTOR('',#1061,10.);
#302=VECTOR('',#1068,10.);
#303=VECTOR('',#1069,10.);
#304=VECTOR('',#1072,10.);
#305=VECTOR('',#1073,10.);
#306=VECTOR('',#1074,10.);
#307=VECTOR('',#1075,10.);
#308=VECTOR('',#1076,10.);
#309=VECTOR('',#1079,10.);
#310=VECTOR('',#1080,10.);
#311=VECTOR('',#1083,10.);
#312=VECTOR('',#1084,10.);
#313=VECTOR('',#1087,10.);
#314=VECTOR('',#1088,10.);
#315=VECTOR('',#1091,10.);
#316=VECTOR('',#1092,10.);
#317=VECTOR('',#1093,10.);
#318=VECTOR('',#1096,10.);
#319=VECTOR('',#1097,10.);
#320=VECTOR('',#1100,10.);
#321=VECTOR('',#1101,10.);
#322=VECTOR('',#1104,10.);
#323=VECTOR('',#1107,10.);
#324=VECTOR('',#1108,10.);
#325=VECTOR('',#1109,10.);
#326=VECTOR('',#1112,10.);
#327=VECTOR('',#1113,10.);
#328=VECTOR('',#1114,10.);
#329=VECTOR('',#1115,10.);
#330=VECTOR('',#1118,10.);
#331=VECTOR('',#1119,10.);
#332=VECTOR('',#1120,10.);
#333=VECTOR('',#1123,10.);
#334=VECTOR('',#1124,10.);
#335=VECTOR('',#1125,10.);
#336=VECTOR('',#1126,10.);
#337=VECTOR('',#1129,10.);
#338=VECTOR('',#1130,10.);
#339=VECTOR('',#1131,10.);
#340=VECTOR('',#1134,10.);
#341=VECTOR('',#1135,10.);
#342=VECTOR('',#1136,10.);
#343=VECTOR('',#1139,10.);
#344=VECTOR('',#1140,10.);
#345=VECTOR('',#1141,10.);
#346=VECTOR('',#1144,10.);
#347=VECTOR('',#1145,10.);
#348=VECTOR('',#1146,10.);
#349=VECTOR('',#1149,10.);
#350=VECTOR('',#1150,10.);
#351=VECTOR('',#1153,10.);
#352=VECTOR('',#1154,10.);
#353=VECTOR('',#1157,10.);
#354=VECTOR('',#1158,10.);
#355=VECTOR('',#1161,10.);
#356=VECTOR('',#1162,10.);
#357=VECTOR('',#1167,4.);
#358=VECTOR('',#1172,10.);
#359=VECTOR('',#1175,10.);
#360=VECTOR('',#1184,10.);
#361=VECTOR('',#1187,10.);
#362=VECTOR('',#1190,10.);
#363=VECTOR('',#1193,4.);
#364=VECTOR('',#1198,10.);
#365=VECTOR('',#1203,10.);
#366=VECTOR('',#1214,2.4);
#367=VECTOR('',#1219,2.4);
#368=VECTOR('',#1222,10.);
#369=CIRCLE('',#920,2.);
#370=CIRCLE('',#921,2.);
#371=CIRCLE('',#924,2.);
#372=CIRCLE('',#925,2.);
#373=CIRCLE('',#931,5.);
#374=CIRCLE('',#932,5.);
#375=CIRCLE('',#933,4.);
#376=CIRCLE('',#934,4.);
#377=CIRCLE('',#935,4.);
#378=CIRCLE('',#936,4.);
#379=CIRCLE('',#937,2.4);
#380=CIRCLE('',#938,2.4);
#381=CIRCLE('',#961,4.);
#382=CIRCLE('',#962,4.);
#383=CIRCLE('',#966,4.);
#384=CIRCLE('',#970,4.);
#385=CIRCLE('',#973,5.);
#386=CIRCLE('',#975,5.);
#387=CIRCLE('',#980,2.4);
#388=CIRCLE('',#982,2.4);
#389=VERTEX_POINT('',#1227);
#390=VERTEX_POINT('',#1229);
#391=VERTEX_POINT('',#1234);
#392=VERTEX_POINT('',#1236);
#393=VERTEX_POINT('',#1241);
#394=VERTEX_POINT('',#1242);
#395=VERTEX_POINT('',#1244);
#396=VERTEX_POINT('',#1246);
#397=VERTEX_POINT('',#1250);
#398=VERTEX_POINT('',#1251);
#399=VERTEX_POINT('',#1253);
#400=VERTEX_POINT('',#1255);
#401=VERTEX_POINT('',#1262);
#402=VERTEX_POINT('',#1264);
#403=VERTEX_POINT('',#1266);
#404=VERTEX_POINT('',#1268);
#405=VERTEX_POINT('',#1270);
#406=VERTEX_POINT('',#1272);
#407=VERTEX_POINT('',#1274);
#408=VERTEX_POINT('',#1276);
#409=VERTEX_POINT('',#1278);
#410=VERTEX_POINT('',#1280);
#411=VERTEX_POINT('',#1282);
#412=VERTEX_POINT('',#1284);
#413=VERTEX_POINT('',#1286);
#414=VERTEX_POINT('',#1288);
#415=VERTEX_POINT('',#1290);
#416=VERTEX_POINT('',#1292);
#417=VERTEX_POINT('',#1294);
#418=VERTEX_POINT('',#1296);
#419=VERTEX_POINT('',#1298);
#420=VERTEX_POINT('',#1300);
#421=VERTEX_POINT('',#1302);
#422=VERTEX_POINT('',#1304);
#423=VERTEX_POINT('',#1306);
#424=VERTEX_POINT('',#1308);
#425=VERTEX_POINT('',#1310);
#426=VERTEX_POINT('',#1312);
#427=VERTEX_POINT('',#1314);
#428=VERTEX_POINT('',#1316);
#429=VERTEX_POINT('',#1318);
#430=VERTEX_POINT('',#1320);
#431=VERTEX_POINT('',#1322);
#432=VERTEX_POINT('',#1324);
#433=VERTEX_POINT('',#1327);
#434=VERTEX_POINT('',#1329);
#435=VERTEX_POINT('',#1332);
#436=VERTEX_POINT('',#1336);
#437=VERTEX_POINT('',#1338);
#438=VERTEX_POINT('',#1341);
#439=VERTEX_POINT('',#1345);
#440=VERTEX_POINT('',#1349);
#441=VERTEX_POINT('',#1353);
#442=VERTEX_POINT('',#1357);
#443=VERTEX_POINT('',#1359);
#444=VERTEX_POINT('',#1363);
#445=VERTEX_POINT('',#1367);
#446=VERTEX_POINT('',#1373);
#447=VERTEX_POINT('',#1375);
#448=VERTEX_POINT('',#1379);
#449=VERTEX_POINT('',#1380);
#450=VERTEX_POINT('',#1382);
#451=VERTEX_POINT('',#1384);
#452=VERTEX_POINT('',#1388);
#453=VERTEX_POINT('',#1393);
#454=VERTEX_POINT('',#1396);
#455=VERTEX_POINT('',#1400);
#456=VERTEX_POINT('',#1402);
#457=VERTEX_POINT('',#1406);
#458=VERTEX_POINT('',#1408);
#459=VERTEX_POINT('',#1412);
#460=VERTEX_POINT('',#1414);
#461=VERTEX_POINT('',#1418);
#462=VERTEX_POINT('',#1420);
#463=VERTEX_POINT('',#1424);
#464=VERTEX_POINT('',#1428);
#465=VERTEX_POINT('',#1432);
#466=VERTEX_POINT('',#1436);
#467=VERTEX_POINT('',#1441);
#468=VERTEX_POINT('',#1449);
#469=VERTEX_POINT('',#1461);
#470=VERTEX_POINT('',#1465);
#471=VERTEX_POINT('',#1472);
#472=VERTEX_POINT('',#1476);
#473=EDGE_CURVE('',#389,#389,#369,.T.);
#474=EDGE_CURVE('',#389,#390,#157,.T.);
#475=EDGE_CURVE('',#390,#390,#370,.T.);
#476=EDGE_CURVE('',#391,#391,#371,.T.);
#477=EDGE_CURVE('',#391,#392,#158,.T.);
#478=EDGE_CURVE('',#392,#392,#372,.T.);
#479=EDGE_CURVE('',#393,#394,#159,.T.);
#480=EDGE_CURVE('',#393,#395,#160,.T.);
#481=EDGE_CURVE('',#396,#395,#161,.T.);
#482=EDGE_CURVE('',#394,#396,#162,.T.);
#483=EDGE_CURVE('',#397,#398,#163,.T.);
#484=EDGE_CURVE('',#399,#397,#164,.T.);
#485=EDGE_CURVE('',#400,#399,#165,.T.);
#486=EDGE_CURVE('',#398,#400,#166,.T.);
#487=EDGE_CURVE('',#398,#393,#167,.T.);
#488=EDGE_CURVE('',#395,#400,#168,.T.);
#489=EDGE_CURVE('',#401,#399,#169,.T.);
#490=EDGE_CURVE('',#402,#401,#170,.T.);
#491=EDGE_CURVE('',#403,#402,#373,.T.);
#492=EDGE_CURVE('',#404,#403,#171,.T.);
#493=EDGE_CURVE('',#405,#404,#374,.T.);
#494=EDGE_CURVE('',#405,#406,#172,.T.);
#495=EDGE_CURVE('',#407,#406,#173,.T.);
#496=EDGE_CURVE('',#407,#408,#174,.T.);
#497=EDGE_CURVE('',#408,#409,#175,.T.);
#498=EDGE_CURVE('',#409,#410,#176,.T.);
#499=EDGE_CURVE('',#411,#410,#177,.T.);
#500=EDGE_CURVE('',#412,#411,#178,.T.);
#501=EDGE_CURVE('',#412,#413,#179,.T.);
#502=EDGE_CURVE('',#413,#414,#180,.T.);
#503=EDGE_CURVE('',#414,#415,#375,.T.);
#504=EDGE_CURVE('',#415,#416,#376,.T.);
#505=EDGE_CURVE('',#416,#417,#181,.T.);
#506=EDGE_CURVE('',#417,#418,#182,.T.);
#507=EDGE_CURVE('',#419,#418,#183,.T.);
#508=EDGE_CURVE('',#419,#420,#184,.T.);
#509=EDGE_CURVE('',#420,#421,#185,.T.);
#510=EDGE_CURVE('',#421,#422,#186,.T.);
#511=EDGE_CURVE('',#422,#423,#187,.T.);
#512=EDGE_CURVE('',#423,#424,#188,.T.);
#513=EDGE_CURVE('',#424,#425,#189,.T.);
#514=EDGE_CURVE('',#425,#426,#190,.T.);
#515=EDGE_CURVE('',#426,#427,#191,.T.);
#516=EDGE_CURVE('',#427,#428,#377,.T.);
#517=EDGE_CURVE('',#428,#429,#378,.T.);
#518=EDGE_CURVE('',#429,#430,#192,.T.);
#519=EDGE_CURVE('',#430,#431,#193,.T.);
#520=EDGE_CURVE('',#431,#432,#194,.T.);
#521=EDGE_CURVE('',#396,#432,#195,.T.);
#522=EDGE_CURVE('',#433,#433,#379,.T.);
#523=EDGE_CURVE('',#434,#434,#380,.T.);
#524=EDGE_CURVE('',#435,#397,#196,.T.);
#525=EDGE_CURVE('',#401,#435,#197,.T.);
#526=EDGE_CURVE('',#432,#436,#198,.T.);
#527=EDGE_CURVE('',#437,#436,#199,.T.);
#528=EDGE_CURVE('',#437,#411,#200,.T.);
#529=EDGE_CURVE('',#410,#438,#201,.T.);
#530=EDGE_CURVE('',#394,#438,#202,.T.);
#531=EDGE_CURVE('',#439,#409,#203,.T.);
#532=EDGE_CURVE('',#438,#439,#204,.T.);
#533=EDGE_CURVE('',#440,#408,#205,.T.);
#534=EDGE_CURVE('',#439,#440,#206,.T.);
#535=EDGE_CURVE('',#441,#407,#207,.T.);
#536=EDGE_CURVE('',#440,#441,#208,.T.);
#537=EDGE_CURVE('',#442,#420,#209,.T.);
#538=EDGE_CURVE('',#442,#443,#210,.T.);
#539=EDGE_CURVE('',#443,#421,#211,.T.);
#540=EDGE_CURVE('',#443,#444,#212,.T.);
#541=EDGE_CURVE('',#444,#422,#213,.T.);
#542=EDGE_CURVE('',#444,#445,#214,.T.);
#543=EDGE_CURVE('',#445,#423,#215,.T.);
#544=EDGE_CURVE('',#445,#442,#216,.T.);
#545=EDGE_CURVE('',#446,#419,#217,.T.);
#546=EDGE_CURVE('',#447,#446,#218,.T.);
#547=EDGE_CURVE('',#424,#447,#219,.T.);
#548=EDGE_CURVE('',#448,#449,#220,.T.);
#549=EDGE_CURVE('',#450,#448,#221,.T.);
#550=EDGE_CURVE('',#451,#450,#222,.T.);
#551=EDGE_CURVE('',#451,#449,#223,.T.);
#552=EDGE_CURVE('',#452,#448,#224,.T.);
#553=EDGE_CURVE('',#402,#452,#225,.T.);
#554=EDGE_CURVE('',#450,#435,#226,.T.);
#555=EDGE_CURVE('',#453,#405,#227,.T.);
#556=EDGE_CURVE('',#449,#453,#228,.T.);
#557=EDGE_CURVE('',#454,#451,#229,.T.);
#558=EDGE_CURVE('',#406,#454,#230,.T.);
#559=EDGE_CURVE('',#455,#416,#231,.T.);
#560=EDGE_CURVE('',#455,#456,#232,.T.);
#561=EDGE_CURVE('',#456,#417,#233,.T.);
#562=EDGE_CURVE('',#457,#413,#234,.T.);
#563=EDGE_CURVE('',#457,#458,#235,.T.);
#564=EDGE_CURVE('',#414,#458,#236,.T.);
#565=EDGE_CURVE('',#459,#430,#237,.T.);
#566=EDGE_CURVE('',#459,#460,#238,.T.);
#567=EDGE_CURVE('',#431,#460,#239,.T.);
#568=EDGE_CURVE('',#461,#425,#240,.T.);
#569=EDGE_CURVE('',#461,#462,#241,.T.);
#570=EDGE_CURVE('',#462,#426,#242,.T.);
#571=EDGE_CURVE('',#456,#463,#243,.T.);
#572=EDGE_CURVE('',#418,#463,#244,.T.);
#573=EDGE_CURVE('',#462,#464,#245,.T.);
#574=EDGE_CURVE('',#427,#464,#246,.T.);
#575=EDGE_CURVE('',#465,#412,#247,.T.);
#576=EDGE_CURVE('',#465,#457,#248,.T.);
#577=EDGE_CURVE('',#466,#429,#249,.T.);
#578=EDGE_CURVE('',#466,#459,#250,.T.);
#579=EDGE_CURVE('',#458,#455,#381,.T.);
#580=EDGE_CURVE('',#415,#467,#251,.T.);
#581=EDGE_CURVE('',#467,#467,#382,.T.);
#582=EDGE_CURVE('',#460,#436,#252,.T.);
#583=EDGE_CURVE('',#446,#463,#253,.T.);
#584=EDGE_CURVE('',#468,#468,#383,.T.);
#585=EDGE_CURVE('',#441,#454,#254,.T.);
#586=EDGE_CURVE('',#465,#437,#255,.T.);
#587=EDGE_CURVE('',#464,#466,#384,.T.);
#588=EDGE_CURVE('',#447,#461,#256,.T.);
#589=EDGE_CURVE('',#428,#468,#257,.T.);
#590=EDGE_CURVE('',#452,#469,#385,.T.);
#591=EDGE_CURVE('',#469,#403,#258,.T.);
#592=EDGE_CURVE('',#470,#453,#386,.T.);
#593=EDGE_CURVE('',#404,#470,#259,.T.);
#594=EDGE_CURVE('',#471,#471,#387,.T.);
#595=EDGE_CURVE('',#471,#434,#260,.T.);
#596=EDGE_CURVE('',#472,#472,#388,.T.);
#597=EDGE_CURVE('',#472,#433,#261,.T.);
#598=EDGE_CURVE('',#470,#469,#262,.T.);
#599=ORIENTED_EDGE('',*,*,#473,.T.);
#600=ORIENTED_EDGE('',*,*,#474,.T.);
#601=ORIENTED_EDGE('',*,*,#475,.F.);
#602=ORIENTED_EDGE('',*,*,#474,.F.);
#603=ORIENTED_EDGE('',*,*,#473,.F.);
#604=ORIENTED_EDGE('',*,*,#476,.T.);
#605=ORIENTED_EDGE('',*,*,#477,.T.);
#606=ORIENTED_EDGE('',*,*,#478,.F.);
#607=ORIENTED_EDGE('',*,*,#477,.F.);
#608=ORIENTED_EDGE('',*,*,#476,.F.);
#609=ORIENTED_EDGE('',*,*,#479,.F.);
#610=ORIENTED_EDGE('',*,*,#480,.T.);
#611=ORIENTED_EDGE('',*,*,#481,.F.);
#612=ORIENTED_EDGE('',*,*,#482,.F.);
#613=ORIENTED_EDGE('',*,*,#483,.F.);
#614=ORIENTED_EDGE('',*,*,#484,.F.);
#615=ORIENTED_EDGE('',*,*,#485,.F.);
#616=ORIENTED_EDGE('',*,*,#486,.F.);
#617=ORIENTED_EDGE('',*,*,#487,.F.);
#618=ORIENTED_EDGE('',*,*,#486,.T.);
#619=ORIENTED_EDGE('',*,*,#488,.F.);
#620=ORIENTED_EDGE('',*,*,#480,.F.);
#621=ORIENTED_EDGE('',*,*,#481,.T.);
#622=ORIENTED_EDGE('',*,*,#488,.T.);
#623=ORIENTED_EDGE('',*,*,#485,.T.);
#624=ORIENTED_EDGE('',*,*,#489,.F.);
#625=ORIENTED_EDGE('',*,*,#490,.F.);
#626=ORIENTED_EDGE('',*,*,#491,.F.);
#627=ORIENTED_EDGE('',*,*,#492,.F.);
#628=ORIENTED_EDGE('',*,*,#493,.F.);
#629=ORIENTED_EDGE('',*,*,#494,.T.);
#630=ORIENTED_EDGE('',*,*,#495,.F.);
#631=ORIENTED_EDGE('',*,*,#496,.T.);
#632=ORIENTED_EDGE('',*,*,#497,.T.);
#633=ORIENTED_EDGE('',*,*,#498,.T.);
#634=ORIENTED_EDGE('',*,*,#499,.F.);
#635=ORIENTED_EDGE('',*,*,#500,.F.);
#636=ORIENTED_EDGE('',*,*,#501,.T.);
#637=ORIENTED_EDGE('',*,*,#502,.T.);
#638=ORIENTED_EDGE('',*,*,#503,.T.);
#639=ORIENTED_EDGE('',*,*,#504,.T.);
#640=ORIENTED_EDGE('',*,*,#505,.T.);
#641=ORIENTED_EDGE('',*,*,#506,.T.);
#642=ORIENTED_EDGE('',*,*,#507,.F.);
#643=ORIENTED_EDGE('',*,*,#508,.T.);
#644=ORIENTED_EDGE('',*,*,#509,.T.);
#645=ORIENTED_EDGE('',*,*,#510,.T.);
#646=ORIENTED_EDGE('',*,*,#511,.T.);
#647=ORIENTED_EDGE('',*,*,#512,.T.);
#648=ORIENTED_EDGE('',*,*,#513,.T.);
#649=ORIENTED_EDGE('',*,*,#514,.T.);
#650=ORIENTED_EDGE('',*,*,#515,.T.);
#651=ORIENTED_EDGE('',*,*,#516,.T.);
#652=ORIENTED_EDGE('',*,*,#517,.T.);
#653=ORIENTED_EDGE('',*,*,#518,.T.);
#654=ORIENTED_EDGE('',*,*,#519,.T.);
#655=ORIENTED_EDGE('',*,*,#520,.T.);
#656=ORIENTED_EDGE('',*,*,#521,.F.);
#657=ORIENTED_EDGE('',*,*,#522,.F.);
#658=ORIENTED_EDGE('',*,*,#523,.F.);
#659=ORIENTED_EDGE('',*,*,#484,.T.);
#660=ORIENTED_EDGE('',*,*,#524,.F.);
#661=ORIENTED_EDGE('',*,*,#525,.F.);
#662=ORIENTED_EDGE('',*,*,#489,.T.);
#663=ORIENTED_EDGE('',*,*,#482,.T.);
#664=ORIENTED_EDGE('',*,*,#521,.T.);
#665=ORIENTED_EDGE('',*,*,#526,.T.);
#666=ORIENTED_EDGE('',*,*,#527,.F.);
#667=ORIENTED_EDGE('',*,*,#528,.T.);
#668=ORIENTED_EDGE('',*,*,#499,.T.);
#669=ORIENTED_EDGE('',*,*,#529,.T.);
#670=ORIENTED_EDGE('',*,*,#530,.F.);
#671=ORIENTED_EDGE('',*,*,#498,.F.);
#672=ORIENTED_EDGE('',*,*,#531,.F.);
#673=ORIENTED_EDGE('',*,*,#532,.F.);
#674=ORIENTED_EDGE('',*,*,#529,.F.);
#675=ORIENTED_EDGE('',*,*,#497,.F.);
#676=ORIENTED_EDGE('',*,*,#533,.F.);
#677=ORIENTED_EDGE('',*,*,#534,.F.);
#678=ORIENTED_EDGE('',*,*,#531,.T.);
#679=ORIENTED_EDGE('',*,*,#496,.F.);
#680=ORIENTED_EDGE('',*,*,#535,.F.);
#681=ORIENTED_EDGE('',*,*,#536,.F.);
#682=ORIENTED_EDGE('',*,*,#533,.T.);
#683=ORIENTED_EDGE('',*,*,#509,.F.);
#684=ORIENTED_EDGE('',*,*,#537,.F.);
#685=ORIENTED_EDGE('',*,*,#538,.T.);
#686=ORIENTED_EDGE('',*,*,#539,.T.);
#687=ORIENTED_EDGE('',*,*,#510,.F.);
#688=ORIENTED_EDGE('',*,*,#539,.F.);
#689=ORIENTED_EDGE('',*,*,#540,.T.);
#690=ORIENTED_EDGE('',*,*,#541,.T.);
#691=ORIENTED_EDGE('',*,*,#511,.F.);
#692=ORIENTED_EDGE('',*,*,#541,.F.);
#693=ORIENTED_EDGE('',*,*,#542,.T.);
#694=ORIENTED_EDGE('',*,*,#543,.T.);
#695=ORIENTED_EDGE('',*,*,#540,.F.);
#696=ORIENTED_EDGE('',*,*,#538,.F.);
#697=ORIENTED_EDGE('',*,*,#544,.F.);
#698=ORIENTED_EDGE('',*,*,#542,.F.);
#699=ORIENTED_EDGE('',*,*,#508,.F.);
#700=ORIENTED_EDGE('',*,*,#545,.F.);
#701=ORIENTED_EDGE('',*,*,#546,.F.);
#702=ORIENTED_EDGE('',*,*,#547,.F.);
#703=ORIENTED_EDGE('',*,*,#512,.F.);
#704=ORIENTED_EDGE('',*,*,#543,.F.);
#705=ORIENTED_EDGE('',*,*,#544,.T.);
#706=ORIENTED_EDGE('',*,*,#537,.T.);
#707=ORIENTED_EDGE('',*,*,#548,.F.);
#708=ORIENTED_EDGE('',*,*,#549,.F.);
#709=ORIENTED_EDGE('',*,*,#550,.F.);
#710=ORIENTED_EDGE('',*,*,#551,.T.);
#711=ORIENTED_EDGE('',*,*,#552,.F.);
#712=ORIENTED_EDGE('',*,*,#553,.F.);
#713=ORIENTED_EDGE('',*,*,#490,.T.);
#714=ORIENTED_EDGE('',*,*,#525,.T.);
#715=ORIENTED_EDGE('',*,*,#554,.F.);
#716=ORIENTED_EDGE('',*,*,#549,.T.);
#717=ORIENTED_EDGE('',*,*,#494,.F.);
#718=ORIENTED_EDGE('',*,*,#555,.F.);
#719=ORIENTED_EDGE('',*,*,#556,.F.);
#720=ORIENTED_EDGE('',*,*,#551,.F.);
#721=ORIENTED_EDGE('',*,*,#557,.F.);
#722=ORIENTED_EDGE('',*,*,#558,.F.);
#723=ORIENTED_EDGE('',*,*,#559,.F.);
#724=ORIENTED_EDGE('',*,*,#560,.T.);
#725=ORIENTED_EDGE('',*,*,#561,.T.);
#726=ORIENTED_EDGE('',*,*,#505,.F.);
#727=ORIENTED_EDGE('',*,*,#502,.F.);
#728=ORIENTED_EDGE('',*,*,#562,.F.);
#729=ORIENTED_EDGE('',*,*,#563,.T.);
#730=ORIENTED_EDGE('',*,*,#564,.F.);
#731=ORIENTED_EDGE('',*,*,#519,.F.);
#732=ORIENTED_EDGE('',*,*,#565,.F.);
#733=ORIENTED_EDGE('',*,*,#566,.T.);
#734=ORIENTED_EDGE('',*,*,#567,.F.);
#735=ORIENTED_EDGE('',*,*,#514,.F.);
#736=ORIENTED_EDGE('',*,*,#568,.F.);
#737=ORIENTED_EDGE('',*,*,#569,.T.);
#738=ORIENTED_EDGE('',*,*,#570,.T.);
#739=ORIENTED_EDGE('',*,*,#506,.F.);
#740=ORIENTED_EDGE('',*,*,#561,.F.);
#741=ORIENTED_EDGE('',*,*,#571,.T.);
#742=ORIENTED_EDGE('',*,*,#572,.F.);
#743=ORIENTED_EDGE('',*,*,#515,.F.);
#744=ORIENTED_EDGE('',*,*,#570,.F.);
#745=ORIENTED_EDGE('',*,*,#573,.T.);
#746=ORIENTED_EDGE('',*,*,#574,.F.);
#747=ORIENTED_EDGE('',*,*,#501,.F.);
#748=ORIENTED_EDGE('',*,*,#575,.F.);
#749=ORIENTED_EDGE('',*,*,#576,.T.);
#750=ORIENTED_EDGE('',*,*,#562,.T.);
#751=ORIENTED_EDGE('',*,*,#518,.F.);
#752=ORIENTED_EDGE('',*,*,#577,.F.);
#753=ORIENTED_EDGE('',*,*,#578,.T.);
#754=ORIENTED_EDGE('',*,*,#565,.T.);
#755=ORIENTED_EDGE('',*,*,#564,.T.);
#756=ORIENTED_EDGE('',*,*,#579,.T.);
#757=ORIENTED_EDGE('',*,*,#559,.T.);
#758=ORIENTED_EDGE('',*,*,#504,.F.);
#759=ORIENTED_EDGE('',*,*,#580,.T.);
#760=ORIENTED_EDGE('',*,*,#581,.F.);
#761=ORIENTED_EDGE('',*,*,#580,.F.);
#762=ORIENTED_EDGE('',*,*,#503,.F.);
#763=ORIENTED_EDGE('',*,*,#567,.T.);
#764=ORIENTED_EDGE('',*,*,#582,.T.);
#765=ORIENTED_EDGE('',*,*,#526,.F.);
#766=ORIENTED_EDGE('',*,*,#520,.F.);
#767=ORIENTED_EDGE('',*,*,#545,.T.);
#768=ORIENTED_EDGE('',*,*,#507,.T.);
#769=ORIENTED_EDGE('',*,*,#572,.T.);
#770=ORIENTED_EDGE('',*,*,#583,.F.);
#771=ORIENTED_EDGE('',*,*,#584,.T.);
#772=ORIENTED_EDGE('',*,*,#581,.T.);
#773=ORIENTED_EDGE('',*,*,#479,.T.);
#774=ORIENTED_EDGE('',*,*,#530,.T.);
#775=ORIENTED_EDGE('',*,*,#532,.T.);
#776=ORIENTED_EDGE('',*,*,#534,.T.);
#777=ORIENTED_EDGE('',*,*,#536,.T.);
#778=ORIENTED_EDGE('',*,*,#585,.T.);
#779=ORIENTED_EDGE('',*,*,#557,.T.);
#780=ORIENTED_EDGE('',*,*,#550,.T.);
#781=ORIENTED_EDGE('',*,*,#554,.T.);
#782=ORIENTED_EDGE('',*,*,#524,.T.);
#783=ORIENTED_EDGE('',*,*,#483,.T.);
#784=ORIENTED_EDGE('',*,*,#487,.T.);
#785=ORIENTED_EDGE('',*,*,#475,.T.);
#786=ORIENTED_EDGE('',*,*,#478,.T.);
#787=ORIENTED_EDGE('',*,*,#546,.T.);
#788=ORIENTED_EDGE('',*,*,#583,.T.);
#789=ORIENTED_EDGE('',*,*,#571,.F.);
#790=ORIENTED_EDGE('',*,*,#560,.F.);
#791=ORIENTED_EDGE('',*,*,#579,.F.);
#792=ORIENTED_EDGE('',*,*,#563,.F.);
#793=ORIENTED_EDGE('',*,*,#576,.F.);
#794=ORIENTED_EDGE('',*,*,#586,.T.);
#795=ORIENTED_EDGE('',*,*,#527,.T.);
#796=ORIENTED_EDGE('',*,*,#582,.F.);
#797=ORIENTED_EDGE('',*,*,#566,.F.);
#798=ORIENTED_EDGE('',*,*,#578,.F.);
#799=ORIENTED_EDGE('',*,*,#587,.F.);
#800=ORIENTED_EDGE('',*,*,#573,.F.);
#801=ORIENTED_EDGE('',*,*,#569,.F.);
#802=ORIENTED_EDGE('',*,*,#588,.F.);
#803=ORIENTED_EDGE('',*,*,#577,.T.);
#804=ORIENTED_EDGE('',*,*,#517,.F.);
#805=ORIENTED_EDGE('',*,*,#589,.T.);
#806=ORIENTED_EDGE('',*,*,#584,.F.);
#807=ORIENTED_EDGE('',*,*,#589,.F.);
#808=ORIENTED_EDGE('',*,*,#516,.F.);
#809=ORIENTED_EDGE('',*,*,#574,.T.);
#810=ORIENTED_EDGE('',*,*,#587,.T.);
#811=ORIENTED_EDGE('',*,*,#590,.T.);
#812=ORIENTED_EDGE('',*,*,#591,.T.);
#813=ORIENTED_EDGE('',*,*,#491,.T.);
#814=ORIENTED_EDGE('',*,*,#553,.T.);
#815=ORIENTED_EDGE('',*,*,#592,.T.);
#816=ORIENTED_EDGE('',*,*,#555,.T.);
#817=ORIENTED_EDGE('',*,*,#493,.T.);
#818=ORIENTED_EDGE('',*,*,#593,.T.);
#819=ORIENTED_EDGE('',*,*,#575,.T.);
#820=ORIENTED_EDGE('',*,*,#500,.T.);
#821=ORIENTED_EDGE('',*,*,#528,.F.);
#822=ORIENTED_EDGE('',*,*,#586,.F.);
#823=ORIENTED_EDGE('',*,*,#535,.T.);
#824=ORIENTED_EDGE('',*,*,#495,.T.);
#825=ORIENTED_EDGE('',*,*,#558,.T.);
#826=ORIENTED_EDGE('',*,*,#585,.F.);
#827=ORIENTED_EDGE('',*,*,#547,.T.);
#828=ORIENTED_EDGE('',*,*,#588,.T.);
#829=ORIENTED_EDGE('',*,*,#568,.T.);
#830=ORIENTED_EDGE('',*,*,#513,.F.);
#831=ORIENTED_EDGE('',*,*,#594,.F.);
#832=ORIENTED_EDGE('',*,*,#595,.T.);
#833=ORIENTED_EDGE('',*,*,#523,.T.);
#834=ORIENTED_EDGE('',*,*,#595,.F.);
#835=ORIENTED_EDGE('',*,*,#596,.F.);
#836=ORIENTED_EDGE('',*,*,#597,.T.);
#837=ORIENTED_EDGE('',*,*,#522,.T.);
#838=ORIENTED_EDGE('',*,*,#597,.F.);
#839=ORIENTED_EDGE('',*,*,#591,.F.);
#840=ORIENTED_EDGE('',*,*,#598,.F.);
#841=ORIENTED_EDGE('',*,*,#593,.F.);
#842=ORIENTED_EDGE('',*,*,#492,.T.);
#843=ORIENTED_EDGE('',*,*,#548,.T.);
#844=ORIENTED_EDGE('',*,*,#556,.T.);
#845=ORIENTED_EDGE('',*,*,#592,.F.);
#846=ORIENTED_EDGE('',*,*,#598,.T.);
#847=ORIENTED_EDGE('',*,*,#590,.F.);
#848=ORIENTED_EDGE('',*,*,#552,.T.);
#849=ORIENTED_EDGE('',*,*,#596,.T.);
#850=ORIENTED_EDGE('',*,*,#594,.T.);
#851=CYLINDRICAL_SURFACE('',#919,2.);
#852=CYLINDRICAL_SURFACE('',#923,2.);
#853=CYLINDRICAL_SURFACE('',#960,4.);
#854=CYLINDRICAL_SURFACE('',#971,4.);
#855=CYLINDRICAL_SURFACE('',#972,5.);
#856=CYLINDRICAL_SURFACE('',#974,5.);
#857=CYLINDRICAL_SURFACE('',#979,2.4);
#858=CYLINDRICAL_SURFACE('',#981,2.4);
#859=ADVANCED_FACE('',(#59),#851,.F.);
#860=ADVANCED_FACE('',(#60),#21,.F.);
#861=ADVANCED_FACE('',(#61),#852,.F.);
#862=ADVANCED_FACE('',(#62),#22,.F.);
#863=ADVANCED_FACE('',(#63),#23,.T.);
#864=ADVANCED_FACE('',(#64),#24,.T.);
#865=ADVANCED_FACE('',(#65),#25,.T.);
#866=ADVANCED_FACE('',(#66,#15,#16),#26,.F.);
#867=ADVANCED_FACE('',(#67),#27,.T.);
#868=ADVANCED_FACE('',(#68),#28,.T.);
#869=ADVANCED_FACE('',(#69),#29,.T.);
#870=ADVANCED_FACE('',(#70),#30,.T.);
#871=ADVANCED_FACE('',(#71),#31,.T.);
#872=ADVANCED_FACE('',(#72),#32,.T.);
#873=ADVANCED_FACE('',(#73),#33,.T.);
#874=ADVANCED_FACE('',(#74),#34,.T.);
#875=ADVANCED_FACE('',(#75),#35,.F.);
#876=ADVANCED_FACE('',(#76),#36,.T.);
#877=ADVANCED_FACE('',(#77),#37,.F.);
#878=ADVANCED_FACE('',(#78),#38,.T.);
#879=ADVANCED_FACE('',(#79),#39,.T.);
#880=ADVANCED_FACE('',(#80),#40,.T.);
#881=ADVANCED_FACE('',(#81),#41,.T.);
#882=ADVANCED_FACE('',(#82),#42,.T.);
#883=ADVANCED_FACE('',(#83),#43,.T.);
#884=ADVANCED_FACE('',(#84),#44,.T.);
#885=ADVANCED_FACE('',(#85),#45,.T.);
#886=ADVANCED_FACE('',(#86),#46,.T.);
#887=ADVANCED_FACE('',(#87),#47,.T.);
#888=ADVANCED_FACE('',(#88),#853,.F.);
#889=ADVANCED_FACE('',(#89),#48,.T.);
#890=ADVANCED_FACE('',(#90),#49,.T.);
#891=ADVANCED_FACE('',(#91),#50,.F.);
#892=ADVANCED_FACE('',(#92),#51,.F.);
#893=ADVANCED_FACE('',(#93,#17,#18),#52,.T.);
#894=ADVANCED_FACE('',(#94),#53,.F.);
#895=ADVANCED_FACE('',(#95),#854,.F.);
#896=ADVANCED_FACE('',(#96),#855,.T.);
#897=ADVANCED_FACE('',(#97),#856,.T.);
#898=ADVANCED_FACE('',(#98),#54,.T.);
#899=ADVANCED_FACE('',(#99),#55,.T.);
#900=ADVANCED_FACE('',(#100),#56,.T.);
#901=ADVANCED_FACE('',(#101),#857,.F.);
#902=ADVANCED_FACE('',(#102),#858,.F.);
#903=ADVANCED_FACE('',(#103),#57,.T.);
#904=ADVANCED_FACE('',(#104,#19,#20),#58,.T.);
#905=CLOSED_SHELL('',(#859,#860,#861,#862,#863,#864,#865,#866,#867,#868,
#869,#870,#871,#872,#873,#874,#875,#876,#877,#878,#879,#880,#881,#882,#883,
#884,#885,#886,#887,#888,#889,#890,#891,#892,#893,#894,#895,#896,#897,#898,
#899,#900,#901,#902,#903,#904));
#906=DERIVED_UNIT_ELEMENT(#908,1.);
#907=DERIVED_UNIT_ELEMENT(#1487,-3.);
#908=(
MASS_UNIT()
NAMED_UNIT(*)
SI_UNIT(.KILO.,.GRAM.)
);
#909=DERIVED_UNIT((#906,#907));
#910=MEASURE_REPRESENTATION_ITEM('density measure',
POSITIVE_RATIO_MEASURE(7850.),#909);
#911=PROPERTY_DEFINITION_REPRESENTATION(#916,#913);
#912=PROPERTY_DEFINITION_REPRESENTATION(#917,#914);
#913=REPRESENTATION('material name',(#915),#1484);
#914=REPRESENTATION('density',(#910),#1484);
#915=DESCRIPTIVE_REPRESENTATION_ITEM('Steel','Steel');
#916=PROPERTY_DEFINITION('material property','material name',#1494);
#917=PROPERTY_DEFINITION('material property','density of part',#1494);
#918=AXIS2_PLACEMENT_3D('',#1225,#985,#986);
#919=AXIS2_PLACEMENT_3D('',#1226,#987,#988);
#920=AXIS2_PLACEMENT_3D('',#1228,#989,#990);
#921=AXIS2_PLACEMENT_3D('',#1231,#992,#993);
#922=AXIS2_PLACEMENT_3D('',#1232,#994,#995);
#923=AXIS2_PLACEMENT_3D('',#1233,#996,#997);
#924=AXIS2_PLACEMENT_3D('',#1235,#998,#999);
#925=AXIS2_PLACEMENT_3D('',#1238,#1001,#1002);
#926=AXIS2_PLACEMENT_3D('',#1239,#1003,#1004);
#927=AXIS2_PLACEMENT_3D('',#1240,#1005,#1006);
#928=AXIS2_PLACEMENT_3D('',#1249,#1011,#1012);
#929=AXIS2_PLACEMENT_3D('',#1258,#1017,#1018);
#930=AXIS2_PLACEMENT_3D('',#1261,#1021,#1022);
#931=AXIS2_PLACEMENT_3D('',#1267,#1025,#1026);
#932=AXIS2_PLACEMENT_3D('',#1271,#1028,#1029);
#933=AXIS2_PLACEMENT_3D('',#1291,#1039,#1040);
#934=AXIS2_PLACEMENT_3D('',#1293,#1041,#1042);
#935=AXIS2_PLACEMENT_3D('',#1317,#1054,#1055);
#936=AXIS2_PLACEMENT_3D('',#1319,#1056,#1057);
#937=AXIS2_PLACEMENT_3D('',#1328,#1062,#1063);
#938=AXIS2_PLACEMENT_3D('',#1330,#1064,#1065);
#939=AXIS2_PLACEMENT_3D('',#1331,#1066,#1067);
#940=AXIS2_PLACEMENT_3D('',#1335,#1070,#1071);
#941=AXIS2_PLACEMENT_3D('',#1344,#1077,#1078);
#942=AXIS2_PLACEMENT_3D('',#1348,#1081,#1082);
#943=AXIS2_PLACEMENT_3D('',#1352,#1085,#1086);
#944=AXIS2_PLACEMENT_3D('',#1356,#1089,#1090);
#945=AXIS2_PLACEMENT_3D('',#1362,#1094,#1095);
#946=AXIS2_PLACEMENT_3D('',#1366,#1098,#1099);
#947=AXIS2_PLACEMENT_3D('',#1370,#1102,#1103);
#948=AXIS2_PLACEMENT_3D('',#1372,#1105,#1106);
#949=AXIS2_PLACEMENT_3D('',#1378,#1110,#1111);
#950=AXIS2_PLACEMENT_3D('',#1387,#1116,#1117);
#951=AXIS2_PLACEMENT_3D('',#1392,#1121,#1122);
#952=AXIS2_PLACEMENT_3D('',#1399,#1127,#1128);
#953=AXIS2_PLACEMENT_3D('',#1405,#1132,#1133);
#954=AXIS2_PLACEMENT_3D('',#1411,#1137,#1138);
#955=AXIS2_PLACEMENT_3D('',#1417,#1142,#1143);
#956=AXIS2_PLACEMENT_3D('',#1423,#1147,#1148);
#957=AXIS2_PLACEMENT_3D('',#1427,#1151,#1152);
#958=AXIS2_PLACEMENT_3D('',#1431,#1155,#1156);
#959=AXIS2_PLACEMENT_3D('',#1435,#1159,#1160);
#960=AXIS2_PLACEMENT_3D('',#1439,#1163,#1164);
#961=AXIS2_PLACEMENT_3D('',#1440,#1165,#1166);
#962=AXIS2_PLACEMENT_3D('',#1443,#1168,#1169);
#963=AXIS2_PLACEMENT_3D('',#1444,#1170,#1171);
#964=AXIS2_PLACEMENT_3D('',#1446,#1173,#1174);
#965=AXIS2_PLACEMENT_3D('',#1448,#1176,#1177);
#966=AXIS2_PLACEMENT_3D('',#1450,#1178,#1179);
#967=AXIS2_PLACEMENT_3D('',#1451,#1180,#1181);
#968=AXIS2_PLACEMENT_3D('',#1452,#1182,#1183);
#969=AXIS2_PLACEMENT_3D('',#1454,#1185,#1186);
#970=AXIS2_PLACEMENT_3D('',#1456,#1188,#1189);
#971=AXIS2_PLACEMENT_3D('',#1458,#1191,#1192);
#972=AXIS2_PLACEMENT_3D('',#1460,#1194,#1195);
#973=AXIS2_PLACEMENT_3D('',#1462,#1196,#1197);
#974=AXIS2_PLACEMENT_3D('',#1464,#1199,#1200);
#975=AXIS2_PLACEMENT_3D('',#1466,#1201,#1202);
#976=AXIS2_PLACEMENT_3D('',#1468,#1204,#1205);
#977=AXIS2_PLACEMENT_3D('',#1469,#1206,#1207);
#978=AXIS2_PLACEMENT_3D('',#1470,#1208,#1209);
#979=AXIS2_PLACEMENT_3D('',#1471,#1210,#1211);
#980=AXIS2_PLACEMENT_3D('',#1473,#1212,#1213);
#981=AXIS2_PLACEMENT_3D('',#1475,#1215,#1216);
#982=AXIS2_PLACEMENT_3D('',#1477,#1217,#1218);
#983=AXIS2_PLACEMENT_3D('',#1479,#1220,#1221);
#984=AXIS2_PLACEMENT_3D('',#1481,#1223,#1224);
#985=DIRECTION('axis',(0.,0.,1.));
#986=DIRECTION('refdir',(1.,0.,0.));
#987=DIRECTION('center_axis',(0.,0.,1.));
#988=DIRECTION('ref_axis',(1.,0.,0.));
#989=DIRECTION('center_axis',(0.,0.,-1.));
#990=DIRECTION('ref_axis',(1.,0.,0.));
#991=DIRECTION('',(0.,0.,1.));
#992=DIRECTION('center_axis',(0.,0.,-1.));
#993=DIRECTION('ref_axis',(1.,0.,0.));
#994=DIRECTION('center_axis',(0.,0.,-1.));
#995=DIRECTION('ref_axis',(-1.,0.,0.));
#996=DIRECTION('center_axis',(0.,0.,1.));
#997=DIRECTION('ref_axis',(1.,0.,0.));
#998=DIRECTION('center_axis',(0.,0.,-1.));
#999=DIRECTION('ref_axis',(1.,0.,0.));
#1000=DIRECTION('',(0.,0.,1.));
#1001=DIRECTION('center_axis',(0.,0.,-1.));
#1002=DIRECTION('ref_axis',(1.,0.,0.));
#1003=DIRECTION('center_axis',(0.,0.,-1.));
#1004=DIRECTION('ref_axis',(-1.,0.,0.));
#1005=DIRECTION('center_axis',(0.,1.,0.));
#1006=DIRECTION('ref_axis',(0.,0.,1.));
#1007=DIRECTION('',(-1.,0.,0.));
#1008=DIRECTION('',(0.,0.,-1.));
#1009=DIRECTION('',(1.,0.,0.));
#1010=DIRECTION('',(0.,0.,-1.));
#1011=DIRECTION('center_axis',(0.,-1.,0.));
#1012=DIRECTION('ref_axis',(0.,0.,-1.));
#1013=DIRECTION('',(1.,0.,0.));
#1014=DIRECTION('',(0.,0.,1.));
#1015=DIRECTION('',(-1.,0.,0.));
#1016=DIRECTION('',(0.,0.,-1.));
#1017=DIRECTION('center_axis',(-1.,0.,0.));
#1018=DIRECTION('ref_axis',(0.,0.,1.));
#1019=DIRECTION('',(0.,-1.,0.));
#1020=DIRECTION('',(0.,1.,0.));
#1021=DIRECTION('center_axis',(0.,0.,1.));
#1022=DIRECTION('ref_axis',(1.,0.,0.));
#1023=DIRECTION('',(0.,-1.,0.));
#1024=DIRECTION('',(-1.,0.,0.));
#1025=DIRECTION('center_axis',(0.,0.,1.));
#1026=DIRECTION('ref_axis',(0.707106781186547,0.707106781186547,0.));
#1027=DIRECTION('',(0.,1.,0.));
#1028=DIRECTION('center_axis',(0.,0.,1.));
#1029=DIRECTION('ref_axis',(0.707106781186547,-0.707106781186547,0.));
#1030=DIRECTION('',(-1.,0.,0.));
#1031=DIRECTION('',(0.,-1.,0.));
#1032=DIRECTION('',(1.,0.,0.));
#1033=DIRECTION('',(0.,1.,0.));
#1034=DIRECTION('',(-1.,0.,0.));
#1035=DIRECTION('',(0.,-1.,0.));
#1036=DIRECTION('',(-1.,0.,0.));
#1037=DIRECTION('',(0.,-1.,0.));
#1038=DIRECTION('',(1.,0.,0.));
#1039=DIRECTION('center_axis',(0.,0.,1.));
#1040=DIRECTION('ref_axis',(-1.,0.,0.));
#1041=DIRECTION('center_axis',(0.,0.,1.));
#1042=DIRECTION('ref_axis',(-1.,0.,0.));
#1043=DIRECTION('',(1.,0.,0.));
#1044=DIRECTION('',(0.,1.,0.));
#1045=DIRECTION('',(-1.,0.,0.));
#1046=DIRECTION('',(0.,-1.,0.));
#1047=DIRECTION('',(1.,0.,0.));
#1048=DIRECTION('',(0.,1.,0.));
#1049=DIRECTION('',(-1.,0.,0.));
#1050=DIRECTION('',(0.,-1.,0.));
#1051=DIRECTION('',(-1.,0.,0.));
#1052=DIRECTION('',(0.,1.,0.));
#1053=DIRECTION('',(-1.,0.,0.));
#1054=DIRECTION('center_axis',(0.,0.,1.));
#1055=DIRECTION('ref_axis',(-1.,0.,0.));
#1056=DIRECTION('center_axis',(0.,0.,1.));
#1057=DIRECTION('ref_axis',(-1.,0.,0.));
#1058=DIRECTION('',(-1.,0.,0.));
#1059=DIRECTION('',(0.,-1.,0.));
#1060=DIRECTION('',(-1.,0.,0.));
#1061=DIRECTION('',(0.,-1.,0.));
#1062=DIRECTION('center_axis',(0.,0.,-1.));
#1063=DIRECTION('ref_axis',(1.,0.,0.));
#1064=DIRECTION('center_axis',(0.,0.,-1.));
#1065=DIRECTION('ref_axis',(1.,0.,0.));
#1066=DIRECTION('center_axis',(-1.,0.,0.));
#1067=DIRECTION('ref_axis',(0.,0.,1.));
#1068=DIRECTION('',(0.,-1.,0.));
#1069=DIRECTION('',(0.,0.,1.));
#1070=DIRECTION('center_axis',(-1.,0.,0.));
#1071=DIRECTION('ref_axis',(0.,0.,1.));
#1072=DIRECTION('',(0.,1.32563943238825E-16,1.));
#1073=DIRECTION('',(0.,1.,0.));
#1074=DIRECTION('',(0.,-9.94229574291185E-17,-1.));
#1075=DIRECTION('',(0.,0.,1.));
#1076=DIRECTION('',(0.,-1.,0.));
#1077=DIRECTION('center_axis',(0.,-1.,0.));
#1078=DIRECTION('ref_axis',(0.,0.,-1.));
#1079=DIRECTION('',(0.,0.,-1.));
#1080=DIRECTION('',(1.,0.,0.));
#1081=DIRECTION('center_axis',(-1.,0.,0.));
#1082=DIRECTION('ref_axis',(0.,0.,1.));
#1083=DIRECTION('',(0.,0.,-1.));
#1084=DIRECTION('',(0.,-1.,0.));
#1085=DIRECTION('center_axis',(0.,1.,0.));
#1086=DIRECTION('ref_axis',(0.,0.,1.));
#1087=DIRECTION('',(0.,0.,-1.));
#1088=DIRECTION('',(-1.,0.,0.));
#1089=DIRECTION('center_axis',(0.,1.,0.));
#1090=DIRECTION('ref_axis',(0.,0.,1.));
#1091=DIRECTION('',(0.,0.,-1.));
#1092=DIRECTION('',(1.,0.,0.));
#1093=DIRECTION('',(0.,0.,-1.));
#1094=DIRECTION('center_axis',(-1.,0.,0.));
#1095=DIRECTION('ref_axis',(0.,0.,1.));
#1096=DIRECTION('',(0.,1.,0.));
#1097=DIRECTION('',(0.,0.,-1.));
#1098=DIRECTION('center_axis',(0.,-1.,0.));
#1099=DIRECTION('ref_axis',(0.,0.,-1.));
#1100=DIRECTION('',(-1.,0.,0.));
#1101=DIRECTION('',(0.,0.,-1.));
#1102=DIRECTION('center_axis',(0.,0.,1.));
#1103=DIRECTION('ref_axis',(1.,0.,0.));
#1104=DIRECTION('',(0.,-1.,0.));
#1105=DIRECTION('center_axis',(1.,0.,0.));
#1106=DIRECTION('ref_axis',(0.,0.,-1.));
#1107=DIRECTION('',(0.,-9.94229574291185E-17,-1.));
#1108=DIRECTION('',(0.,-1.,0.));
#1109=DIRECTION('',(0.,1.32563943238825E-16,1.));
#1110=DIRECTION('center_axis',(-1.,0.,0.));
#1111=DIRECTION('ref_axis',(0.,0.,1.));
#1112=DIRECTION('',(0.,-1.,0.));
#1113=DIRECTION('',(0.,0.,-1.));
#1114=DIRECTION('',(0.,1.,0.));
#1115=DIRECTION('',(0.,0.,-1.));
#1116=DIRECTION('center_axis',(0.,1.,0.));
#1117=DIRECTION('ref_axis',(-1.,0.,0.));
#1118=DIRECTION('',(-1.,0.,0.));
#1119=DIRECTION('',(0.,0.,1.));
#1120=DIRECTION('',(-1.,0.,0.));
#1121=DIRECTION('center_axis',(-9.70547373549473E-34,-1.,0.));
#1122=DIRECTION('ref_axis',(1.,-9.70547373549473E-34,0.));
#1123=DIRECTION('',(0.,0.,-1.));
#1124=DIRECTION('',(1.,-9.70547373549473E-34,0.));
#1125=DIRECTION('',(1.,0.,0.));
#1126=DIRECTION('',(0.,0.,1.));
#1127=DIRECTION('center_axis',(0.,1.,0.));
#1128=DIRECTION('ref_axis',(0.,0.,1.));
#1129=DIRECTION('',(0.,0.,-1.));
#1130=DIRECTION('',(1.,0.,0.));
#1131=DIRECTION('',(0.,0.,-1.));
#1132=DIRECTION('center_axis',(0.,1.,0.));
#1133=DIRECTION('ref_axis',(0.,0.,1.));
#1134=DIRECTION('',(0.,0.,-1.));
#1135=DIRECTION('',(1.,0.,0.));
#1136=DIRECTION('',(0.,0.,1.));
#1137=DIRECTION('center_axis',(1.,0.,0.));
#1138=DIRECTION('ref_axis',(0.,0.,-1.));
#1139=DIRECTION('',(0.,0.,-1.));
#1140=DIRECTION('',(0.,-1.,0.));
#1141=DIRECTION('',(0.,1.32563943238825E-16,1.));
#1142=DIRECTION('center_axis',(-1.,0.,0.));
#1143=DIRECTION('ref_axis',(0.,0.,1.));
#1144=DIRECTION('',(0.,-1.32563943238825E-16,-1.));
#1145=DIRECTION('',(0.,1.,0.));
#1146=DIRECTION('',(0.,0.,-1.));
#1147=DIRECTION('center_axis',(-1.,0.,0.));
#1148=DIRECTION('ref_axis',(0.,0.,1.));
#1149=DIRECTION('',(0.,1.,0.));
#1150=DIRECTION('',(0.,9.94229574291185E-17,1.));
#1151=DIRECTION('center_axis',(0.,-1.,0.));
#1152=DIRECTION('ref_axis',(0.,0.,-1.));
#1153=DIRECTION('',(-1.,0.,0.));
#1154=DIRECTION('',(0.,0.,1.));
#1155=DIRECTION('center_axis',(1.,0.,0.));
#1156=DIRECTION('ref_axis',(0.,0.,-1.));
#1157=DIRECTION('',(0.,-9.94229574291185E-17,-1.));
#1158=DIRECTION('',(0.,-1.,0.));
#1159=DIRECTION('center_axis',(0.,-1.,0.));
#1160=DIRECTION('ref_axis',(0.,0.,-1.));
#1161=DIRECTION('',(0.,0.,-1.));
#1162=DIRECTION('',(-1.,0.,0.));
#1163=DIRECTION('center_axis',(0.,0.,1.));
#1164=DIRECTION('ref_axis',(-1.,0.,0.));
#1165=DIRECTION('center_axis',(0.,0.,-1.));
#1166=DIRECTION('ref_axis',(-1.,0.,0.));
#1167=DIRECTION('',(0.,0.,1.));
#1168=DIRECTION('center_axis',(0.,0.,-1.));
#1169=DIRECTION('ref_axis',(-1.,0.,0.));
#1170=DIRECTION('center_axis',(0.,-1.,1.32563943238825E-16));
#1171=DIRECTION('ref_axis',(0.,1.32563943238825E-16,1.));
#1172=DIRECTION('',(-1.,0.,0.));
#1173=DIRECTION('center_axis',(0.,1.,-9.94229574291185E-17));
#1174=DIRECTION('ref_axis',(0.,-9.94229574291185E-17,-1.));
#1175=DIRECTION('',(-1.,0.,0.));
#1176=DIRECTION('center_axis',(0.,0.,1.));
#1177=DIRECTION('ref_axis',(1.,0.,0.));
#1178=DIRECTION('center_axis',(0.,0.,-1.));
#1179=DIRECTION('ref_axis',(-1.,0.,0.));
#1180=DIRECTION('center_axis',(0.,0.,1.));
#1181=DIRECTION('ref_axis',(1.,0.,0.));
#1182=DIRECTION('center_axis',(0.,0.,1.));
#1183=DIRECTION('ref_axis',(1.,0.,0.));
#1184=DIRECTION('',(0.,-1.,0.));
#1185=DIRECTION('center_axis',(0.,0.,1.));
#1186=DIRECTION('ref_axis',(-1.,0.,0.));
#1187=DIRECTION('',(-1.,0.,0.));
#1188=DIRECTION('center_axis',(0.,0.,-1.));
#1189=DIRECTION('ref_axis',(-1.,0.,0.));
#1190=DIRECTION('',(-1.,0.,0.));
#1191=DIRECTION('center_axis',(0.,0.,1.));
#1192=DIRECTION('ref_axis',(-1.,0.,0.));
#1193=DIRECTION('',(0.,0.,1.));
#1194=DIRECTION('center_axis',(0.,0.,1.));
#1195=DIRECTION('ref_axis',(0.707106781186547,0.707106781186547,0.));
#1196=DIRECTION('center_axis',(0.,0.,-1.));
#1197=DIRECTION('ref_axis',(0.707106781186547,0.707106781186547,0.));
#1198=DIRECTION('',(0.,0.,-1.));
#1199=DIRECTION('center_axis',(0.,0.,1.));
#1200=DIRECTION('ref_axis',(0.707106781186547,-0.707106781186547,0.));
#1201=DIRECTION('center_axis',(0.,0.,-1.));
#1202=DIRECTION('ref_axis',(0.707106781186547,-0.707106781186547,0.));
#1203=DIRECTION('',(0.,0.,1.));
#1204=DIRECTION('center_axis',(0.,1.,-9.94229574291185E-17));
#1205=DIRECTION('ref_axis',(0.,-9.94229574291185E-17,-1.));
#1206=DIRECTION('center_axis',(-1.,0.,0.));
#1207=DIRECTION('ref_axis',(0.,0.,1.));
#1208=DIRECTION('center_axis',(0.,-1.,1.32563943238825E-16));
#1209=DIRECTION('ref_axis',(0.,1.32563943238825E-16,1.));
#1210=DIRECTION('center_axis',(0.,0.,1.));
#1211=DIRECTION('ref_axis',(1.,0.,0.));
#1212=DIRECTION('center_axis',(0.,0.,-1.));
#1213=DIRECTION('ref_axis',(1.,0.,0.));
#1214=DIRECTION('',(0.,0.,-1.));
#1215=DIRECTION('center_axis',(0.,0.,1.));
#1216=DIRECTION('ref_axis',(1.,0.,0.));
#1217=DIRECTION('center_axis',(0.,0.,-1.));
#1218=DIRECTION('ref_axis',(1.,0.,0.));
#1219=DIRECTION('',(0.,0.,-1.));
#1220=DIRECTION('center_axis',(1.,0.,0.));
#1221=DIRECTION('ref_axis',(0.,1.,0.));
#1222=DIRECTION('',(0.,1.,0.));
#1223=DIRECTION('center_axis',(0.,0.,1.));
#1224=DIRECTION('ref_axis',(1.,0.,0.));
#1225=CARTESIAN_POINT('',(0.,0.,0.));
#1226=CARTESIAN_POINT('Origin',(-7.5,29.45,70.45));
#1227=CARTESIAN_POINT('',(-9.5,29.45,68.8));
#1228=CARTESIAN_POINT('Origin',(-7.5,29.45,68.8));
#1229=CARTESIAN_POINT('',(-9.5,29.45,72.));
#1230=CARTESIAN_POINT('',(-9.5,29.45,70.45));
#1231=CARTESIAN_POINT('Origin',(-7.5,29.45,72.));
#1232=CARTESIAN_POINT('Origin',(-7.5,29.45,68.8));
#1233=CARTESIAN_POINT('Origin',(-7.5,15.,70.45));
#1234=CARTESIAN_POINT('',(-9.5,15.,68.8));
#1235=CARTESIAN_POINT('Origin',(-7.5,15.,68.8));
#1236=CARTESIAN_POINT('',(-9.5,15.,72.));
#1237=CARTESIAN_POINT('',(-9.5,15.,70.45));
#1238=CARTESIAN_POINT('Origin',(-7.5,15.,72.));
#1239=CARTESIAN_POINT('Origin',(-7.5,15.,68.8));
#1240=CARTESIAN_POINT('Origin',(-14.05,41.85,36.));
#1241=CARTESIAN_POINT('',(-13.,41.85,72.));
#1242=CARTESIAN_POINT('',(-15.,41.85,72.));
#1243=CARTESIAN_POINT('',(-10.775,41.85,72.));
#1244=CARTESIAN_POINT('',(-13.,41.85,0.));
#1245=CARTESIAN_POINT('',(-13.,41.85,36.));
#1246=CARTESIAN_POINT('',(-15.,41.85,0.));
#1247=CARTESIAN_POINT('',(-3.05625,41.85,0.));
#1248=CARTESIAN_POINT('',(-15.,41.85,34.75));
#1249=CARTESIAN_POINT('Origin',(-14.05,44.05,36.));
#1250=CARTESIAN_POINT('',(-15.,44.05,72.));
#1251=CARTESIAN_POINT('',(-13.,44.05,72.));
#1252=CARTESIAN_POINT('',(-10.775,44.05,72.));
#1253=CARTESIAN_POINT('',(-15.,44.05,0.));
#1254=CARTESIAN_POINT('',(-15.,44.05,34.75));
#1255=CARTESIAN_POINT('',(-13.,44.05,0.));
#1256=CARTESIAN_POINT('',(-3.05625,44.05,0.));
#1257=CARTESIAN_POINT('',(-13.,44.05,36.));
#1258=CARTESIAN_POINT('Origin',(-13.,42.95,36.));
#1259=CARTESIAN_POINT('',(-13.,32.5875,72.));
#1260=CARTESIAN_POINT('',(-13.,32.5875,0.));
#1261=CARTESIAN_POINT('Origin',(7.9375,22.225,0.));
#1262=CARTESIAN_POINT('',(-15.,44.45,0.));
#1263=CARTESIAN_POINT('',(-15.,44.45,0.));
#1264=CARTESIAN_POINT('',(10.875,44.45,0.));
#1265=CARTESIAN_POINT('',(15.875,44.45,0.));
#1266=CARTESIAN_POINT('',(15.875,39.45,0.));
#1267=CARTESIAN_POINT('Origin',(10.875,39.45,0.));
#1268=CARTESIAN_POINT('',(15.875,5.,0.));
#1269=CARTESIAN_POINT('',(15.875,-1.54074395550979E-32,0.));
#1270=CARTESIAN_POINT('',(10.875,0.,0.));
#1271=CARTESIAN_POINT('Origin',(10.875,5.,0.));
#1272=CARTESIAN_POINT('',(-15.,0.,0.));
#1273=CARTESIAN_POINT('',(0.,0.,0.));
#1274=CARTESIAN_POINT('',(-15.,0.4,0.));
#1275=CARTESIAN_POINT('',(-15.,44.45,0.));
#1276=CARTESIAN_POINT('',(-13.,0.4,0.));
#1277=CARTESIAN_POINT('',(-3.05625,0.4,0.));
#1278=CARTESIAN_POINT('',(-13.,2.6,0.));
#1279=CARTESIAN_POINT('',(-13.,11.8625,0.));
#1280=CARTESIAN_POINT('',(-15.,2.6,0.));
#1281=CARTESIAN_POINT('',(-3.05625,2.6,0.));
#1282=CARTESIAN_POINT('',(-15.,10.225,0.));
#1283=CARTESIAN_POINT('',(-15.,44.45,0.));
#1284=CARTESIAN_POINT('',(-12.5,10.225,0.));
#1285=CARTESIAN_POINT('',(0.,10.225,0.));
#1286=CARTESIAN_POINT('',(-12.5,10.1,0.));
#1287=CARTESIAN_POINT('',(-12.5,22.225,0.));
#1288=CARTESIAN_POINT('',(-8.49215674164922,10.1,0.));
#1289=CARTESIAN_POINT('',(0.21875,10.1,0.));
#1290=CARTESIAN_POINT('',(-3.5,6.225,-8.88178419700125E-15));
#1291=CARTESIAN_POINT('Origin',(-7.5,6.225,0.));
#1292=CARTESIAN_POINT('',(-6.50784325835078,10.1,0.));
#1293=CARTESIAN_POINT('Origin',(-7.5,6.225,0.));
#1294=CARTESIAN_POINT('',(-2.5,10.1,0.));
#1295=CARTESIAN_POINT('',(0.21875,10.1,0.));
#1296=CARTESIAN_POINT('',(-2.5,10.225,0.));
#1297=CARTESIAN_POINT('',(-2.5,22.225,0.));
#1298=CARTESIAN_POINT('',(-0.05,10.225,0.));
#1299=CARTESIAN_POINT('',(0.,10.225,0.));
#1300=CARTESIAN_POINT('',(-0.05,9.7,0.));
#1301=CARTESIAN_POINT('',(-0.05,22.2125,0.));
#1302=CARTESIAN_POINT('',(0.65,9.7,0.));
#1303=CARTESIAN_POINT('',(4.11875,9.7,0.));
#1304=CARTESIAN_POINT('',(0.65,34.7,0.));
#1305=CARTESIAN_POINT('',(0.650000000000001,22.2125,0.));
#1306=CARTESIAN_POINT('',(-0.05,34.7,0.));
#1307=CARTESIAN_POINT('',(4.11875,34.7,0.));
#1308=CARTESIAN_POINT('',(-0.05,34.225,0.));
#1309=CARTESIAN_POINT('',(-0.05,22.2125,0.));
#1310=CARTESIAN_POINT('',(-2.5,34.225,0.));
#1311=CARTESIAN_POINT('',(0.,34.225,0.));
#1312=CARTESIAN_POINT('',(-2.5,34.35,0.));
#1313=CARTESIAN_POINT('',(-2.5,22.225,0.));
#1314=CARTESIAN_POINT('',(-6.50784325835077,34.35,0.));
#1315=CARTESIAN_POINT('',(0.21875,34.35,0.));
#1316=CARTESIAN_POINT('',(-3.5,38.225,0.));
#1317=CARTESIAN_POINT('Origin',(-7.5,38.225,0.));
#1318=CARTESIAN_POINT('',(-8.49215674164923,34.35,0.));
#1319=CARTESIAN_POINT('Origin',(-7.5,38.225,0.));
#1320=CARTESIAN_POINT('',(-12.5,34.35,0.));
#1321=CARTESIAN_POINT('',(0.21875,34.35,0.));
#1322=CARTESIAN_POINT('',(-12.5,34.225,0.));
#1323=CARTESIAN_POINT('',(-12.5,22.225,0.));
#1324=CARTESIAN_POINT('',(-15.,34.225,0.));
#1325=CARTESIAN_POINT('',(0.,34.225,0.));
#1326=CARTESIAN_POINT('',(-15.,44.45,0.));
#1327=CARTESIAN_POINT('',(5.53749999999999,6.35,0.));
#1328=CARTESIAN_POINT('Origin',(7.93749999999999,6.35,0.));
#1329=CARTESIAN_POINT('',(5.5375,38.1,0.));
#1330=CARTESIAN_POINT('Origin',(7.9375,38.1,0.));
#1331=CARTESIAN_POINT('Origin',(-15.,5.1125,33.5));
#1332=CARTESIAN_POINT('',(-15.,44.45,72.));
#1333=CARTESIAN_POINT('',(-15.,22.225,72.));
#1334=CARTESIAN_POINT('',(-15.,44.45,67.));
#1335=CARTESIAN_POINT('Origin',(-15.,5.1125,33.5));
#1336=CARTESIAN_POINT('',(-15.,34.225,67.));
#1337=CARTESIAN_POINT('',(-15.,34.225,67.));
#1338=CARTESIAN_POINT('',(-15.,10.225,67.));
#1339=CARTESIAN_POINT('',(-15.,0.,67.));
#1340=CARTESIAN_POINT('',(-15.,10.225,67.));
#1341=CARTESIAN_POINT('',(-15.,2.6,72.));
#1342=CARTESIAN_POINT('',(-15.,2.6,34.75));
#1343=CARTESIAN_POINT('',(-15.,22.225,72.));
#1344=CARTESIAN_POINT('Origin',(-14.05,2.6,36.));
#1345=CARTESIAN_POINT('',(-13.,2.6,72.));
#1346=CARTESIAN_POINT('',(-13.,2.6,36.));
#1347=CARTESIAN_POINT('',(-10.775,2.6,72.));
#1348=CARTESIAN_POINT('Origin',(-13.,1.5,36.));
#1349=CARTESIAN_POINT('',(-13.,0.4,72.));
#1350=CARTESIAN_POINT('',(-13.,0.4,36.));
#1351=CARTESIAN_POINT('',(-13.,11.8625,72.));
#1352=CARTESIAN_POINT('Origin',(-14.05,0.4,36.));
#1353=CARTESIAN_POINT('',(-15.,0.4,72.));
#1354=CARTESIAN_POINT('',(-15.,0.4,34.75));
#1355=CARTESIAN_POINT('',(-10.775,0.4,72.));
#1356=CARTESIAN_POINT('Origin',(0.3,9.7,33.5));
#1357=CARTESIAN_POINT('',(-0.05,9.7,67.1));
#1358=CARTESIAN_POINT('',(-0.05,9.7,33.5));
#1359=CARTESIAN_POINT('',(0.65,9.7,67.1));
#1360=CARTESIAN_POINT('',(0.3,9.7,67.1));
#1361=CARTESIAN_POINT('',(0.65,9.7,33.5));
#1362=CARTESIAN_POINT('Origin',(0.65,22.2,33.5));
#1363=CARTESIAN_POINT('',(0.65,34.7,67.1));
#1364=CARTESIAN_POINT('',(0.65,22.2,67.1));
#1365=CARTESIAN_POINT('',(0.65,34.7,33.5));
#1366=CARTESIAN_POINT('Origin',(0.3,34.7,33.5));
#1367=CARTESIAN_POINT('',(-0.05,34.7,67.1));
#1368=CARTESIAN_POINT('',(0.3,34.7,67.1));
#1369=CARTESIAN_POINT('',(-0.05,34.7,33.5));
#1370=CARTESIAN_POINT('Origin',(0.3,22.2,67.1));
#1371=CARTESIAN_POINT('',(-0.05,22.2,67.1));
#1372=CARTESIAN_POINT('Origin',(-0.05,22.2,33.5));
#1373=CARTESIAN_POINT('',(-0.05,10.225,67.));
#1374=CARTESIAN_POINT('',(-0.05,10.225,50.25));
#1375=CARTESIAN_POINT('',(-0.05,34.225,67.));
#1376=CARTESIAN_POINT('',(-0.05,22.2125,67.));
#1377=CARTESIAN_POINT('',(-0.05,34.225,16.75));
#1378=CARTESIAN_POINT('Origin',(2.,22.225,36.));
#1379=CARTESIAN_POINT('',(2.,44.45,2.));
#1380=CARTESIAN_POINT('',(2.,0.,2.));
#1381=CARTESIAN_POINT('',(2.,22.225,2.));
#1382=CARTESIAN_POINT('',(2.,44.45,72.));
#1383=CARTESIAN_POINT('',(2.,44.45,36.));
#1384=CARTESIAN_POINT('',(2.,0.,72.));
#1385=CARTESIAN_POINT('',(2.,22.225,72.));
#1386=CARTESIAN_POINT('',(2.,0.,36.));
#1387=CARTESIAN_POINT('Origin',(15.875,44.45,0.));
#1388=CARTESIAN_POINT('',(10.875,44.45,2.));
#1389=CARTESIAN_POINT('',(15.875,44.45,2.));
#1390=CARTESIAN_POINT('',(10.875,44.45,0.));
#1391=CARTESIAN_POINT('',(-7.5,44.45,72.));
#1392=CARTESIAN_POINT('Origin',(0.,0.,0.));
#1393=CARTESIAN_POINT('',(10.875,-1.05547026873505E-32,2.));
#1394=CARTESIAN_POINT('',(10.875,0.,0.));
#1395=CARTESIAN_POINT('',(0.,0.,2.));
#1396=CARTESIAN_POINT('',(-15.,0.,72.));
#1397=CARTESIAN_POINT('',(1.,0.,72.));
#1398=CARTESIAN_POINT('',(-15.,0.,0.));
#1399=CARTESIAN_POINT('Origin',(-7.5,10.1,33.));
#1400=CARTESIAN_POINT('',(-6.50784325835078,10.1,67.));
#1401=CARTESIAN_POINT('',(-6.50784325835078,10.1,67.));
#1402=CARTESIAN_POINT('',(-2.5,10.1,67.));
#1403=CARTESIAN_POINT('',(-7.5,10.1,67.));
#1404=CARTESIAN_POINT('',(-2.5,10.1,33.));
#1405=CARTESIAN_POINT('Origin',(-7.5,10.1,33.));
#1406=CARTESIAN_POINT('',(-12.5,10.1,67.));
#1407=CARTESIAN_POINT('',(-12.5,10.1,33.));
#1408=CARTESIAN_POINT('',(-8.49215674164922,10.1,67.));
#1409=CARTESIAN_POINT('',(-7.5,10.1,67.));
#1410=CARTESIAN_POINT('',(-8.49215674164922,10.1,67.));
#1411=CARTESIAN_POINT('Origin',(-12.5,22.225,33.));
#1412=CARTESIAN_POINT('',(-12.5,34.35,67.));
#1413=CARTESIAN_POINT('',(-12.5,34.35,33.));
#1414=CARTESIAN_POINT('',(-12.5,34.225,67.));
#1415=CARTESIAN_POINT('',(-12.5,22.225,67.));
#1416=CARTESIAN_POINT('',(-12.5,34.225,16.5));
#1417=CARTESIAN_POINT('Origin',(-2.5,22.225,33.));
#1418=CARTESIAN_POINT('',(-2.5,34.225,67.));
#1419=CARTESIAN_POINT('',(-2.5,34.225,16.5));
#1420=CARTESIAN_POINT('',(-2.5,34.35,67.));
#1421=CARTESIAN_POINT('',(-2.5,22.225,67.));
#1422=CARTESIAN_POINT('',(-2.5,34.35,33.));
#1423=CARTESIAN_POINT('Origin',(-2.5,22.225,33.));
#1424=CARTESIAN_POINT('',(-2.5,10.225,67.));
#1425=CARTESIAN_POINT('',(-2.5,22.225,67.));
#1426=CARTESIAN_POINT('',(-2.5,10.225,50.));
#1427=CARTESIAN_POINT('Origin',(-7.5,34.35,33.));
#1428=CARTESIAN_POINT('',(-6.50784325835077,34.35,67.));
#1429=CARTESIAN_POINT('',(-7.5,34.35,67.));
#1430=CARTESIAN_POINT('',(-6.50784325835077,34.35,67.));
#1431=CARTESIAN_POINT('Origin',(-12.5,22.225,33.));
#1432=CARTESIAN_POINT('',(-12.5,10.225,67.));
#1433=CARTESIAN_POINT('',(-12.5,10.225,50.));
#1434=CARTESIAN_POINT('',(-12.5,22.225,67.));
#1435=CARTESIAN_POINT('Origin',(-7.5,34.35,33.));
#1436=CARTESIAN_POINT('',(-8.49215674164923,34.35,67.));
#1437=CARTESIAN_POINT('',(-8.49215674164923,34.35,67.));
#1438=CARTESIAN_POINT('',(-7.5,34.35,67.));
#1439=CARTESIAN_POINT('Origin',(-7.5,6.225,67.));
#1440=CARTESIAN_POINT('Origin',(-7.5,6.225,67.));
#1441=CARTESIAN_POINT('',(-3.5,6.225,69.));
#1442=CARTESIAN_POINT('',(-3.5,6.225,67.));
#1443=CARTESIAN_POINT('Origin',(-7.5,6.225,69.));
#1444=CARTESIAN_POINT('Origin',(0.,34.225,0.));
#1445=CARTESIAN_POINT('',(0.,34.225,67.));
#1446=CARTESIAN_POINT('Origin',(0.,10.225,67.));
#1447=CARTESIAN_POINT('',(0.,10.225,67.));
#1448=CARTESIAN_POINT('Origin',(-7.5,22.225,69.));
#1449=CARTESIAN_POINT('',(-3.5,38.225,69.));
#1450=CARTESIAN_POINT('Origin',(-7.5,38.225,69.));
#1451=CARTESIAN_POINT('Origin',(-7.5,22.225,69.));
#1452=CARTESIAN_POINT('Origin',(-7.5,22.225,72.));
#1453=CARTESIAN_POINT('',(-15.,22.225,72.));
#1454=CARTESIAN_POINT('Origin',(-7.5,22.225,67.));
#1455=CARTESIAN_POINT('',(0.,10.225,67.));
#1456=CARTESIAN_POINT('Origin',(-7.5,38.225,67.));
#1457=CARTESIAN_POINT('',(0.,34.225,67.));
#1458=CARTESIAN_POINT('Origin',(-7.5,38.225,67.));
#1459=CARTESIAN_POINT('',(-3.5,38.225,67.));
#1460=CARTESIAN_POINT('Origin',(10.875,39.45,0.));
#1461=CARTESIAN_POINT('',(15.875,39.45,2.));
#1462=CARTESIAN_POINT('Origin',(10.875,39.45,2.));
#1463=CARTESIAN_POINT('',(15.875,39.45,0.));
#1464=CARTESIAN_POINT('Origin',(10.875,5.,0.));
#1465=CARTESIAN_POINT('',(15.875,5.,2.));
#1466=CARTESIAN_POINT('Origin',(10.875,5.,2.));
#1467=CARTESIAN_POINT('',(15.875,5.,0.));
#1468=CARTESIAN_POINT('Origin',(0.,10.225,67.));
#1469=CARTESIAN_POINT('Origin',(-15.,5.1125,33.5));
#1470=CARTESIAN_POINT('Origin',(0.,34.225,0.));
#1471=CARTESIAN_POINT('Origin',(7.9375,38.1,0.));
#1472=CARTESIAN_POINT('',(5.5375,38.1,2.));
#1473=CARTESIAN_POINT('Origin',(7.9375,38.1,2.));
#1474=CARTESIAN_POINT('',(5.5375,38.1,0.));
#1475=CARTESIAN_POINT('Origin',(7.93749999999999,6.35,0.));
#1476=CARTESIAN_POINT('',(5.53749999999999,6.35,2.));
#1477=CARTESIAN_POINT('Origin',(7.93749999999999,6.35,2.));
#1478=CARTESIAN_POINT('',(5.53749999999999,6.35,0.));
#1479=CARTESIAN_POINT('Origin',(15.875,-1.54074395550979E-32,0.));
#1480=CARTESIAN_POINT('',(15.875,-1.54074395550979E-32,2.));
#1481=CARTESIAN_POINT('Origin',(7.9375,22.225,2.));
#1482=UNCERTAINTY_MEASURE_WITH_UNIT(LENGTH_MEASURE(0.01),#1486,
'DISTANCE_ACCURACY_VALUE',
'Maximum model space distance between geometric entities at asserted c
onnectivities');
#1483=UNCERTAINTY_MEASURE_WITH_UNIT(LENGTH_MEASURE(0.01),#1486,
'DISTANCE_ACCURACY_VALUE',
'Maximum model space distance between geometric entities at asserted c
onnectivities');
#1484=(
GEOMETRIC_REPRESENTATION_CONTEXT(3)
GLOBAL_UNCERTAINTY_ASSIGNED_CONTEXT((#1482))
GLOBAL_UNIT_ASSIGNED_CONTEXT((#1486,#1488,#1489))
REPRESENTATION_CONTEXT('','3D')
);
#1485=(
GEOMETRIC_REPRESENTATION_CONTEXT(3)
GLOBAL_UNCERTAINTY_ASSIGNED_CONTEXT((#1483))
GLOBAL_UNIT_ASSIGNED_CONTEXT((#1486,#1488,#1489))
REPRESENTATION_CONTEXT('','3D')
);
#1486=(
LENGTH_UNIT()
NAMED_UNIT(*)
SI_UNIT(.MILLI.,.METRE.)
);
#1487=(
LENGTH_UNIT()
NAMED_UNIT(*)
SI_UNIT($,.METRE.)
);
#1488=(
NAMED_UNIT(*)
PLANE_ANGLE_UNIT()
SI_UNIT($,.RADIAN.)
);
#1489=(
NAMED_UNIT(*)
SI_UNIT($,.STERADIAN.)
SOLID_ANGLE_UNIT()
);
#1490=SHAPE_DEFINITION_REPRESENTATION(#1491,#1492);
#1491=PRODUCT_DEFINITION_SHAPE('',$,#1494);
#1492=SHAPE_REPRESENTATION('',(#918),#1484);
#1493=PRODUCT_DEFINITION_CONTEXT('part definition',#1498,'design');
#1494=PRODUCT_DEFINITION('2026-08-23-15-35-13-310','(Unsaved)',#1495,#1493);
#1495=PRODUCT_DEFINITION_FORMATION('',$,#1500);
#1496=PRODUCT_RELATED_PRODUCT_CATEGORY('(Unsaved)','(Unsaved)',(#1500));
#1497=APPLICATION_PROTOCOL_DEFINITION('international standard',
'automotive_design',2009,#1498);
#1498=APPLICATION_CONTEXT(
'Core Data for Automotive Mechanical Design Process');
#1499=PRODUCT_CONTEXT('part definition',#1498,'mechanical');
#1500=PRODUCT('2026-08-23-15-35-13-310','(Unsaved)',$,(#1499));
#1501=PRESENTATION_STYLE_ASSIGNMENT((#1502));
#1502=SURFACE_STYLE_USAGE(.BOTH.,#1503);
#1503=SURFACE_SIDE_STYLE('',(#1504));
#1504=SURFACE_STYLE_FILL_AREA(#1505);
#1505=FILL_AREA_STYLE('Steel - Satin',(#1506));
#1506=FILL_AREA_STYLE_COLOUR('Steel - Satin',#1507);
#1507=COLOUR_RGB('Steel - Satin',0.627450980392157,0.627450980392157,0.627450980392157);
ENDSEC;
END-ISO-10303-21;
