ISO-10303-21;
HEADER;
/* Generated by software containing ST-Developer
 * from STEP Tools, Inc. (www.steptools.com) 
 */

FILE_DESCRIPTION(
/* description */ (''),
/* implementation_level */ '2;1');

FILE_NAME(
/* name */ 'rear_ear_v2_selftap.step',
/* time_stamp */ '2026-08-22T19:03:55-05:00',
/* author */ (''),
/* organization */ (''),
/* preprocessor_version */ 'ST-DEVELOPER v20.1',
/* originating_system */ 'Autodesk Translation Framework v15.8.0.0',
/* authorisation */ '');

FILE_SCHEMA (('AUTOMOTIVE_DESIGN { 1 0 10303 214 3 1 1 }'));
ENDSEC;

DATA;
#10=MECHANICAL_DESIGN_GEOMETRIC_PRESENTATION_REPRESENTATION('',(#13),#1479);
#11=SHAPE_REPRESENTATION_RELATIONSHIP('SRR','None',#1486,#12);
#12=ADVANCED_BREP_SHAPE_REPRESENTATION('',(#14),#1478);
#13=STYLED_ITEM('',(#1495),#14);
#14=MANIFOLD_SOLID_BREP('Rear Ear v2',#903);
#15=FACE_BOUND('',#114,.T.);
#16=FACE_BOUND('',#115,.T.);
#17=FACE_BOUND('',#134,.T.);
#18=FACE_BOUND('',#135,.T.);
#19=FACE_BOUND('',#141,.T.);
#20=FACE_BOUND('',#154,.T.);
#21=FACE_BOUND('',#155,.T.);
#22=PLANE('',#920);
#23=PLANE('',#924);
#24=PLANE('',#925);
#25=PLANE('',#926);
#26=PLANE('',#927);
#27=PLANE('',#928);
#28=PLANE('',#929);
#29=PLANE('',#930);
#30=PLANE('',#939);
#31=PLANE('',#940);
#32=PLANE('',#941);
#33=PLANE('',#942);
#34=PLANE('',#943);
#35=PLANE('',#944);
#36=PLANE('',#945);
#37=PLANE('',#946);
#38=PLANE('',#947);
#39=PLANE('',#948);
#40=PLANE('',#949);
#41=PLANE('',#950);
#42=PLANE('',#954);
#43=PLANE('',#955);
#44=PLANE('',#956);
#45=PLANE('',#958);
#46=PLANE('',#959);
#47=PLANE('',#960);
#48=PLANE('',#961);
#49=PLANE('',#962);
#50=PLANE('',#963);
#51=PLANE('',#964);
#52=PLANE('',#965);
#53=PLANE('',#970);
#54=PLANE('',#973);
#55=PLANE('',#974);
#56=PLANE('',#975);
#57=PLANE('',#980);
#58=PLANE('',#981);
#59=FACE_OUTER_BOUND('',#104,.T.);
#60=FACE_OUTER_BOUND('',#105,.T.);
#61=FACE_OUTER_BOUND('',#106,.T.);
#62=FACE_OUTER_BOUND('',#107,.T.);
#63=FACE_OUTER_BOUND('',#108,.T.);
#64=FACE_OUTER_BOUND('',#109,.T.);
#65=FACE_OUTER_BOUND('',#110,.T.);
#66=FACE_OUTER_BOUND('',#111,.T.);
#67=FACE_OUTER_BOUND('',#112,.T.);
#68=FACE_OUTER_BOUND('',#113,.T.);
#69=FACE_OUTER_BOUND('',#116,.T.);
#70=FACE_OUTER_BOUND('',#117,.T.);
#71=FACE_OUTER_BOUND('',#118,.T.);
#72=FACE_OUTER_BOUND('',#119,.T.);
#73=FACE_OUTER_BOUND('',#120,.T.);
#74=FACE_OUTER_BOUND('',#121,.T.);
#75=FACE_OUTER_BOUND('',#122,.T.);
#76=FACE_OUTER_BOUND('',#123,.T.);
#77=FACE_OUTER_BOUND('',#124,.T.);
#78=FACE_OUTER_BOUND('',#125,.T.);
#79=FACE_OUTER_BOUND('',#126,.T.);
#80=FACE_OUTER_BOUND('',#127,.T.);
#81=FACE_OUTER_BOUND('',#128,.T.);
#82=FACE_OUTER_BOUND('',#129,.T.);
#83=FACE_OUTER_BOUND('',#130,.T.);
#84=FACE_OUTER_BOUND('',#131,.T.);
#85=FACE_OUTER_BOUND('',#132,.T.);
#86=FACE_OUTER_BOUND('',#133,.T.);
#87=FACE_OUTER_BOUND('',#136,.T.);
#88=FACE_OUTER_BOUND('',#137,.T.);
#89=FACE_OUTER_BOUND('',#138,.T.);
#90=FACE_OUTER_BOUND('',#139,.T.);
#91=FACE_OUTER_BOUND('',#140,.T.);
#92=FACE_OUTER_BOUND('',#142,.T.);
#93=FACE_OUTER_BOUND('',#143,.T.);
#94=FACE_OUTER_BOUND('',#144,.T.);
#95=FACE_OUTER_BOUND('',#145,.T.);
#96=FACE_OUTER_BOUND('',#146,.T.);
#97=FACE_OUTER_BOUND('',#147,.T.);
#98=FACE_OUTER_BOUND('',#148,.T.);
#99=FACE_OUTER_BOUND('',#149,.T.);
#100=FACE_OUTER_BOUND('',#150,.T.);
#101=FACE_OUTER_BOUND('',#151,.T.);
#102=FACE_OUTER_BOUND('',#152,.T.);
#103=FACE_OUTER_BOUND('',#153,.T.);
#104=EDGE_LOOP('',(#598,#599,#600,#601));
#105=EDGE_LOOP('',(#602));
#106=EDGE_LOOP('',(#603,#604,#605,#606));
#107=EDGE_LOOP('',(#607));
#108=EDGE_LOOP('',(#608,#609,#610,#611,#612,#613));
#109=EDGE_LOOP('',(#614,#615,#616,#617));
#110=EDGE_LOOP('',(#618,#619,#620,#621));
#111=EDGE_LOOP('',(#622,#623,#624,#625,#626,#627));
#112=EDGE_LOOP('',(#628,#629,#630,#631,#632,#633,#634,#635));
#113=EDGE_LOOP('',(#636,#637,#638,#639,#640,#641,#642,#643,#644,#645,#646,
#647,#648,#649,#650,#651,#652,#653,#654,#655,#656,#657,#658,#659,#660,#661,
#662,#663));
#114=EDGE_LOOP('',(#664));
#115=EDGE_LOOP('',(#665));
#116=EDGE_LOOP('',(#666,#667,#668,#669,#670,#671,#672,#673));
#117=EDGE_LOOP('',(#674,#675,#676,#677));
#118=EDGE_LOOP('',(#678,#679,#680,#681,#682,#683,#684,#685));
#119=EDGE_LOOP('',(#686,#687,#688,#689,#690,#691,#692,#693));
#120=EDGE_LOOP('',(#694,#695,#696,#697));
#121=EDGE_LOOP('',(#698,#699,#700,#701));
#122=EDGE_LOOP('',(#702,#703,#704,#705));
#123=EDGE_LOOP('',(#706,#707,#708,#709));
#124=EDGE_LOOP('',(#710,#711,#712,#713));
#125=EDGE_LOOP('',(#714,#715,#716,#717));
#126=EDGE_LOOP('',(#718,#719,#720,#721));
#127=EDGE_LOOP('',(#722,#723,#724,#725));
#128=EDGE_LOOP('',(#726,#727,#728,#729,#730,#731,#732,#733));
#129=EDGE_LOOP('',(#734,#735,#736,#737));
#130=EDGE_LOOP('',(#738,#739,#740,#741));
#131=EDGE_LOOP('',(#742));
#132=EDGE_LOOP('',(#743));
#133=EDGE_LOOP('',(#744,#745,#746,#747));
#134=EDGE_LOOP('',(#748));
#135=EDGE_LOOP('',(#749));
#136=EDGE_LOOP('',(#750,#751,#752,#753));
#137=EDGE_LOOP('',(#754,#755,#756,#757));
#138=EDGE_LOOP('',(#758,#759,#760,#761));
#139=EDGE_LOOP('',(#762,#763,#764,#765));
#140=EDGE_LOOP('',(#766,#767,#768,#769));
#141=EDGE_LOOP('',(#770,#771,#772,#773));
#142=EDGE_LOOP('',(#774,#775,#776,#777,#778,#779,#780,#781,#782,#783,#784,
#785,#786,#787,#788,#789));
#143=EDGE_LOOP('',(#790,#791,#792,#793,#794,#795,#796,#797));
#144=EDGE_LOOP('',(#798,#799,#800,#801));
#145=EDGE_LOOP('',(#802,#803,#804,#805,#806,#807,#808,#809));
#146=EDGE_LOOP('',(#810,#811,#812,#813));
#147=EDGE_LOOP('',(#814,#815,#816,#817));
#148=EDGE_LOOP('',(#818,#819,#820,#821,#822,#823,#824,#825));
#149=EDGE_LOOP('',(#826,#827,#828,#829));
#150=EDGE_LOOP('',(#830,#831,#832,#833));
#151=EDGE_LOOP('',(#834,#835,#836,#837));
#152=EDGE_LOOP('',(#838,#839,#840,#841));
#153=EDGE_LOOP('',(#842,#843,#844,#845,#846,#847));
#154=EDGE_LOOP('',(#848));
#155=EDGE_LOOP('',(#849));
#156=LINE('',#1225,#262);
#157=LINE('',#1232,#263);
#158=LINE('',#1238,#264);
#159=LINE('',#1240,#265);
#160=LINE('',#1242,#266);
#161=LINE('',#1244,#267);
#162=LINE('',#1246,#268);
#163=LINE('',#1247,#269);
#164=LINE('',#1250,#270);
#165=LINE('',#1252,#271);
#166=LINE('',#1253,#272);
#167=LINE('',#1256,#273);
#168=LINE('',#1258,#274);
#169=LINE('',#1259,#275);
#170=LINE('',#1262,#276);
#171=LINE('',#1264,#277);
#172=LINE('',#1265,#278);
#173=LINE('',#1266,#279);
#174=LINE('',#1269,#280);
#175=LINE('',#1271,#281);
#176=LINE('',#1273,#282);
#177=LINE('',#1275,#283);
#178=LINE('',#1276,#284);
#179=LINE('',#1279,#285);
#180=LINE('',#1281,#286);
#181=LINE('',#1283,#287);
#182=LINE('',#1289,#288);
#183=LINE('',#1291,#289);
#184=LINE('',#1293,#290);
#185=LINE('',#1295,#291);
#186=LINE('',#1297,#292);
#187=LINE('',#1301,#293);
#188=LINE('',#1305,#294);
#189=LINE('',#1307,#295);
#190=LINE('',#1309,#296);
#191=LINE('',#1311,#297);
#192=LINE('',#1313,#298);
#193=LINE('',#1319,#299);
#194=LINE('',#1321,#300);
#195=LINE('',#1322,#301);
#196=LINE('',#1329,#302);
#197=LINE('',#1331,#303);
#198=LINE('',#1333,#304);
#199=LINE('',#1335,#305);
#200=LINE('',#1336,#306);
#201=LINE('',#1340,#307);
#202=LINE('',#1342,#308);
#203=LINE('',#1344,#309);
#204=LINE('',#1345,#310);
#205=LINE('',#1347,#311);
#206=LINE('',#1348,#312);
#207=LINE('',#1351,#313);
#208=LINE('',#1352,#314);
#209=LINE('',#1354,#315);
#210=LINE('',#1355,#316);
#211=LINE('',#1358,#317);
#212=LINE('',#1360,#318);
#213=LINE('',#1361,#319);
#214=LINE('',#1364,#320);
#215=LINE('',#1366,#321);
#216=LINE('',#1367,#322);
#217=LINE('',#1370,#323);
#218=LINE('',#1372,#324);
#219=LINE('',#1373,#325);
#220=LINE('',#1376,#326);
#221=LINE('',#1378,#327);
#222=LINE('',#1379,#328);
#223=LINE('',#1382,#329);
#224=LINE('',#1383,#330);
#225=LINE('',#1386,#331);
#226=LINE('',#1387,#332);
#227=LINE('',#1390,#333);
#228=LINE('',#1391,#334);
#229=LINE('',#1394,#335);
#230=LINE('',#1395,#336);
#231=LINE('',#1399,#337);
#232=LINE('',#1403,#338);
#233=LINE('',#1404,#339);
#234=LINE('',#1406,#340);
#235=LINE('',#1414,#341);
#236=LINE('',#1416,#342);
#237=LINE('',#1418,#343);
#238=LINE('',#1419,#344);
#239=LINE('',#1422,#345);
#240=LINE('',#1424,#346);
#241=LINE('',#1425,#347);
#242=LINE('',#1428,#348);
#243=LINE('',#1429,#349);
#244=LINE('',#1432,#350);
#245=LINE('',#1433,#351);
#246=LINE('',#1435,#352);
#247=LINE('',#1438,#353);
#248=LINE('',#1439,#354);
#249=LINE('',#1442,#355);
#250=LINE('',#1443,#356);
#251=LINE('',#1445,#357);
#252=LINE('',#1447,#358);
#253=LINE('',#1452,#359);
#254=LINE('',#1453,#360);
#255=LINE('',#1455,#361);
#256=LINE('',#1456,#362);
#257=LINE('',#1460,#363);
#258=LINE('',#1462,#364);
#259=LINE('',#1468,#365);
#260=LINE('',#1472,#366);
#261=LINE('',#1474,#367);
#262=VECTOR('',#988,1.25);
#263=VECTOR('',#997,1.25);
#264=VECTOR('',#1004,10.);
#265=VECTOR('',#1005,10.);
#266=VECTOR('',#1006,10.);
#267=VECTOR('',#1007,10.);
#268=VECTOR('',#1008,10.);
#269=VECTOR('',#1009,10.);
#270=VECTOR('',#1012,10.);
#271=VECTOR('',#1013,10.);
#272=VECTOR('',#1014,10.);
#273=VECTOR('',#1017,10.);
#274=VECTOR('',#1018,10.);
#275=VECTOR('',#1019,10.);
#276=VECTOR('',#1022,10.);
#277=VECTOR('',#1023,10.);
#278=VECTOR('',#1024,10.);
#279=VECTOR('',#1025,10.);
#280=VECTOR('',#1028,10.);
#281=VECTOR('',#1029,10.);
#282=VECTOR('',#1030,10.);
#283=VECTOR('',#1031,10.);
#284=VECTOR('',#1032,10.);
#285=VECTOR('',#1035,10.);
#286=VECTOR('',#1036,10.);
#287=VECTOR('',#1037,10.);
#288=VECTOR('',#1042,10.);
#289=VECTOR('',#1043,10.);
#290=VECTOR('',#1044,10.);
#291=VECTOR('',#1045,10.);
#292=VECTOR('',#1046,10.);
#293=VECTOR('',#1049,10.);
#294=VECTOR('',#1052,10.);
#295=VECTOR('',#1053,10.);
#296=VECTOR('',#1054,10.);
#297=VECTOR('',#1055,10.);
#298=VECTOR('',#1056,10.);
#299=VECTOR('',#1061,10.);
#300=VECTOR('',#1062,10.);
#301=VECTOR('',#1063,10.);
#302=VECTOR('',#1070,10.);
#303=VECTOR('',#1071,10.);
#304=VECTOR('',#1072,10.);
#305=VECTOR('',#1073,10.);
#306=VECTOR('',#1074,10.);
#307=VECTOR('',#1077,10.);
#308=VECTOR('',#1078,10.);
#309=VECTOR('',#1079,10.);
#310=VECTOR('',#1080,10.);
#311=VECTOR('',#1083,10.);
#312=VECTOR('',#1084,10.);
#313=VECTOR('',#1087,10.);
#314=VECTOR('',#1088,10.);
#315=VECTOR('',#1089,10.);
#316=VECTOR('',#1090,10.);
#317=VECTOR('',#1093,10.);
#318=VECTOR('',#1094,10.);
#319=VECTOR('',#1095,10.);
#320=VECTOR('',#1098,10.);
#321=VECTOR('',#1099,10.);
#322=VECTOR('',#1100,10.);
#323=VECTOR('',#1103,10.);
#324=VECTOR('',#1104,10.);
#325=VECTOR('',#1105,10.);
#326=VECTOR('',#1108,10.);
#327=VECTOR('',#1109,10.);
#328=VECTOR('',#1110,10.);
#329=VECTOR('',#1113,10.);
#330=VECTOR('',#1114,10.);
#331=VECTOR('',#1117,10.);
#332=VECTOR('',#1118,10.);
#333=VECTOR('',#1121,10.);
#334=VECTOR('',#1122,10.);
#335=VECTOR('',#1125,10.);
#336=VECTOR('',#1126,10.);
#337=VECTOR('',#1131,4.);
#338=VECTOR('',#1136,10.);
#339=VECTOR('',#1137,10.);
#340=VECTOR('',#1140,10.);
#341=VECTOR('',#1149,10.);
#342=VECTOR('',#1150,10.);
#343=VECTOR('',#1151,10.);
#344=VECTOR('',#1152,10.);
#345=VECTOR('',#1155,10.);
#346=VECTOR('',#1156,10.);
#347=VECTOR('',#1157,10.);
#348=VECTOR('',#1160,10.);
#349=VECTOR('',#1161,10.);
#350=VECTOR('',#1164,10.);
#351=VECTOR('',#1165,10.);
#352=VECTOR('',#1168,10.);
#353=VECTOR('',#1171,10.);
#354=VECTOR('',#1172,10.);
#355=VECTOR('',#1175,10.);
#356=VECTOR('',#1176,10.);
#357=VECTOR('',#1179,10.);
#358=VECTOR('',#1182,4.);
#359=VECTOR('',#1187,10.);
#360=VECTOR('',#1188,10.);
#361=VECTOR('',#1191,10.);
#362=VECTOR('',#1192,10.);
#363=VECTOR('',#1197,10.);
#364=VECTOR('',#1200,10.);
#365=VECTOR('',#1209,2.4);
#366=VECTOR('',#1214,2.4);
#367=VECTOR('',#1217,10.);
#368=CIRCLE('',#918,1.25);
#369=CIRCLE('',#919,1.25);
#370=CIRCLE('',#922,1.25);
#371=CIRCLE('',#923,1.25);
#372=CIRCLE('',#931,4.);
#373=CIRCLE('',#932,4.);
#374=CIRCLE('',#933,5.);
#375=CIRCLE('',#934,5.);
#376=CIRCLE('',#935,4.);
#377=CIRCLE('',#936,4.);
#378=CIRCLE('',#937,2.4);
#379=CIRCLE('',#938,2.4);
#380=CIRCLE('',#952,4.);
#381=CIRCLE('',#953,4.);
#382=CIRCLE('',#957,4.);
#383=CIRCLE('',#966,4.);
#384=CIRCLE('',#969,5.);
#385=CIRCLE('',#972,5.);
#386=CIRCLE('',#977,2.4);
#387=CIRCLE('',#979,2.4);
#388=VERTEX_POINT('',#1222);
#389=VERTEX_POINT('',#1224);
#390=VERTEX_POINT('',#1229);
#391=VERTEX_POINT('',#1231);
#392=VERTEX_POINT('',#1236);
#393=VERTEX_POINT('',#1237);
#394=VERTEX_POINT('',#1239);
#395=VERTEX_POINT('',#1241);
#396=VERTEX_POINT('',#1243);
#397=VERTEX_POINT('',#1245);
#398=VERTEX_POINT('',#1249);
#399=VERTEX_POINT('',#1251);
#400=VERTEX_POINT('',#1255);
#401=VERTEX_POINT('',#1257);
#402=VERTEX_POINT('',#1261);
#403=VERTEX_POINT('',#1263);
#404=VERTEX_POINT('',#1268);
#405=VERTEX_POINT('',#1270);
#406=VERTEX_POINT('',#1272);
#407=VERTEX_POINT('',#1274);
#408=VERTEX_POINT('',#1278);
#409=VERTEX_POINT('',#1280);
#410=VERTEX_POINT('',#1282);
#411=VERTEX_POINT('',#1284);
#412=VERTEX_POINT('',#1286);
#413=VERTEX_POINT('',#1288);
#414=VERTEX_POINT('',#1290);
#415=VERTEX_POINT('',#1292);
#416=VERTEX_POINT('',#1294);
#417=VERTEX_POINT('',#1296);
#418=VERTEX_POINT('',#1298);
#419=VERTEX_POINT('',#1300);
#420=VERTEX_POINT('',#1302);
#421=VERTEX_POINT('',#1304);
#422=VERTEX_POINT('',#1306);
#423=VERTEX_POINT('',#1308);
#424=VERTEX_POINT('',#1310);
#425=VERTEX_POINT('',#1312);
#426=VERTEX_POINT('',#1314);
#427=VERTEX_POINT('',#1316);
#428=VERTEX_POINT('',#1318);
#429=VERTEX_POINT('',#1320);
#430=VERTEX_POINT('',#1323);
#431=VERTEX_POINT('',#1325);
#432=VERTEX_POINT('',#1328);
#433=VERTEX_POINT('',#1330);
#434=VERTEX_POINT('',#1332);
#435=VERTEX_POINT('',#1334);
#436=VERTEX_POINT('',#1338);
#437=VERTEX_POINT('',#1339);
#438=VERTEX_POINT('',#1341);
#439=VERTEX_POINT('',#1343);
#440=VERTEX_POINT('',#1350);
#441=VERTEX_POINT('',#1353);
#442=VERTEX_POINT('',#1357);
#443=VERTEX_POINT('',#1359);
#444=VERTEX_POINT('',#1363);
#445=VERTEX_POINT('',#1365);
#446=VERTEX_POINT('',#1369);
#447=VERTEX_POINT('',#1371);
#448=VERTEX_POINT('',#1375);
#449=VERTEX_POINT('',#1377);
#450=VERTEX_POINT('',#1381);
#451=VERTEX_POINT('',#1385);
#452=VERTEX_POINT('',#1389);
#453=VERTEX_POINT('',#1393);
#454=VERTEX_POINT('',#1398);
#455=VERTEX_POINT('',#1402);
#456=VERTEX_POINT('',#1408);
#457=VERTEX_POINT('',#1412);
#458=VERTEX_POINT('',#1413);
#459=VERTEX_POINT('',#1415);
#460=VERTEX_POINT('',#1417);
#461=VERTEX_POINT('',#1421);
#462=VERTEX_POINT('',#1423);
#463=VERTEX_POINT('',#1427);
#464=VERTEX_POINT('',#1431);
#465=VERTEX_POINT('',#1437);
#466=VERTEX_POINT('',#1441);
#467=VERTEX_POINT('',#1449);
#468=VERTEX_POINT('',#1450);
#469=VERTEX_POINT('',#1458);
#470=VERTEX_POINT('',#1466);
#471=VERTEX_POINT('',#1470);
#472=EDGE_CURVE('',#388,#388,#368,.T.);
#473=EDGE_CURVE('',#388,#389,#156,.T.);
#474=EDGE_CURVE('',#389,#389,#369,.T.);
#475=EDGE_CURVE('',#390,#390,#370,.T.);
#476=EDGE_CURVE('',#390,#391,#157,.T.);
#477=EDGE_CURVE('',#391,#391,#371,.T.);
#478=EDGE_CURVE('',#392,#393,#158,.T.);
#479=EDGE_CURVE('',#394,#392,#159,.T.);
#480=EDGE_CURVE('',#394,#395,#160,.T.);
#481=EDGE_CURVE('',#396,#395,#161,.T.);
#482=EDGE_CURVE('',#397,#396,#162,.T.);
#483=EDGE_CURVE('',#397,#393,#163,.T.);
#484=EDGE_CURVE('',#395,#398,#164,.T.);
#485=EDGE_CURVE('',#399,#394,#165,.T.);
#486=EDGE_CURVE('',#398,#399,#166,.T.);
#487=EDGE_CURVE('',#393,#400,#167,.T.);
#488=EDGE_CURVE('',#401,#397,#168,.T.);
#489=EDGE_CURVE('',#401,#400,#169,.T.);
#490=EDGE_CURVE('',#400,#402,#170,.T.);
#491=EDGE_CURVE('',#403,#401,#171,.T.);
#492=EDGE_CURVE('',#398,#403,#172,.T.);
#493=EDGE_CURVE('',#399,#402,#173,.T.);
#494=EDGE_CURVE('',#404,#392,#174,.T.);
#495=EDGE_CURVE('',#405,#404,#175,.T.);
#496=EDGE_CURVE('',#406,#405,#176,.T.);
#497=EDGE_CURVE('',#407,#406,#177,.T.);
#498=EDGE_CURVE('',#402,#407,#178,.T.);
#499=EDGE_CURVE('',#407,#408,#179,.T.);
#500=EDGE_CURVE('',#408,#409,#180,.T.);
#501=EDGE_CURVE('',#409,#410,#181,.T.);
#502=EDGE_CURVE('',#410,#411,#372,.T.);
#503=EDGE_CURVE('',#411,#412,#373,.T.);
#504=EDGE_CURVE('',#412,#413,#182,.T.);
#505=EDGE_CURVE('',#413,#414,#183,.T.);
#506=EDGE_CURVE('',#414,#415,#184,.T.);
#507=EDGE_CURVE('',#416,#415,#185,.T.);
#508=EDGE_CURVE('',#417,#416,#186,.T.);
#509=EDGE_CURVE('',#418,#417,#374,.T.);
#510=EDGE_CURVE('',#419,#418,#187,.T.);
#511=EDGE_CURVE('',#420,#419,#375,.T.);
#512=EDGE_CURVE('',#420,#421,#188,.T.);
#513=EDGE_CURVE('',#422,#421,#189,.T.);
#514=EDGE_CURVE('',#423,#422,#190,.T.);
#515=EDGE_CURVE('',#423,#424,#191,.T.);
#516=EDGE_CURVE('',#424,#425,#192,.T.);
#517=EDGE_CURVE('',#425,#426,#376,.T.);
#518=EDGE_CURVE('',#426,#427,#377,.T.);
#519=EDGE_CURVE('',#427,#428,#193,.T.);
#520=EDGE_CURVE('',#428,#429,#194,.T.);
#521=EDGE_CURVE('',#404,#429,#195,.T.);
#522=EDGE_CURVE('',#430,#430,#378,.T.);
#523=EDGE_CURVE('',#431,#431,#379,.T.);
#524=EDGE_CURVE('',#403,#432,#196,.T.);
#525=EDGE_CURVE('',#433,#432,#197,.T.);
#526=EDGE_CURVE('',#434,#433,#198,.T.);
#527=EDGE_CURVE('',#435,#434,#199,.T.);
#528=EDGE_CURVE('',#435,#396,#200,.T.);
#529=EDGE_CURVE('',#436,#437,#201,.T.);
#530=EDGE_CURVE('',#438,#436,#202,.T.);
#531=EDGE_CURVE('',#439,#438,#203,.T.);
#532=EDGE_CURVE('',#439,#437,#204,.T.);
#533=EDGE_CURVE('',#435,#439,#205,.T.);
#534=EDGE_CURVE('',#438,#432,#206,.T.);
#535=EDGE_CURVE('',#440,#420,#207,.T.);
#536=EDGE_CURVE('',#437,#440,#208,.T.);
#537=EDGE_CURVE('',#441,#434,#209,.T.);
#538=EDGE_CURVE('',#421,#441,#210,.T.);
#539=EDGE_CURVE('',#442,#427,#211,.T.);
#540=EDGE_CURVE('',#442,#443,#212,.T.);
#541=EDGE_CURVE('',#443,#428,#213,.T.);
#542=EDGE_CURVE('',#444,#424,#214,.T.);
#543=EDGE_CURVE('',#444,#445,#215,.T.);
#544=EDGE_CURVE('',#425,#445,#216,.T.);
#545=EDGE_CURVE('',#446,#413,#217,.T.);
#546=EDGE_CURVE('',#446,#447,#218,.T.);
#547=EDGE_CURVE('',#414,#447,#219,.T.);
#548=EDGE_CURVE('',#448,#408,#220,.T.);
#549=EDGE_CURVE('',#448,#449,#221,.T.);
#550=EDGE_CURVE('',#449,#409,#222,.T.);
#551=EDGE_CURVE('',#443,#450,#223,.T.);
#552=EDGE_CURVE('',#429,#450,#224,.T.);
#553=EDGE_CURVE('',#449,#451,#225,.T.);
#554=EDGE_CURVE('',#410,#451,#226,.T.);
#555=EDGE_CURVE('',#452,#423,#227,.T.);
#556=EDGE_CURVE('',#452,#444,#228,.T.);
#557=EDGE_CURVE('',#453,#412,#229,.T.);
#558=EDGE_CURVE('',#453,#446,#230,.T.);
#559=EDGE_CURVE('',#445,#442,#380,.T.);
#560=EDGE_CURVE('',#426,#454,#231,.T.);
#561=EDGE_CURVE('',#454,#454,#381,.T.);
#562=EDGE_CURVE('',#447,#455,#232,.T.);
#563=EDGE_CURVE('',#415,#455,#233,.T.);
#564=EDGE_CURVE('',#405,#450,#234,.T.);
#565=EDGE_CURVE('',#456,#456,#382,.T.);
#566=EDGE_CURVE('',#457,#458,#235,.T.);
#567=EDGE_CURVE('',#458,#459,#236,.T.);
#568=EDGE_CURVE('',#459,#460,#237,.T.);
#569=EDGE_CURVE('',#460,#457,#238,.T.);
#570=EDGE_CURVE('',#460,#461,#239,.T.);
#571=EDGE_CURVE('',#462,#461,#240,.T.);
#572=EDGE_CURVE('',#457,#462,#241,.T.);
#573=EDGE_CURVE('',#459,#463,#242,.T.);
#574=EDGE_CURVE('',#461,#463,#243,.T.);
#575=EDGE_CURVE('',#458,#464,#244,.T.);
#576=EDGE_CURVE('',#463,#464,#245,.T.);
#577=EDGE_CURVE('',#464,#462,#246,.T.);
#578=EDGE_CURVE('',#433,#465,#247,.T.);
#579=EDGE_CURVE('',#465,#441,#248,.T.);
#580=EDGE_CURVE('',#452,#466,#249,.T.);
#581=EDGE_CURVE('',#466,#455,#250,.T.);
#582=EDGE_CURVE('',#451,#453,#383,.T.);
#583=EDGE_CURVE('',#406,#448,#251,.T.);
#584=EDGE_CURVE('',#411,#456,#252,.T.);
#585=EDGE_CURVE('',#467,#468,#384,.T.);
#586=EDGE_CURVE('',#468,#418,#253,.T.);
#587=EDGE_CURVE('',#417,#467,#254,.T.);
#588=EDGE_CURVE('',#467,#436,#255,.T.);
#589=EDGE_CURVE('',#416,#465,#256,.T.);
#590=EDGE_CURVE('',#469,#440,#385,.T.);
#591=EDGE_CURVE('',#419,#469,#257,.T.);
#592=EDGE_CURVE('',#466,#422,#258,.T.);
#593=EDGE_CURVE('',#470,#470,#386,.T.);
#594=EDGE_CURVE('',#470,#430,#259,.T.);
#595=EDGE_CURVE('',#471,#471,#387,.T.);
#596=EDGE_CURVE('',#471,#431,#260,.T.);
#597=EDGE_CURVE('',#469,#468,#261,.T.);
#598=ORIENTED_EDGE('',*,*,#472,.T.);
#599=ORIENTED_EDGE('',*,*,#473,.T.);
#600=ORIENTED_EDGE('',*,*,#474,.F.);
#601=ORIENTED_EDGE('',*,*,#473,.F.);
#602=ORIENTED_EDGE('',*,*,#472,.F.);
#603=ORIENTED_EDGE('',*,*,#475,.T.);
#604=ORIENTED_EDGE('',*,*,#476,.T.);
#605=ORIENTED_EDGE('',*,*,#477,.F.);
#606=ORIENTED_EDGE('',*,*,#476,.F.);
#607=ORIENTED_EDGE('',*,*,#475,.F.);
#608=ORIENTED_EDGE('',*,*,#478,.F.);
#609=ORIENTED_EDGE('',*,*,#479,.F.);
#610=ORIENTED_EDGE('',*,*,#480,.T.);
#611=ORIENTED_EDGE('',*,*,#481,.F.);
#612=ORIENTED_EDGE('',*,*,#482,.F.);
#613=ORIENTED_EDGE('',*,*,#483,.T.);
#614=ORIENTED_EDGE('',*,*,#484,.F.);
#615=ORIENTED_EDGE('',*,*,#480,.F.);
#616=ORIENTED_EDGE('',*,*,#485,.F.);
#617=ORIENTED_EDGE('',*,*,#486,.F.);
#618=ORIENTED_EDGE('',*,*,#487,.F.);
#619=ORIENTED_EDGE('',*,*,#483,.F.);
#620=ORIENTED_EDGE('',*,*,#488,.F.);
#621=ORIENTED_EDGE('',*,*,#489,.T.);
#622=ORIENTED_EDGE('',*,*,#490,.F.);
#623=ORIENTED_EDGE('',*,*,#489,.F.);
#624=ORIENTED_EDGE('',*,*,#491,.F.);
#625=ORIENTED_EDGE('',*,*,#492,.F.);
#626=ORIENTED_EDGE('',*,*,#486,.T.);
#627=ORIENTED_EDGE('',*,*,#493,.T.);
#628=ORIENTED_EDGE('',*,*,#494,.F.);
#629=ORIENTED_EDGE('',*,*,#495,.F.);
#630=ORIENTED_EDGE('',*,*,#496,.F.);
#631=ORIENTED_EDGE('',*,*,#497,.F.);
#632=ORIENTED_EDGE('',*,*,#498,.F.);
#633=ORIENTED_EDGE('',*,*,#493,.F.);
#634=ORIENTED_EDGE('',*,*,#485,.T.);
#635=ORIENTED_EDGE('',*,*,#479,.T.);
#636=ORIENTED_EDGE('',*,*,#494,.T.);
#637=ORIENTED_EDGE('',*,*,#478,.T.);
#638=ORIENTED_EDGE('',*,*,#487,.T.);
#639=ORIENTED_EDGE('',*,*,#490,.T.);
#640=ORIENTED_EDGE('',*,*,#498,.T.);
#641=ORIENTED_EDGE('',*,*,#499,.T.);
#642=ORIENTED_EDGE('',*,*,#500,.T.);
#643=ORIENTED_EDGE('',*,*,#501,.T.);
#644=ORIENTED_EDGE('',*,*,#502,.T.);
#645=ORIENTED_EDGE('',*,*,#503,.T.);
#646=ORIENTED_EDGE('',*,*,#504,.T.);
#647=ORIENTED_EDGE('',*,*,#505,.T.);
#648=ORIENTED_EDGE('',*,*,#506,.T.);
#649=ORIENTED_EDGE('',*,*,#507,.F.);
#650=ORIENTED_EDGE('',*,*,#508,.F.);
#651=ORIENTED_EDGE('',*,*,#509,.F.);
#652=ORIENTED_EDGE('',*,*,#510,.F.);
#653=ORIENTED_EDGE('',*,*,#511,.F.);
#654=ORIENTED_EDGE('',*,*,#512,.T.);
#655=ORIENTED_EDGE('',*,*,#513,.F.);
#656=ORIENTED_EDGE('',*,*,#514,.F.);
#657=ORIENTED_EDGE('',*,*,#515,.T.);
#658=ORIENTED_EDGE('',*,*,#516,.T.);
#659=ORIENTED_EDGE('',*,*,#517,.T.);
#660=ORIENTED_EDGE('',*,*,#518,.T.);
#661=ORIENTED_EDGE('',*,*,#519,.T.);
#662=ORIENTED_EDGE('',*,*,#520,.T.);
#663=ORIENTED_EDGE('',*,*,#521,.F.);
#664=ORIENTED_EDGE('',*,*,#522,.F.);
#665=ORIENTED_EDGE('',*,*,#523,.F.);
#666=ORIENTED_EDGE('',*,*,#481,.T.);
#667=ORIENTED_EDGE('',*,*,#484,.T.);
#668=ORIENTED_EDGE('',*,*,#492,.T.);
#669=ORIENTED_EDGE('',*,*,#524,.T.);
#670=ORIENTED_EDGE('',*,*,#525,.F.);
#671=ORIENTED_EDGE('',*,*,#526,.F.);
#672=ORIENTED_EDGE('',*,*,#527,.F.);
#673=ORIENTED_EDGE('',*,*,#528,.T.);
#674=ORIENTED_EDGE('',*,*,#529,.F.);
#675=ORIENTED_EDGE('',*,*,#530,.F.);
#676=ORIENTED_EDGE('',*,*,#531,.F.);
#677=ORIENTED_EDGE('',*,*,#532,.T.);
#678=ORIENTED_EDGE('',*,*,#482,.T.);
#679=ORIENTED_EDGE('',*,*,#528,.F.);
#680=ORIENTED_EDGE('',*,*,#533,.T.);
#681=ORIENTED_EDGE('',*,*,#531,.T.);
#682=ORIENTED_EDGE('',*,*,#534,.T.);
#683=ORIENTED_EDGE('',*,*,#524,.F.);
#684=ORIENTED_EDGE('',*,*,#491,.T.);
#685=ORIENTED_EDGE('',*,*,#488,.T.);
#686=ORIENTED_EDGE('',*,*,#512,.F.);
#687=ORIENTED_EDGE('',*,*,#535,.F.);
#688=ORIENTED_EDGE('',*,*,#536,.F.);
#689=ORIENTED_EDGE('',*,*,#532,.F.);
#690=ORIENTED_EDGE('',*,*,#533,.F.);
#691=ORIENTED_EDGE('',*,*,#527,.T.);
#692=ORIENTED_EDGE('',*,*,#537,.F.);
#693=ORIENTED_EDGE('',*,*,#538,.F.);
#694=ORIENTED_EDGE('',*,*,#539,.F.);
#695=ORIENTED_EDGE('',*,*,#540,.T.);
#696=ORIENTED_EDGE('',*,*,#541,.T.);
#697=ORIENTED_EDGE('',*,*,#519,.F.);
#698=ORIENTED_EDGE('',*,*,#516,.F.);
#699=ORIENTED_EDGE('',*,*,#542,.F.);
#700=ORIENTED_EDGE('',*,*,#543,.T.);
#701=ORIENTED_EDGE('',*,*,#544,.F.);
#702=ORIENTED_EDGE('',*,*,#505,.F.);
#703=ORIENTED_EDGE('',*,*,#545,.F.);
#704=ORIENTED_EDGE('',*,*,#546,.T.);
#705=ORIENTED_EDGE('',*,*,#547,.F.);
#706=ORIENTED_EDGE('',*,*,#500,.F.);
#707=ORIENTED_EDGE('',*,*,#548,.F.);
#708=ORIENTED_EDGE('',*,*,#549,.T.);
#709=ORIENTED_EDGE('',*,*,#550,.T.);
#710=ORIENTED_EDGE('',*,*,#520,.F.);
#711=ORIENTED_EDGE('',*,*,#541,.F.);
#712=ORIENTED_EDGE('',*,*,#551,.T.);
#713=ORIENTED_EDGE('',*,*,#552,.F.);
#714=ORIENTED_EDGE('',*,*,#501,.F.);
#715=ORIENTED_EDGE('',*,*,#550,.F.);
#716=ORIENTED_EDGE('',*,*,#553,.T.);
#717=ORIENTED_EDGE('',*,*,#554,.F.);
#718=ORIENTED_EDGE('',*,*,#515,.F.);
#719=ORIENTED_EDGE('',*,*,#555,.F.);
#720=ORIENTED_EDGE('',*,*,#556,.T.);
#721=ORIENTED_EDGE('',*,*,#542,.T.);
#722=ORIENTED_EDGE('',*,*,#504,.F.);
#723=ORIENTED_EDGE('',*,*,#557,.F.);
#724=ORIENTED_EDGE('',*,*,#558,.T.);
#725=ORIENTED_EDGE('',*,*,#545,.T.);
#726=ORIENTED_EDGE('',*,*,#544,.T.);
#727=ORIENTED_EDGE('',*,*,#559,.T.);
#728=ORIENTED_EDGE('',*,*,#539,.T.);
#729=ORIENTED_EDGE('',*,*,#518,.F.);
#730=ORIENTED_EDGE('',*,*,#560,.T.);
#731=ORIENTED_EDGE('',*,*,#561,.F.);
#732=ORIENTED_EDGE('',*,*,#560,.F.);
#733=ORIENTED_EDGE('',*,*,#517,.F.);
#734=ORIENTED_EDGE('',*,*,#547,.T.);
#735=ORIENTED_EDGE('',*,*,#562,.T.);
#736=ORIENTED_EDGE('',*,*,#563,.F.);
#737=ORIENTED_EDGE('',*,*,#506,.F.);
#738=ORIENTED_EDGE('',*,*,#495,.T.);
#739=ORIENTED_EDGE('',*,*,#521,.T.);
#740=ORIENTED_EDGE('',*,*,#552,.T.);
#741=ORIENTED_EDGE('',*,*,#564,.F.);
#742=ORIENTED_EDGE('',*,*,#565,.T.);
#743=ORIENTED_EDGE('',*,*,#561,.T.);
#744=ORIENTED_EDGE('',*,*,#566,.T.);
#745=ORIENTED_EDGE('',*,*,#567,.T.);
#746=ORIENTED_EDGE('',*,*,#568,.T.);
#747=ORIENTED_EDGE('',*,*,#569,.T.);
#748=ORIENTED_EDGE('',*,*,#474,.T.);
#749=ORIENTED_EDGE('',*,*,#477,.T.);
#750=ORIENTED_EDGE('',*,*,#570,.T.);
#751=ORIENTED_EDGE('',*,*,#571,.F.);
#752=ORIENTED_EDGE('',*,*,#572,.F.);
#753=ORIENTED_EDGE('',*,*,#569,.F.);
#754=ORIENTED_EDGE('',*,*,#573,.T.);
#755=ORIENTED_EDGE('',*,*,#574,.F.);
#756=ORIENTED_EDGE('',*,*,#570,.F.);
#757=ORIENTED_EDGE('',*,*,#568,.F.);
#758=ORIENTED_EDGE('',*,*,#575,.T.);
#759=ORIENTED_EDGE('',*,*,#576,.F.);
#760=ORIENTED_EDGE('',*,*,#573,.F.);
#761=ORIENTED_EDGE('',*,*,#567,.F.);
#762=ORIENTED_EDGE('',*,*,#572,.T.);
#763=ORIENTED_EDGE('',*,*,#577,.F.);
#764=ORIENTED_EDGE('',*,*,#575,.F.);
#765=ORIENTED_EDGE('',*,*,#566,.F.);
#766=ORIENTED_EDGE('',*,*,#578,.T.);
#767=ORIENTED_EDGE('',*,*,#579,.T.);
#768=ORIENTED_EDGE('',*,*,#537,.T.);
#769=ORIENTED_EDGE('',*,*,#526,.T.);
#770=ORIENTED_EDGE('',*,*,#571,.T.);
#771=ORIENTED_EDGE('',*,*,#574,.T.);
#772=ORIENTED_EDGE('',*,*,#576,.T.);
#773=ORIENTED_EDGE('',*,*,#577,.T.);
#774=ORIENTED_EDGE('',*,*,#496,.T.);
#775=ORIENTED_EDGE('',*,*,#564,.T.);
#776=ORIENTED_EDGE('',*,*,#551,.F.);
#777=ORIENTED_EDGE('',*,*,#540,.F.);
#778=ORIENTED_EDGE('',*,*,#559,.F.);
#779=ORIENTED_EDGE('',*,*,#543,.F.);
#780=ORIENTED_EDGE('',*,*,#556,.F.);
#781=ORIENTED_EDGE('',*,*,#580,.T.);
#782=ORIENTED_EDGE('',*,*,#581,.T.);
#783=ORIENTED_EDGE('',*,*,#562,.F.);
#784=ORIENTED_EDGE('',*,*,#546,.F.);
#785=ORIENTED_EDGE('',*,*,#558,.F.);
#786=ORIENTED_EDGE('',*,*,#582,.F.);
#787=ORIENTED_EDGE('',*,*,#553,.F.);
#788=ORIENTED_EDGE('',*,*,#549,.F.);
#789=ORIENTED_EDGE('',*,*,#583,.F.);
#790=ORIENTED_EDGE('',*,*,#557,.T.);
#791=ORIENTED_EDGE('',*,*,#503,.F.);
#792=ORIENTED_EDGE('',*,*,#584,.T.);
#793=ORIENTED_EDGE('',*,*,#565,.F.);
#794=ORIENTED_EDGE('',*,*,#584,.F.);
#795=ORIENTED_EDGE('',*,*,#502,.F.);
#796=ORIENTED_EDGE('',*,*,#554,.T.);
#797=ORIENTED_EDGE('',*,*,#582,.T.);
#798=ORIENTED_EDGE('',*,*,#585,.T.);
#799=ORIENTED_EDGE('',*,*,#586,.T.);
#800=ORIENTED_EDGE('',*,*,#509,.T.);
#801=ORIENTED_EDGE('',*,*,#587,.T.);
#802=ORIENTED_EDGE('',*,*,#588,.F.);
#803=ORIENTED_EDGE('',*,*,#587,.F.);
#804=ORIENTED_EDGE('',*,*,#508,.T.);
#805=ORIENTED_EDGE('',*,*,#589,.T.);
#806=ORIENTED_EDGE('',*,*,#578,.F.);
#807=ORIENTED_EDGE('',*,*,#525,.T.);
#808=ORIENTED_EDGE('',*,*,#534,.F.);
#809=ORIENTED_EDGE('',*,*,#530,.T.);
#810=ORIENTED_EDGE('',*,*,#590,.T.);
#811=ORIENTED_EDGE('',*,*,#535,.T.);
#812=ORIENTED_EDGE('',*,*,#511,.T.);
#813=ORIENTED_EDGE('',*,*,#591,.T.);
#814=ORIENTED_EDGE('',*,*,#555,.T.);
#815=ORIENTED_EDGE('',*,*,#514,.T.);
#816=ORIENTED_EDGE('',*,*,#592,.F.);
#817=ORIENTED_EDGE('',*,*,#580,.F.);
#818=ORIENTED_EDGE('',*,*,#592,.T.);
#819=ORIENTED_EDGE('',*,*,#513,.T.);
#820=ORIENTED_EDGE('',*,*,#538,.T.);
#821=ORIENTED_EDGE('',*,*,#579,.F.);
#822=ORIENTED_EDGE('',*,*,#589,.F.);
#823=ORIENTED_EDGE('',*,*,#507,.T.);
#824=ORIENTED_EDGE('',*,*,#563,.T.);
#825=ORIENTED_EDGE('',*,*,#581,.F.);
#826=ORIENTED_EDGE('',*,*,#497,.T.);
#827=ORIENTED_EDGE('',*,*,#583,.T.);
#828=ORIENTED_EDGE('',*,*,#548,.T.);
#829=ORIENTED_EDGE('',*,*,#499,.F.);
#830=ORIENTED_EDGE('',*,*,#593,.F.);
#831=ORIENTED_EDGE('',*,*,#594,.T.);
#832=ORIENTED_EDGE('',*,*,#522,.T.);
#833=ORIENTED_EDGE('',*,*,#594,.F.);
#834=ORIENTED_EDGE('',*,*,#595,.F.);
#835=ORIENTED_EDGE('',*,*,#596,.T.);
#836=ORIENTED_EDGE('',*,*,#523,.T.);
#837=ORIENTED_EDGE('',*,*,#596,.F.);
#838=ORIENTED_EDGE('',*,*,#586,.F.);
#839=ORIENTED_EDGE('',*,*,#597,.F.);
#840=ORIENTED_EDGE('',*,*,#591,.F.);
#841=ORIENTED_EDGE('',*,*,#510,.T.);
#842=ORIENTED_EDGE('',*,*,#529,.T.);
#843=ORIENTED_EDGE('',*,*,#536,.T.);
#844=ORIENTED_EDGE('',*,*,#590,.F.);
#845=ORIENTED_EDGE('',*,*,#597,.T.);
#846=ORIENTED_EDGE('',*,*,#585,.F.);
#847=ORIENTED_EDGE('',*,*,#588,.T.);
#848=ORIENTED_EDGE('',*,*,#595,.T.);
#849=ORIENTED_EDGE('',*,*,#593,.T.);
#850=CYLINDRICAL_SURFACE('',#917,1.25);
#851=CYLINDRICAL_SURFACE('',#921,1.25);
#852=CYLINDRICAL_SURFACE('',#951,4.);
#853=CYLINDRICAL_SURFACE('',#967,4.);
#854=CYLINDRICAL_SURFACE('',#968,5.);
#855=CYLINDRICAL_SURFACE('',#971,5.);
#856=CYLINDRICAL_SURFACE('',#976,2.4);
#857=CYLINDRICAL_SURFACE('',#978,2.4);
#858=ADVANCED_FACE('',(#59),#850,.F.);
#859=ADVANCED_FACE('',(#60),#22,.F.);
#860=ADVANCED_FACE('',(#61),#851,.F.);
#861=ADVANCED_FACE('',(#62),#23,.F.);
#862=ADVANCED_FACE('',(#63),#24,.T.);
#863=ADVANCED_FACE('',(#64),#25,.F.);
#864=ADVANCED_FACE('',(#65),#26,.T.);
#865=ADVANCED_FACE('',(#66),#27,.T.);
#866=ADVANCED_FACE('',(#67),#28,.T.);
#867=ADVANCED_FACE('',(#68,#15,#16),#29,.F.);
#868=ADVANCED_FACE('',(#69),#30,.F.);
#869=ADVANCED_FACE('',(#70),#31,.F.);
#870=ADVANCED_FACE('',(#71),#32,.T.);
#871=ADVANCED_FACE('',(#72),#33,.T.);
#872=ADVANCED_FACE('',(#73),#34,.T.);
#873=ADVANCED_FACE('',(#74),#35,.T.);
#874=ADVANCED_FACE('',(#75),#36,.T.);
#875=ADVANCED_FACE('',(#76),#37,.T.);
#876=ADVANCED_FACE('',(#77),#38,.T.);
#877=ADVANCED_FACE('',(#78),#39,.T.);
#878=ADVANCED_FACE('',(#79),#40,.T.);
#879=ADVANCED_FACE('',(#80),#41,.T.);
#880=ADVANCED_FACE('',(#81),#852,.F.);
#881=ADVANCED_FACE('',(#82),#42,.T.);
#882=ADVANCED_FACE('',(#83),#43,.T.);
#883=ADVANCED_FACE('',(#84),#44,.F.);
#884=ADVANCED_FACE('',(#85),#45,.F.);
#885=ADVANCED_FACE('',(#86,#17,#18),#46,.T.);
#886=ADVANCED_FACE('',(#87),#47,.F.);
#887=ADVANCED_FACE('',(#88),#48,.F.);
#888=ADVANCED_FACE('',(#89),#49,.F.);
#889=ADVANCED_FACE('',(#90),#50,.F.);
#890=ADVANCED_FACE('',(#91,#19),#51,.T.);
#891=ADVANCED_FACE('',(#92),#52,.F.);
#892=ADVANCED_FACE('',(#93),#853,.F.);
#893=ADVANCED_FACE('',(#94),#854,.T.);
#894=ADVANCED_FACE('',(#95),#53,.T.);
#895=ADVANCED_FACE('',(#96),#855,.T.);
#896=ADVANCED_FACE('',(#97),#54,.T.);
#897=ADVANCED_FACE('',(#98),#55,.T.);
#898=ADVANCED_FACE('',(#99),#56,.T.);
#899=ADVANCED_FACE('',(#100),#856,.F.);
#900=ADVANCED_FACE('',(#101),#857,.F.);
#901=ADVANCED_FACE('',(#102),#57,.T.);
#902=ADVANCED_FACE('',(#103,#20,#21),#58,.T.);
#903=CLOSED_SHELL('',(#858,#859,#860,#861,#862,#863,#864,#865,#866,#867,
#868,#869,#870,#871,#872,#873,#874,#875,#876,#877,#878,#879,#880,#881,#882,
#883,#884,#885,#886,#887,#888,#889,#890,#891,#892,#893,#894,#895,#896,#897,
#898,#899,#900,#901,#902));
#904=DERIVED_UNIT_ELEMENT(#906,1.);
#905=DERIVED_UNIT_ELEMENT(#1481,-3.);
#906=(
MASS_UNIT()
NAMED_UNIT(*)
SI_UNIT(.KILO.,.GRAM.)
);
#907=DERIVED_UNIT((#904,#905));
#908=MEASURE_REPRESENTATION_ITEM('density measure',
POSITIVE_RATIO_MEASURE(7850.),#907);
#909=PROPERTY_DEFINITION_REPRESENTATION(#914,#911);
#910=PROPERTY_DEFINITION_REPRESENTATION(#915,#912);
#911=REPRESENTATION('material name',(#913),#1478);
#912=REPRESENTATION('density',(#908),#1478);
#913=DESCRIPTIVE_REPRESENTATION_ITEM('Steel','Steel');
#914=PROPERTY_DEFINITION('material property','material name',#1488);
#915=PROPERTY_DEFINITION('material property','density of part',#1488);
#916=AXIS2_PLACEMENT_3D('',#1220,#982,#983);
#917=AXIS2_PLACEMENT_3D('',#1221,#984,#985);
#918=AXIS2_PLACEMENT_3D('',#1223,#986,#987);
#919=AXIS2_PLACEMENT_3D('',#1226,#989,#990);
#920=AXIS2_PLACEMENT_3D('',#1227,#991,#992);
#921=AXIS2_PLACEMENT_3D('',#1228,#993,#994);
#922=AXIS2_PLACEMENT_3D('',#1230,#995,#996);
#923=AXIS2_PLACEMENT_3D('',#1233,#998,#999);
#924=AXIS2_PLACEMENT_3D('',#1234,#1000,#1001);
#925=AXIS2_PLACEMENT_3D('',#1235,#1002,#1003);
#926=AXIS2_PLACEMENT_3D('',#1248,#1010,#1011);
#927=AXIS2_PLACEMENT_3D('',#1254,#1015,#1016);
#928=AXIS2_PLACEMENT_3D('',#1260,#1020,#1021);
#929=AXIS2_PLACEMENT_3D('',#1267,#1026,#1027);
#930=AXIS2_PLACEMENT_3D('',#1277,#1033,#1034);
#931=AXIS2_PLACEMENT_3D('',#1285,#1038,#1039);
#932=AXIS2_PLACEMENT_3D('',#1287,#1040,#1041);
#933=AXIS2_PLACEMENT_3D('',#1299,#1047,#1048);
#934=AXIS2_PLACEMENT_3D('',#1303,#1050,#1051);
#935=AXIS2_PLACEMENT_3D('',#1315,#1057,#1058);
#936=AXIS2_PLACEMENT_3D('',#1317,#1059,#1060);
#937=AXIS2_PLACEMENT_3D('',#1324,#1064,#1065);
#938=AXIS2_PLACEMENT_3D('',#1326,#1066,#1067);
#939=AXIS2_PLACEMENT_3D('',#1327,#1068,#1069);
#940=AXIS2_PLACEMENT_3D('',#1337,#1075,#1076);
#941=AXIS2_PLACEMENT_3D('',#1346,#1081,#1082);
#942=AXIS2_PLACEMENT_3D('',#1349,#1085,#1086);
#943=AXIS2_PLACEMENT_3D('',#1356,#1091,#1092);
#944=AXIS2_PLACEMENT_3D('',#1362,#1096,#1097);
#945=AXIS2_PLACEMENT_3D('',#1368,#1101,#1102);
#946=AXIS2_PLACEMENT_3D('',#1374,#1106,#1107);
#947=AXIS2_PLACEMENT_3D('',#1380,#1111,#1112);
#948=AXIS2_PLACEMENT_3D('',#1384,#1115,#1116);
#949=AXIS2_PLACEMENT_3D('',#1388,#1119,#1120);
#950=AXIS2_PLACEMENT_3D('',#1392,#1123,#1124);
#951=AXIS2_PLACEMENT_3D('',#1396,#1127,#1128);
#952=AXIS2_PLACEMENT_3D('',#1397,#1129,#1130);
#953=AXIS2_PLACEMENT_3D('',#1400,#1132,#1133);
#954=AXIS2_PLACEMENT_3D('',#1401,#1134,#1135);
#955=AXIS2_PLACEMENT_3D('',#1405,#1138,#1139);
#956=AXIS2_PLACEMENT_3D('',#1407,#1141,#1142);
#957=AXIS2_PLACEMENT_3D('',#1409,#1143,#1144);
#958=AXIS2_PLACEMENT_3D('',#1410,#1145,#1146);
#959=AXIS2_PLACEMENT_3D('',#1411,#1147,#1148);
#960=AXIS2_PLACEMENT_3D('',#1420,#1153,#1154);
#961=AXIS2_PLACEMENT_3D('',#1426,#1158,#1159);
#962=AXIS2_PLACEMENT_3D('',#1430,#1162,#1163);
#963=AXIS2_PLACEMENT_3D('',#1434,#1166,#1167);
#964=AXIS2_PLACEMENT_3D('',#1436,#1169,#1170);
#965=AXIS2_PLACEMENT_3D('',#1440,#1173,#1174);
#966=AXIS2_PLACEMENT_3D('',#1444,#1177,#1178);
#967=AXIS2_PLACEMENT_3D('',#1446,#1180,#1181);
#968=AXIS2_PLACEMENT_3D('',#1448,#1183,#1184);
#969=AXIS2_PLACEMENT_3D('',#1451,#1185,#1186);
#970=AXIS2_PLACEMENT_3D('',#1454,#1189,#1190);
#971=AXIS2_PLACEMENT_3D('',#1457,#1193,#1194);
#972=AXIS2_PLACEMENT_3D('',#1459,#1195,#1196);
#973=AXIS2_PLACEMENT_3D('',#1461,#1198,#1199);
#974=AXIS2_PLACEMENT_3D('',#1463,#1201,#1202);
#975=AXIS2_PLACEMENT_3D('',#1464,#1203,#1204);
#976=AXIS2_PLACEMENT_3D('',#1465,#1205,#1206);
#977=AXIS2_PLACEMENT_3D('',#1467,#1207,#1208);
#978=AXIS2_PLACEMENT_3D('',#1469,#1210,#1211);
#979=AXIS2_PLACEMENT_3D('',#1471,#1212,#1213);
#980=AXIS2_PLACEMENT_3D('',#1473,#1215,#1216);
#981=AXIS2_PLACEMENT_3D('',#1475,#1218,#1219);
#982=DIRECTION('axis',(0.,0.,1.));
#983=DIRECTION('refdir',(1.,0.,0.));
#984=DIRECTION('center_axis',(0.,0.,1.));
#985=DIRECTION('ref_axis',(1.,0.,0.));
#986=DIRECTION('center_axis',(0.,0.,-1.));
#987=DIRECTION('ref_axis',(1.,0.,0.));
#988=DIRECTION('',(0.,0.,1.));
#989=DIRECTION('center_axis',(0.,0.,-1.));
#990=DIRECTION('ref_axis',(1.,0.,0.));
#991=DIRECTION('center_axis',(0.,0.,-1.));
#992=DIRECTION('ref_axis',(-1.,0.,0.));
#993=DIRECTION('center_axis',(0.,0.,1.));
#994=DIRECTION('ref_axis',(1.,0.,0.));
#995=DIRECTION('center_axis',(0.,0.,-1.));
#996=DIRECTION('ref_axis',(1.,0.,0.));
#997=DIRECTION('',(0.,0.,1.));
#998=DIRECTION('center_axis',(0.,0.,-1.));
#999=DIRECTION('ref_axis',(1.,0.,0.));
#1000=DIRECTION('center_axis',(0.,0.,-1.));
#1001=DIRECTION('ref_axis',(-1.,0.,0.));
#1002=DIRECTION('center_axis',(0.,1.,0.));
#1003=DIRECTION('ref_axis',(0.,0.,1.));
#1004=DIRECTION('',(1.,0.,0.));
#1005=DIRECTION('',(0.,0.,-1.));
#1006=DIRECTION('',(1.,0.,0.));
#1007=DIRECTION('',(0.,0.,1.));
#1008=DIRECTION('',(-1.,0.,0.));
#1009=DIRECTION('',(0.,0.,-1.));
#1010=DIRECTION('center_axis',(0.,0.,1.));
#1011=DIRECTION('ref_axis',(1.,0.,0.));
#1012=DIRECTION('',(0.,1.,0.));
#1013=DIRECTION('',(0.,-1.,0.));
#1014=DIRECTION('',(-1.,0.,0.));
#1015=DIRECTION('center_axis',(-1.,0.,0.));
#1016=DIRECTION('ref_axis',(0.,0.,1.));
#1017=DIRECTION('',(0.,1.,0.));
#1018=DIRECTION('',(0.,-1.,0.));
#1019=DIRECTION('',(0.,0.,-1.));
#1020=DIRECTION('center_axis',(0.,-1.,0.));
#1021=DIRECTION('ref_axis',(0.,0.,-1.));
#1022=DIRECTION('',(-1.,0.,0.));
#1023=DIRECTION('',(1.,0.,0.));
#1024=DIRECTION('',(0.,0.,-1.));
#1025=DIRECTION('',(0.,0.,-1.));
#1026=DIRECTION('center_axis',(1.,0.,0.));
#1027=DIRECTION('ref_axis',(0.,0.,-1.));
#1028=DIRECTION('',(0.,-1.,0.));
#1029=DIRECTION('',(0.,-9.94229574291185E-17,-1.));
#1030=DIRECTION('',(0.,-1.,0.));
#1031=DIRECTION('',(0.,1.32563943238825E-16,1.));
#1032=DIRECTION('',(0.,-1.,0.));
#1033=DIRECTION('center_axis',(0.,0.,1.));
#1034=DIRECTION('ref_axis',(1.,0.,0.));
#1035=DIRECTION('',(-1.,0.,0.));
#1036=DIRECTION('',(0.,1.,0.));
#1037=DIRECTION('',(-1.,0.,0.));
#1038=DIRECTION('center_axis',(0.,0.,1.));
#1039=DIRECTION('ref_axis',(-1.,0.,0.));
#1040=DIRECTION('center_axis',(0.,0.,1.));
#1041=DIRECTION('ref_axis',(-1.,0.,0.));
#1042=DIRECTION('',(-1.,0.,0.));
#1043=DIRECTION('',(0.,-1.,0.));
#1044=DIRECTION('',(-1.,0.,0.));
#1045=DIRECTION('',(0.,-1.,0.));
#1046=DIRECTION('',(-1.,0.,0.));
#1047=DIRECTION('center_axis',(0.,0.,1.));
#1048=DIRECTION('ref_axis',(0.707106781186547,0.707106781186547,0.));
#1049=DIRECTION('',(0.,1.,0.));
#1050=DIRECTION('center_axis',(0.,0.,1.));
#1051=DIRECTION('ref_axis',(0.707106781186547,-0.707106781186547,0.));
#1052=DIRECTION('',(-1.,0.,0.));
#1053=DIRECTION('',(0.,-1.,0.));
#1054=DIRECTION('',(-1.,0.,0.));
#1055=DIRECTION('',(0.,-1.,0.));
#1056=DIRECTION('',(1.,0.,0.));
#1057=DIRECTION('center_axis',(0.,0.,1.));
#1058=DIRECTION('ref_axis',(-1.,0.,0.));
#1059=DIRECTION('center_axis',(0.,0.,1.));
#1060=DIRECTION('ref_axis',(-1.,0.,0.));
#1061=DIRECTION('',(1.,0.,0.));
#1062=DIRECTION('',(0.,1.,0.));
#1063=DIRECTION('',(-1.,0.,0.));
#1064=DIRECTION('center_axis',(0.,0.,-1.));
#1065=DIRECTION('ref_axis',(1.,0.,0.));
#1066=DIRECTION('center_axis',(0.,0.,-1.));
#1067=DIRECTION('ref_axis',(1.,0.,0.));
#1068=DIRECTION('center_axis',(-1.,0.,0.));
#1069=DIRECTION('ref_axis',(0.,-1.,0.));
#1070=DIRECTION('',(0.,1.,0.));
#1071=DIRECTION('',(0.,0.,-1.));
#1072=DIRECTION('',(0.,1.,0.));
#1073=DIRECTION('',(0.,0.,1.));
#1074=DIRECTION('',(0.,1.,0.));
#1075=DIRECTION('center_axis',(-1.,0.,0.));
#1076=DIRECTION('ref_axis',(0.,0.,1.));
#1077=DIRECTION('',(0.,-1.,0.));
#1078=DIRECTION('',(0.,0.,-1.));
#1079=DIRECTION('',(0.,1.,0.));
#1080=DIRECTION('',(0.,0.,-1.));
#1081=DIRECTION('center_axis',(0.,0.,1.));
#1082=DIRECTION('ref_axis',(1.,0.,0.));
#1083=DIRECTION('',(1.,0.,0.));
#1084=DIRECTION('',(-1.,0.,0.));
#1085=DIRECTION('center_axis',(-9.70547373549473E-34,-1.,0.));
#1086=DIRECTION('ref_axis',(1.,-9.70547373549473E-34,0.));
#1087=DIRECTION('',(0.,0.,-1.));
#1088=DIRECTION('',(1.,-9.70547373549473E-34,0.));
#1089=DIRECTION('',(1.,0.,0.));
#1090=DIRECTION('',(0.,0.,1.));
#1091=DIRECTION('center_axis',(0.,1.,0.));
#1092=DIRECTION('ref_axis',(0.,0.,1.));
#1093=DIRECTION('',(0.,0.,-1.));
#1094=DIRECTION('',(1.,0.,0.));
#1095=DIRECTION('',(0.,0.,-1.));
#1096=DIRECTION('center_axis',(0.,1.,0.));
#1097=DIRECTION('ref_axis',(0.,0.,1.));
#1098=DIRECTION('',(0.,0.,-1.));
#1099=DIRECTION('',(1.,0.,0.));
#1100=DIRECTION('',(0.,0.,1.));
#1101=DIRECTION('center_axis',(1.,0.,0.));
#1102=DIRECTION('ref_axis',(0.,0.,-1.));
#1103=DIRECTION('',(0.,0.,-1.));
#1104=DIRECTION('',(0.,-1.,0.));
#1105=DIRECTION('',(0.,1.32563943238825E-16,1.));
#1106=DIRECTION('center_axis',(-1.,0.,0.));
#1107=DIRECTION('ref_axis',(0.,0.,1.));
#1108=DIRECTION('',(0.,-1.32563943238825E-16,-1.));
#1109=DIRECTION('',(0.,1.,0.));
#1110=DIRECTION('',(0.,0.,-1.));
#1111=DIRECTION('center_axis',(-1.,0.,0.));
#1112=DIRECTION('ref_axis',(0.,0.,1.));
#1113=DIRECTION('',(0.,1.,0.));
#1114=DIRECTION('',(0.,9.94229574291185E-17,1.));
#1115=DIRECTION('center_axis',(0.,-1.,0.));
#1116=DIRECTION('ref_axis',(0.,0.,-1.));
#1117=DIRECTION('',(-1.,0.,0.));
#1118=DIRECTION('',(0.,0.,1.));
#1119=DIRECTION('center_axis',(1.,0.,0.));
#1120=DIRECTION('ref_axis',(0.,0.,-1.));
#1121=DIRECTION('',(0.,-9.94229574291185E-17,-1.));
#1122=DIRECTION('',(0.,-1.,0.));
#1123=DIRECTION('center_axis',(0.,-1.,0.));
#1124=DIRECTION('ref_axis',(0.,0.,-1.));
#1125=DIRECTION('',(0.,0.,-1.));
#1126=DIRECTION('',(-1.,0.,0.));
#1127=DIRECTION('center_axis',(0.,0.,1.));
#1128=DIRECTION('ref_axis',(-1.,0.,0.));
#1129=DIRECTION('center_axis',(0.,0.,-1.));
#1130=DIRECTION('ref_axis',(-1.,0.,0.));
#1131=DIRECTION('',(0.,0.,1.));
#1132=DIRECTION('center_axis',(0.,0.,-1.));
#1133=DIRECTION('ref_axis',(-1.,0.,0.));
#1134=DIRECTION('center_axis',(0.,-1.,1.32563943238825E-16));
#1135=DIRECTION('ref_axis',(0.,1.32563943238825E-16,1.));
#1136=DIRECTION('',(-1.,0.,0.));
#1137=DIRECTION('',(0.,1.32563943238825E-16,1.));
#1138=DIRECTION('center_axis',(0.,1.,-9.94229574291185E-17));
#1139=DIRECTION('ref_axis',(0.,-9.94229574291185E-17,-1.));
#1140=DIRECTION('',(-1.,0.,0.));
#1141=DIRECTION('center_axis',(0.,0.,1.));
#1142=DIRECTION('ref_axis',(1.,0.,0.));
#1143=DIRECTION('center_axis',(0.,0.,-1.));
#1144=DIRECTION('ref_axis',(-1.,0.,0.));
#1145=DIRECTION('center_axis',(0.,0.,1.));
#1146=DIRECTION('ref_axis',(1.,0.,0.));
#1147=DIRECTION('center_axis',(0.,0.,1.));
#1148=DIRECTION('ref_axis',(1.,0.,0.));
#1149=DIRECTION('',(0.,1.,0.));
#1150=DIRECTION('',(-1.,0.,0.));
#1151=DIRECTION('',(0.,-1.,0.));
#1152=DIRECTION('',(1.,0.,0.));
#1153=DIRECTION('center_axis',(0.,1.,0.));
#1154=DIRECTION('ref_axis',(0.,0.,1.));
#1155=DIRECTION('',(0.,0.,-1.));
#1156=DIRECTION('',(-1.,0.,0.));
#1157=DIRECTION('',(0.,0.,-1.));
#1158=DIRECTION('center_axis',(1.,0.,0.));
#1159=DIRECTION('ref_axis',(0.,0.,-1.));
#1160=DIRECTION('',(0.,0.,-1.));
#1161=DIRECTION('',(0.,1.,0.));
#1162=DIRECTION('center_axis',(0.,-1.,0.));
#1163=DIRECTION('ref_axis',(0.,0.,-1.));
#1164=DIRECTION('',(0.,0.,-1.));
#1165=DIRECTION('',(1.,0.,0.));
#1166=DIRECTION('center_axis',(-1.,0.,0.));
#1167=DIRECTION('ref_axis',(0.,0.,1.));
#1168=DIRECTION('',(0.,-1.,0.));
#1169=DIRECTION('center_axis',(0.,0.,1.));
#1170=DIRECTION('ref_axis',(1.,0.,0.));
#1171=DIRECTION('',(-1.,0.,0.));
#1172=DIRECTION('',(0.,-1.,0.));
#1173=DIRECTION('center_axis',(0.,0.,1.));
#1174=DIRECTION('ref_axis',(-1.,0.,0.));
#1175=DIRECTION('',(-1.,0.,0.));
#1176=DIRECTION('',(0.,1.,0.));
#1177=DIRECTION('center_axis',(0.,0.,-1.));
#1178=DIRECTION('ref_axis',(-1.,0.,0.));
#1179=DIRECTION('',(-1.,0.,0.));
#1180=DIRECTION('center_axis',(0.,0.,1.));
#1181=DIRECTION('ref_axis',(-1.,0.,0.));
#1182=DIRECTION('',(0.,0.,1.));
#1183=DIRECTION('center_axis',(0.,0.,1.));
#1184=DIRECTION('ref_axis',(0.707106781186547,0.707106781186547,0.));
#1185=DIRECTION('center_axis',(0.,0.,-1.));
#1186=DIRECTION('ref_axis',(0.707106781186547,0.707106781186547,0.));
#1187=DIRECTION('',(0.,0.,-1.));
#1188=DIRECTION('',(0.,0.,1.));
#1189=DIRECTION('center_axis',(0.,1.,0.));
#1190=DIRECTION('ref_axis',(-1.,0.,0.));
#1191=DIRECTION('',(-1.,0.,0.));
#1192=DIRECTION('',(0.,0.,1.));
#1193=DIRECTION('center_axis',(0.,0.,1.));
#1194=DIRECTION('ref_axis',(0.707106781186547,-0.707106781186547,0.));
#1195=DIRECTION('center_axis',(0.,0.,-1.));
#1196=DIRECTION('ref_axis',(0.707106781186547,-0.707106781186547,0.));
#1197=DIRECTION('',(0.,0.,1.));
#1198=DIRECTION('center_axis',(0.,1.,-9.94229574291185E-17));
#1199=DIRECTION('ref_axis',(0.,-9.94229574291185E-17,-1.));
#1200=DIRECTION('',(0.,-9.94229574291185E-17,-1.));
#1201=DIRECTION('center_axis',(-1.,0.,0.));
#1202=DIRECTION('ref_axis',(0.,0.,1.));
#1203=DIRECTION('center_axis',(0.,-1.,1.32563943238825E-16));
#1204=DIRECTION('ref_axis',(0.,1.32563943238825E-16,1.));
#1205=DIRECTION('center_axis',(0.,0.,1.));
#1206=DIRECTION('ref_axis',(1.,0.,0.));
#1207=DIRECTION('center_axis',(0.,0.,-1.));
#1208=DIRECTION('ref_axis',(1.,0.,0.));
#1209=DIRECTION('',(0.,0.,-1.));
#1210=DIRECTION('center_axis',(0.,0.,1.));
#1211=DIRECTION('ref_axis',(1.,0.,0.));
#1212=DIRECTION('center_axis',(0.,0.,-1.));
#1213=DIRECTION('ref_axis',(1.,0.,0.));
#1214=DIRECTION('',(0.,0.,-1.));
#1215=DIRECTION('center_axis',(1.,0.,0.));
#1216=DIRECTION('ref_axis',(0.,1.,0.));
#1217=DIRECTION('',(0.,1.,0.));
#1218=DIRECTION('center_axis',(0.,0.,1.));
#1219=DIRECTION('ref_axis',(1.,0.,0.));
#1220=CARTESIAN_POINT('',(0.,0.,0.));
#1221=CARTESIAN_POINT('Origin',(-7.5,29.45,69.7));
#1222=CARTESIAN_POINT('',(-8.75,29.45,67.3));
#1223=CARTESIAN_POINT('Origin',(-7.5,29.45,67.3));
#1224=CARTESIAN_POINT('',(-8.75,29.45,72.));
#1225=CARTESIAN_POINT('',(-8.75,29.45,69.7));
#1226=CARTESIAN_POINT('Origin',(-7.5,29.45,72.));
#1227=CARTESIAN_POINT('Origin',(-7.5,29.45,67.3));
#1228=CARTESIAN_POINT('Origin',(-7.5,15.,69.7));
#1229=CARTESIAN_POINT('',(-8.75,15.,67.3));
#1230=CARTESIAN_POINT('Origin',(-7.5,15.,67.3));
#1231=CARTESIAN_POINT('',(-8.75,15.,72.));
#1232=CARTESIAN_POINT('',(-8.75,15.,69.7));
#1233=CARTESIAN_POINT('Origin',(-7.5,15.,72.));
#1234=CARTESIAN_POINT('Origin',(-7.5,15.,67.3));
#1235=CARTESIAN_POINT('Origin',(0.3,9.7,33.5));
#1236=CARTESIAN_POINT('',(-0.05,9.7,0.));
#1237=CARTESIAN_POINT('',(0.65,9.7,0.));
#1238=CARTESIAN_POINT('',(4.11875,9.7,0.));
#1239=CARTESIAN_POINT('',(-0.05,9.7,67.1));
#1240=CARTESIAN_POINT('',(-0.05,9.7,33.5));
#1241=CARTESIAN_POINT('',(0.,9.7,67.1));
#1242=CARTESIAN_POINT('',(0.3,9.7,67.1));
#1243=CARTESIAN_POINT('',(0.,9.7,67.));
#1244=CARTESIAN_POINT('',(0.,9.7,33.5));
#1245=CARTESIAN_POINT('',(0.65,9.7,67.));
#1246=CARTESIAN_POINT('',(0.65,9.7,67.));
#1247=CARTESIAN_POINT('',(0.65,9.7,33.5));
#1248=CARTESIAN_POINT('Origin',(0.3,22.2,67.1));
#1249=CARTESIAN_POINT('',(0.,34.7,67.1));
#1250=CARTESIAN_POINT('',(0.,13.65625,67.1));
#1251=CARTESIAN_POINT('',(-0.05,34.7,67.1));
#1252=CARTESIAN_POINT('',(-0.05,22.2,67.1));
#1253=CARTESIAN_POINT('',(0.3,34.7,67.1));
#1254=CARTESIAN_POINT('Origin',(0.65,22.2,33.5));
#1255=CARTESIAN_POINT('',(0.65,34.7,0.));
#1256=CARTESIAN_POINT('',(0.650000000000001,22.2125,0.));
#1257=CARTESIAN_POINT('',(0.65,34.7,67.));
#1258=CARTESIAN_POINT('',(0.65,22.2125,67.));
#1259=CARTESIAN_POINT('',(0.65,34.7,33.5));
#1260=CARTESIAN_POINT('Origin',(0.3,34.7,33.5));
#1261=CARTESIAN_POINT('',(-0.05,34.7,0.));
#1262=CARTESIAN_POINT('',(4.11875,34.7,0.));
#1263=CARTESIAN_POINT('',(0.,34.7,67.));
#1264=CARTESIAN_POINT('',(0.65,34.7,67.));
#1265=CARTESIAN_POINT('',(0.,34.7,33.5));
#1266=CARTESIAN_POINT('',(-0.05,34.7,33.5));
#1267=CARTESIAN_POINT('Origin',(-0.05,22.2,33.5));
#1268=CARTESIAN_POINT('',(-0.05,10.225,0.));
#1269=CARTESIAN_POINT('',(-0.05,22.2125,0.));
#1270=CARTESIAN_POINT('',(-0.05,10.225,67.));
#1271=CARTESIAN_POINT('',(-0.05,10.225,50.25));
#1272=CARTESIAN_POINT('',(-0.05,34.225,67.));
#1273=CARTESIAN_POINT('',(-0.05,22.2125,67.));
#1274=CARTESIAN_POINT('',(-0.05,34.225,0.));
#1275=CARTESIAN_POINT('',(-0.05,34.225,16.75));
#1276=CARTESIAN_POINT('',(-0.05,22.2125,0.));
#1277=CARTESIAN_POINT('Origin',(7.9375,22.225,0.));
#1278=CARTESIAN_POINT('',(-2.5,34.225,0.));
#1279=CARTESIAN_POINT('',(0.,34.225,0.));
#1280=CARTESIAN_POINT('',(-2.5,34.35,0.));
#1281=CARTESIAN_POINT('',(-2.5,22.225,0.));
#1282=CARTESIAN_POINT('',(-6.50784325835077,34.35,0.));
#1283=CARTESIAN_POINT('',(0.21875,34.35,0.));
#1284=CARTESIAN_POINT('',(-3.5,38.225,0.));
#1285=CARTESIAN_POINT('Origin',(-7.5,38.225,0.));
#1286=CARTESIAN_POINT('',(-8.49215674164923,34.35,0.));
#1287=CARTESIAN_POINT('Origin',(-7.5,38.225,0.));
#1288=CARTESIAN_POINT('',(-12.5,34.35,0.));
#1289=CARTESIAN_POINT('',(0.21875,34.35,0.));
#1290=CARTESIAN_POINT('',(-12.5,34.225,0.));
#1291=CARTESIAN_POINT('',(-12.5,22.225,0.));
#1292=CARTESIAN_POINT('',(-15.,34.225,0.));
#1293=CARTESIAN_POINT('',(0.,34.225,0.));
#1294=CARTESIAN_POINT('',(-15.,44.45,0.));
#1295=CARTESIAN_POINT('',(-15.,44.45,0.));
#1296=CARTESIAN_POINT('',(10.875,44.45,0.));
#1297=CARTESIAN_POINT('',(15.875,44.45,0.));
#1298=CARTESIAN_POINT('',(15.875,39.45,0.));
#1299=CARTESIAN_POINT('Origin',(10.875,39.45,0.));
#1300=CARTESIAN_POINT('',(15.875,5.,0.));
#1301=CARTESIAN_POINT('',(15.875,-1.54074395550979E-32,0.));
#1302=CARTESIAN_POINT('',(10.875,0.,0.));
#1303=CARTESIAN_POINT('Origin',(10.875,5.,0.));
#1304=CARTESIAN_POINT('',(-15.,0.,0.));
#1305=CARTESIAN_POINT('',(0.,0.,0.));
#1306=CARTESIAN_POINT('',(-15.,10.225,0.));
#1307=CARTESIAN_POINT('',(-15.,44.45,0.));
#1308=CARTESIAN_POINT('',(-12.5,10.225,0.));
#1309=CARTESIAN_POINT('',(0.,10.225,0.));
#1310=CARTESIAN_POINT('',(-12.5,10.1,0.));
#1311=CARTESIAN_POINT('',(-12.5,22.225,0.));
#1312=CARTESIAN_POINT('',(-8.49215674164922,10.1,0.));
#1313=CARTESIAN_POINT('',(0.21875,10.1,0.));
#1314=CARTESIAN_POINT('',(-3.5,6.225,-8.88178419700125E-15));
#1315=CARTESIAN_POINT('Origin',(-7.5,6.225,0.));
#1316=CARTESIAN_POINT('',(-6.50784325835078,10.1,0.));
#1317=CARTESIAN_POINT('Origin',(-7.5,6.225,0.));
#1318=CARTESIAN_POINT('',(-2.5,10.1,0.));
#1319=CARTESIAN_POINT('',(0.21875,10.1,0.));
#1320=CARTESIAN_POINT('',(-2.5,10.225,0.));
#1321=CARTESIAN_POINT('',(-2.5,22.225,0.));
#1322=CARTESIAN_POINT('',(0.,10.225,0.));
#1323=CARTESIAN_POINT('',(5.5375,38.1,0.));
#1324=CARTESIAN_POINT('Origin',(7.9375,38.1,0.));
#1325=CARTESIAN_POINT('',(5.53749999999999,6.35,0.));
#1326=CARTESIAN_POINT('Origin',(7.93749999999999,6.35,0.));
#1327=CARTESIAN_POINT('Origin',(0.,5.1125,33.5));
#1328=CARTESIAN_POINT('',(0.,44.45,67.));
#1329=CARTESIAN_POINT('',(0.,13.66875,67.));
#1330=CARTESIAN_POINT('',(0.,44.45,69.));
#1331=CARTESIAN_POINT('',(0.,44.45,67.));
#1332=CARTESIAN_POINT('',(0.,0.,69.));
#1333=CARTESIAN_POINT('',(0.,44.45,69.));
#1334=CARTESIAN_POINT('',(0.,0.,67.));
#1335=CARTESIAN_POINT('',(0.,0.,0.));
#1336=CARTESIAN_POINT('',(0.,13.66875,67.));
#1337=CARTESIAN_POINT('Origin',(2.,22.225,33.5));
#1338=CARTESIAN_POINT('',(2.,44.45,2.));
#1339=CARTESIAN_POINT('',(2.,0.,2.));
#1340=CARTESIAN_POINT('',(2.,22.225,2.));
#1341=CARTESIAN_POINT('',(2.,44.45,67.));
#1342=CARTESIAN_POINT('',(2.,44.45,33.5));
#1343=CARTESIAN_POINT('',(2.,0.,67.));
#1344=CARTESIAN_POINT('',(2.,22.225,67.));
#1345=CARTESIAN_POINT('',(2.,0.,33.5));
#1346=CARTESIAN_POINT('Origin',(1.,22.225,67.));
#1347=CARTESIAN_POINT('',(1.,0.,67.));
#1348=CARTESIAN_POINT('',(1.,44.45,67.));
#1349=CARTESIAN_POINT('Origin',(0.,0.,0.));
#1350=CARTESIAN_POINT('',(10.875,-1.05547026873505E-32,2.));
#1351=CARTESIAN_POINT('',(10.875,0.,0.));
#1352=CARTESIAN_POINT('',(0.,0.,2.));
#1353=CARTESIAN_POINT('',(-15.,0.,69.));
#1354=CARTESIAN_POINT('',(0.,0.,69.));
#1355=CARTESIAN_POINT('',(-15.,0.,0.));
#1356=CARTESIAN_POINT('Origin',(-7.5,10.1,33.));
#1357=CARTESIAN_POINT('',(-6.50784325835078,10.1,67.));
#1358=CARTESIAN_POINT('',(-6.50784325835078,10.1,67.));
#1359=CARTESIAN_POINT('',(-2.5,10.1,67.));
#1360=CARTESIAN_POINT('',(-7.5,10.1,67.));
#1361=CARTESIAN_POINT('',(-2.5,10.1,33.));
#1362=CARTESIAN_POINT('Origin',(-7.5,10.1,33.));
#1363=CARTESIAN_POINT('',(-12.5,10.1,67.));
#1364=CARTESIAN_POINT('',(-12.5,10.1,33.));
#1365=CARTESIAN_POINT('',(-8.49215674164922,10.1,67.));
#1366=CARTESIAN_POINT('',(-7.5,10.1,67.));
#1367=CARTESIAN_POINT('',(-8.49215674164922,10.1,67.));
#1368=CARTESIAN_POINT('Origin',(-12.5,22.225,33.));
#1369=CARTESIAN_POINT('',(-12.5,34.35,67.));
#1370=CARTESIAN_POINT('',(-12.5,34.35,33.));
#1371=CARTESIAN_POINT('',(-12.5,34.225,67.));
#1372=CARTESIAN_POINT('',(-12.5,22.225,67.));
#1373=CARTESIAN_POINT('',(-12.5,34.225,16.5));
#1374=CARTESIAN_POINT('Origin',(-2.5,22.225,33.));
#1375=CARTESIAN_POINT('',(-2.5,34.225,67.));
#1376=CARTESIAN_POINT('',(-2.5,34.225,16.5));
#1377=CARTESIAN_POINT('',(-2.5,34.35,67.));
#1378=CARTESIAN_POINT('',(-2.5,22.225,67.));
#1379=CARTESIAN_POINT('',(-2.5,34.35,33.));
#1380=CARTESIAN_POINT('Origin',(-2.5,22.225,33.));
#1381=CARTESIAN_POINT('',(-2.5,10.225,67.));
#1382=CARTESIAN_POINT('',(-2.5,22.225,67.));
#1383=CARTESIAN_POINT('',(-2.5,10.225,50.));
#1384=CARTESIAN_POINT('Origin',(-7.5,34.35,33.));
#1385=CARTESIAN_POINT('',(-6.50784325835077,34.35,67.));
#1386=CARTESIAN_POINT('',(-7.5,34.35,67.));
#1387=CARTESIAN_POINT('',(-6.50784325835077,34.35,67.));
#1388=CARTESIAN_POINT('Origin',(-12.5,22.225,33.));
#1389=CARTESIAN_POINT('',(-12.5,10.225,67.));
#1390=CARTESIAN_POINT('',(-12.5,10.225,50.));
#1391=CARTESIAN_POINT('',(-12.5,22.225,67.));
#1392=CARTESIAN_POINT('Origin',(-7.5,34.35,33.));
#1393=CARTESIAN_POINT('',(-8.49215674164923,34.35,67.));
#1394=CARTESIAN_POINT('',(-8.49215674164923,34.35,67.));
#1395=CARTESIAN_POINT('',(-7.5,34.35,67.));
#1396=CARTESIAN_POINT('Origin',(-7.5,6.225,67.));
#1397=CARTESIAN_POINT('Origin',(-7.5,6.225,67.));
#1398=CARTESIAN_POINT('',(-3.5,6.225,69.));
#1399=CARTESIAN_POINT('',(-3.5,6.225,67.));
#1400=CARTESIAN_POINT('Origin',(-7.5,6.225,69.));
#1401=CARTESIAN_POINT('Origin',(0.,34.225,0.));
#1402=CARTESIAN_POINT('',(-15.,34.225,67.));
#1403=CARTESIAN_POINT('',(0.,34.225,67.));
#1404=CARTESIAN_POINT('',(-15.,34.225,67.));
#1405=CARTESIAN_POINT('Origin',(0.,10.225,67.));
#1406=CARTESIAN_POINT('',(0.,10.225,67.));
#1407=CARTESIAN_POINT('Origin',(-7.5,22.225,69.));
#1408=CARTESIAN_POINT('',(-3.5,38.225,69.));
#1409=CARTESIAN_POINT('Origin',(-7.5,38.225,69.));
#1410=CARTESIAN_POINT('Origin',(-7.5,22.225,69.));
#1411=CARTESIAN_POINT('Origin',(-7.5,22.225,72.));
#1412=CARTESIAN_POINT('',(-3.,0.399999999999996,72.));
#1413=CARTESIAN_POINT('',(-3.,44.05,72.));
#1414=CARTESIAN_POINT('',(-3.,22.225,72.));
#1415=CARTESIAN_POINT('',(-12.,44.05,72.));
#1416=CARTESIAN_POINT('',(-7.5,44.05,72.));
#1417=CARTESIAN_POINT('',(-12.,0.399999999999996,72.));
#1418=CARTESIAN_POINT('',(-12.,22.225,72.));
#1419=CARTESIAN_POINT('',(-7.5,0.399999999999996,72.));
#1420=CARTESIAN_POINT('Origin',(-7.5,0.399999999999996,70.5));
#1421=CARTESIAN_POINT('',(-12.,0.399999999999996,69.));
#1422=CARTESIAN_POINT('',(-12.,0.399999999999996,70.5));
#1423=CARTESIAN_POINT('',(-3.,0.399999999999996,69.));
#1424=CARTESIAN_POINT('',(-7.5,0.399999999999996,69.));
#1425=CARTESIAN_POINT('',(-3.,0.399999999999996,70.5));
#1426=CARTESIAN_POINT('Origin',(-12.,22.225,70.5));
#1427=CARTESIAN_POINT('',(-12.,44.05,69.));
#1428=CARTESIAN_POINT('',(-12.,44.05,70.5));
#1429=CARTESIAN_POINT('',(-12.,22.225,69.));
#1430=CARTESIAN_POINT('Origin',(-7.5,44.05,70.5));
#1431=CARTESIAN_POINT('',(-3.,44.05,69.));
#1432=CARTESIAN_POINT('',(-3.,44.05,70.5));
#1433=CARTESIAN_POINT('',(-7.5,44.05,69.));
#1434=CARTESIAN_POINT('Origin',(-3.,22.225,70.5));
#1435=CARTESIAN_POINT('',(-3.,22.225,69.));
#1436=CARTESIAN_POINT('Origin',(-7.5,22.225,69.));
#1437=CARTESIAN_POINT('',(-15.,44.45,69.));
#1438=CARTESIAN_POINT('',(-15.,44.45,69.));
#1439=CARTESIAN_POINT('',(-15.,0.,69.));
#1440=CARTESIAN_POINT('Origin',(-7.5,22.225,67.));
#1441=CARTESIAN_POINT('',(-15.,10.225,67.));
#1442=CARTESIAN_POINT('',(0.,10.225,67.));
#1443=CARTESIAN_POINT('',(-15.,0.,67.));
#1444=CARTESIAN_POINT('Origin',(-7.5,38.225,67.));
#1445=CARTESIAN_POINT('',(0.,34.225,67.));
#1446=CARTESIAN_POINT('Origin',(-7.5,38.225,67.));
#1447=CARTESIAN_POINT('',(-3.5,38.225,67.));
#1448=CARTESIAN_POINT('Origin',(10.875,39.45,0.));
#1449=CARTESIAN_POINT('',(10.875,44.45,2.));
#1450=CARTESIAN_POINT('',(15.875,39.45,2.));
#1451=CARTESIAN_POINT('Origin',(10.875,39.45,2.));
#1452=CARTESIAN_POINT('',(15.875,39.45,0.));
#1453=CARTESIAN_POINT('',(10.875,44.45,0.));
#1454=CARTESIAN_POINT('Origin',(15.875,44.45,0.));
#1455=CARTESIAN_POINT('',(15.875,44.45,2.));
#1456=CARTESIAN_POINT('',(-15.,44.45,67.));
#1457=CARTESIAN_POINT('Origin',(10.875,5.,0.));
#1458=CARTESIAN_POINT('',(15.875,5.,2.));
#1459=CARTESIAN_POINT('Origin',(10.875,5.,2.));
#1460=CARTESIAN_POINT('',(15.875,5.,0.));
#1461=CARTESIAN_POINT('Origin',(0.,10.225,67.));
#1462=CARTESIAN_POINT('',(-15.,10.225,67.));
#1463=CARTESIAN_POINT('Origin',(-15.,5.1125,33.5));
#1464=CARTESIAN_POINT('Origin',(0.,34.225,0.));
#1465=CARTESIAN_POINT('Origin',(7.9375,38.1,0.));
#1466=CARTESIAN_POINT('',(5.5375,38.1,2.));
#1467=CARTESIAN_POINT('Origin',(7.9375,38.1,2.));
#1468=CARTESIAN_POINT('',(5.5375,38.1,0.));
#1469=CARTESIAN_POINT('Origin',(7.93749999999999,6.35,0.));
#1470=CARTESIAN_POINT('',(5.53749999999999,6.35,2.));
#1471=CARTESIAN_POINT('Origin',(7.93749999999999,6.35,2.));
#1472=CARTESIAN_POINT('',(5.53749999999999,6.35,0.));
#1473=CARTESIAN_POINT('Origin',(15.875,-1.54074395550979E-32,0.));
#1474=CARTESIAN_POINT('',(15.875,-1.54074395550979E-32,2.));
#1475=CARTESIAN_POINT('Origin',(7.9375,22.225,2.));
#1476=UNCERTAINTY_MEASURE_WITH_UNIT(LENGTH_MEASURE(0.01),#1480,
'DISTANCE_ACCURACY_VALUE',
'Maximum model space distance between geometric entities at asserted c
onnectivities');
#1477=UNCERTAINTY_MEASURE_WITH_UNIT(LENGTH_MEASURE(0.01),#1480,
'DISTANCE_ACCURACY_VALUE',
'Maximum model space distance between geometric entities at asserted c
onnectivities');
#1478=(
GEOMETRIC_REPRESENTATION_CONTEXT(3)
GLOBAL_UNCERTAINTY_ASSIGNED_CONTEXT((#1476))
GLOBAL_UNIT_ASSIGNED_CONTEXT((#1480,#1482,#1483))
REPRESENTATION_CONTEXT('','3D')
);
#1479=(
GEOMETRIC_REPRESENTATION_CONTEXT(3)
GLOBAL_UNCERTAINTY_ASSIGNED_CONTEXT((#1477))
GLOBAL_UNIT_ASSIGNED_CONTEXT((#1480,#1482,#1483))
REPRESENTATION_CONTEXT('','3D')
);
#1480=(
LENGTH_UNIT()
NAMED_UNIT(*)
SI_UNIT(.MILLI.,.METRE.)
);
#1481=(
LENGTH_UNIT()
NAMED_UNIT(*)
SI_UNIT($,.METRE.)
);
#1482=(
NAMED_UNIT(*)
PLANE_ANGLE_UNIT()
SI_UNIT($,.RADIAN.)
);
#1483=(
NAMED_UNIT(*)
SI_UNIT($,.STERADIAN.)
SOLID_ANGLE_UNIT()
);
#1484=SHAPE_DEFINITION_REPRESENTATION(#1485,#1486);
#1485=PRODUCT_DEFINITION_SHAPE('',$,#1488);
#1486=SHAPE_REPRESENTATION('',(#916),#1478);
#1487=PRODUCT_DEFINITION_CONTEXT('part definition',#1492,'design');
#1488=PRODUCT_DEFINITION('2026-08-22-19-03-54-740','(Unsaved)',#1489,#1487);
#1489=PRODUCT_DEFINITION_FORMATION('',$,#1494);
#1490=PRODUCT_RELATED_PRODUCT_CATEGORY('(Unsaved)','(Unsaved)',(#1494));
#1491=APPLICATION_PROTOCOL_DEFINITION('international standard',
'automotive_design',2009,#1492);
#1492=APPLICATION_CONTEXT(
'Core Data for Automotive Mechanical Design Process');
#1493=PRODUCT_CONTEXT('part definition',#1492,'mechanical');
#1494=PRODUCT('2026-08-22-19-03-54-740','(Unsaved)',$,(#1493));
#1495=PRESENTATION_STYLE_ASSIGNMENT((#1496));
#1496=SURFACE_STYLE_USAGE(.BOTH.,#1497);
#1497=SURFACE_SIDE_STYLE('',(#1498));
#1498=SURFACE_STYLE_FILL_AREA(#1499);
#1499=FILL_AREA_STYLE('Steel - Satin',(#1500));
#1500=FILL_AREA_STYLE_COLOUR('Steel - Satin',#1501);
#1501=COLOUR_RGB('Steel - Satin',0.627450980392157,0.627450980392157,0.627450980392157);
ENDSEC;
END-ISO-10303-21;
