ISO-10303-21;
HEADER;
/* Generated by software containing ST-Developer
 * from STEP Tools, Inc. (www.steptools.com) 
 */

FILE_DESCRIPTION(
/* description */ (''),
/* implementation_level */ '2;1');

FILE_NAME(
/* name */ 'rear_ear_v2_nuttrap.step',
/* time_stamp */ '2026-08-23T15:35:17-05:00',
/* author */ (''),
/* organization */ (''),
/* preprocessor_version */ 'ST-DEVELOPER v20.1',
/* originating_system */ 'Autodesk Translation Framework v15.8.0.0',
/* authorisation */ '');

FILE_SCHEMA (('AUTOMOTIVE_DESIGN { 1 0 10303 214 3 1 1 }'));
ENDSEC;

DATA;
#10=MECHANICAL_DESIGN_GEOMETRIC_PRESENTATION_REPRESENTATION('',(#13),#1847);
#11=SHAPE_REPRESENTATION_RELATIONSHIP('SRR','None',#1854,#12);
#12=ADVANCED_BREP_SHAPE_REPRESENTATION('',(#14),#1846);
#13=STYLED_ITEM('',(#1863),#14);
#14=MANIFOLD_SOLID_BREP('Rear Ear v2',#1131);
#15=CYLINDRICAL_SURFACE('',#1152,1.7);
#16=CYLINDRICAL_SURFACE('',#1154,1.7);
#17=CYLINDRICAL_SURFACE('',#1164,1.7);
#18=CYLINDRICAL_SURFACE('',#1166,1.7);
#19=CYLINDRICAL_SURFACE('',#1202,4.);
#20=CYLINDRICAL_SURFACE('',#1213,4.);
#21=CYLINDRICAL_SURFACE('',#1214,5.);
#22=CYLINDRICAL_SURFACE('',#1216,5.);
#23=CYLINDRICAL_SURFACE('',#1221,2.4);
#24=CYLINDRICAL_SURFACE('',#1223,2.4);
#25=FACE_BOUND('',#121,.T.);
#26=FACE_BOUND('',#123,.T.);
#27=FACE_BOUND('',#131,.T.);
#28=FACE_BOUND('',#133,.T.);
#29=FACE_BOUND('',#144,.T.);
#30=FACE_BOUND('',#145,.T.);
#31=FACE_BOUND('',#172,.T.);
#32=FACE_BOUND('',#173,.T.);
#33=FACE_BOUND('',#180,.T.);
#34=FACE_BOUND('',#181,.T.);
#35=FACE_BOUND('',#187,.T.);
#36=FACE_BOUND('',#188,.T.);
#37=CIRCLE('',#1147,1.7);
#38=CIRCLE('',#1149,1.7);
#39=CIRCLE('',#1153,1.7);
#40=CIRCLE('',#1155,1.7);
#41=CIRCLE('',#1159,1.7);
#42=CIRCLE('',#1161,1.7);
#43=CIRCLE('',#1165,1.7);
#44=CIRCLE('',#1167,1.7);
#45=CIRCLE('',#1174,5.);
#46=CIRCLE('',#1175,5.);
#47=CIRCLE('',#1176,4.);
#48=CIRCLE('',#1177,4.);
#49=CIRCLE('',#1178,4.);
#50=CIRCLE('',#1179,4.);
#51=CIRCLE('',#1180,2.4);
#52=CIRCLE('',#1181,2.4);
#53=CIRCLE('',#1203,4.);
#54=CIRCLE('',#1204,4.);
#55=CIRCLE('',#1208,4.);
#56=CIRCLE('',#1212,4.);
#57=CIRCLE('',#1215,5.);
#58=CIRCLE('',#1217,5.);
#59=CIRCLE('',#1222,2.4);
#60=CIRCLE('',#1224,2.4);
#61=FACE_OUTER_BOUND('',#119,.T.);
#62=FACE_OUTER_BOUND('',#120,.T.);
#63=FACE_OUTER_BOUND('',#122,.T.);
#64=FACE_OUTER_BOUND('',#124,.T.);
#65=FACE_OUTER_BOUND('',#125,.T.);
#66=FACE_OUTER_BOUND('',#126,.T.);
#67=FACE_OUTER_BOUND('',#127,.T.);
#68=FACE_OUTER_BOUND('',#128,.T.);
#69=FACE_OUTER_BOUND('',#129,.T.);
#70=FACE_OUTER_BOUND('',#130,.T.);
#71=FACE_OUTER_BOUND('',#132,.T.);
#72=FACE_OUTER_BOUND('',#134,.T.);
#73=FACE_OUTER_BOUND('',#135,.T.);
#74=FACE_OUTER_BOUND('',#136,.T.);
#75=FACE_OUTER_BOUND('',#137,.T.);
#76=FACE_OUTER_BOUND('',#138,.T.);
#77=FACE_OUTER_BOUND('',#139,.T.);
#78=FACE_OUTER_BOUND('',#140,.T.);
#79=FACE_OUTER_BOUND('',#141,.T.);
#80=FACE_OUTER_BOUND('',#142,.T.);
#81=FACE_OUTER_BOUND('',#143,.T.);
#82=FACE_OUTER_BOUND('',#146,.T.);
#83=FACE_OUTER_BOUND('',#147,.T.);
#84=FACE_OUTER_BOUND('',#148,.T.);
#85=FACE_OUTER_BOUND('',#149,.T.);
#86=FACE_OUTER_BOUND('',#150,.T.);
#87=FACE_OUTER_BOUND('',#151,.T.);
#88=FACE_OUTER_BOUND('',#152,.T.);
#89=FACE_OUTER_BOUND('',#153,.T.);
#90=FACE_OUTER_BOUND('',#154,.T.);
#91=FACE_OUTER_BOUND('',#155,.T.);
#92=FACE_OUTER_BOUND('',#156,.T.);
#93=FACE_OUTER_BOUND('',#157,.T.);
#94=FACE_OUTER_BOUND('',#158,.T.);
#95=FACE_OUTER_BOUND('',#159,.T.);
#96=FACE_OUTER_BOUND('',#160,.T.);
#97=FACE_OUTER_BOUND('',#161,.T.);
#98=FACE_OUTER_BOUND('',#162,.T.);
#99=FACE_OUTER_BOUND('',#163,.T.);
#100=FACE_OUTER_BOUND('',#164,.T.);
#101=FACE_OUTER_BOUND('',#165,.T.);
#102=FACE_OUTER_BOUND('',#166,.T.);
#103=FACE_OUTER_BOUND('',#167,.T.);
#104=FACE_OUTER_BOUND('',#168,.T.);
#105=FACE_OUTER_BOUND('',#169,.T.);
#106=FACE_OUTER_BOUND('',#170,.T.);
#107=FACE_OUTER_BOUND('',#171,.T.);
#108=FACE_OUTER_BOUND('',#174,.T.);
#109=FACE_OUTER_BOUND('',#175,.T.);
#110=FACE_OUTER_BOUND('',#176,.T.);
#111=FACE_OUTER_BOUND('',#177,.T.);
#112=FACE_OUTER_BOUND('',#178,.T.);
#113=FACE_OUTER_BOUND('',#179,.T.);
#114=FACE_OUTER_BOUND('',#182,.T.);
#115=FACE_OUTER_BOUND('',#183,.T.);
#116=FACE_OUTER_BOUND('',#184,.T.);
#117=FACE_OUTER_BOUND('',#185,.T.);
#118=FACE_OUTER_BOUND('',#186,.T.);
#119=EDGE_LOOP('',(#713,#714,#715,#716));
#120=EDGE_LOOP('',(#717,#718,#719,#720));
#121=EDGE_LOOP('',(#721));
#122=EDGE_LOOP('',(#722,#723,#724,#725));
#123=EDGE_LOOP('',(#726));
#124=EDGE_LOOP('',(#727,#728,#729,#730));
#125=EDGE_LOOP('',(#731,#732,#733,#734));
#126=EDGE_LOOP('',(#735,#736,#737,#738));
#127=EDGE_LOOP('',(#739,#740,#741,#742));
#128=EDGE_LOOP('',(#743));
#129=EDGE_LOOP('',(#744,#745,#746,#747));
#130=EDGE_LOOP('',(#748,#749,#750,#751));
#131=EDGE_LOOP('',(#752));
#132=EDGE_LOOP('',(#753,#754,#755,#756));
#133=EDGE_LOOP('',(#757));
#134=EDGE_LOOP('',(#758,#759,#760,#761));
#135=EDGE_LOOP('',(#762,#763,#764,#765));
#136=EDGE_LOOP('',(#766,#767,#768,#769));
#137=EDGE_LOOP('',(#770,#771,#772,#773));
#138=EDGE_LOOP('',(#774));
#139=EDGE_LOOP('',(#775,#776,#777,#778));
#140=EDGE_LOOP('',(#779,#780,#781,#782));
#141=EDGE_LOOP('',(#783,#784,#785,#786));
#142=EDGE_LOOP('',(#787,#788,#789,#790));
#143=EDGE_LOOP('',(#791,#792,#793,#794,#795,#796,#797,#798,#799,#800,#801,
#802,#803,#804,#805,#806,#807,#808,#809,#810,#811,#812,#813,#814,#815,#816,
#817,#818,#819,#820,#821,#822,#823,#824,#825,#826));
#144=EDGE_LOOP('',(#827));
#145=EDGE_LOOP('',(#828));
#146=EDGE_LOOP('',(#829,#830,#831,#832));
#147=EDGE_LOOP('',(#833,#834,#835,#836));
#148=EDGE_LOOP('',(#837,#838,#839,#840));
#149=EDGE_LOOP('',(#841,#842,#843,#844));
#150=EDGE_LOOP('',(#845,#846,#847,#848));
#151=EDGE_LOOP('',(#849,#850,#851,#852));
#152=EDGE_LOOP('',(#853,#854,#855,#856));
#153=EDGE_LOOP('',(#857,#858,#859,#860));
#154=EDGE_LOOP('',(#861,#862,#863,#864,#865,#866,#867,#868));
#155=EDGE_LOOP('',(#869,#870,#871,#872));
#156=EDGE_LOOP('',(#873,#874,#875,#876,#877,#878));
#157=EDGE_LOOP('',(#879,#880,#881,#882,#883,#884));
#158=EDGE_LOOP('',(#885,#886,#887,#888));
#159=EDGE_LOOP('',(#889,#890,#891,#892));
#160=EDGE_LOOP('',(#893,#894,#895,#896));
#161=EDGE_LOOP('',(#897,#898,#899,#900));
#162=EDGE_LOOP('',(#901,#902,#903,#904));
#163=EDGE_LOOP('',(#905,#906,#907,#908));
#164=EDGE_LOOP('',(#909,#910,#911,#912));
#165=EDGE_LOOP('',(#913,#914,#915,#916));
#166=EDGE_LOOP('',(#917,#918,#919,#920,#921,#922,#923,#924));
#167=EDGE_LOOP('',(#925,#926,#927,#928));
#168=EDGE_LOOP('',(#929,#930,#931,#932));
#169=EDGE_LOOP('',(#933));
#170=EDGE_LOOP('',(#934));
#171=EDGE_LOOP('',(#935,#936,#937,#938));
#172=EDGE_LOOP('',(#939));
#173=EDGE_LOOP('',(#940));
#174=EDGE_LOOP('',(#941,#942,#943,#944,#945,#946,#947,#948,#949,#950,#951,
#952,#953,#954,#955,#956));
#175=EDGE_LOOP('',(#957,#958,#959,#960,#961,#962,#963,#964));
#176=EDGE_LOOP('',(#965,#966,#967,#968));
#177=EDGE_LOOP('',(#969,#970,#971,#972));
#178=EDGE_LOOP('',(#973,#974,#975,#976));
#179=EDGE_LOOP('',(#977,#978,#979,#980,#981,#982,#983,#984,#985,#986,#987,
#988,#989,#990,#991,#992));
#180=EDGE_LOOP('',(#993,#994,#995,#996));
#181=EDGE_LOOP('',(#997,#998,#999,#1000));
#182=EDGE_LOOP('',(#1001,#1002,#1003,#1004));
#183=EDGE_LOOP('',(#1005,#1006,#1007,#1008));
#184=EDGE_LOOP('',(#1009,#1010,#1011,#1012));
#185=EDGE_LOOP('',(#1013,#1014,#1015,#1016));
#186=EDGE_LOOP('',(#1017,#1018,#1019,#1020,#1021,#1022));
#187=EDGE_LOOP('',(#1023));
#188=EDGE_LOOP('',(#1024));
#189=LINE('',#1529,#321);
#190=LINE('',#1531,#322);
#191=LINE('',#1533,#323);
#192=LINE('',#1534,#324);
#193=LINE('',#1537,#325);
#194=LINE('',#1539,#326);
#195=LINE('',#1540,#327);
#196=LINE('',#1545,#328);
#197=LINE('',#1547,#329);
#198=LINE('',#1548,#330);
#199=LINE('',#1552,#331);
#200=LINE('',#1553,#332);
#201=LINE('',#1558,#333);
#202=LINE('',#1561,#334);
#203=LINE('',#1567,#335);
#204=LINE('',#1569,#336);
#205=LINE('',#1571,#337);
#206=LINE('',#1572,#338);
#207=LINE('',#1575,#339);
#208=LINE('',#1577,#340);
#209=LINE('',#1578,#341);
#210=LINE('',#1583,#342);
#211=LINE('',#1585,#343);
#212=LINE('',#1586,#344);
#213=LINE('',#1590,#345);
#214=LINE('',#1591,#346);
#215=LINE('',#1596,#347);
#216=LINE('',#1599,#348);
#217=LINE('',#1605,#349);
#218=LINE('',#1607,#350);
#219=LINE('',#1609,#351);
#220=LINE('',#1610,#352);
#221=LINE('',#1613,#353);
#222=LINE('',#1615,#354);
#223=LINE('',#1616,#355);
#224=LINE('',#1619,#356);
#225=LINE('',#1620,#357);
#226=LINE('',#1623,#358);
#227=LINE('',#1624,#359);
#228=LINE('',#1627,#360);
#229=LINE('',#1629,#361);
#230=LINE('',#1633,#362);
#231=LINE('',#1637,#363);
#232=LINE('',#1639,#364);
#233=LINE('',#1641,#365);
#234=LINE('',#1643,#366);
#235=LINE('',#1645,#367);
#236=LINE('',#1647,#368);
#237=LINE('',#1649,#369);
#238=LINE('',#1651,#370);
#239=LINE('',#1653,#371);
#240=LINE('',#1659,#372);
#241=LINE('',#1661,#373);
#242=LINE('',#1663,#374);
#243=LINE('',#1665,#375);
#244=LINE('',#1667,#376);
#245=LINE('',#1669,#377);
#246=LINE('',#1671,#378);
#247=LINE('',#1673,#379);
#248=LINE('',#1675,#380);
#249=LINE('',#1677,#381);
#250=LINE('',#1679,#382);
#251=LINE('',#1685,#383);
#252=LINE('',#1687,#384);
#253=LINE('',#1689,#385);
#254=LINE('',#1690,#386);
#255=LINE('',#1697,#387);
#256=LINE('',#1699,#388);
#257=LINE('',#1700,#389);
#258=LINE('',#1703,#390);
#259=LINE('',#1704,#391);
#260=LINE('',#1707,#392);
#261=LINE('',#1708,#393);
#262=LINE('',#1710,#394);
#263=LINE('',#1713,#395);
#264=LINE('',#1715,#396);
#265=LINE('',#1716,#397);
#266=LINE('',#1719,#398);
#267=LINE('',#1720,#399);
#268=LINE('',#1723,#400);
#269=LINE('',#1724,#401);
#270=LINE('',#1726,#402);
#271=LINE('',#1729,#403);
#272=LINE('',#1731,#404);
#273=LINE('',#1732,#405);
#274=LINE('',#1736,#406);
#275=LINE('',#1738,#407);
#276=LINE('',#1740,#408);
#277=LINE('',#1741,#409);
#278=LINE('',#1744,#410);
#279=LINE('',#1745,#411);
#280=LINE('',#1747,#412);
#281=LINE('',#1748,#413);
#282=LINE('',#1751,#414);
#283=LINE('',#1752,#415);
#284=LINE('',#1754,#416);
#285=LINE('',#1755,#417);
#286=LINE('',#1758,#418);
#287=LINE('',#1760,#419);
#288=LINE('',#1761,#420);
#289=LINE('',#1764,#421);
#290=LINE('',#1766,#422);
#291=LINE('',#1767,#423);
#292=LINE('',#1770,#424);
#293=LINE('',#1772,#425);
#294=LINE('',#1773,#426);
#295=LINE('',#1776,#427);
#296=LINE('',#1778,#428);
#297=LINE('',#1779,#429);
#298=LINE('',#1782,#430);
#299=LINE('',#1783,#431);
#300=LINE('',#1786,#432);
#301=LINE('',#1787,#433);
#302=LINE('',#1790,#434);
#303=LINE('',#1791,#435);
#304=LINE('',#1794,#436);
#305=LINE('',#1795,#437);
#306=LINE('',#1799,#438);
#307=LINE('',#1803,#439);
#308=LINE('',#1804,#440);
#309=LINE('',#1806,#441);
#310=LINE('',#1812,#442);
#311=LINE('',#1815,#443);
#312=LINE('',#1816,#444);
#313=LINE('',#1818,#445);
#314=LINE('',#1820,#446);
#315=LINE('',#1824,#447);
#316=LINE('',#1828,#448);
#317=LINE('',#1830,#449);
#318=LINE('',#1836,#450);
#319=LINE('',#1840,#451);
#320=LINE('',#1842,#452);
#321=VECTOR('',#1231,10.);
#322=VECTOR('',#1232,10.);
#323=VECTOR('',#1233,10.);
#324=VECTOR('',#1234,10.);
#325=VECTOR('',#1237,10.);
#326=VECTOR('',#1238,10.);
#327=VECTOR('',#1239,10.);
#328=VECTOR('',#1244,10.);
#329=VECTOR('',#1245,10.);
#330=VECTOR('',#1246,10.);
#331=VECTOR('',#1251,10.);
#332=VECTOR('',#1252,10.);
#333=VECTOR('',#1259,1.7);
#334=VECTOR('',#1262,1.7);
#335=VECTOR('',#1269,10.);
#336=VECTOR('',#1270,10.);
#337=VECTOR('',#1271,10.);
#338=VECTOR('',#1272,10.);
#339=VECTOR('',#1275,10.);
#340=VECTOR('',#1276,10.);
#341=VECTOR('',#1277,10.);
#342=VECTOR('',#1282,10.);
#343=VECTOR('',#1283,10.);
#344=VECTOR('',#1284,10.);
#345=VECTOR('',#1289,10.);
#346=VECTOR('',#1290,10.);
#347=VECTOR('',#1297,1.7);
#348=VECTOR('',#1300,1.7);
#349=VECTOR('',#1307,10.);
#350=VECTOR('',#1308,10.);
#351=VECTOR('',#1309,10.);
#352=VECTOR('',#1310,10.);
#353=VECTOR('',#1313,10.);
#354=VECTOR('',#1314,10.);
#355=VECTOR('',#1315,10.);
#356=VECTOR('',#1318,10.);
#357=VECTOR('',#1319,10.);
#358=VECTOR('',#1322,10.);
#359=VECTOR('',#1323,10.);
#360=VECTOR('',#1326,10.);
#361=VECTOR('',#1327,10.);
#362=VECTOR('',#1330,10.);
#363=VECTOR('',#1333,10.);
#364=VECTOR('',#1334,10.);
#365=VECTOR('',#1335,10.);
#366=VECTOR('',#1336,10.);
#367=VECTOR('',#1337,10.);
#368=VECTOR('',#1338,10.);
#369=VECTOR('',#1339,10.);
#370=VECTOR('',#1340,10.);
#371=VECTOR('',#1341,10.);
#372=VECTOR('',#1346,10.);
#373=VECTOR('',#1347,10.);
#374=VECTOR('',#1348,10.);
#375=VECTOR('',#1349,10.);
#376=VECTOR('',#1350,10.);
#377=VECTOR('',#1351,10.);
#378=VECTOR('',#1352,10.);
#379=VECTOR('',#1353,10.);
#380=VECTOR('',#1354,10.);
#381=VECTOR('',#1355,10.);
#382=VECTOR('',#1356,10.);
#383=VECTOR('',#1361,10.);
#384=VECTOR('',#1362,10.);
#385=VECTOR('',#1363,10.);
#386=VECTOR('',#1364,10.);
#387=VECTOR('',#1371,10.);
#388=VECTOR('',#1372,10.);
#389=VECTOR('',#1373,10.);
#390=VECTOR('',#1376,10.);
#391=VECTOR('',#1377,10.);
#392=VECTOR('',#1380,10.);
#393=VECTOR('',#1381,10.);
#394=VECTOR('',#1384,10.);
#395=VECTOR('',#1387,10.);
#396=VECTOR('',#1388,10.);
#397=VECTOR('',#1389,10.);
#398=VECTOR('',#1392,10.);
#399=VECTOR('',#1393,10.);
#400=VECTOR('',#1396,10.);
#401=VECTOR('',#1397,10.);
#402=VECTOR('',#1400,10.);
#403=VECTOR('',#1403,10.);
#404=VECTOR('',#1404,10.);
#405=VECTOR('',#1405,10.);
#406=VECTOR('',#1408,10.);
#407=VECTOR('',#1409,10.);
#408=VECTOR('',#1410,10.);
#409=VECTOR('',#1411,10.);
#410=VECTOR('',#1414,10.);
#411=VECTOR('',#1415,10.);
#412=VECTOR('',#1416,10.);
#413=VECTOR('',#1417,10.);
#414=VECTOR('',#1420,10.);
#415=VECTOR('',#1421,10.);
#416=VECTOR('',#1422,10.);
#417=VECTOR('',#1423,10.);
#418=VECTOR('',#1426,10.);
#419=VECTOR('',#1427,10.);
#420=VECTOR('',#1428,10.);
#421=VECTOR('',#1431,10.);
#422=VECTOR('',#1432,10.);
#423=VECTOR('',#1433,10.);
#424=VECTOR('',#1436,10.);
#425=VECTOR('',#1437,10.);
#426=VECTOR('',#1438,10.);
#427=VECTOR('',#1441,10.);
#428=VECTOR('',#1442,10.);
#429=VECTOR('',#1443,10.);
#430=VECTOR('',#1446,10.);
#431=VECTOR('',#1447,10.);
#432=VECTOR('',#1450,10.);
#433=VECTOR('',#1451,10.);
#434=VECTOR('',#1454,10.);
#435=VECTOR('',#1455,10.);
#436=VECTOR('',#1458,10.);
#437=VECTOR('',#1459,10.);
#438=VECTOR('',#1464,4.);
#439=VECTOR('',#1469,10.);
#440=VECTOR('',#1470,10.);
#441=VECTOR('',#1473,10.);
#442=VECTOR('',#1482,10.);
#443=VECTOR('',#1485,10.);
#444=VECTOR('',#1486,10.);
#445=VECTOR('',#1489,10.);
#446=VECTOR('',#1492,4.);
#447=VECTOR('',#1497,10.);
#448=VECTOR('',#1502,10.);
#449=VECTOR('',#1505,10.);
#450=VECTOR('',#1514,2.4);
#451=VECTOR('',#1519,2.4);
#452=VECTOR('',#1522,10.);
#453=VERTEX_POINT('',#1527);
#454=VERTEX_POINT('',#1528);
#455=VERTEX_POINT('',#1530);
#456=VERTEX_POINT('',#1532);
#457=VERTEX_POINT('',#1536);
#458=VERTEX_POINT('',#1538);
#459=VERTEX_POINT('',#1541);
#460=VERTEX_POINT('',#1544);
#461=VERTEX_POINT('',#1546);
#462=VERTEX_POINT('',#1549);
#463=VERTEX_POINT('',#1556);
#464=VERTEX_POINT('',#1560);
#465=VERTEX_POINT('',#1565);
#466=VERTEX_POINT('',#1566);
#467=VERTEX_POINT('',#1568);
#468=VERTEX_POINT('',#1570);
#469=VERTEX_POINT('',#1574);
#470=VERTEX_POINT('',#1576);
#471=VERTEX_POINT('',#1579);
#472=VERTEX_POINT('',#1582);
#473=VERTEX_POINT('',#1584);
#474=VERTEX_POINT('',#1587);
#475=VERTEX_POINT('',#1594);
#476=VERTEX_POINT('',#1598);
#477=VERTEX_POINT('',#1603);
#478=VERTEX_POINT('',#1604);
#479=VERTEX_POINT('',#1606);
#480=VERTEX_POINT('',#1608);
#481=VERTEX_POINT('',#1612);
#482=VERTEX_POINT('',#1614);
#483=VERTEX_POINT('',#1618);
#484=VERTEX_POINT('',#1622);
#485=VERTEX_POINT('',#1626);
#486=VERTEX_POINT('',#1628);
#487=VERTEX_POINT('',#1630);
#488=VERTEX_POINT('',#1632);
#489=VERTEX_POINT('',#1634);
#490=VERTEX_POINT('',#1636);
#491=VERTEX_POINT('',#1638);
#492=VERTEX_POINT('',#1640);
#493=VERTEX_POINT('',#1642);
#494=VERTEX_POINT('',#1644);
#495=VERTEX_POINT('',#1646);
#496=VERTEX_POINT('',#1648);
#497=VERTEX_POINT('',#1650);
#498=VERTEX_POINT('',#1652);
#499=VERTEX_POINT('',#1654);
#500=VERTEX_POINT('',#1656);
#501=VERTEX_POINT('',#1658);
#502=VERTEX_POINT('',#1660);
#503=VERTEX_POINT('',#1662);
#504=VERTEX_POINT('',#1664);
#505=VERTEX_POINT('',#1666);
#506=VERTEX_POINT('',#1668);
#507=VERTEX_POINT('',#1670);
#508=VERTEX_POINT('',#1672);
#509=VERTEX_POINT('',#1674);
#510=VERTEX_POINT('',#1676);
#511=VERTEX_POINT('',#1678);
#512=VERTEX_POINT('',#1680);
#513=VERTEX_POINT('',#1682);
#514=VERTEX_POINT('',#1684);
#515=VERTEX_POINT('',#1686);
#516=VERTEX_POINT('',#1688);
#517=VERTEX_POINT('',#1691);
#518=VERTEX_POINT('',#1693);
#519=VERTEX_POINT('',#1696);
#520=VERTEX_POINT('',#1698);
#521=VERTEX_POINT('',#1702);
#522=VERTEX_POINT('',#1706);
#523=VERTEX_POINT('',#1712);
#524=VERTEX_POINT('',#1714);
#525=VERTEX_POINT('',#1718);
#526=VERTEX_POINT('',#1722);
#527=VERTEX_POINT('',#1728);
#528=VERTEX_POINT('',#1730);
#529=VERTEX_POINT('',#1734);
#530=VERTEX_POINT('',#1735);
#531=VERTEX_POINT('',#1737);
#532=VERTEX_POINT('',#1739);
#533=VERTEX_POINT('',#1743);
#534=VERTEX_POINT('',#1746);
#535=VERTEX_POINT('',#1750);
#536=VERTEX_POINT('',#1753);
#537=VERTEX_POINT('',#1757);
#538=VERTEX_POINT('',#1759);
#539=VERTEX_POINT('',#1763);
#540=VERTEX_POINT('',#1765);
#541=VERTEX_POINT('',#1769);
#542=VERTEX_POINT('',#1771);
#543=VERTEX_POINT('',#1775);
#544=VERTEX_POINT('',#1777);
#545=VERTEX_POINT('',#1781);
#546=VERTEX_POINT('',#1785);
#547=VERTEX_POINT('',#1789);
#548=VERTEX_POINT('',#1793);
#549=VERTEX_POINT('',#1798);
#550=VERTEX_POINT('',#1802);
#551=VERTEX_POINT('',#1808);
#552=VERTEX_POINT('',#1814);
#553=VERTEX_POINT('',#1822);
#554=VERTEX_POINT('',#1826);
#555=VERTEX_POINT('',#1834);
#556=VERTEX_POINT('',#1838);
#557=EDGE_CURVE('',#453,#454,#189,.T.);
#558=EDGE_CURVE('',#453,#455,#190,.T.);
#559=EDGE_CURVE('',#455,#456,#191,.T.);
#560=EDGE_CURVE('',#456,#454,#192,.T.);
#561=EDGE_CURVE('',#457,#453,#193,.T.);
#562=EDGE_CURVE('',#458,#457,#194,.T.);
#563=EDGE_CURVE('',#455,#458,#195,.T.);
#564=EDGE_CURVE('',#459,#459,#37,.T.);
#565=EDGE_CURVE('',#454,#460,#196,.T.);
#566=EDGE_CURVE('',#461,#456,#197,.T.);
#567=EDGE_CURVE('',#460,#461,#198,.T.);
#568=EDGE_CURVE('',#462,#462,#38,.T.);
#569=EDGE_CURVE('',#460,#457,#199,.T.);
#570=EDGE_CURVE('',#458,#461,#200,.T.);
#571=EDGE_CURVE('',#463,#463,#39,.T.);
#572=EDGE_CURVE('',#463,#462,#201,.T.);
#573=EDGE_CURVE('',#459,#464,#202,.T.);
#574=EDGE_CURVE('',#464,#464,#40,.T.);
#575=EDGE_CURVE('',#465,#466,#203,.T.);
#576=EDGE_CURVE('',#465,#467,#204,.T.);
#577=EDGE_CURVE('',#467,#468,#205,.T.);
#578=EDGE_CURVE('',#468,#466,#206,.T.);
#579=EDGE_CURVE('',#469,#465,#207,.T.);
#580=EDGE_CURVE('',#470,#469,#208,.T.);
#581=EDGE_CURVE('',#467,#470,#209,.T.);
#582=EDGE_CURVE('',#471,#471,#41,.T.);
#583=EDGE_CURVE('',#466,#472,#210,.T.);
#584=EDGE_CURVE('',#473,#468,#211,.T.);
#585=EDGE_CURVE('',#472,#473,#212,.T.);
#586=EDGE_CURVE('',#474,#474,#42,.T.);
#587=EDGE_CURVE('',#472,#469,#213,.T.);
#588=EDGE_CURVE('',#470,#473,#214,.T.);
#589=EDGE_CURVE('',#475,#475,#43,.T.);
#590=EDGE_CURVE('',#475,#474,#215,.T.);
#591=EDGE_CURVE('',#471,#476,#216,.T.);
#592=EDGE_CURVE('',#476,#476,#44,.T.);
#593=EDGE_CURVE('',#477,#478,#217,.T.);
#594=EDGE_CURVE('',#477,#479,#218,.T.);
#595=EDGE_CURVE('',#479,#480,#219,.T.);
#596=EDGE_CURVE('',#478,#480,#220,.T.);
#597=EDGE_CURVE('',#480,#481,#221,.T.);
#598=EDGE_CURVE('',#479,#482,#222,.T.);
#599=EDGE_CURVE('',#482,#481,#223,.T.);
#600=EDGE_CURVE('',#483,#477,#224,.T.);
#601=EDGE_CURVE('',#482,#483,#225,.T.);
#602=EDGE_CURVE('',#484,#483,#226,.T.);
#603=EDGE_CURVE('',#481,#484,#227,.T.);
#604=EDGE_CURVE('',#485,#484,#228,.T.);
#605=EDGE_CURVE('',#486,#485,#229,.T.);
#606=EDGE_CURVE('',#487,#486,#45,.T.);
#607=EDGE_CURVE('',#488,#487,#230,.T.);
#608=EDGE_CURVE('',#489,#488,#46,.T.);
#609=EDGE_CURVE('',#489,#490,#231,.T.);
#610=EDGE_CURVE('',#491,#490,#232,.T.);
#611=EDGE_CURVE('',#491,#492,#233,.T.);
#612=EDGE_CURVE('',#492,#493,#234,.T.);
#613=EDGE_CURVE('',#493,#494,#235,.T.);
#614=EDGE_CURVE('',#495,#494,#236,.T.);
#615=EDGE_CURVE('',#496,#495,#237,.T.);
#616=EDGE_CURVE('',#496,#497,#238,.T.);
#617=EDGE_CURVE('',#497,#498,#239,.T.);
#618=EDGE_CURVE('',#498,#499,#47,.T.);
#619=EDGE_CURVE('',#499,#500,#48,.T.);
#620=EDGE_CURVE('',#500,#501,#240,.T.);
#621=EDGE_CURVE('',#501,#502,#241,.T.);
#622=EDGE_CURVE('',#503,#502,#242,.T.);
#623=EDGE_CURVE('',#503,#504,#243,.T.);
#624=EDGE_CURVE('',#504,#505,#244,.T.);
#625=EDGE_CURVE('',#505,#506,#245,.T.);
#626=EDGE_CURVE('',#506,#507,#246,.T.);
#627=EDGE_CURVE('',#507,#508,#247,.T.);
#628=EDGE_CURVE('',#508,#509,#248,.T.);
#629=EDGE_CURVE('',#509,#510,#249,.T.);
#630=EDGE_CURVE('',#510,#511,#250,.T.);
#631=EDGE_CURVE('',#511,#512,#49,.T.);
#632=EDGE_CURVE('',#512,#513,#50,.T.);
#633=EDGE_CURVE('',#513,#514,#251,.T.);
#634=EDGE_CURVE('',#514,#515,#252,.T.);
#635=EDGE_CURVE('',#515,#516,#253,.T.);
#636=EDGE_CURVE('',#478,#516,#254,.T.);
#637=EDGE_CURVE('',#517,#517,#51,.T.);
#638=EDGE_CURVE('',#518,#518,#52,.T.);
#639=EDGE_CURVE('',#519,#491,#255,.T.);
#640=EDGE_CURVE('',#519,#520,#256,.T.);
#641=EDGE_CURVE('',#520,#492,#257,.T.);
#642=EDGE_CURVE('',#520,#521,#258,.T.);
#643=EDGE_CURVE('',#521,#493,#259,.T.);
#644=EDGE_CURVE('',#522,#519,#260,.T.);
#645=EDGE_CURVE('',#521,#522,#261,.T.);
#646=EDGE_CURVE('',#494,#522,#262,.T.);
#647=EDGE_CURVE('',#523,#504,#263,.T.);
#648=EDGE_CURVE('',#523,#524,#264,.T.);
#649=EDGE_CURVE('',#524,#505,#265,.T.);
#650=EDGE_CURVE('',#524,#525,#266,.T.);
#651=EDGE_CURVE('',#525,#506,#267,.T.);
#652=EDGE_CURVE('',#525,#526,#268,.T.);
#653=EDGE_CURVE('',#526,#507,#269,.T.);
#654=EDGE_CURVE('',#526,#523,#270,.T.);
#655=EDGE_CURVE('',#527,#503,#271,.T.);
#656=EDGE_CURVE('',#528,#527,#272,.T.);
#657=EDGE_CURVE('',#508,#528,#273,.T.);
#658=EDGE_CURVE('',#529,#530,#274,.T.);
#659=EDGE_CURVE('',#531,#529,#275,.T.);
#660=EDGE_CURVE('',#532,#531,#276,.T.);
#661=EDGE_CURVE('',#532,#530,#277,.T.);
#662=EDGE_CURVE('',#533,#529,#278,.T.);
#663=EDGE_CURVE('',#486,#533,#279,.T.);
#664=EDGE_CURVE('',#485,#534,#280,.T.);
#665=EDGE_CURVE('',#531,#534,#281,.T.);
#666=EDGE_CURVE('',#535,#489,#282,.T.);
#667=EDGE_CURVE('',#530,#535,#283,.T.);
#668=EDGE_CURVE('',#536,#532,#284,.T.);
#669=EDGE_CURVE('',#490,#536,#285,.T.);
#670=EDGE_CURVE('',#537,#500,#286,.T.);
#671=EDGE_CURVE('',#537,#538,#287,.T.);
#672=EDGE_CURVE('',#538,#501,#288,.T.);
#673=EDGE_CURVE('',#539,#497,#289,.T.);
#674=EDGE_CURVE('',#539,#540,#290,.T.);
#675=EDGE_CURVE('',#498,#540,#291,.T.);
#676=EDGE_CURVE('',#541,#514,#292,.T.);
#677=EDGE_CURVE('',#541,#542,#293,.T.);
#678=EDGE_CURVE('',#515,#542,#294,.T.);
#679=EDGE_CURVE('',#543,#509,#295,.T.);
#680=EDGE_CURVE('',#543,#544,#296,.T.);
#681=EDGE_CURVE('',#544,#510,#297,.T.);
#682=EDGE_CURVE('',#538,#545,#298,.T.);
#683=EDGE_CURVE('',#502,#545,#299,.T.);
#684=EDGE_CURVE('',#544,#546,#300,.T.);
#685=EDGE_CURVE('',#511,#546,#301,.T.);
#686=EDGE_CURVE('',#547,#496,#302,.T.);
#687=EDGE_CURVE('',#547,#539,#303,.T.);
#688=EDGE_CURVE('',#548,#513,#304,.T.);
#689=EDGE_CURVE('',#548,#541,#305,.T.);
#690=EDGE_CURVE('',#540,#537,#53,.T.);
#691=EDGE_CURVE('',#499,#549,#306,.T.);
#692=EDGE_CURVE('',#549,#549,#54,.T.);
#693=EDGE_CURVE('',#542,#550,#307,.T.);
#694=EDGE_CURVE('',#516,#550,#308,.T.);
#695=EDGE_CURVE('',#527,#545,#309,.T.);
#696=EDGE_CURVE('',#551,#551,#55,.T.);
#697=EDGE_CURVE('',#534,#536,#310,.T.);
#698=EDGE_CURVE('',#547,#552,#311,.T.);
#699=EDGE_CURVE('',#552,#550,#312,.T.);
#700=EDGE_CURVE('',#546,#548,#56,.T.);
#701=EDGE_CURVE('',#528,#543,#313,.T.);
#702=EDGE_CURVE('',#512,#551,#314,.T.);
#703=EDGE_CURVE('',#533,#553,#57,.T.);
#704=EDGE_CURVE('',#553,#487,#315,.T.);
#705=EDGE_CURVE('',#554,#535,#58,.T.);
#706=EDGE_CURVE('',#488,#554,#316,.T.);
#707=EDGE_CURVE('',#552,#495,#317,.T.);
#708=EDGE_CURVE('',#555,#555,#59,.T.);
#709=EDGE_CURVE('',#555,#518,#318,.T.);
#710=EDGE_CURVE('',#556,#556,#60,.T.);
#711=EDGE_CURVE('',#556,#517,#319,.T.);
#712=EDGE_CURVE('',#554,#553,#320,.T.);
#713=ORIENTED_EDGE('',*,*,#557,.F.);
#714=ORIENTED_EDGE('',*,*,#558,.T.);
#715=ORIENTED_EDGE('',*,*,#559,.T.);
#716=ORIENTED_EDGE('',*,*,#560,.T.);
#717=ORIENTED_EDGE('',*,*,#561,.F.);
#718=ORIENTED_EDGE('',*,*,#562,.F.);
#719=ORIENTED_EDGE('',*,*,#563,.F.);
#720=ORIENTED_EDGE('',*,*,#558,.F.);
#721=ORIENTED_EDGE('',*,*,#564,.F.);
#722=ORIENTED_EDGE('',*,*,#565,.F.);
#723=ORIENTED_EDGE('',*,*,#560,.F.);
#724=ORIENTED_EDGE('',*,*,#566,.F.);
#725=ORIENTED_EDGE('',*,*,#567,.F.);
#726=ORIENTED_EDGE('',*,*,#568,.F.);
#727=ORIENTED_EDGE('',*,*,#569,.F.);
#728=ORIENTED_EDGE('',*,*,#567,.T.);
#729=ORIENTED_EDGE('',*,*,#570,.F.);
#730=ORIENTED_EDGE('',*,*,#562,.T.);
#731=ORIENTED_EDGE('',*,*,#559,.F.);
#732=ORIENTED_EDGE('',*,*,#563,.T.);
#733=ORIENTED_EDGE('',*,*,#570,.T.);
#734=ORIENTED_EDGE('',*,*,#566,.T.);
#735=ORIENTED_EDGE('',*,*,#571,.T.);
#736=ORIENTED_EDGE('',*,*,#572,.T.);
#737=ORIENTED_EDGE('',*,*,#568,.T.);
#738=ORIENTED_EDGE('',*,*,#572,.F.);
#739=ORIENTED_EDGE('',*,*,#564,.T.);
#740=ORIENTED_EDGE('',*,*,#573,.T.);
#741=ORIENTED_EDGE('',*,*,#574,.F.);
#742=ORIENTED_EDGE('',*,*,#573,.F.);
#743=ORIENTED_EDGE('',*,*,#571,.F.);
#744=ORIENTED_EDGE('',*,*,#575,.F.);
#745=ORIENTED_EDGE('',*,*,#576,.T.);
#746=ORIENTED_EDGE('',*,*,#577,.T.);
#747=ORIENTED_EDGE('',*,*,#578,.T.);
#748=ORIENTED_EDGE('',*,*,#579,.F.);
#749=ORIENTED_EDGE('',*,*,#580,.F.);
#750=ORIENTED_EDGE('',*,*,#581,.F.);
#751=ORIENTED_EDGE('',*,*,#576,.F.);
#752=ORIENTED_EDGE('',*,*,#582,.F.);
#753=ORIENTED_EDGE('',*,*,#583,.F.);
#754=ORIENTED_EDGE('',*,*,#578,.F.);
#755=ORIENTED_EDGE('',*,*,#584,.F.);
#756=ORIENTED_EDGE('',*,*,#585,.F.);
#757=ORIENTED_EDGE('',*,*,#586,.F.);
#758=ORIENTED_EDGE('',*,*,#587,.F.);
#759=ORIENTED_EDGE('',*,*,#585,.T.);
#760=ORIENTED_EDGE('',*,*,#588,.F.);
#761=ORIENTED_EDGE('',*,*,#580,.T.);
#762=ORIENTED_EDGE('',*,*,#577,.F.);
#763=ORIENTED_EDGE('',*,*,#581,.T.);
#764=ORIENTED_EDGE('',*,*,#588,.T.);
#765=ORIENTED_EDGE('',*,*,#584,.T.);
#766=ORIENTED_EDGE('',*,*,#589,.T.);
#767=ORIENTED_EDGE('',*,*,#590,.T.);
#768=ORIENTED_EDGE('',*,*,#586,.T.);
#769=ORIENTED_EDGE('',*,*,#590,.F.);
#770=ORIENTED_EDGE('',*,*,#582,.T.);
#771=ORIENTED_EDGE('',*,*,#591,.T.);
#772=ORIENTED_EDGE('',*,*,#592,.F.);
#773=ORIENTED_EDGE('',*,*,#591,.F.);
#774=ORIENTED_EDGE('',*,*,#589,.F.);
#775=ORIENTED_EDGE('',*,*,#593,.F.);
#776=ORIENTED_EDGE('',*,*,#594,.T.);
#777=ORIENTED_EDGE('',*,*,#595,.T.);
#778=ORIENTED_EDGE('',*,*,#596,.F.);
#779=ORIENTED_EDGE('',*,*,#597,.F.);
#780=ORIENTED_EDGE('',*,*,#595,.F.);
#781=ORIENTED_EDGE('',*,*,#598,.T.);
#782=ORIENTED_EDGE('',*,*,#599,.T.);
#783=ORIENTED_EDGE('',*,*,#600,.F.);
#784=ORIENTED_EDGE('',*,*,#601,.F.);
#785=ORIENTED_EDGE('',*,*,#598,.F.);
#786=ORIENTED_EDGE('',*,*,#594,.F.);
#787=ORIENTED_EDGE('',*,*,#602,.F.);
#788=ORIENTED_EDGE('',*,*,#603,.F.);
#789=ORIENTED_EDGE('',*,*,#599,.F.);
#790=ORIENTED_EDGE('',*,*,#601,.T.);
#791=ORIENTED_EDGE('',*,*,#596,.T.);
#792=ORIENTED_EDGE('',*,*,#597,.T.);
#793=ORIENTED_EDGE('',*,*,#603,.T.);
#794=ORIENTED_EDGE('',*,*,#604,.F.);
#795=ORIENTED_EDGE('',*,*,#605,.F.);
#796=ORIENTED_EDGE('',*,*,#606,.F.);
#797=ORIENTED_EDGE('',*,*,#607,.F.);
#798=ORIENTED_EDGE('',*,*,#608,.F.);
#799=ORIENTED_EDGE('',*,*,#609,.T.);
#800=ORIENTED_EDGE('',*,*,#610,.F.);
#801=ORIENTED_EDGE('',*,*,#611,.T.);
#802=ORIENTED_EDGE('',*,*,#612,.T.);
#803=ORIENTED_EDGE('',*,*,#613,.T.);
#804=ORIENTED_EDGE('',*,*,#614,.F.);
#805=ORIENTED_EDGE('',*,*,#615,.F.);
#806=ORIENTED_EDGE('',*,*,#616,.T.);
#807=ORIENTED_EDGE('',*,*,#617,.T.);
#808=ORIENTED_EDGE('',*,*,#618,.T.);
#809=ORIENTED_EDGE('',*,*,#619,.T.);
#810=ORIENTED_EDGE('',*,*,#620,.T.);
#811=ORIENTED_EDGE('',*,*,#621,.T.);
#812=ORIENTED_EDGE('',*,*,#622,.F.);
#813=ORIENTED_EDGE('',*,*,#623,.T.);
#814=ORIENTED_EDGE('',*,*,#624,.T.);
#815=ORIENTED_EDGE('',*,*,#625,.T.);
#816=ORIENTED_EDGE('',*,*,#626,.T.);
#817=ORIENTED_EDGE('',*,*,#627,.T.);
#818=ORIENTED_EDGE('',*,*,#628,.T.);
#819=ORIENTED_EDGE('',*,*,#629,.T.);
#820=ORIENTED_EDGE('',*,*,#630,.T.);
#821=ORIENTED_EDGE('',*,*,#631,.T.);
#822=ORIENTED_EDGE('',*,*,#632,.T.);
#823=ORIENTED_EDGE('',*,*,#633,.T.);
#824=ORIENTED_EDGE('',*,*,#634,.T.);
#825=ORIENTED_EDGE('',*,*,#635,.T.);
#826=ORIENTED_EDGE('',*,*,#636,.F.);
#827=ORIENTED_EDGE('',*,*,#637,.F.);
#828=ORIENTED_EDGE('',*,*,#638,.F.);
#829=ORIENTED_EDGE('',*,*,#639,.F.);
#830=ORIENTED_EDGE('',*,*,#640,.T.);
#831=ORIENTED_EDGE('',*,*,#641,.T.);
#832=ORIENTED_EDGE('',*,*,#611,.F.);
#833=ORIENTED_EDGE('',*,*,#612,.F.);
#834=ORIENTED_EDGE('',*,*,#641,.F.);
#835=ORIENTED_EDGE('',*,*,#642,.T.);
#836=ORIENTED_EDGE('',*,*,#643,.T.);
#837=ORIENTED_EDGE('',*,*,#644,.F.);
#838=ORIENTED_EDGE('',*,*,#645,.F.);
#839=ORIENTED_EDGE('',*,*,#642,.F.);
#840=ORIENTED_EDGE('',*,*,#640,.F.);
#841=ORIENTED_EDGE('',*,*,#646,.F.);
#842=ORIENTED_EDGE('',*,*,#613,.F.);
#843=ORIENTED_EDGE('',*,*,#643,.F.);
#844=ORIENTED_EDGE('',*,*,#645,.T.);
#845=ORIENTED_EDGE('',*,*,#624,.F.);
#846=ORIENTED_EDGE('',*,*,#647,.F.);
#847=ORIENTED_EDGE('',*,*,#648,.T.);
#848=ORIENTED_EDGE('',*,*,#649,.T.);
#849=ORIENTED_EDGE('',*,*,#625,.F.);
#850=ORIENTED_EDGE('',*,*,#649,.F.);
#851=ORIENTED_EDGE('',*,*,#650,.T.);
#852=ORIENTED_EDGE('',*,*,#651,.T.);
#853=ORIENTED_EDGE('',*,*,#626,.F.);
#854=ORIENTED_EDGE('',*,*,#651,.F.);
#855=ORIENTED_EDGE('',*,*,#652,.T.);
#856=ORIENTED_EDGE('',*,*,#653,.T.);
#857=ORIENTED_EDGE('',*,*,#650,.F.);
#858=ORIENTED_EDGE('',*,*,#648,.F.);
#859=ORIENTED_EDGE('',*,*,#654,.F.);
#860=ORIENTED_EDGE('',*,*,#652,.F.);
#861=ORIENTED_EDGE('',*,*,#623,.F.);
#862=ORIENTED_EDGE('',*,*,#655,.F.);
#863=ORIENTED_EDGE('',*,*,#656,.F.);
#864=ORIENTED_EDGE('',*,*,#657,.F.);
#865=ORIENTED_EDGE('',*,*,#627,.F.);
#866=ORIENTED_EDGE('',*,*,#653,.F.);
#867=ORIENTED_EDGE('',*,*,#654,.T.);
#868=ORIENTED_EDGE('',*,*,#647,.T.);
#869=ORIENTED_EDGE('',*,*,#658,.F.);
#870=ORIENTED_EDGE('',*,*,#659,.F.);
#871=ORIENTED_EDGE('',*,*,#660,.F.);
#872=ORIENTED_EDGE('',*,*,#661,.T.);
#873=ORIENTED_EDGE('',*,*,#662,.F.);
#874=ORIENTED_EDGE('',*,*,#663,.F.);
#875=ORIENTED_EDGE('',*,*,#605,.T.);
#876=ORIENTED_EDGE('',*,*,#664,.T.);
#877=ORIENTED_EDGE('',*,*,#665,.F.);
#878=ORIENTED_EDGE('',*,*,#659,.T.);
#879=ORIENTED_EDGE('',*,*,#609,.F.);
#880=ORIENTED_EDGE('',*,*,#666,.F.);
#881=ORIENTED_EDGE('',*,*,#667,.F.);
#882=ORIENTED_EDGE('',*,*,#661,.F.);
#883=ORIENTED_EDGE('',*,*,#668,.F.);
#884=ORIENTED_EDGE('',*,*,#669,.F.);
#885=ORIENTED_EDGE('',*,*,#670,.F.);
#886=ORIENTED_EDGE('',*,*,#671,.T.);
#887=ORIENTED_EDGE('',*,*,#672,.T.);
#888=ORIENTED_EDGE('',*,*,#620,.F.);
#889=ORIENTED_EDGE('',*,*,#617,.F.);
#890=ORIENTED_EDGE('',*,*,#673,.F.);
#891=ORIENTED_EDGE('',*,*,#674,.T.);
#892=ORIENTED_EDGE('',*,*,#675,.F.);
#893=ORIENTED_EDGE('',*,*,#634,.F.);
#894=ORIENTED_EDGE('',*,*,#676,.F.);
#895=ORIENTED_EDGE('',*,*,#677,.T.);
#896=ORIENTED_EDGE('',*,*,#678,.F.);
#897=ORIENTED_EDGE('',*,*,#629,.F.);
#898=ORIENTED_EDGE('',*,*,#679,.F.);
#899=ORIENTED_EDGE('',*,*,#680,.T.);
#900=ORIENTED_EDGE('',*,*,#681,.T.);
#901=ORIENTED_EDGE('',*,*,#621,.F.);
#902=ORIENTED_EDGE('',*,*,#672,.F.);
#903=ORIENTED_EDGE('',*,*,#682,.T.);
#904=ORIENTED_EDGE('',*,*,#683,.F.);
#905=ORIENTED_EDGE('',*,*,#630,.F.);
#906=ORIENTED_EDGE('',*,*,#681,.F.);
#907=ORIENTED_EDGE('',*,*,#684,.T.);
#908=ORIENTED_EDGE('',*,*,#685,.F.);
#909=ORIENTED_EDGE('',*,*,#616,.F.);
#910=ORIENTED_EDGE('',*,*,#686,.F.);
#911=ORIENTED_EDGE('',*,*,#687,.T.);
#912=ORIENTED_EDGE('',*,*,#673,.T.);
#913=ORIENTED_EDGE('',*,*,#633,.F.);
#914=ORIENTED_EDGE('',*,*,#688,.F.);
#915=ORIENTED_EDGE('',*,*,#689,.T.);
#916=ORIENTED_EDGE('',*,*,#676,.T.);
#917=ORIENTED_EDGE('',*,*,#675,.T.);
#918=ORIENTED_EDGE('',*,*,#690,.T.);
#919=ORIENTED_EDGE('',*,*,#670,.T.);
#920=ORIENTED_EDGE('',*,*,#619,.F.);
#921=ORIENTED_EDGE('',*,*,#691,.T.);
#922=ORIENTED_EDGE('',*,*,#692,.F.);
#923=ORIENTED_EDGE('',*,*,#691,.F.);
#924=ORIENTED_EDGE('',*,*,#618,.F.);
#925=ORIENTED_EDGE('',*,*,#678,.T.);
#926=ORIENTED_EDGE('',*,*,#693,.T.);
#927=ORIENTED_EDGE('',*,*,#694,.F.);
#928=ORIENTED_EDGE('',*,*,#635,.F.);
#929=ORIENTED_EDGE('',*,*,#655,.T.);
#930=ORIENTED_EDGE('',*,*,#622,.T.);
#931=ORIENTED_EDGE('',*,*,#683,.T.);
#932=ORIENTED_EDGE('',*,*,#695,.F.);
#933=ORIENTED_EDGE('',*,*,#696,.T.);
#934=ORIENTED_EDGE('',*,*,#692,.T.);
#935=ORIENTED_EDGE('',*,*,#665,.T.);
#936=ORIENTED_EDGE('',*,*,#697,.T.);
#937=ORIENTED_EDGE('',*,*,#668,.T.);
#938=ORIENTED_EDGE('',*,*,#660,.T.);
#939=ORIENTED_EDGE('',*,*,#574,.T.);
#940=ORIENTED_EDGE('',*,*,#592,.T.);
#941=ORIENTED_EDGE('',*,*,#656,.T.);
#942=ORIENTED_EDGE('',*,*,#695,.T.);
#943=ORIENTED_EDGE('',*,*,#682,.F.);
#944=ORIENTED_EDGE('',*,*,#671,.F.);
#945=ORIENTED_EDGE('',*,*,#690,.F.);
#946=ORIENTED_EDGE('',*,*,#674,.F.);
#947=ORIENTED_EDGE('',*,*,#687,.F.);
#948=ORIENTED_EDGE('',*,*,#698,.T.);
#949=ORIENTED_EDGE('',*,*,#699,.T.);
#950=ORIENTED_EDGE('',*,*,#693,.F.);
#951=ORIENTED_EDGE('',*,*,#677,.F.);
#952=ORIENTED_EDGE('',*,*,#689,.F.);
#953=ORIENTED_EDGE('',*,*,#700,.F.);
#954=ORIENTED_EDGE('',*,*,#684,.F.);
#955=ORIENTED_EDGE('',*,*,#680,.F.);
#956=ORIENTED_EDGE('',*,*,#701,.F.);
#957=ORIENTED_EDGE('',*,*,#688,.T.);
#958=ORIENTED_EDGE('',*,*,#632,.F.);
#959=ORIENTED_EDGE('',*,*,#702,.T.);
#960=ORIENTED_EDGE('',*,*,#696,.F.);
#961=ORIENTED_EDGE('',*,*,#702,.F.);
#962=ORIENTED_EDGE('',*,*,#631,.F.);
#963=ORIENTED_EDGE('',*,*,#685,.T.);
#964=ORIENTED_EDGE('',*,*,#700,.T.);
#965=ORIENTED_EDGE('',*,*,#703,.T.);
#966=ORIENTED_EDGE('',*,*,#704,.T.);
#967=ORIENTED_EDGE('',*,*,#606,.T.);
#968=ORIENTED_EDGE('',*,*,#663,.T.);
#969=ORIENTED_EDGE('',*,*,#705,.T.);
#970=ORIENTED_EDGE('',*,*,#666,.T.);
#971=ORIENTED_EDGE('',*,*,#608,.T.);
#972=ORIENTED_EDGE('',*,*,#706,.T.);
#973=ORIENTED_EDGE('',*,*,#686,.T.);
#974=ORIENTED_EDGE('',*,*,#615,.T.);
#975=ORIENTED_EDGE('',*,*,#707,.F.);
#976=ORIENTED_EDGE('',*,*,#698,.F.);
#977=ORIENTED_EDGE('',*,*,#593,.T.);
#978=ORIENTED_EDGE('',*,*,#636,.T.);
#979=ORIENTED_EDGE('',*,*,#694,.T.);
#980=ORIENTED_EDGE('',*,*,#699,.F.);
#981=ORIENTED_EDGE('',*,*,#707,.T.);
#982=ORIENTED_EDGE('',*,*,#614,.T.);
#983=ORIENTED_EDGE('',*,*,#646,.T.);
#984=ORIENTED_EDGE('',*,*,#644,.T.);
#985=ORIENTED_EDGE('',*,*,#639,.T.);
#986=ORIENTED_EDGE('',*,*,#610,.T.);
#987=ORIENTED_EDGE('',*,*,#669,.T.);
#988=ORIENTED_EDGE('',*,*,#697,.F.);
#989=ORIENTED_EDGE('',*,*,#664,.F.);
#990=ORIENTED_EDGE('',*,*,#604,.T.);
#991=ORIENTED_EDGE('',*,*,#602,.T.);
#992=ORIENTED_EDGE('',*,*,#600,.T.);
#993=ORIENTED_EDGE('',*,*,#565,.T.);
#994=ORIENTED_EDGE('',*,*,#569,.T.);
#995=ORIENTED_EDGE('',*,*,#561,.T.);
#996=ORIENTED_EDGE('',*,*,#557,.T.);
#997=ORIENTED_EDGE('',*,*,#583,.T.);
#998=ORIENTED_EDGE('',*,*,#587,.T.);
#999=ORIENTED_EDGE('',*,*,#579,.T.);
#1000=ORIENTED_EDGE('',*,*,#575,.T.);
#1001=ORIENTED_EDGE('',*,*,#657,.T.);
#1002=ORIENTED_EDGE('',*,*,#701,.T.);
#1003=ORIENTED_EDGE('',*,*,#679,.T.);
#1004=ORIENTED_EDGE('',*,*,#628,.F.);
#1005=ORIENTED_EDGE('',*,*,#708,.F.);
#1006=ORIENTED_EDGE('',*,*,#709,.T.);
#1007=ORIENTED_EDGE('',*,*,#638,.T.);
#1008=ORIENTED_EDGE('',*,*,#709,.F.);
#1009=ORIENTED_EDGE('',*,*,#710,.F.);
#1010=ORIENTED_EDGE('',*,*,#711,.T.);
#1011=ORIENTED_EDGE('',*,*,#637,.T.);
#1012=ORIENTED_EDGE('',*,*,#711,.F.);
#1013=ORIENTED_EDGE('',*,*,#704,.F.);
#1014=ORIENTED_EDGE('',*,*,#712,.F.);
#1015=ORIENTED_EDGE('',*,*,#706,.F.);
#1016=ORIENTED_EDGE('',*,*,#607,.T.);
#1017=ORIENTED_EDGE('',*,*,#658,.T.);
#1018=ORIENTED_EDGE('',*,*,#667,.T.);
#1019=ORIENTED_EDGE('',*,*,#705,.F.);
#1020=ORIENTED_EDGE('',*,*,#712,.T.);
#1021=ORIENTED_EDGE('',*,*,#703,.F.);
#1022=ORIENTED_EDGE('',*,*,#662,.T.);
#1023=ORIENTED_EDGE('',*,*,#710,.T.);
#1024=ORIENTED_EDGE('',*,*,#708,.T.);
#1025=PLANE('',#1145);
#1026=PLANE('',#1146);
#1027=PLANE('',#1148);
#1028=PLANE('',#1150);
#1029=PLANE('',#1151);
#1030=PLANE('',#1156);
#1031=PLANE('',#1157);
#1032=PLANE('',#1158);
#1033=PLANE('',#1160);
#1034=PLANE('',#1162);
#1035=PLANE('',#1163);
#1036=PLANE('',#1168);
#1037=PLANE('',#1169);
#1038=PLANE('',#1170);
#1039=PLANE('',#1171);
#1040=PLANE('',#1172);
#1041=PLANE('',#1173);
#1042=PLANE('',#1182);
#1043=PLANE('',#1183);
#1044=PLANE('',#1184);
#1045=PLANE('',#1185);
#1046=PLANE('',#1186);
#1047=PLANE('',#1187);
#1048=PLANE('',#1188);
#1049=PLANE('',#1189);
#1050=PLANE('',#1190);
#1051=PLANE('',#1191);
#1052=PLANE('',#1192);
#1053=PLANE('',#1193);
#1054=PLANE('',#1194);
#1055=PLANE('',#1195);
#1056=PLANE('',#1196);
#1057=PLANE('',#1197);
#1058=PLANE('',#1198);
#1059=PLANE('',#1199);
#1060=PLANE('',#1200);
#1061=PLANE('',#1201);
#1062=PLANE('',#1205);
#1063=PLANE('',#1206);
#1064=PLANE('',#1207);
#1065=PLANE('',#1209);
#1066=PLANE('',#1210);
#1067=PLANE('',#1211);
#1068=PLANE('',#1218);
#1069=PLANE('',#1219);
#1070=PLANE('',#1220);
#1071=PLANE('',#1225);
#1072=PLANE('',#1226);
#1073=ADVANCED_FACE('',(#61),#1025,.T.);
#1074=ADVANCED_FACE('',(#62,#25),#1026,.F.);
#1075=ADVANCED_FACE('',(#63,#26),#1027,.T.);
#1076=ADVANCED_FACE('',(#64),#1028,.T.);
#1077=ADVANCED_FACE('',(#65),#1029,.T.);
#1078=ADVANCED_FACE('',(#66),#15,.F.);
#1079=ADVANCED_FACE('',(#67),#16,.F.);
#1080=ADVANCED_FACE('',(#68),#1030,.F.);
#1081=ADVANCED_FACE('',(#69),#1031,.T.);
#1082=ADVANCED_FACE('',(#70,#27),#1032,.F.);
#1083=ADVANCED_FACE('',(#71,#28),#1033,.T.);
#1084=ADVANCED_FACE('',(#72),#1034,.T.);
#1085=ADVANCED_FACE('',(#73),#1035,.T.);
#1086=ADVANCED_FACE('',(#74),#17,.F.);
#1087=ADVANCED_FACE('',(#75),#18,.F.);
#1088=ADVANCED_FACE('',(#76),#1036,.F.);
#1089=ADVANCED_FACE('',(#77),#1037,.T.);
#1090=ADVANCED_FACE('',(#78),#1038,.T.);
#1091=ADVANCED_FACE('',(#79),#1039,.F.);
#1092=ADVANCED_FACE('',(#80),#1040,.T.);
#1093=ADVANCED_FACE('',(#81,#29,#30),#1041,.F.);
#1094=ADVANCED_FACE('',(#82),#1042,.T.);
#1095=ADVANCED_FACE('',(#83),#1043,.T.);
#1096=ADVANCED_FACE('',(#84),#1044,.F.);
#1097=ADVANCED_FACE('',(#85),#1045,.T.);
#1098=ADVANCED_FACE('',(#86),#1046,.T.);
#1099=ADVANCED_FACE('',(#87),#1047,.T.);
#1100=ADVANCED_FACE('',(#88),#1048,.T.);
#1101=ADVANCED_FACE('',(#89),#1049,.F.);
#1102=ADVANCED_FACE('',(#90),#1050,.T.);
#1103=ADVANCED_FACE('',(#91),#1051,.F.);
#1104=ADVANCED_FACE('',(#92),#1052,.T.);
#1105=ADVANCED_FACE('',(#93),#1053,.T.);
#1106=ADVANCED_FACE('',(#94),#1054,.T.);
#1107=ADVANCED_FACE('',(#95),#1055,.T.);
#1108=ADVANCED_FACE('',(#96),#1056,.T.);
#1109=ADVANCED_FACE('',(#97),#1057,.T.);
#1110=ADVANCED_FACE('',(#98),#1058,.T.);
#1111=ADVANCED_FACE('',(#99),#1059,.T.);
#1112=ADVANCED_FACE('',(#100),#1060,.T.);
#1113=ADVANCED_FACE('',(#101),#1061,.T.);
#1114=ADVANCED_FACE('',(#102),#19,.F.);
#1115=ADVANCED_FACE('',(#103),#1062,.T.);
#1116=ADVANCED_FACE('',(#104),#1063,.T.);
#1117=ADVANCED_FACE('',(#105),#1064,.F.);
#1118=ADVANCED_FACE('',(#106),#1065,.F.);
#1119=ADVANCED_FACE('',(#107,#31,#32),#1066,.T.);
#1120=ADVANCED_FACE('',(#108),#1067,.F.);
#1121=ADVANCED_FACE('',(#109),#20,.F.);
#1122=ADVANCED_FACE('',(#110),#21,.T.);
#1123=ADVANCED_FACE('',(#111),#22,.T.);
#1124=ADVANCED_FACE('',(#112),#1068,.T.);
#1125=ADVANCED_FACE('',(#113,#33,#34),#1069,.T.);
#1126=ADVANCED_FACE('',(#114),#1070,.T.);
#1127=ADVANCED_FACE('',(#115),#23,.F.);
#1128=ADVANCED_FACE('',(#116),#24,.F.);
#1129=ADVANCED_FACE('',(#117),#1071,.T.);
#1130=ADVANCED_FACE('',(#118,#35,#36),#1072,.T.);
#1131=CLOSED_SHELL('',(#1073,#1074,#1075,#1076,#1077,#1078,#1079,#1080,
#1081,#1082,#1083,#1084,#1085,#1086,#1087,#1088,#1089,#1090,#1091,#1092,
#1093,#1094,#1095,#1096,#1097,#1098,#1099,#1100,#1101,#1102,#1103,#1104,
#1105,#1106,#1107,#1108,#1109,#1110,#1111,#1112,#1113,#1114,#1115,#1116,
#1117,#1118,#1119,#1120,#1121,#1122,#1123,#1124,#1125,#1126,#1127,#1128,
#1129,#1130));
#1132=DERIVED_UNIT_ELEMENT(#1134,1.);
#1133=DERIVED_UNIT_ELEMENT(#1849,-3.);
#1134=(
MASS_UNIT()
NAMED_UNIT(*)
SI_UNIT(.KILO.,.GRAM.)
);
#1135=DERIVED_UNIT((#1132,#1133));
#1136=MEASURE_REPRESENTATION_ITEM('density measure',
POSITIVE_RATIO_MEASURE(7850.),#1135);
#1137=PROPERTY_DEFINITION_REPRESENTATION(#1142,#1139);
#1138=PROPERTY_DEFINITION_REPRESENTATION(#1143,#1140);
#1139=REPRESENTATION('material name',(#1141),#1846);
#1140=REPRESENTATION('density',(#1136),#1846);
#1141=DESCRIPTIVE_REPRESENTATION_ITEM('Steel','Steel');
#1142=PROPERTY_DEFINITION('material property','material name',#1856);
#1143=PROPERTY_DEFINITION('material property','density of part',#1856);
#1144=AXIS2_PLACEMENT_3D('',#1525,#1227,#1228);
#1145=AXIS2_PLACEMENT_3D('',#1526,#1229,#1230);
#1146=AXIS2_PLACEMENT_3D('',#1535,#1235,#1236);
#1147=AXIS2_PLACEMENT_3D('',#1542,#1240,#1241);
#1148=AXIS2_PLACEMENT_3D('',#1543,#1242,#1243);
#1149=AXIS2_PLACEMENT_3D('',#1550,#1247,#1248);
#1150=AXIS2_PLACEMENT_3D('',#1551,#1249,#1250);
#1151=AXIS2_PLACEMENT_3D('',#1554,#1253,#1254);
#1152=AXIS2_PLACEMENT_3D('',#1555,#1255,#1256);
#1153=AXIS2_PLACEMENT_3D('',#1557,#1257,#1258);
#1154=AXIS2_PLACEMENT_3D('',#1559,#1260,#1261);
#1155=AXIS2_PLACEMENT_3D('',#1562,#1263,#1264);
#1156=AXIS2_PLACEMENT_3D('',#1563,#1265,#1266);
#1157=AXIS2_PLACEMENT_3D('',#1564,#1267,#1268);
#1158=AXIS2_PLACEMENT_3D('',#1573,#1273,#1274);
#1159=AXIS2_PLACEMENT_3D('',#1580,#1278,#1279);
#1160=AXIS2_PLACEMENT_3D('',#1581,#1280,#1281);
#1161=AXIS2_PLACEMENT_3D('',#1588,#1285,#1286);
#1162=AXIS2_PLACEMENT_3D('',#1589,#1287,#1288);
#1163=AXIS2_PLACEMENT_3D('',#1592,#1291,#1292);
#1164=AXIS2_PLACEMENT_3D('',#1593,#1293,#1294);
#1165=AXIS2_PLACEMENT_3D('',#1595,#1295,#1296);
#1166=AXIS2_PLACEMENT_3D('',#1597,#1298,#1299);
#1167=AXIS2_PLACEMENT_3D('',#1600,#1301,#1302);
#1168=AXIS2_PLACEMENT_3D('',#1601,#1303,#1304);
#1169=AXIS2_PLACEMENT_3D('',#1602,#1305,#1306);
#1170=AXIS2_PLACEMENT_3D('',#1611,#1311,#1312);
#1171=AXIS2_PLACEMENT_3D('',#1617,#1316,#1317);
#1172=AXIS2_PLACEMENT_3D('',#1621,#1320,#1321);
#1173=AXIS2_PLACEMENT_3D('',#1625,#1324,#1325);
#1174=AXIS2_PLACEMENT_3D('',#1631,#1328,#1329);
#1175=AXIS2_PLACEMENT_3D('',#1635,#1331,#1332);
#1176=AXIS2_PLACEMENT_3D('',#1655,#1342,#1343);
#1177=AXIS2_PLACEMENT_3D('',#1657,#1344,#1345);
#1178=AXIS2_PLACEMENT_3D('',#1681,#1357,#1358);
#1179=AXIS2_PLACEMENT_3D('',#1683,#1359,#1360);
#1180=AXIS2_PLACEMENT_3D('',#1692,#1365,#1366);
#1181=AXIS2_PLACEMENT_3D('',#1694,#1367,#1368);
#1182=AXIS2_PLACEMENT_3D('',#1695,#1369,#1370);
#1183=AXIS2_PLACEMENT_3D('',#1701,#1374,#1375);
#1184=AXIS2_PLACEMENT_3D('',#1705,#1378,#1379);
#1185=AXIS2_PLACEMENT_3D('',#1709,#1382,#1383);
#1186=AXIS2_PLACEMENT_3D('',#1711,#1385,#1386);
#1187=AXIS2_PLACEMENT_3D('',#1717,#1390,#1391);
#1188=AXIS2_PLACEMENT_3D('',#1721,#1394,#1395);
#1189=AXIS2_PLACEMENT_3D('',#1725,#1398,#1399);
#1190=AXIS2_PLACEMENT_3D('',#1727,#1401,#1402);
#1191=AXIS2_PLACEMENT_3D('',#1733,#1406,#1407);
#1192=AXIS2_PLACEMENT_3D('',#1742,#1412,#1413);
#1193=AXIS2_PLACEMENT_3D('',#1749,#1418,#1419);
#1194=AXIS2_PLACEMENT_3D('',#1756,#1424,#1425);
#1195=AXIS2_PLACEMENT_3D('',#1762,#1429,#1430);
#1196=AXIS2_PLACEMENT_3D('',#1768,#1434,#1435);
#1197=AXIS2_PLACEMENT_3D('',#1774,#1439,#1440);
#1198=AXIS2_PLACEMENT_3D('',#1780,#1444,#1445);
#1199=AXIS2_PLACEMENT_3D('',#1784,#1448,#1449);
#1200=AXIS2_PLACEMENT_3D('',#1788,#1452,#1453);
#1201=AXIS2_PLACEMENT_3D('',#1792,#1456,#1457);
#1202=AXIS2_PLACEMENT_3D('',#1796,#1460,#1461);
#1203=AXIS2_PLACEMENT_3D('',#1797,#1462,#1463);
#1204=AXIS2_PLACEMENT_3D('',#1800,#1465,#1466);
#1205=AXIS2_PLACEMENT_3D('',#1801,#1467,#1468);
#1206=AXIS2_PLACEMENT_3D('',#1805,#1471,#1472);
#1207=AXIS2_PLACEMENT_3D('',#1807,#1474,#1475);
#1208=AXIS2_PLACEMENT_3D('',#1809,#1476,#1477);
#1209=AXIS2_PLACEMENT_3D('',#1810,#1478,#1479);
#1210=AXIS2_PLACEMENT_3D('',#1811,#1480,#1481);
#1211=AXIS2_PLACEMENT_3D('',#1813,#1483,#1484);
#1212=AXIS2_PLACEMENT_3D('',#1817,#1487,#1488);
#1213=AXIS2_PLACEMENT_3D('',#1819,#1490,#1491);
#1214=AXIS2_PLACEMENT_3D('',#1821,#1493,#1494);
#1215=AXIS2_PLACEMENT_3D('',#1823,#1495,#1496);
#1216=AXIS2_PLACEMENT_3D('',#1825,#1498,#1499);
#1217=AXIS2_PLACEMENT_3D('',#1827,#1500,#1501);
#1218=AXIS2_PLACEMENT_3D('',#1829,#1503,#1504);
#1219=AXIS2_PLACEMENT_3D('',#1831,#1506,#1507);
#1220=AXIS2_PLACEMENT_3D('',#1832,#1508,#1509);
#1221=AXIS2_PLACEMENT_3D('',#1833,#1510,#1511);
#1222=AXIS2_PLACEMENT_3D('',#1835,#1512,#1513);
#1223=AXIS2_PLACEMENT_3D('',#1837,#1515,#1516);
#1224=AXIS2_PLACEMENT_3D('',#1839,#1517,#1518);
#1225=AXIS2_PLACEMENT_3D('',#1841,#1520,#1521);
#1226=AXIS2_PLACEMENT_3D('',#1843,#1523,#1524);
#1227=DIRECTION('axis',(0.,0.,1.));
#1228=DIRECTION('refdir',(1.,0.,0.));
#1229=DIRECTION('center_axis',(0.,1.,0.));
#1230=DIRECTION('ref_axis',(0.,0.,1.));
#1231=DIRECTION('',(0.,0.,-1.));
#1232=DIRECTION('',(1.,0.,0.));
#1233=DIRECTION('',(0.,0.,-1.));
#1234=DIRECTION('',(-1.,0.,0.));
#1235=DIRECTION('center_axis',(0.,0.,1.));
#1236=DIRECTION('ref_axis',(1.,0.,0.));
#1237=DIRECTION('',(0.,-1.,0.));
#1238=DIRECTION('',(-1.,0.,0.));
#1239=DIRECTION('',(0.,1.,0.));
#1240=DIRECTION('center_axis',(0.,0.,-1.));
#1241=DIRECTION('ref_axis',(1.,0.,0.));
#1242=DIRECTION('center_axis',(0.,0.,1.));
#1243=DIRECTION('ref_axis',(1.,0.,0.));
#1244=DIRECTION('',(0.,1.,0.));
#1245=DIRECTION('',(0.,-1.,0.));
#1246=DIRECTION('',(1.,0.,0.));
#1247=DIRECTION('center_axis',(0.,0.,1.));
#1248=DIRECTION('ref_axis',(1.,0.,0.));
#1249=DIRECTION('center_axis',(0.,-1.,0.));
#1250=DIRECTION('ref_axis',(0.,0.,-1.));
#1251=DIRECTION('',(0.,0.,1.));
#1252=DIRECTION('',(0.,0.,-1.));
#1253=DIRECTION('center_axis',(-1.,0.,0.));
#1254=DIRECTION('ref_axis',(0.,0.,1.));
#1255=DIRECTION('center_axis',(0.,0.,1.));
#1256=DIRECTION('ref_axis',(1.,0.,0.));
#1257=DIRECTION('center_axis',(0.,0.,-1.));
#1258=DIRECTION('ref_axis',(1.,0.,0.));
#1259=DIRECTION('',(0.,0.,1.));
#1260=DIRECTION('center_axis',(0.,0.,1.));
#1261=DIRECTION('ref_axis',(1.,0.,0.));
#1262=DIRECTION('',(0.,0.,1.));
#1263=DIRECTION('center_axis',(0.,0.,-1.));
#1264=DIRECTION('ref_axis',(1.,0.,0.));
#1265=DIRECTION('center_axis',(0.,0.,-1.));
#1266=DIRECTION('ref_axis',(-1.,0.,0.));
#1267=DIRECTION('center_axis',(0.,1.,0.));
#1268=DIRECTION('ref_axis',(0.,0.,1.));
#1269=DIRECTION('',(0.,0.,-1.));
#1270=DIRECTION('',(1.,0.,0.));
#1271=DIRECTION('',(0.,0.,-1.));
#1272=DIRECTION('',(-1.,0.,0.));
#1273=DIRECTION('center_axis',(0.,0.,1.));
#1274=DIRECTION('ref_axis',(1.,0.,0.));
#1275=DIRECTION('',(0.,-1.,0.));
#1276=DIRECTION('',(-1.,0.,0.));
#1277=DIRECTION('',(0.,1.,0.));
#1278=DIRECTION('center_axis',(0.,0.,-1.));
#1279=DIRECTION('ref_axis',(1.,0.,0.));
#1280=DIRECTION('center_axis',(0.,0.,1.));
#1281=DIRECTION('ref_axis',(1.,0.,0.));
#1282=DIRECTION('',(0.,1.,0.));
#1283=DIRECTION('',(0.,-1.,0.));
#1284=DIRECTION('',(1.,0.,0.));
#1285=DIRECTION('center_axis',(0.,0.,1.));
#1286=DIRECTION('ref_axis',(1.,0.,0.));
#1287=DIRECTION('center_axis',(0.,-1.,0.));
#1288=DIRECTION('ref_axis',(0.,0.,-1.));
#1289=DIRECTION('',(0.,0.,1.));
#1290=DIRECTION('',(0.,0.,-1.));
#1291=DIRECTION('center_axis',(-1.,0.,0.));
#1292=DIRECTION('ref_axis',(0.,0.,1.));
#1293=DIRECTION('center_axis',(0.,0.,1.));
#1294=DIRECTION('ref_axis',(1.,0.,0.));
#1295=DIRECTION('center_axis',(0.,0.,-1.));
#1296=DIRECTION('ref_axis',(1.,0.,0.));
#1297=DIRECTION('',(0.,0.,1.));
#1298=DIRECTION('center_axis',(0.,0.,1.));
#1299=DIRECTION('ref_axis',(1.,0.,0.));
#1300=DIRECTION('',(0.,0.,1.));
#1301=DIRECTION('center_axis',(0.,0.,-1.));
#1302=DIRECTION('ref_axis',(1.,0.,0.));
#1303=DIRECTION('center_axis',(0.,0.,-1.));
#1304=DIRECTION('ref_axis',(-1.,0.,0.));
#1305=DIRECTION('center_axis',(0.,1.,0.));
#1306=DIRECTION('ref_axis',(0.,0.,1.));
#1307=DIRECTION('',(0.,0.,-1.));
#1308=DIRECTION('',(1.,0.,0.));
#1309=DIRECTION('',(0.,0.,-1.));
#1310=DIRECTION('',(1.,0.,0.));
#1311=DIRECTION('center_axis',(-1.,0.,0.));
#1312=DIRECTION('ref_axis',(0.,0.,1.));
#1313=DIRECTION('',(0.,1.,0.));
#1314=DIRECTION('',(0.,1.,0.));
#1315=DIRECTION('',(0.,0.,-1.));
#1316=DIRECTION('center_axis',(0.,0.,1.));
#1317=DIRECTION('ref_axis',(1.,0.,0.));
#1318=DIRECTION('',(0.,-1.,0.));
#1319=DIRECTION('',(-1.,0.,0.));
#1320=DIRECTION('center_axis',(0.,-1.,0.));
#1321=DIRECTION('ref_axis',(0.,0.,-1.));
#1322=DIRECTION('',(0.,0.,1.));
#1323=DIRECTION('',(-1.,0.,0.));
#1324=DIRECTION('center_axis',(0.,0.,1.));
#1325=DIRECTION('ref_axis',(1.,0.,0.));
#1326=DIRECTION('',(0.,-1.,0.));
#1327=DIRECTION('',(-1.,0.,0.));
#1328=DIRECTION('center_axis',(0.,0.,1.));
#1329=DIRECTION('ref_axis',(0.707106781186547,0.707106781186547,0.));
#1330=DIRECTION('',(0.,1.,0.));
#1331=DIRECTION('center_axis',(0.,0.,1.));
#1332=DIRECTION('ref_axis',(0.707106781186547,-0.707106781186547,0.));
#1333=DIRECTION('',(-1.,0.,0.));
#1334=DIRECTION('',(0.,-1.,0.));
#1335=DIRECTION('',(1.,0.,0.));
#1336=DIRECTION('',(0.,1.,0.));
#1337=DIRECTION('',(-1.,0.,0.));
#1338=DIRECTION('',(0.,-1.,0.));
#1339=DIRECTION('',(-1.,0.,0.));
#1340=DIRECTION('',(0.,-1.,0.));
#1341=DIRECTION('',(1.,0.,0.));
#1342=DIRECTION('center_axis',(0.,0.,1.));
#1343=DIRECTION('ref_axis',(-1.,0.,0.));
#1344=DIRECTION('center_axis',(0.,0.,1.));
#1345=DIRECTION('ref_axis',(-1.,0.,0.));
#1346=DIRECTION('',(1.,0.,0.));
#1347=DIRECTION('',(0.,1.,0.));
#1348=DIRECTION('',(-1.,0.,0.));
#1349=DIRECTION('',(0.,-1.,0.));
#1350=DIRECTION('',(1.,0.,0.));
#1351=DIRECTION('',(0.,1.,0.));
#1352=DIRECTION('',(-1.,0.,0.));
#1353=DIRECTION('',(0.,-1.,0.));
#1354=DIRECTION('',(-1.,0.,0.));
#1355=DIRECTION('',(0.,1.,0.));
#1356=DIRECTION('',(-1.,0.,0.));
#1357=DIRECTION('center_axis',(0.,0.,1.));
#1358=DIRECTION('ref_axis',(-1.,0.,0.));
#1359=DIRECTION('center_axis',(0.,0.,1.));
#1360=DIRECTION('ref_axis',(-1.,0.,0.));
#1361=DIRECTION('',(-1.,0.,0.));
#1362=DIRECTION('',(0.,-1.,0.));
#1363=DIRECTION('',(-1.,0.,0.));
#1364=DIRECTION('',(0.,-1.,0.));
#1365=DIRECTION('center_axis',(0.,0.,-1.));
#1366=DIRECTION('ref_axis',(1.,0.,0.));
#1367=DIRECTION('center_axis',(0.,0.,-1.));
#1368=DIRECTION('ref_axis',(1.,0.,0.));
#1369=DIRECTION('center_axis',(0.,1.,0.));
#1370=DIRECTION('ref_axis',(0.,0.,1.));
#1371=DIRECTION('',(0.,0.,-1.));
#1372=DIRECTION('',(1.,0.,0.));
#1373=DIRECTION('',(0.,0.,-1.));
#1374=DIRECTION('center_axis',(-1.,0.,0.));
#1375=DIRECTION('ref_axis',(0.,0.,1.));
#1376=DIRECTION('',(0.,1.,0.));
#1377=DIRECTION('',(0.,0.,-1.));
#1378=DIRECTION('center_axis',(0.,0.,1.));
#1379=DIRECTION('ref_axis',(1.,0.,0.));
#1380=DIRECTION('',(0.,-1.,0.));
#1381=DIRECTION('',(-1.,0.,0.));
#1382=DIRECTION('center_axis',(0.,-1.,0.));
#1383=DIRECTION('ref_axis',(0.,0.,-1.));
#1384=DIRECTION('',(0.,0.,1.));
#1385=DIRECTION('center_axis',(0.,1.,0.));
#1386=DIRECTION('ref_axis',(0.,0.,1.));
#1387=DIRECTION('',(0.,0.,-1.));
#1388=DIRECTION('',(1.,0.,0.));
#1389=DIRECTION('',(0.,0.,-1.));
#1390=DIRECTION('center_axis',(-1.,0.,0.));
#1391=DIRECTION('ref_axis',(0.,0.,1.));
#1392=DIRECTION('',(0.,1.,0.));
#1393=DIRECTION('',(0.,0.,-1.));
#1394=DIRECTION('center_axis',(0.,-1.,0.));
#1395=DIRECTION('ref_axis',(0.,0.,-1.));
#1396=DIRECTION('',(-1.,0.,0.));
#1397=DIRECTION('',(0.,0.,-1.));
#1398=DIRECTION('center_axis',(0.,0.,1.));
#1399=DIRECTION('ref_axis',(1.,0.,0.));
#1400=DIRECTION('',(0.,-1.,0.));
#1401=DIRECTION('center_axis',(1.,0.,0.));
#1402=DIRECTION('ref_axis',(0.,0.,-1.));
#1403=DIRECTION('',(0.,-9.94229574291185E-17,-1.));
#1404=DIRECTION('',(0.,-1.,0.));
#1405=DIRECTION('',(0.,1.32563943238825E-16,1.));
#1406=DIRECTION('center_axis',(-1.,0.,0.));
#1407=DIRECTION('ref_axis',(0.,0.,1.));
#1408=DIRECTION('',(0.,-1.,0.));
#1409=DIRECTION('',(0.,0.,-1.));
#1410=DIRECTION('',(0.,1.,0.));
#1411=DIRECTION('',(0.,0.,-1.));
#1412=DIRECTION('center_axis',(0.,1.,0.));
#1413=DIRECTION('ref_axis',(-1.,0.,0.));
#1414=DIRECTION('',(-1.,0.,0.));
#1415=DIRECTION('',(0.,0.,1.));
#1416=DIRECTION('',(0.,0.,1.));
#1417=DIRECTION('',(-1.,0.,0.));
#1418=DIRECTION('center_axis',(-9.70547373549473E-34,-1.,0.));
#1419=DIRECTION('ref_axis',(1.,-9.70547373549473E-34,0.));
#1420=DIRECTION('',(0.,0.,-1.));
#1421=DIRECTION('',(1.,-9.70547373549473E-34,0.));
#1422=DIRECTION('',(1.,0.,0.));
#1423=DIRECTION('',(0.,0.,1.));
#1424=DIRECTION('center_axis',(0.,1.,0.));
#1425=DIRECTION('ref_axis',(0.,0.,1.));
#1426=DIRECTION('',(0.,0.,-1.));
#1427=DIRECTION('',(1.,0.,0.));
#1428=DIRECTION('',(0.,0.,-1.));
#1429=DIRECTION('center_axis',(0.,1.,0.));
#1430=DIRECTION('ref_axis',(0.,0.,1.));
#1431=DIRECTION('',(0.,0.,-1.));
#1432=DIRECTION('',(1.,0.,0.));
#1433=DIRECTION('',(0.,0.,1.));
#1434=DIRECTION('center_axis',(1.,0.,0.));
#1435=DIRECTION('ref_axis',(0.,0.,-1.));
#1436=DIRECTION('',(0.,0.,-1.));
#1437=DIRECTION('',(0.,-1.,0.));
#1438=DIRECTION('',(0.,1.32563943238825E-16,1.));
#1439=DIRECTION('center_axis',(-1.,0.,0.));
#1440=DIRECTION('ref_axis',(0.,0.,1.));
#1441=DIRECTION('',(0.,-1.32563943238825E-16,-1.));
#1442=DIRECTION('',(0.,1.,0.));
#1443=DIRECTION('',(0.,0.,-1.));
#1444=DIRECTION('center_axis',(-1.,0.,0.));
#1445=DIRECTION('ref_axis',(0.,0.,1.));
#1446=DIRECTION('',(0.,1.,0.));
#1447=DIRECTION('',(0.,9.94229574291185E-17,1.));
#1448=DIRECTION('center_axis',(0.,-1.,0.));
#1449=DIRECTION('ref_axis',(0.,0.,-1.));
#1450=DIRECTION('',(-1.,0.,0.));
#1451=DIRECTION('',(0.,0.,1.));
#1452=DIRECTION('center_axis',(1.,0.,0.));
#1453=DIRECTION('ref_axis',(0.,0.,-1.));
#1454=DIRECTION('',(0.,-9.94229574291185E-17,-1.));
#1455=DIRECTION('',(0.,-1.,0.));
#1456=DIRECTION('center_axis',(0.,-1.,0.));
#1457=DIRECTION('ref_axis',(0.,0.,-1.));
#1458=DIRECTION('',(0.,0.,-1.));
#1459=DIRECTION('',(-1.,0.,0.));
#1460=DIRECTION('center_axis',(0.,0.,1.));
#1461=DIRECTION('ref_axis',(-1.,0.,0.));
#1462=DIRECTION('center_axis',(0.,0.,-1.));
#1463=DIRECTION('ref_axis',(-1.,0.,0.));
#1464=DIRECTION('',(0.,0.,1.));
#1465=DIRECTION('center_axis',(0.,0.,-1.));
#1466=DIRECTION('ref_axis',(-1.,0.,0.));
#1467=DIRECTION('center_axis',(0.,-1.,1.32563943238825E-16));
#1468=DIRECTION('ref_axis',(0.,1.32563943238825E-16,1.));
#1469=DIRECTION('',(-1.,0.,0.));
#1470=DIRECTION('',(0.,1.32563943238825E-16,1.));
#1471=DIRECTION('center_axis',(0.,1.,-9.94229574291185E-17));
#1472=DIRECTION('ref_axis',(0.,-9.94229574291185E-17,-1.));
#1473=DIRECTION('',(-1.,0.,0.));
#1474=DIRECTION('center_axis',(0.,0.,1.));
#1475=DIRECTION('ref_axis',(1.,0.,0.));
#1476=DIRECTION('center_axis',(0.,0.,-1.));
#1477=DIRECTION('ref_axis',(-1.,0.,0.));
#1478=DIRECTION('center_axis',(0.,0.,1.));
#1479=DIRECTION('ref_axis',(1.,0.,0.));
#1480=DIRECTION('center_axis',(0.,0.,1.));
#1481=DIRECTION('ref_axis',(1.,0.,0.));
#1482=DIRECTION('',(0.,-1.,0.));
#1483=DIRECTION('center_axis',(0.,0.,1.));
#1484=DIRECTION('ref_axis',(-1.,0.,0.));
#1485=DIRECTION('',(-1.,0.,0.));
#1486=DIRECTION('',(0.,1.,0.));
#1487=DIRECTION('center_axis',(0.,0.,-1.));
#1488=DIRECTION('ref_axis',(-1.,0.,0.));
#1489=DIRECTION('',(-1.,0.,0.));
#1490=DIRECTION('center_axis',(0.,0.,1.));
#1491=DIRECTION('ref_axis',(-1.,0.,0.));
#1492=DIRECTION('',(0.,0.,1.));
#1493=DIRECTION('center_axis',(0.,0.,1.));
#1494=DIRECTION('ref_axis',(0.707106781186547,0.707106781186547,0.));
#1495=DIRECTION('center_axis',(0.,0.,-1.));
#1496=DIRECTION('ref_axis',(0.707106781186547,0.707106781186547,0.));
#1497=DIRECTION('',(0.,0.,-1.));
#1498=DIRECTION('center_axis',(0.,0.,1.));
#1499=DIRECTION('ref_axis',(0.707106781186547,-0.707106781186547,0.));
#1500=DIRECTION('center_axis',(0.,0.,-1.));
#1501=DIRECTION('ref_axis',(0.707106781186547,-0.707106781186547,0.));
#1502=DIRECTION('',(0.,0.,1.));
#1503=DIRECTION('center_axis',(0.,1.,-9.94229574291185E-17));
#1504=DIRECTION('ref_axis',(0.,-9.94229574291185E-17,-1.));
#1505=DIRECTION('',(0.,-9.94229574291185E-17,-1.));
#1506=DIRECTION('center_axis',(-1.,0.,0.));
#1507=DIRECTION('ref_axis',(0.,0.,1.));
#1508=DIRECTION('center_axis',(0.,-1.,1.32563943238825E-16));
#1509=DIRECTION('ref_axis',(0.,1.32563943238825E-16,1.));
#1510=DIRECTION('center_axis',(0.,0.,1.));
#1511=DIRECTION('ref_axis',(1.,0.,0.));
#1512=DIRECTION('center_axis',(0.,0.,-1.));
#1513=DIRECTION('ref_axis',(1.,0.,0.));
#1514=DIRECTION('',(0.,0.,-1.));
#1515=DIRECTION('center_axis',(0.,0.,1.));
#1516=DIRECTION('ref_axis',(1.,0.,0.));
#1517=DIRECTION('center_axis',(0.,0.,-1.));
#1518=DIRECTION('ref_axis',(1.,0.,0.));
#1519=DIRECTION('',(0.,0.,-1.));
#1520=DIRECTION('center_axis',(1.,0.,0.));
#1521=DIRECTION('ref_axis',(0.,1.,0.));
#1522=DIRECTION('',(0.,1.,0.));
#1523=DIRECTION('center_axis',(0.,0.,1.));
#1524=DIRECTION('ref_axis',(1.,0.,0.));
#1525=CARTESIAN_POINT('',(0.,0.,0.));
#1526=CARTESIAN_POINT('Origin',(-9.85,26.6,70.75));
#1527=CARTESIAN_POINT('',(-15.,26.6,72.1));
#1528=CARTESIAN_POINT('',(-15.,26.6,69.4));
#1529=CARTESIAN_POINT('',(-15.,26.6,52.125));
#1530=CARTESIAN_POINT('',(-4.6,26.6,72.1));
#1531=CARTESIAN_POINT('',(-9.85,26.6,72.1));
#1532=CARTESIAN_POINT('',(-4.6,26.6,69.4));
#1533=CARTESIAN_POINT('',(-4.6,26.6,70.75));
#1534=CARTESIAN_POINT('',(-9.85,26.6,69.4));
#1535=CARTESIAN_POINT('Origin',(-9.85,29.45,72.1));
#1536=CARTESIAN_POINT('',(-15.,32.3,72.1));
#1537=CARTESIAN_POINT('',(-15.,17.28125,72.1));
#1538=CARTESIAN_POINT('',(-4.6,32.3,72.1));
#1539=CARTESIAN_POINT('',(-9.85,32.3,72.1));
#1540=CARTESIAN_POINT('',(-4.6,29.45,72.1));
#1541=CARTESIAN_POINT('',(-9.2,29.45,72.1));
#1542=CARTESIAN_POINT('Origin',(-7.5,29.45,72.1));
#1543=CARTESIAN_POINT('Origin',(-9.85,29.45,69.4));
#1544=CARTESIAN_POINT('',(-15.,32.3,69.4));
#1545=CARTESIAN_POINT('',(-15.,17.28125,69.4));
#1546=CARTESIAN_POINT('',(-4.6,32.3,69.4));
#1547=CARTESIAN_POINT('',(-4.6,29.45,69.4));
#1548=CARTESIAN_POINT('',(-9.85,32.3,69.4));
#1549=CARTESIAN_POINT('',(-9.2,29.45,69.4));
#1550=CARTESIAN_POINT('Origin',(-7.5,29.45,69.4));
#1551=CARTESIAN_POINT('Origin',(-9.85,32.3,70.75));
#1552=CARTESIAN_POINT('',(-15.,32.3,52.125));
#1553=CARTESIAN_POINT('',(-4.6,32.3,70.75));
#1554=CARTESIAN_POINT('Origin',(-4.6,29.45,70.75));
#1555=CARTESIAN_POINT('Origin',(-7.5,29.45,71.05));
#1556=CARTESIAN_POINT('',(-9.2,29.45,68.));
#1557=CARTESIAN_POINT('Origin',(-7.5,29.45,68.));
#1558=CARTESIAN_POINT('',(-9.2,29.45,71.05));
#1559=CARTESIAN_POINT('Origin',(-7.5,29.45,71.05));
#1560=CARTESIAN_POINT('',(-9.2,29.45,74.));
#1561=CARTESIAN_POINT('',(-9.2,29.45,71.05));
#1562=CARTESIAN_POINT('Origin',(-7.5,29.45,74.));
#1563=CARTESIAN_POINT('Origin',(-7.5,29.45,68.));
#1564=CARTESIAN_POINT('Origin',(-9.85,12.15,70.75));
#1565=CARTESIAN_POINT('',(-15.,12.15,72.1));
#1566=CARTESIAN_POINT('',(-15.,12.15,69.4));
#1567=CARTESIAN_POINT('',(-15.,12.15,52.125));
#1568=CARTESIAN_POINT('',(-4.6,12.15,72.1));
#1569=CARTESIAN_POINT('',(-9.85,12.15,72.1));
#1570=CARTESIAN_POINT('',(-4.6,12.15,69.4));
#1571=CARTESIAN_POINT('',(-4.6,12.15,70.75));
#1572=CARTESIAN_POINT('',(-9.85,12.15,69.4));
#1573=CARTESIAN_POINT('Origin',(-9.85,15.,72.1));
#1574=CARTESIAN_POINT('',(-15.,17.85,72.1));
#1575=CARTESIAN_POINT('',(-15.,10.05625,72.1));
#1576=CARTESIAN_POINT('',(-4.6,17.85,72.1));
#1577=CARTESIAN_POINT('',(-9.85,17.85,72.1));
#1578=CARTESIAN_POINT('',(-4.6,15.,72.1));
#1579=CARTESIAN_POINT('',(-9.2,15.,72.1));
#1580=CARTESIAN_POINT('Origin',(-7.5,15.,72.1));
#1581=CARTESIAN_POINT('Origin',(-9.85,15.,69.4));
#1582=CARTESIAN_POINT('',(-15.,17.85,69.4));
#1583=CARTESIAN_POINT('',(-15.,10.05625,69.4));
#1584=CARTESIAN_POINT('',(-4.6,17.85,69.4));
#1585=CARTESIAN_POINT('',(-4.6,15.,69.4));
#1586=CARTESIAN_POINT('',(-9.85,17.85,69.4));
#1587=CARTESIAN_POINT('',(-9.2,15.,69.4));
#1588=CARTESIAN_POINT('Origin',(-7.5,15.,69.4));
#1589=CARTESIAN_POINT('Origin',(-9.85,17.85,70.75));
#1590=CARTESIAN_POINT('',(-15.,17.85,52.125));
#1591=CARTESIAN_POINT('',(-4.6,17.85,70.75));
#1592=CARTESIAN_POINT('Origin',(-4.6,15.,70.75));
#1593=CARTESIAN_POINT('Origin',(-7.5,15.,71.05));
#1594=CARTESIAN_POINT('',(-9.2,15.,68.));
#1595=CARTESIAN_POINT('Origin',(-7.5,15.,68.));
#1596=CARTESIAN_POINT('',(-9.2,15.,71.05));
#1597=CARTESIAN_POINT('Origin',(-7.5,15.,71.05));
#1598=CARTESIAN_POINT('',(-9.2,15.,74.));
#1599=CARTESIAN_POINT('',(-9.2,15.,71.05));
#1600=CARTESIAN_POINT('Origin',(-7.5,15.,74.));
#1601=CARTESIAN_POINT('Origin',(-7.5,15.,68.));
#1602=CARTESIAN_POINT('Origin',(-14.05,41.85,36.));
#1603=CARTESIAN_POINT('',(-15.,41.85,72.1));
#1604=CARTESIAN_POINT('',(-15.,41.85,0.));
#1605=CARTESIAN_POINT('',(-15.,41.85,34.75));
#1606=CARTESIAN_POINT('',(-13.,41.85,72.1));
#1607=CARTESIAN_POINT('',(-14.05,41.85,72.1));
#1608=CARTESIAN_POINT('',(-13.,41.85,0.));
#1609=CARTESIAN_POINT('',(-13.,41.85,36.));
#1610=CARTESIAN_POINT('',(-3.05625,41.85,0.));
#1611=CARTESIAN_POINT('Origin',(-13.,42.95,36.));
#1612=CARTESIAN_POINT('',(-13.,44.05,0.));
#1613=CARTESIAN_POINT('',(-13.,32.5875,0.));
#1614=CARTESIAN_POINT('',(-13.,44.05,72.1));
#1615=CARTESIAN_POINT('',(-13.,42.95,72.1));
#1616=CARTESIAN_POINT('',(-13.,44.05,36.));
#1617=CARTESIAN_POINT('Origin',(-14.05,42.95,72.1));
#1618=CARTESIAN_POINT('',(-15.,44.05,72.1));
#1619=CARTESIAN_POINT('',(-15.,24.03125,72.1));
#1620=CARTESIAN_POINT('',(-14.05,44.05,72.1));
#1621=CARTESIAN_POINT('Origin',(-14.05,44.05,36.));
#1622=CARTESIAN_POINT('',(-15.,44.05,0.));
#1623=CARTESIAN_POINT('',(-15.,44.05,34.75));
#1624=CARTESIAN_POINT('',(-3.05625,44.05,0.));
#1625=CARTESIAN_POINT('Origin',(7.9375,22.225,0.));
#1626=CARTESIAN_POINT('',(-15.,44.45,0.));
#1627=CARTESIAN_POINT('',(-15.,44.45,0.));
#1628=CARTESIAN_POINT('',(10.875,44.45,0.));
#1629=CARTESIAN_POINT('',(15.875,44.45,0.));
#1630=CARTESIAN_POINT('',(15.875,39.45,0.));
#1631=CARTESIAN_POINT('Origin',(10.875,39.45,0.));
#1632=CARTESIAN_POINT('',(15.875,5.,0.));
#1633=CARTESIAN_POINT('',(15.875,-1.54074395550979E-32,0.));
#1634=CARTESIAN_POINT('',(10.875,0.,0.));
#1635=CARTESIAN_POINT('Origin',(10.875,5.,0.));
#1636=CARTESIAN_POINT('',(-15.,0.,0.));
#1637=CARTESIAN_POINT('',(0.,0.,0.));
#1638=CARTESIAN_POINT('',(-15.,0.4,0.));
#1639=CARTESIAN_POINT('',(-15.,44.45,0.));
#1640=CARTESIAN_POINT('',(-13.,0.4,0.));
#1641=CARTESIAN_POINT('',(-3.05625,0.4,0.));
#1642=CARTESIAN_POINT('',(-13.,2.6,0.));
#1643=CARTESIAN_POINT('',(-13.,11.8625,0.));
#1644=CARTESIAN_POINT('',(-15.,2.6,0.));
#1645=CARTESIAN_POINT('',(-3.05625,2.6,0.));
#1646=CARTESIAN_POINT('',(-15.,10.225,0.));
#1647=CARTESIAN_POINT('',(-15.,44.45,0.));
#1648=CARTESIAN_POINT('',(-12.5,10.225,0.));
#1649=CARTESIAN_POINT('',(0.,10.225,0.));
#1650=CARTESIAN_POINT('',(-12.5,10.1,0.));
#1651=CARTESIAN_POINT('',(-12.5,22.225,0.));
#1652=CARTESIAN_POINT('',(-8.49215674164922,10.1,0.));
#1653=CARTESIAN_POINT('',(0.21875,10.1,0.));
#1654=CARTESIAN_POINT('',(-3.5,6.225,-8.88178419700125E-15));
#1655=CARTESIAN_POINT('Origin',(-7.5,6.225,0.));
#1656=CARTESIAN_POINT('',(-6.50784325835078,10.1,0.));
#1657=CARTESIAN_POINT('Origin',(-7.5,6.225,0.));
#1658=CARTESIAN_POINT('',(-2.5,10.1,0.));
#1659=CARTESIAN_POINT('',(0.21875,10.1,0.));
#1660=CARTESIAN_POINT('',(-2.5,10.225,0.));
#1661=CARTESIAN_POINT('',(-2.5,22.225,0.));
#1662=CARTESIAN_POINT('',(-0.05,10.225,0.));
#1663=CARTESIAN_POINT('',(0.,10.225,0.));
#1664=CARTESIAN_POINT('',(-0.05,9.7,0.));
#1665=CARTESIAN_POINT('',(-0.05,22.2125,0.));
#1666=CARTESIAN_POINT('',(0.65,9.7,0.));
#1667=CARTESIAN_POINT('',(4.11875,9.7,0.));
#1668=CARTESIAN_POINT('',(0.65,34.7,0.));
#1669=CARTESIAN_POINT('',(0.650000000000001,22.2125,0.));
#1670=CARTESIAN_POINT('',(-0.05,34.7,0.));
#1671=CARTESIAN_POINT('',(4.11875,34.7,0.));
#1672=CARTESIAN_POINT('',(-0.05,34.225,0.));
#1673=CARTESIAN_POINT('',(-0.05,22.2125,0.));
#1674=CARTESIAN_POINT('',(-2.5,34.225,0.));
#1675=CARTESIAN_POINT('',(0.,34.225,0.));
#1676=CARTESIAN_POINT('',(-2.5,34.35,0.));
#1677=CARTESIAN_POINT('',(-2.5,22.225,0.));
#1678=CARTESIAN_POINT('',(-6.50784325835077,34.35,0.));
#1679=CARTESIAN_POINT('',(0.21875,34.35,0.));
#1680=CARTESIAN_POINT('',(-3.5,38.225,0.));
#1681=CARTESIAN_POINT('Origin',(-7.5,38.225,0.));
#1682=CARTESIAN_POINT('',(-8.49215674164923,34.35,0.));
#1683=CARTESIAN_POINT('Origin',(-7.5,38.225,0.));
#1684=CARTESIAN_POINT('',(-12.5,34.35,0.));
#1685=CARTESIAN_POINT('',(0.21875,34.35,0.));
#1686=CARTESIAN_POINT('',(-12.5,34.225,0.));
#1687=CARTESIAN_POINT('',(-12.5,22.225,0.));
#1688=CARTESIAN_POINT('',(-15.,34.225,0.));
#1689=CARTESIAN_POINT('',(0.,34.225,0.));
#1690=CARTESIAN_POINT('',(-15.,44.45,0.));
#1691=CARTESIAN_POINT('',(5.53749999999999,6.35,0.));
#1692=CARTESIAN_POINT('Origin',(7.93749999999999,6.35,0.));
#1693=CARTESIAN_POINT('',(5.5375,38.1,0.));
#1694=CARTESIAN_POINT('Origin',(7.9375,38.1,0.));
#1695=CARTESIAN_POINT('Origin',(-14.05,0.4,36.));
#1696=CARTESIAN_POINT('',(-15.,0.4,72.1));
#1697=CARTESIAN_POINT('',(-15.,0.4,34.75));
#1698=CARTESIAN_POINT('',(-13.,0.4,72.1));
#1699=CARTESIAN_POINT('',(-14.05,0.4,72.1));
#1700=CARTESIAN_POINT('',(-13.,0.4,36.));
#1701=CARTESIAN_POINT('Origin',(-13.,1.5,36.));
#1702=CARTESIAN_POINT('',(-13.,2.6,72.1));
#1703=CARTESIAN_POINT('',(-13.,1.5,72.1));
#1704=CARTESIAN_POINT('',(-13.,2.6,36.));
#1705=CARTESIAN_POINT('Origin',(-14.05,1.5,72.1));
#1706=CARTESIAN_POINT('',(-15.,2.6,72.1));
#1707=CARTESIAN_POINT('',(-15.,3.30625,72.1));
#1708=CARTESIAN_POINT('',(-14.05,2.6,72.1));
#1709=CARTESIAN_POINT('Origin',(-14.05,2.6,36.));
#1710=CARTESIAN_POINT('',(-15.,2.6,34.75));
#1711=CARTESIAN_POINT('Origin',(0.3,9.7,33.5));
#1712=CARTESIAN_POINT('',(-0.05,9.7,67.1));
#1713=CARTESIAN_POINT('',(-0.05,9.7,33.5));
#1714=CARTESIAN_POINT('',(0.65,9.7,67.1));
#1715=CARTESIAN_POINT('',(0.3,9.7,67.1));
#1716=CARTESIAN_POINT('',(0.65,9.7,33.5));
#1717=CARTESIAN_POINT('Origin',(0.65,22.2,33.5));
#1718=CARTESIAN_POINT('',(0.65,34.7,67.1));
#1719=CARTESIAN_POINT('',(0.65,22.2,67.1));
#1720=CARTESIAN_POINT('',(0.65,34.7,33.5));
#1721=CARTESIAN_POINT('Origin',(0.3,34.7,33.5));
#1722=CARTESIAN_POINT('',(-0.05,34.7,67.1));
#1723=CARTESIAN_POINT('',(0.3,34.7,67.1));
#1724=CARTESIAN_POINT('',(-0.05,34.7,33.5));
#1725=CARTESIAN_POINT('Origin',(0.3,22.2,67.1));
#1726=CARTESIAN_POINT('',(-0.05,22.2,67.1));
#1727=CARTESIAN_POINT('Origin',(-0.05,22.2,33.5));
#1728=CARTESIAN_POINT('',(-0.05,10.225,67.));
#1729=CARTESIAN_POINT('',(-0.05,10.225,50.25));
#1730=CARTESIAN_POINT('',(-0.05,34.225,67.));
#1731=CARTESIAN_POINT('',(-0.05,22.2125,67.));
#1732=CARTESIAN_POINT('',(-0.05,34.225,16.75));
#1733=CARTESIAN_POINT('Origin',(2.,22.225,37.));
#1734=CARTESIAN_POINT('',(2.,44.45,2.));
#1735=CARTESIAN_POINT('',(2.,0.,2.));
#1736=CARTESIAN_POINT('',(2.,22.225,2.));
#1737=CARTESIAN_POINT('',(2.,44.45,74.));
#1738=CARTESIAN_POINT('',(2.,44.45,37.));
#1739=CARTESIAN_POINT('',(2.,0.,74.));
#1740=CARTESIAN_POINT('',(2.,22.225,74.));
#1741=CARTESIAN_POINT('',(2.,0.,37.));
#1742=CARTESIAN_POINT('Origin',(15.875,44.45,0.));
#1743=CARTESIAN_POINT('',(10.875,44.45,2.));
#1744=CARTESIAN_POINT('',(15.875,44.45,2.));
#1745=CARTESIAN_POINT('',(10.875,44.45,0.));
#1746=CARTESIAN_POINT('',(-15.,44.45,74.));
#1747=CARTESIAN_POINT('',(-15.,44.45,67.));
#1748=CARTESIAN_POINT('',(-7.5,44.45,74.));
#1749=CARTESIAN_POINT('Origin',(0.,0.,0.));
#1750=CARTESIAN_POINT('',(10.875,-1.05547026873505E-32,2.));
#1751=CARTESIAN_POINT('',(10.875,0.,0.));
#1752=CARTESIAN_POINT('',(0.,0.,2.));
#1753=CARTESIAN_POINT('',(-15.,0.,74.));
#1754=CARTESIAN_POINT('',(1.,0.,74.));
#1755=CARTESIAN_POINT('',(-15.,0.,0.));
#1756=CARTESIAN_POINT('Origin',(-7.5,10.1,33.));
#1757=CARTESIAN_POINT('',(-6.50784325835078,10.1,67.));
#1758=CARTESIAN_POINT('',(-6.50784325835078,10.1,67.));
#1759=CARTESIAN_POINT('',(-2.5,10.1,67.));
#1760=CARTESIAN_POINT('',(-7.5,10.1,67.));
#1761=CARTESIAN_POINT('',(-2.5,10.1,33.));
#1762=CARTESIAN_POINT('Origin',(-7.5,10.1,33.));
#1763=CARTESIAN_POINT('',(-12.5,10.1,67.));
#1764=CARTESIAN_POINT('',(-12.5,10.1,33.));
#1765=CARTESIAN_POINT('',(-8.49215674164922,10.1,67.));
#1766=CARTESIAN_POINT('',(-7.5,10.1,67.));
#1767=CARTESIAN_POINT('',(-8.49215674164922,10.1,67.));
#1768=CARTESIAN_POINT('Origin',(-12.5,22.225,33.));
#1769=CARTESIAN_POINT('',(-12.5,34.35,67.));
#1770=CARTESIAN_POINT('',(-12.5,34.35,33.));
#1771=CARTESIAN_POINT('',(-12.5,34.225,67.));
#1772=CARTESIAN_POINT('',(-12.5,22.225,67.));
#1773=CARTESIAN_POINT('',(-12.5,34.225,16.5));
#1774=CARTESIAN_POINT('Origin',(-2.5,22.225,33.));
#1775=CARTESIAN_POINT('',(-2.5,34.225,67.));
#1776=CARTESIAN_POINT('',(-2.5,34.225,16.5));
#1777=CARTESIAN_POINT('',(-2.5,34.35,67.));
#1778=CARTESIAN_POINT('',(-2.5,22.225,67.));
#1779=CARTESIAN_POINT('',(-2.5,34.35,33.));
#1780=CARTESIAN_POINT('Origin',(-2.5,22.225,33.));
#1781=CARTESIAN_POINT('',(-2.5,10.225,67.));
#1782=CARTESIAN_POINT('',(-2.5,22.225,67.));
#1783=CARTESIAN_POINT('',(-2.5,10.225,50.));
#1784=CARTESIAN_POINT('Origin',(-7.5,34.35,33.));
#1785=CARTESIAN_POINT('',(-6.50784325835077,34.35,67.));
#1786=CARTESIAN_POINT('',(-7.5,34.35,67.));
#1787=CARTESIAN_POINT('',(-6.50784325835077,34.35,67.));
#1788=CARTESIAN_POINT('Origin',(-12.5,22.225,33.));
#1789=CARTESIAN_POINT('',(-12.5,10.225,67.));
#1790=CARTESIAN_POINT('',(-12.5,10.225,50.));
#1791=CARTESIAN_POINT('',(-12.5,22.225,67.));
#1792=CARTESIAN_POINT('Origin',(-7.5,34.35,33.));
#1793=CARTESIAN_POINT('',(-8.49215674164923,34.35,67.));
#1794=CARTESIAN_POINT('',(-8.49215674164923,34.35,67.));
#1795=CARTESIAN_POINT('',(-7.5,34.35,67.));
#1796=CARTESIAN_POINT('Origin',(-7.5,6.225,67.));
#1797=CARTESIAN_POINT('Origin',(-7.5,6.225,67.));
#1798=CARTESIAN_POINT('',(-3.5,6.225,69.));
#1799=CARTESIAN_POINT('',(-3.5,6.225,67.));
#1800=CARTESIAN_POINT('Origin',(-7.5,6.225,69.));
#1801=CARTESIAN_POINT('Origin',(0.,34.225,0.));
#1802=CARTESIAN_POINT('',(-15.,34.225,67.));
#1803=CARTESIAN_POINT('',(0.,34.225,67.));
#1804=CARTESIAN_POINT('',(-15.,34.225,67.));
#1805=CARTESIAN_POINT('Origin',(0.,10.225,67.));
#1806=CARTESIAN_POINT('',(0.,10.225,67.));
#1807=CARTESIAN_POINT('Origin',(-7.5,22.225,69.));
#1808=CARTESIAN_POINT('',(-3.5,38.225,69.));
#1809=CARTESIAN_POINT('Origin',(-7.5,38.225,69.));
#1810=CARTESIAN_POINT('Origin',(-7.5,22.225,69.));
#1811=CARTESIAN_POINT('Origin',(-7.5,22.225,74.));
#1812=CARTESIAN_POINT('',(-15.,22.225,74.));
#1813=CARTESIAN_POINT('Origin',(-7.5,22.225,67.));
#1814=CARTESIAN_POINT('',(-15.,10.225,67.));
#1815=CARTESIAN_POINT('',(0.,10.225,67.));
#1816=CARTESIAN_POINT('',(-15.,0.,67.));
#1817=CARTESIAN_POINT('Origin',(-7.5,38.225,67.));
#1818=CARTESIAN_POINT('',(0.,34.225,67.));
#1819=CARTESIAN_POINT('Origin',(-7.5,38.225,67.));
#1820=CARTESIAN_POINT('',(-3.5,38.225,67.));
#1821=CARTESIAN_POINT('Origin',(10.875,39.45,0.));
#1822=CARTESIAN_POINT('',(15.875,39.45,2.));
#1823=CARTESIAN_POINT('Origin',(10.875,39.45,2.));
#1824=CARTESIAN_POINT('',(15.875,39.45,0.));
#1825=CARTESIAN_POINT('Origin',(10.875,5.,0.));
#1826=CARTESIAN_POINT('',(15.875,5.,2.));
#1827=CARTESIAN_POINT('Origin',(10.875,5.,2.));
#1828=CARTESIAN_POINT('',(15.875,5.,0.));
#1829=CARTESIAN_POINT('Origin',(0.,10.225,67.));
#1830=CARTESIAN_POINT('',(-15.,10.225,67.));
#1831=CARTESIAN_POINT('Origin',(-15.,5.1125,33.5));
#1832=CARTESIAN_POINT('Origin',(0.,34.225,0.));
#1833=CARTESIAN_POINT('Origin',(7.9375,38.1,0.));
#1834=CARTESIAN_POINT('',(5.5375,38.1,2.));
#1835=CARTESIAN_POINT('Origin',(7.9375,38.1,2.));
#1836=CARTESIAN_POINT('',(5.5375,38.1,0.));
#1837=CARTESIAN_POINT('Origin',(7.93749999999999,6.35,0.));
#1838=CARTESIAN_POINT('',(5.53749999999999,6.35,2.));
#1839=CARTESIAN_POINT('Origin',(7.93749999999999,6.35,2.));
#1840=CARTESIAN_POINT('',(5.53749999999999,6.35,0.));
#1841=CARTESIAN_POINT('Origin',(15.875,-1.54074395550979E-32,0.));
#1842=CARTESIAN_POINT('',(15.875,-1.54074395550979E-32,2.));
#1843=CARTESIAN_POINT('Origin',(7.9375,22.225,2.));
#1844=UNCERTAINTY_MEASURE_WITH_UNIT(LENGTH_MEASURE(0.01),#1848,
'DISTANCE_ACCURACY_VALUE',
'Maximum model space distance between geometric entities at asserted c
onnectivities');
#1845=UNCERTAINTY_MEASURE_WITH_UNIT(LENGTH_MEASURE(0.01),#1848,
'DISTANCE_ACCURACY_VALUE',
'Maximum model space distance between geometric entities at asserted c
onnectivities');
#1846=(
GEOMETRIC_REPRESENTATION_CONTEXT(3)
GLOBAL_UNCERTAINTY_ASSIGNED_CONTEXT((#1844))
GLOBAL_UNIT_ASSIGNED_CONTEXT((#1848,#1850,#1851))
REPRESENTATION_CONTEXT('','3D')
);
#1847=(
GEOMETRIC_REPRESENTATION_CONTEXT(3)
GLOBAL_UNCERTAINTY_ASSIGNED_CONTEXT((#1845))
GLOBAL_UNIT_ASSIGNED_CONTEXT((#1848,#1850,#1851))
REPRESENTATION_CONTEXT('','3D')
);
#1848=(
LENGTH_UNIT()
NAMED_UNIT(*)
SI_UNIT(.MILLI.,.METRE.)
);
#1849=(
LENGTH_UNIT()
NAMED_UNIT(*)
SI_UNIT($,.METRE.)
);
#1850=(
NAMED_UNIT(*)
PLANE_ANGLE_UNIT()
SI_UNIT($,.RADIAN.)
);
#1851=(
NAMED_UNIT(*)
SI_UNIT($,.STERADIAN.)
SOLID_ANGLE_UNIT()
);
#1852=SHAPE_DEFINITION_REPRESENTATION(#1853,#1854);
#1853=PRODUCT_DEFINITION_SHAPE('',$,#1856);
#1854=SHAPE_REPRESENTATION('',(#1144),#1846);
#1855=PRODUCT_DEFINITION_CONTEXT('part definition',#1860,'design');
#1856=PRODUCT_DEFINITION('2026-08-23-15-35-16-343','(Unsaved)',#1857,#1855);
#1857=PRODUCT_DEFINITION_FORMATION('',$,#1862);
#1858=PRODUCT_RELATED_PRODUCT_CATEGORY('(Unsaved)','(Unsaved)',(#1862));
#1859=APPLICATION_PROTOCOL_DEFINITION('international standard',
'automotive_design',2009,#1860);
#1860=APPLICATION_CONTEXT(
'Core Data for Automotive Mechanical Design Process');
#1861=PRODUCT_CONTEXT('part definition',#1860,'mechanical');
#1862=PRODUCT('2026-08-23-15-35-16-343','(Unsaved)',$,(#1861));
#1863=PRESENTATION_STYLE_ASSIGNMENT((#1864));
#1864=SURFACE_STYLE_USAGE(.BOTH.,#1865);
#1865=SURFACE_SIDE_STYLE('',(#1866));
#1866=SURFACE_STYLE_FILL_AREA(#1867);
#1867=FILL_AREA_STYLE('Steel - Satin',(#1868));
#1868=FILL_AREA_STYLE_COLOUR('Steel - Satin',#1869);
#1869=COLOUR_RGB('Steel - Satin',0.627450980392157,0.627450980392157,0.627450980392157);
ENDSEC;
END-ISO-10303-21;
